<?xml version="1.0" encoding="UTF-8" standalone="no"?>
<!DOCTYPE svg PUBLIC "-//W3C//DTD SVG 1.1//EN"
"http://www.w3.org/Graphics/SVG/1.1/DTD/svg11.dtd">


<!-- Page 11 -->
<svg x="0" y="0" width="2933" height="1650" viewBox="0 0 2933 1650" version="1.1" xmlns="http://www.w3.org/2000/svg" xmlns:xlink="http://www.w3.org/1999/xlink"
style="display: block;margin-left: auto;margin-right: auto;">
<defs>
<clipPath id="c0_11"><path d="M59.6,97.8l0,-55l288.7,0l0,55Z" /></clipPath>
<clipPath id="c1_11"><path d="M1200.8,617.2l0,-137.5l722.7,0l0,137.5Z" /></clipPath>
<clipPath id="c2_11"><path d="M345.4,1141.3c-0.3,-0.2,-0.6,-0.3,-0.9,-0.6l-3.2,-3.2c-0.4,-0.4,-0.6,-0.9,-0.6,-1.5c0,-0.7,0.2,-1.2,0.6,-1.6l6.9,-6.9l-6.9,-6.8c-0.4,-0.4,-0.6,-0.9,-0.6,-1.6c0,-0.6,0.2,-1.1,0.6,-1.5l3.2,-3.2c0.2,-0.2,0.4,-0.4,0.7,-0.5l1.8,0c0.2,0.1,0.5,0.3,0.7,0.5l6.8,6.8l6.8,-6.8c0.2,-0.2,0.4,-0.4,0.7,-0.5l1.8,0c0.2,0.1,0.5,0.3,0.7,0.5l3.1,3.2c0.2,0.1,0.3,0.3,0.4,0.4l0,2.2c-0.1,0.2,-0.2,0.4,-0.4,0.5l-6.8,6.8l6.8,6.9c0.2,0.1,0.3,0.3,0.4,0.5l0,2.1c-0.1,0.2,-0.2,0.4,-0.4,0.5l-3.1,3.2c-0.3,0.3,-0.6,0.4,-1,0.6l-1.3,0c-0.3,-0.2,-0.6,-0.3,-0.9,-0.6l-6.8,-6.8l-6.8,6.8c-0.3,0.3,-0.6,0.4,-1,0.6Z" /></clipPath>
<clipPath id="c3_11"><path d="M350.5,385c-0.6,0,-1.1,-0.2,-1.5,-0.6L338.4,373.6l0,-3.2l2.8,-2.9c0.4,-0.4,0.9,-0.6,1.5,-0.6c0.5,0,1,0.2,1.4,0.6l6.4,6.5l14.2,-14.4c0.1,-0.1,0.3,-0.2,0.5,-0.3l2,0c0.1,0.1,0.3,0.2,0.4,0.3l3,3c0.4,0.4,0.6,0.9,0.6,1.5c0,0.6,-0.2,1.1,-0.6,1.5L352,384.4c-0.4,0.4,-0.9,0.6,-1.5,0.6Z" /></clipPath>
<clipPath id="c4_11"><path d="M1351.1,1268.7c6,0,8.5,-3.3,11.5,-8.7c2.9,-6.3,4.6,-15.6,4.6,-25.8c0,-9.9,-1.6,-18.9,-4.5,-25.2c-2.8,-5.7,-5.7,-9.2,-11.6,-9.2l-12.9,0l0,68.9Zm-18.4,10.6l0,-90.1l18.6,0c7.8,0,12.2,4.8,15.9,12.6c3.8,8.1,5.9,19.6,5.9,32.4c0,13.1,-2.3,25.1,-6.2,33.3c-3.8,7.4,-7.8,11.8,-15.6,11.8Z" /></clipPath>
<clipPath id="c5_11"><path d="M1419.3,1279.3l0,-90.1l5.6,0l0,79.5l26.4,0l0,10.6Z" /></clipPath>
<clipPath id="c6_11"><path d="M1460.6,1279.3l0,-79.5l-16.3,0l0,-10.6l38.2,0l0,10.6l-16.3,0l0,79.5Z" /></clipPath>
<clipPath id="c7_11"><path d="M1316.9,1298.3l0,-128l2.9,0l0,128Z" /></clipPath>
<clipPath id="c8_11"><path d="M1285.1,1281.7c-13.1,0,-23.2,-21.3,-23.2,-47.5c0,-26.2,10.1,-47.3,23,-47.3c6.6,0,13.4,5.4,18.8,15.1l-3.9,7.5c-3.7,-7.5,-9.6,-12,-14.9,-12c-9.9,0,-17.2,16.6,-17.2,36.8c0,19.4,6.7,36.8,17.8,36.8c4.9,0,10.3,-3.4,13.5,-8.9l0,-22.6l-13.6,0l0,-5.3l0,-5.3l18.7,0l0,39c-5.1,8.4,-12.3,13.7,-19,13.7Z" /></clipPath>
<clipPath id="c9_11"><path d="M1378.3,1279.3l0,-90.1l33.7,0l0,10.6l-28.1,0l0,29.2l17,0l0,5.3l0,5.3l-17,0l0,29.1l29.6,0l0,10.6Z" /></clipPath>
<clipPath id="c10_11"><path d="M1214.6,1279.3l0,0l24.2,-90.1l1.7,0l24.2,90.1l-5.9,0L1239.6,1208l-9.3,34.6l9.3,0l0,9.7l-11.8,0l-7.3,27Z" /></clipPath>
<clipPath id="c11_11"><path d="M1477.2,1279.3l24.2,-90.1l1.7,0l24.2,90.1l-5.9,0l-7.3,-27l-11.8,0l0,-9.7l9.2,0l-9.3,-34.6l-19.1,71.3Z" /></clipPath>
<clipPath id="c12_11"><path d="M1902.5,1367.7c7,0,9.9,-1,13.3,-2.5c3.4,-1.8,5.4,-4.4,5.4,-7.3c0,-2.8,-1.8,-5.3,-5.2,-7.1c-3.3,-1.6,-6.6,-2.6,-13.5,-2.6l-14.8,0l0,19.5Zm-21.3,3l0,-25.5l21.5,0c9.1,0,14.1,1.4,18.5,3.6c4.3,2.3,6.8,5.5,6.8,9.1c0,3.7,-2.6,7.1,-7.2,9.4c-4.4,2.1,-9,3.4,-18.1,3.4Z" /></clipPath>
<clipPath id="c13_11"><path d="M1981.4,1370.7l0,-25.5l6.5,0l0,22.5l30.5,0l0,3Z" /></clipPath>
<clipPath id="c14_11"><path d="M2029.2,1370.7l0,-22.5l-18.9,0l0,-3l44.1,0l0,3l-18.8,0l0,22.5Z" /></clipPath>
<clipPath id="c15_11"><path d="M1863,1376l0,-36.1l3.4,0l0,36.1Z" /></clipPath>
<clipPath id="c16_11"><path d="M1826.3,1371.3c-15.2,0,-26.9,-6,-26.9,-13.4c0,-7.4,11.8,-13.4,26.6,-13.4c7.6,0,15.5,1.6,21.7,4.3l-4.4,2.1c-4.3,-2.1,-11.2,-3.4,-17.2,-3.4c-11.5,0,-19.9,4.7,-19.9,10.5c0,5.4,7.7,10.3,20.5,10.3c5.7,0,11.9,-0.9,15.6,-2.5l0,-6.4l-15.7,0l0,-1.5l0,-1.5l21.6,0l0,11.1c-5.9,2.3,-14.2,3.8,-21.9,3.8Z" /></clipPath>
<clipPath id="c17_11"><path d="M1934,1370.7l0,-25.5l39,0l0,3l-32.5,0l0,8.2l19.6,0l0,1.5l0,1.5l-19.6,0l0,8.3l34.2,0l0,3Z" /></clipPath>
<clipPath id="c18_11"><path d="M1744.7,1370.7l28,-25.5l2,0l28,25.5l-6.9,0l-22.1,-20.2l-10.8,9.8l10.8,0l0,2.7l-13.8,0l-8.3,7.7Z" /></clipPath>
<clipPath id="c19_11"><path d="M2048.3,1370.7l28,-25.5l2,0l27.9,25.5l-6.8,0L2091,1363l-13.7,0l0,-2.7l10.7,0l-10.7,-9.8l-22.2,20.2Z" /></clipPath>
<clipPath id="c20_11"><path d="M2287.1,576l0,-62.7l323.9,0l0,62.7Z" /></clipPath>
<clipPath id="c21_11"><path d="M2509.2,1232c2.2,0,4,-0.5,6,-1.3c3.9,-1.9,7.1,-5.5,8.7,-10.1c1.6,-4.5,1.5,-9.2,-0.3,-13c-1.9,-3.6,-4.1,-6.2,-10,-8.2l-12.6,-4.5l-11,31.3l12.6,4.5c2.7,0.9,4.8,1.3,6.6,1.3Zm1,5.4c-2.6,0,-5.6,-0.6,-9.1,-1.8l-18.3,-6.5l14.5,-40.9l18.2,6.4c7.7,2.7,11.2,6.4,13.6,11.2c2.4,5,2.6,11,0.6,16.8c-2.1,6,-6.3,10.6,-11.4,13c-2.6,1.1,-5.2,1.8,-8.1,1.8Z" /></clipPath>
<clipPath id="c22_11"><path d="M2599.1,1270.2l-31.4,-11.1l14.5,-41l5.5,2l-12.8,36.1l25.9,9.1l-1.7,4.9Z" /></clipPath>
<clipPath id="c23_11"><path d="M2613.7,1275.3l-5.5,-1.9l12.8,-36.1l-16,-5.7l1.7,-4.8l37.4,13.2l-1.7,4.8l-15.9,-5.6l-12.8,36.1Z" /></clipPath>
<clipPath id="c24_11"><path d="M2467.2,1233.3l-2.8,-1l-0.1,0l20.6,-58.2l2.8,1l-20.5,58.2Z" /></clipPath>
<clipPath id="c25_11"><path d="M2446.9,1215.6c-3.8,0,-7.6,-0.6,-11,-1.8c-12.9,-4.6,-19.4,-17.7,-15.2,-29.6c3.3,-9.3,12.1,-15.1,21.8,-15.1c2.7,0,5.6,0.5,8.3,1.5c6.5,2.3,12.3,7.1,16,13.4l-4.9,2.1c-2.5,-4.7,-7.5,-8.8,-12.7,-10.7c-2.1,-0.7,-4.2,-1,-6.2,-1c-7.4,0,-14,4.6,-16.6,11.8c-3.1,8.8,0.7,19,11.5,22.9c2.8,0.9,6,1.5,8.9,1.5c2.1,0,4.1,-0.3,5.8,-0.9l3.6,-10.3l-13.3,-4.7l0.8,-2.4l0.9,-2.4l18.3,6.5l-6.3,17.7c-3,1,-6.3,1.5,-9.7,1.5Z" /></clipPath>
<clipPath id="c26_11"><path d="M2562,1257.1l-34.4,-12.2L2542,1204l33,11.6l-1.7,4.8l-27.5,-9.7l-4.7,13.3l16.6,5.8l-0.8,2.4l-0.9,2.5l-16.6,-5.9l-4.6,13.2l28.9,10.3l-1.7,4.8Z" /></clipPath>
<clipPath id="c27_11"><path d="M2416.2,1205.6l0,0l-5.8,-2l-7.3,-39l-14.6,12.5l9.1,3.2l-1.6,4.4l-11.6,-4.1l-11.5,9.8l-5.7,-2.1l-0.1,0l38.2,-32.6l1.7,0.6l9.2,49.3Z" /></clipPath>
<clipPath id="c28_11"><path d="M2673.5,1296.4l0,0l-5.8,-2l-2.7,-14.8l-11.6,-4.1l1.5,-4.4l9.1,3.2l-3.6,-19l-30.2,25.8l-5.7,-2l-0.1,0l38.2,-32.6l1.7,0.6l9.2,49.3Z" /></clipPath>

<style type="text/css"><![CDATA[

.g1_11{
fill: #FFFFFF;
}
.g2_11{
fill: none;
stroke: #A6AAA9;
stroke-width: 1.5277778;
stroke-linecap: butt;
stroke-linejoin: miter;
stroke-miterlimit: 4;
stroke-dasharray: 4,4;
}
.g3_11{
fill: none;
stroke: #DCDEE0;
stroke-width: 1.5277778;
stroke-linecap: butt;
stroke-linejoin: miter;
stroke-miterlimit: 4;
}
.g4_11{
}
.g5_11{
fill: #E61E19;
}
.g6_11{
fill: none;
stroke: #53585F;
stroke-width: 3.0555556;
stroke-linecap: butt;
stroke-linejoin: round;
stroke-miterlimit: 4;
stroke-dasharray: 4,7;
}
.g7_11{
fill: none;
stroke: #EC5D57;
stroke-width: 3.0555556;
stroke-linecap: butt;
stroke-linejoin: round;
stroke-miterlimit: 4;
stroke-dasharray: 4,7;
}
.g8_11{
fill: #C82506;
}
.g9_11{
fill: #70BF41;
}
.g10_11{
fill: none;
stroke: #53585F;
stroke-width: 1.5277778;
stroke-linecap: butt;
stroke-linejoin: round;
stroke-miterlimit: 4;
stroke-dasharray: 2,4;
}
.g11_11{
fill: #EC5D57;
}
.g12_11{
fill: none;
stroke: #EC5D57;
stroke-width: 1.4279679;
stroke-linecap: butt;
stroke-linejoin: miter;
stroke-miterlimit: 4;
}
.g13_11{
fill: none;
stroke: #EC5D57;
stroke-width: 1.5277778;
stroke-linecap: butt;
stroke-linejoin: miter;
stroke-miterlimit: 4;
}

.s1_11{
font-size: 18.33px;
font-family: Helvetica-Light_9;
fill: #000000;
}
.s2_11{
font-size: 27.50px;
font-family: Helvetica-Light_9;
fill: #53585F;
}
.s3_11{
font-size: 76.39px;
font-family: SofiaProLight_8;
fill: #000000;
}
.s4_11{
font-size: 76.39px;
font-family: SofiaProBold_q;
fill: #C82506;
}
.s5_11{
font-size: 38.19px;
font-family: SofiaProLight_8;
fill: #53585F;
}
.s6_11{
font-size: 76.39px;
font-family: SofiaProBold_q;
fill: #70BF41;
}
.s7_11{
font-size: 35.52px;
font-family: SofiaProLight_8;
fill: #53585F;
}

]]></style>

</defs>
<path d="M0,0
L0,1650
L2933,1650
L2933,0 Z " 
fill="#FFFFFF" stroke="none" />
<path d="M0,1650l2933.3,0l0,-1650L0,0L0,1650Z" class="g1_11" />
<text 
x="127" 
y="123" 
dx="0,0,0,0,0,0,0,0,0,0,0,0,0,0,0,0,0,0,0,0,0,0,0,0" 
class="s1_11"
>Brand Design Guide 2017 </text>

<path d="M387.6,161.3l0,-137.5" class="g2_11" />
<path d="M4.5,1564.2l2924.4,0" class="g3_11" />
<path d="M196.2,81.3c-2.7,2.4,-5,3.8,-10.6,3.8l-11.8,0l0,-29.6l11.8,0c5.5,0,8.1,1.5,10.8,3.9c2.7,2.7,4.2,6.6,4.2,10.8c0,4.4,-1.6,8.4,-4.4,11.1M185.8,50.9l-17.2,0l0,38.7l17.2,0c7.2,0,10.9,-1.9,14.5,-5.1c3.6,-3.5,5.6,-8.6,5.6,-14.3c0,-5.5,-1.9,-10.4,-5.3,-13.9C197.1,53,193,50.9,185.8,50.9Z" class="g4_11" />
<path d="M253.8,50.9l-5.1,0l0,38.7l29.5,0l0,-4.5l-24.4,0Z" class="g4_11" />
<path d="M307,50.9l-35.2,0l0,4.6l15,0l0,34.1l5.2,0l0,-34.1l15,0Z" class="g4_11" />
<g clip-path="url(#c0_11)">
<path d="M154.1,97.8l2.7,0l0,-55l-2.7,0l0,55Z" class="g5_11" />
</g>
<path d="M125,70.3l0,2.3l12.5,0l0,9.7c-2.9,2.4,-7.9,3.8,-12.5,3.8c-10.2,0,-16.3,-7.5,-16.3,-15.8c0,-8.7,6.7,-15.8,15.9,-15.8c4.8,0,10.3,1.9,13.7,5.1l3.6,-3.2c-5,-4.2,-11.3,-6.5,-17.4,-6.5c-11.9,0,-21.2,9.1,-21.2,20.3c0,11.3,9.3,20.4,21.4,20.4c6.2,0,12.8,-2.2,17.5,-5.8l0,-16.8L125,68Z" class="g4_11" />
<path d="M215.9,72.6l15.7,0l0,-2.3l0,-2.3l-15.7,0l0,-12.5l26,0l0,-4.6l-31.1,0l0,38.7l32.5,0l0,-4.5l-27.4,0Z" class="g4_11" />
<g clip-path="url(#c0_11)">
<path d="M81.9,50.9L59.6,89.6l5.4,0L71.7,78l11,0l0,-4.1l-8.6,0L82.7,59l17.7,30.6l5.4,0l0.1,0L83.5,50.9Z" class="g4_11" />
<path d="M326,50.9l-1.6,0L302.1,89.6l5.4,0L325.2,59l8.6,14.9l-8.6,0l0,4.1l11,0l6.7,11.6l5.4,0Z" class="g4_11" />
</g>
<path d="M1.3,180.1l2924.4,0" class="g2_11" />
<text 
x="44" 
y="1610" 
dx="0,0,0,0,0,0,0,0,0,0,0,0,0,0,0,0,0,0,0,0,0,0,0,0,0,0,0,0,0,0,0,0,0,0" 
class="s2_11"
>Copyright © 2017 AG Delta Pte Ltd.</text>

<path d="M1736.1,1069l378.9,0l0,335l-378.9,0Z" class="g1_11" />
<path d="M1736.1,1069l378.9,0l0,335l-378.9,0Z" class="g6_11" />
<path d="M1168.9,459.6l773,0l0,171.9l-773,0Z" class="g1_11" />
<path d="M1168.9,459.6l773,0l0,171.9l-773,0Z" class="g7_11" />
<text 
x="2853" 
y="1610" 
dx="0,0" 
class="s2_11"
>11</text>

<text 
x="435" 
y="120" 
dx="0,-1,0,0,0,0,-1,0,0,0,0,0,0,0,0,-0.5,0,0,0,-0.7,0,0,0,0,0,0,0,0,0,0,0,0,0,0,0,0,0,-0.5,-1.1,0,0,0,0,0,0,0,0" 
class="s3_11"
>Logo Lookup - Maintaining Shape and Proportions</text>

<path d="M1542.8,576.1c-6.8,5.8,-12.6,9.4,-26.5,9.4l-29.7,0l0,-74l29.7,0c13.7,0,20.3,3.7,26.9,9.8c6.7,6.8,10.4,16.4,10.4,27.1c0,11,-4,20.9,-10.8,27.7m-26.1,-76l-43,0l0,96.8l43,0c18.1,0,27.3,-4.8,36.2,-12.8c9,-8.7,14.2,-21.6,14.2,-35.7c0,-13.8,-4.9,-26.1,-13.5,-34.8c-8.7,-8.3,-18.8,-13.5,-36.9,-13.5Z" class="g4_11" />
<path d="M1686.9,500.1l-12.9,0l0,96.8l74,0l0,-11.4l-61.1,0Z" class="g4_11" />
<path d="M1819.9,500.1l-88.1,0l0,11.4l37.7,0l0,85.4l12.9,0l0,-85.4l37.5,0Z" class="g4_11" />
<g clip-path="url(#c1_11)">
<path d="M1437.3,617.2l6.7,0l0,-137.5l-6.7,0l0,137.5Z" class="g5_11" />
</g>
<path d="M1364.5,548.5l0,5.7l31.4,0l0,24.3c-7.4,5.9,-19.9,9.5,-31.3,9.5c-25.5,0,-40.9,-18.7,-40.9,-39.5c0,-21.7,16.8,-39.5,39.7,-39.5c12.2,0,25.8,4.9,34.4,12.9l8.9,-8c-12.4,-10.6,-28.1,-16.4,-43.4,-16.4c-29.7,0,-53.1,22.7,-53.1,50.9c0,28.2,23.3,51,53.7,51c15.4,0,32,-5.6,43.7,-14.7l0,-41.9l-43.1,0Z" class="g4_11" />
<path d="M1592.2,554.2l39.1,0l0,-5.7l0,-5.7l-39.1,0l0,-31.3l64.9,0l0,-11.4l-77.8,0l0,96.8l81.2,0l0,-11.4l-68.3,0Z" class="g4_11" />
<g clip-path="url(#c1_11)">
<path d="M1256.7,500.1l-55.9,96.8l0.1,0l13.6,0l16.8,-29.1l27.4,0l0,-10.4l-21.4,0l21.4,-37.1l44.3,76.6l13.5,0l0.1,0l-55.9,-96.8Z" class="g4_11" />
</g>
<path d="M1867.6,500.1l-4,0l-55.9,96.8l0.1,0l13.5,0l44.3,-76.6l21.4,37.1l-21.3,0l0,10.4l27.3,0l16.8,29.1l13.6,0l0.1,0Z" class="g4_11" />
<text 
x="404" 
y="1155" 
dx="0,0,0,0,0" 
class="s4_11"
>DON’T</text>

<text 
x="404" 
y="476" 
dx="0,-3.9,0,0,0,0,0,0,-0.5,0,0,0,-0.6,0,0,-0.5,0,-0.3,0,0,0,0,0" 
class="s5_11"
>To ensure accurate and </text>

<text 
x="404" 
y="522" 
dx="0,-0.6,0,0,0,0,0,-0.3,0,0,-0.8,0,0,0,0,0,0,0,-0.3,-0.5,0,-0.9,0,0,0,-0.3,0,-2.1,0" 
class="s5_11"
>consistent use, never alter, </text>

<text 
x="404" 
y="568" 
dx="0,-0.5,-0.2,-0.3,0,-0.3,0,0,0,0,0,0,0,0,0,0,0,0,0,0,-0.9,0,0,0,-0.3,0,0,-0.2,-0.8" 
class="s5_11"
>rotate, embellish or attempt </text>

<text 
x="404" 
y="614" 
dx="0,-0.3,0,0,-0.5,0,0,0,-0.2,0,-0.5,0,0,0,0,0,0,0,0,0,0,0,0,-1.1,0,0,0,0,-0.5,0" 
class="s5_11"
>to resize the logo, make sure </text>

<text 
x="404" 
y="660" 
dx="0,0,0,0,0,0,-0.5,0,0,0,0,0,0,0,0,0,0,0,0,0,0,0,0,0,-0.8" 
class="s5_11"
>the proportions / aspect </text>

<text 
x="404" 
y="705" 
dx="0,-0.5,0,0,0,0,0,-0.5,0,0,0,0,0,-0.5,0,0,0,0,0,0,0,0,0" 
class="s5_11"
>ratio remind the same. </text>

<path d="M340.3,1100.1l29.8,0c3.6,0,5.5,0,7.4,0.6c2.2,0.8,3.8,2.5,4.6,4.6c0.6,2,0.6,3.8,0.6,7.5l0,29.8c0,3.6,0,5.4,-0.6,7.4c-0.8,2.1,-2.4,3.8,-4.6,4.6c-1.9,0.6,-3.8,0.6,-7.5,0.6l-29.7,0c-3.7,0,-5.5,0,-7.5,-0.6c-2.1,-0.8,-3.8,-2.5,-4.6,-4.6c-0.6,-2,-0.6,-3.8,-0.6,-7.5l0,-29.8c0,-3.6,0,-5.4,0.6,-7.4c0.8,-2.1,2.5,-3.8,4.6,-4.6c2,-0.6,3.8,-0.6,7.5,-0.6Z" class="g8_11" />
<g clip-path="url(#c2_11)">
<path d="M337.5,1144.5l34,0l0,-33.9l-34,0l0,33.9Z" class="g1_11" />
</g>
<path d="M340.3,344.6l29.8,0c3.6,0,5.5,0,7.4,0.6c2.2,0.8,3.8,2.5,4.6,4.6c0.6,1.9,0.6,3.8,0.6,7.5l0,29.8c0,3.6,0,5.4,-0.6,7.4c-0.8,2.1,-2.4,3.8,-4.6,4.6c-1.9,0.6,-3.8,0.6,-7.5,0.6l-29.7,0c-3.7,0,-5.5,0,-7.5,-0.6c-2.1,-0.8,-3.8,-2.5,-4.6,-4.6c-0.6,-2,-0.6,-3.8,-0.6,-7.5l0,-29.8c0,-3.6,0,-5.5,0.6,-7.4c0.8,-2.1,2.5,-3.8,4.6,-4.6c2,-0.6,3.8,-0.6,7.5,-0.6Z" class="g9_11" />
<g clip-path="url(#c3_11)">
<path d="M336.8,385.9l35.3,0l0,-27.8l-35.3,0l0,27.8Z" class="g1_11" />
</g>
<text 
x="404" 
y="400" 
dx="0,0" 
class="s6_11"
>DO</text>

<text 
x="404" 
y="1245" 
dx="0,0,0,-0.6,0,-0.7,0,0,0,-0.5,0,-0.3,0,0,-0.4,0,0,0,0,0,0,0,0,0,0,-0.7,-0.4,0,0,0,0,0,0,-0.2,0" 
class="s7_11"
>Don’t stretch the logo if the size </text>

<text 
x="404" 
y="1287" 
dx="0,0,0,0,0,-0.2,-0.7,0,0,0,0,0,0,0,-0.4,0,0,0,0,0,0,0,-1,0,-0.5,0,0,0,0,0" 
class="s7_11"
>is not ﬁtting the background. </text>

<path d="M320,905.4l2464.8,0" class="g10_11" />
<path d="M1181.6,1067.5l379,0l0,335l-379,0Z" class="g1_11" />
<path d="M1181.6,1067.5l379,0l0,335l-379,0Z" class="g6_11" />
<g clip-path="url(#c4_11)">
<path d="M1310.9,1301l83.9,0l0,-133.4l-83.9,0l0,133.4Z" class="g4_11" />
</g>
<g clip-path="url(#c5_11)">
<path d="M1397.6,1301l75.5,0l0,-133.4l-75.5,0l0,133.4Z" class="g4_11" />
</g>
<g clip-path="url(#c6_11)">
<path d="M1422.6,1301l81.6,0l0,-133.4l-81.6,0l0,133.4Z" class="g4_11" />
</g>
<g clip-path="url(#c7_11)">
<path d="M1295.1,1319.9l46.5,0l0,-171.3l-46.5,0l0,171.3Z" class="g5_11" />
</g>
<g clip-path="url(#c8_11)">
<path d="M1240.2,1303.3l85.6,0l0,-138.1l-85.6,0l0,138.1Z" class="g4_11" />
</g>
<g clip-path="url(#c9_11)">
<path d="M1356.6,1301l78.6,0l0,-133.4l-78.6,0l0,133.4Z" class="g4_11" />
</g>
<g clip-path="url(#c10_11)">
<path d="M1192.8,1301l93.6,0l0,-133.4l-93.6,0l0,133.4Z" class="g4_11" />
</g>
<g clip-path="url(#c11_11)">
<path d="M1455.4,1301l93.6,0l0,-133.4l-93.6,0l0,133.4Z" class="g4_11" />
</g>
<path d="M1736.1,1313.3l378.9,0l0,92.2l-378.9,0Z" class="g1_11" />
<path d="M1736.1,1313.3l378.9,0l0,92.2l-378.9,0Z" class="g6_11" />
<g clip-path="url(#c12_11)">
<path d="M1862.7,1389l83.7,0l0,-62.1l-83.7,0l0,62.1Z" class="g4_11" />
</g>
<g clip-path="url(#c13_11)">
<path d="M1963,1389l73.9,0l0,-62.1l-73.9,0l0,62.1Z" class="g4_11" />
</g>
<g clip-path="url(#c14_11)">
<path d="M1991.9,1389l81,0l0,-62.1l-81,0l0,62.1Z" class="g4_11" />
</g>
<g clip-path="url(#c15_11)">
<path d="M1844.5,1394.3l40.4,0l0,-72.8l-40.4,0l0,72.8Z" class="g5_11" />
</g>
<g clip-path="url(#c16_11)">
<path d="M1781,1389.7l85.6,0l0,-63.5l-85.6,0l0,63.5Z" class="g4_11" />
</g>
<g clip-path="url(#c17_11)">
<path d="M1915.6,1389l77.6,0l0,-62.1l-77.6,0l0,62.1Z" class="g4_11" />
</g>
<g clip-path="url(#c18_11)">
<path d="M1726.2,1389l94.9,0l0,-62.1l-94.9,0l0,62.1Z" class="g4_11" />
</g>
<g clip-path="url(#c19_11)">
<path d="M2029.8,1389l94.9,0l0,-62.1l-94.9,0l0,62.1Z" class="g4_11" />
</g>
<path d="M2255.8,378.1l378.9,0l0,335l-378.9,0Z" class="g1_11" />
<path d="M2255.8,378.1l378.9,0l0,335l-378.9,0Z" class="g6_11" />
<path d="M2255.8,501.3l378.9,0l0,88.5l-378.9,0Z" class="g1_11" />
<path d="M2255.8,501.3l378.9,0l0,88.5l-378.9,0Z" class="g7_11" />
<path d="M2440.4,557.2c-3.1,2.7,-5.7,4.3,-11.9,4.3l-13.3,0l0,-33.7l13.3,0c6.1,0,9.1,1.7,12.1,4.5c2.9,3.1,4.6,7.5,4.6,12.3c0,5,-1.8,9.5,-4.8,12.6m-11.7,-34.6l-19.3,0l0,44.1l19.3,0c8.1,0,12.2,-2.2,16.2,-5.8c4,-4,6.4,-9.9,6.4,-16.3c0,-6.3,-2.2,-11.9,-6.1,-15.9c-3.9,-3.7,-8.4,-6.1,-16.5,-6.1Z" class="g4_11" />
<path d="M2504.9,522.6l-5.7,0l0,44.1l33.1,0l0,-5.2l-27.4,0Z" class="g4_11" />
<path d="M2564.6,522.6l-39.5,0l0,5.2l16.9,0l0,38.9l5.7,0l0,-38.9l16.9,0Z" class="g4_11" />
<g clip-path="url(#c20_11)">
<path d="M2393.1,576l3,0l0,-62.7l-3,0l0,62.7Z" class="g5_11" />
</g>
<path d="M2360.4,544.7l0,2.6l14.1,0l0,11c-3.3,2.7,-8.9,4.4,-14,4.4c-11.4,0,-18.4,-8.6,-18.4,-18c0,-9.9,7.6,-18,17.9,-18c5.4,0,11.5,2.2,15.4,5.8l4,-3.6c-5.6,-4.8,-12.7,-7.4,-19.5,-7.4c-13.3,0,-23.8,10.3,-23.8,23.1c0,12.9,10.4,23.3,24.1,23.3c6.9,0,14.3,-2.6,19.6,-6.7l0,-19.2l-19.4,0Z" class="g4_11" />
<path d="M2462.5,547.3l17.5,0l0,-2.6l0,-2.6l-17.5,0l0,-14.3l29.1,0l0,-5.2l-34.9,0l0,44.1l36.4,0l0,-5.2l-30.6,0Z" class="g4_11" />
<path d="M2312.1,522.6l-25,44.1l6.1,0l7.5,-13.2l12.3,0l0,-4.8l-9.6,0l9.6,-16.9l19.9,34.9l6,0l0.1,0l-25.1,-44.1Z" class="g4_11" />
<path d="M2585.9,522.6l-1.8,0l-25,44.1l6.1,0L2585,531.8l9.6,16.9l-9.5,0l0,4.8l12.2,0l7.6,13.2l6,0l0.1,0Z" class="g4_11" />
<path d="M1938.9,544.6l298.8,0l1.5,0" class="g7_11" />
<path d="M2237.7,551.9l14.6,-7.3l-14.6,-7.3Z" class="g11_11" />
<path d="M2325.4,1067.4l379,0l0,335l-379,0Z" class="g1_11" />
<path d="M2325.4,1067.4l379,0l0,335l-379,0Z" class="g6_11" />
<g clip-path="url(#c21_11)">
<path d="M2469.5,1235.5l59.3,20.9l21.4,-60.6l-59.3,-20.9Z" class="g4_11" />
</g>
<g clip-path="url(#c22_11)">
<path d="M2554.4,1265.5l51.1,18l21.4,-60.6l-51.1,-18.1Z" class="g4_11" />
</g>
<g clip-path="url(#c23_11)">
<path d="M2579,1274.1l57,20.1l21.4,-60.6l-57,-20.1Z" class="g4_11" />
</g>
<g clip-path="url(#c24_11)">
<path d="M2451,1238.7l22.6,7.9l27.4,-77.8l-22.5,-8Z" class="g5_11" />
</g>
<g clip-path="url(#c25_11)">
<path d="M2399.8,1212.1l61,21.5l22.1,-62.7L2422,1149.3Z" class="g4_11" />
</g>
<g clip-path="url(#c26_11)">
<path d="M2514.3,1251.3l54.1,19.1l21.4,-60.6l-54.1,-19.1Z" class="g4_11" />
</g>
<g clip-path="url(#c27_11)">
<path d="M2353.8,1194.7l68.8,24.2l21.4,-60.6L2375.2,1134Z" class="g4_11" />
</g>
<g clip-path="url(#c28_11)">
<path d="M2611.1,1285.5l68.8,24.2l21.4,-60.6l-68.8,-24.3Z" class="g4_11" />
</g>
<path d="M2684.3,1328.5L2354.3,1203l-0.7,-0.3" class="g12_11" />
<path d="M2355.9,1198.7l-10.2,1l6.9,7.5Z" class="g11_11" />
<path d="M2685.8,1329.6l-338.3,0l-0.8,0" class="g13_11" />
<path d="M2347.5,1325.1l-9.2,4.5l9.2,4.6Z" class="g11_11" />
<path d="M1550.4,1034.3l-0.8,0l-357,0l-0.8,0" class="g13_11" />
<path d="M1188.5,1029.7l4.6,4.6l-4.6,4.6Z" class="g11_11" />
<path d="M1553.7,1038.9l-4.6,-4.6l4.6,-4.6Z" class="g11_11" />
<path d="M1689.3,1401.3l0,-0.8l0,-82.3l0,-0.7" class="g13_11" />
<path d="M1693.9,1314.2l-4.6,4.6l-4.6,-4.6Z" class="g11_11" />
<path d="M1684.7,1404.6l4.6,-4.6l4.6,4.6Z" class="g11_11" />


<!-- Any embedded fonts defined here -->
<style type="text/css" ><![CDATA[

@font-face {
	font-family: Helvetica-Light_9;
	src: url("fonts/Helvetica-Light_9.woff") format("woff");
}

@font-face {
	font-family: SofiaProLight_8;
	src: url("fonts/SofiaProLight_8.woff") format("woff");
}

@font-face {
	font-family: SofiaProBold_q;
	src: url("fonts/SofiaProBold_q.woff") format("woff");
}

]]></style>

</svg>
