<?xml version="1.0" encoding="UTF-8" standalone="no"?>
<!DOCTYPE svg PUBLIC "-//W3C//DTD SVG 1.1//EN"
"http://www.w3.org/Graphics/SVG/1.1/DTD/svg11.dtd">


<!-- Page 12 -->
<svg x="0" y="0" width="2933" height="1650" viewBox="0 0 2933 1650" version="1.1" xmlns="http://www.w3.org/2000/svg" xmlns:xlink="http://www.w3.org/1999/xlink"
style="display: block;margin-left: auto;margin-right: auto;">
<defs>
<clipPath id="c0_12"><path d="M59.6,97.8l0,-55l288.7,0l0,55Z" /></clipPath>
<clipPath id="c1_12"><path d="M345.4,1141.3c-0.3,-0.2,-0.6,-0.3,-0.9,-0.6l-3.2,-3.2c-0.4,-0.4,-0.6,-0.9,-0.6,-1.5c0,-0.7,0.2,-1.2,0.6,-1.6l6.9,-6.9l-6.9,-6.8c-0.4,-0.4,-0.6,-0.9,-0.6,-1.6c0,-0.6,0.2,-1.1,0.6,-1.5l3.2,-3.2c0.2,-0.2,0.4,-0.4,0.7,-0.5l1.8,0c0.2,0.1,0.5,0.3,0.7,0.5l6.8,6.8l6.8,-6.8c0.2,-0.2,0.4,-0.4,0.7,-0.5l1.8,0c0.2,0.1,0.5,0.3,0.7,0.5l3.1,3.2c0.2,0.1,0.3,0.3,0.4,0.4l0,2.2c-0.1,0.2,-0.2,0.4,-0.4,0.5l-6.8,6.8l6.8,6.9c0.2,0.1,0.3,0.3,0.4,0.5l0,2.1c-0.1,0.2,-0.2,0.4,-0.4,0.5l-3.1,3.2c-0.3,0.3,-0.6,0.4,-1,0.6l-1.3,0c-0.3,-0.2,-0.6,-0.3,-0.9,-0.6l-6.8,-6.8l-6.8,6.8c-0.3,0.3,-0.6,0.4,-1,0.6Z" /></clipPath>
<clipPath id="c2_12"><path d="M1216.1,1141.3l0,-96.3l499.6,0l0,96.3Z" /></clipPath>
<clipPath id="c3_12"><path d="M1633.2,528.6l0,-165l556.1,0l0,165Z" /></clipPath>
<clipPath id="c4_12"><path d="M350.5,337.6c-0.6,0,-1.1,-0.2,-1.5,-0.6L338.4,326.9l0,-3l2.8,-2.7c0.4,-0.4,0.9,-0.6,1.5,-0.6c0.5,0,1,0.2,1.4,0.6l6.4,6.1l14.2,-13.5c0.4,-0.4,0.9,-0.6,1.5,-0.6c0.5,0,1,0.2,1.4,0.6l3,2.8c0.4,0.4,0.6,0.8,0.6,1.4c0,0.5,-0.2,1,-0.6,1.4L352,337c-0.4,0.4,-0.9,0.6,-1.5,0.6Z" /></clipPath>
<clipPath id="c5_12"><path d="M1210,1456l0,-151.3l507.2,0l0,151.3Z" /></clipPath>
<clipPath id="c6_12"><path d="M2218.3,1153.5l0,-120.7l408,0l0,120.7Z" /></clipPath>

<style type="text/css"><![CDATA[

.g1_12{
fill: #FFFFFF;
}
.g2_12{
fill: none;
stroke: #A6AAA9;
stroke-width: 1.5277778;
stroke-linecap: butt;
stroke-linejoin: miter;
stroke-miterlimit: 4;
stroke-dasharray: 4,4;
}
.g3_12{
fill: none;
stroke: #DCDEE0;
stroke-width: 1.5277778;
stroke-linecap: butt;
stroke-linejoin: miter;
stroke-miterlimit: 4;
}
.g4_12{
}
.g5_12{
fill: #E61E19;
}
.g6_12{
fill: #C82506;
}
.g7_12{
fill: #70BF41;
}
.g8_12{
fill: none;
stroke: #53585F;
stroke-width: 1.5277778;
stroke-linecap: butt;
stroke-linejoin: round;
stroke-miterlimit: 4;
stroke-dasharray: 2,4;
}

.s1_12{
font-size: 18.33px;
font-family: Helvetica-Light_9;
fill: #000000;
}
.s2_12{
font-size: 27.50px;
font-family: Helvetica-Light_9;
fill: #53585F;
}
.s3_12{
font-size: 76.39px;
font-family: SofiaProBold_q;
fill: #C82506;
}
.s4_12{
font-size: 38.19px;
font-family: SofiaProLight_8;
fill: #53585F;
}
.s5_12{
font-size: 38.19px;
font-family: AbrilFatface-Regular_2x;
fill: #000000;
}
.s6_12{
font-size: 76.39px;
font-family: SofiaProBold_q;
fill: #70BF41;
}
.s7_12{
font-size: 50.42px;
font-family: SofiaProLight_8;
fill: #53585F;
}
.s8_12{
font-size: 76.39px;
font-family: SofiaProLight_8;
fill: #000000;
}

]]></style>

</defs>
<path d="M0,0
L0,1650
L2933,1650
L2933,0 Z " 
fill="#FFFFFF" stroke="none" />
<path d="M0,1650l2933.3,0l0,-1650L0,0L0,1650Z" class="g1_12" />
<text 
x="127" 
y="123" 
dx="0,0,0,0,0,0,0,0,0,0,0,0,0,0,0,0,0,0,0,0,0,0,0,0" 
class="s1_12"
>Brand Design Guide 2017 </text>

<path d="M387.6,161.3l0,-137.5" class="g2_12" />
<path d="M4.5,1564.2l2924.4,0" class="g3_12" />
<path d="M196.2,81.3c-2.7,2.4,-5,3.8,-10.6,3.8l-11.8,0l0,-29.6l11.8,0c5.5,0,8.1,1.5,10.8,3.9c2.7,2.7,4.2,6.6,4.2,10.8c0,4.4,-1.6,8.4,-4.4,11.1M185.8,50.9l-17.2,0l0,38.7l17.2,0c7.2,0,10.9,-1.9,14.5,-5.1c3.6,-3.5,5.6,-8.6,5.6,-14.3c0,-5.5,-1.9,-10.4,-5.3,-13.9C197.1,53,193,50.9,185.8,50.9Z" class="g4_12" />
<path d="M253.8,50.9l-5.1,0l0,38.7l29.5,0l0,-4.5l-24.4,0Z" class="g4_12" />
<path d="M307,50.9l-35.2,0l0,4.6l15,0l0,34.1l5.2,0l0,-34.1l15,0Z" class="g4_12" />
<g clip-path="url(#c0_12)">
<path d="M154.1,97.8l2.7,0l0,-55l-2.7,0l0,55Z" class="g5_12" />
</g>
<path d="M125,70.3l0,2.3l12.5,0l0,9.7c-2.9,2.4,-7.9,3.8,-12.5,3.8c-10.2,0,-16.3,-7.5,-16.3,-15.8c0,-8.7,6.7,-15.8,15.9,-15.8c4.8,0,10.3,1.9,13.7,5.1l3.6,-3.2c-5,-4.2,-11.3,-6.5,-17.4,-6.5c-11.9,0,-21.2,9.1,-21.2,20.3c0,11.3,9.3,20.4,21.4,20.4c6.2,0,12.8,-2.2,17.5,-5.8l0,-16.8L125,68Z" class="g4_12" />
<path d="M215.9,72.6l15.7,0l0,-2.3l0,-2.3l-15.7,0l0,-12.5l26,0l0,-4.6l-31.1,0l0,38.7l32.5,0l0,-4.5l-27.4,0Z" class="g4_12" />
<g clip-path="url(#c0_12)">
<path d="M81.9,50.9L59.6,89.6l5.4,0L71.7,78l11,0l0,-4.1l-8.6,0L82.7,59l17.7,30.6l5.4,0l0.1,0L83.5,50.9Z" class="g4_12" />
<path d="M326,50.9l-1.6,0L302.1,89.6l5.4,0L325.2,59l8.6,14.9l-8.6,0l0,4.1l11,0l6.7,11.6l5.4,0Z" class="g4_12" />
</g>
<path d="M1.3,180.1l2924.4,0" class="g2_12" />
<text 
x="44" 
y="1610" 
dx="0,0,0,0,0,0,0,0,0,0,0,0,0,0,0,0,0,0,0,0,0,0,0,0,0,0,0,0,0,0,0,0,0,0" 
class="s2_12"
>Copyright © 2017 AG Delta Pte Ltd.</text>

<text 
x="2853" 
y="1610" 
dx="0,0" 
class="s2_12"
>12</text>

<text 
x="404" 
y="1155" 
dx="0,0,0,0,0" 
class="s3_12"
>DON’T</text>

<text 
x="404" 
y="429" 
dx="0,-0.4,0,0,-0.5,0,0,0,0,0,-0.5,0,0,0,-0.9,0,0,0,0,0,0,0,0,0,0,0,0" 
class="s4_12"
>Use the proper logo+slogan </text>

<text 
x="404" 
y="475" 
dx="0,-0.5,0,0,0,0,0,0,0,0,-0.8,-1,-0.5,0,0,0,0,0,0,0,-0.5,-0.3,0,0,0,0,0,0,0,0,-0.9" 
class="s4_12"
>version if you need to add our </text>

<text 
x="404" 
y="520" 
dx="0,0,0,0,0,0,0,0,-1.2,0,0,0,0,0,0,-0.6,0,0,0,0,0,0,0,0,-0.5,-0.3,-0.3,0,-0.7,0,0,0,0,0" 
class="s4_12"
>slogan. While combining text, use </text>

<text 
x="404" 
y="566" 
dx="0,0,0,0,0,0,0,-1,0,0,0,-0.8,0,0,0,0,-1.6,0" 
class="s4_12"
>primary set only. </text>

<text 
x="404" 
y="658" 
dx="0,-0.4,0,0,0,0,-0.3,-0.3,0,-0.8,0,0,0,0,0,0,-1,0,0,0,0,0,-1,-1,0,0,0,0" 
class="s4_12"
>Use “text + logo” only when </text>

<text 
x="404" 
y="704" 
dx="0,0,0,0,0,0,0,0,0,0,-0.3,0,0,0,0,-0.5,0,0,0,0,0,0,0,0,0,0,0" 
class="s4_12"
>needed, standard should be </text>

<text 
x="404" 
y="750" 
dx="0,0,0,0,-0.2,-0.3,0,-0.6,0,0,0,0,0,-1.6" 
class="s4_12"
>typeface only.</text>

<path d="M340.3,1100.1l29.8,0c3.6,0,5.5,0,7.4,0.6c2.2,0.8,3.8,2.5,4.6,4.6c0.6,2,0.6,3.8,0.6,7.5l0,29.8c0,3.6,0,5.4,-0.6,7.4c-0.8,2.1,-2.4,3.8,-4.6,4.6c-1.9,0.6,-3.8,0.6,-7.5,0.6l-29.7,0c-3.7,0,-5.5,0,-7.5,-0.6c-2.1,-0.8,-3.8,-2.5,-4.6,-4.6c-0.6,-2,-0.6,-3.8,-0.6,-7.5l0,-29.8c0,-3.6,0,-5.4,0.6,-7.4c0.8,-2.1,2.5,-3.8,4.6,-4.6c2,-0.6,3.8,-0.6,7.5,-0.6Z" class="g6_12" />
<g clip-path="url(#c1_12)">
<path d="M337.5,1144.5l34,0l0,-33.9l-34,0l0,33.9Z" class="g1_12" />
</g>
<path d="M1452.5,1112.5c-4.7,4,-8.7,6.5,-18.3,6.5l-20.5,0l0,-51.8l20.5,0c9.5,0,14,2.6,18.6,6.9c4.6,4.8,7.2,11.5,7.2,19c0,7.7,-2.8,14.6,-7.5,19.4m-18,-53.3l-29.8,0l0,67.8l29.8,0c12.5,0,18.8,-3.3,25,-8.9c6.2,-6.1,9.8,-15.2,9.8,-25c0,-9.7,-3.3,-18.3,-9.3,-24.4c-6,-5.8,-13,-9.5,-25.5,-9.5Z" class="g4_12" />
<path d="M1552.1,1059.2l-8.9,0l0,67.8l51.2,0l0,-8l-42.3,0Z" class="g4_12" />
<path d="M1644.1,1059.2l-60.9,0l0,8l26,0l0,59.8l9,0l0,-59.8l25.9,0Z" class="g4_12" />
<g clip-path="url(#c2_12)">
<path d="M1379.6,1141.3l4.6,0l0,-96.3l-4.6,0l0,96.3Z" class="g5_12" />
</g>
<path d="M1329.2,1093.1l0,4l21.8,0l0,17c-5.1,4.2,-13.8,6.7,-21.7,6.7c-17.6,0,-28.3,-13.1,-28.3,-27.6c0,-15.3,11.6,-27.7,27.5,-27.7c8.4,0,17.9,3.4,23.8,9l6.2,-5.6c-8.7,-7.4,-19.5,-11.4,-30.1,-11.4c-20.5,0,-36.7,15.9,-36.7,35.6c0,19.7,16.1,35.7,37.1,35.7c10.7,0,22.2,-4,30.3,-10.3l0,-29.4l-29.9,0Z" class="g4_12" />
<path d="M1486.6,1097.1l27.1,0l0,-4l0,-4l-27.1,0l0,-21.9l44.9,0l0,-8l-53.8,0l0,67.8l56.2,0l0,-8l-47.3,0Z" class="g4_12" />
<g clip-path="url(#c2_12)">
<path d="M1254.8,1059.2l-38.7,67.8l0.1,0l9.4,0l11.6,-20.3l18.9,0l0,-7.3l-14.8,0l14.8,-26l30.6,53.6l9.4,0l0.1,0l-38.7,-67.8Z" class="g4_12" />
</g>
<path d="M1677,1059.2l-2.7,0l-38.7,67.8l0.1,0l9.4,0l30.6,-53.6l14.8,26l-14.8,0l0,7.3l19,0l11.6,20.3l9.3,0l0.1,0Z" class="g4_12" />
<text 
x="1318" 
y="1188" 
dx="0,0,-1.1,-1,0,0,0,0,0,0,0,0,0,0,-0.2,-1.1" 
class="s5_12"
>live in tomorrow</text>

<path d="M1896.4,438c-5.3,4.4,-9.7,7.2,-20.5,7.2l-22.8,0l0,-57.1l22.8,0c10.6,0,15.7,2.9,20.8,7.6c5.1,5.2,8,12.6,8,20.9c0,8.4,-3.1,16.1,-8.3,21.4m-20.1,-58.7l-33.1,0l0,74.7l33.1,0c13.9,0,21,-3.7,27.8,-9.9c7,-6.7,11,-16.7,11,-27.5c0,-10.7,-3.8,-20.1,-10.4,-26.9c-6.7,-6.4,-14.5,-10.4,-28.4,-10.4Z" class="g4_12" />
<path d="M2007.3,379.3l-10,0l0,74.7l57,0l0,-8.8l-47,0Z" class="g4_12" />
<path d="M2109.6,379.3l-67.8,0l0,8.8l29,0l0,65.9l9.9,0l0,-65.9l28.9,0Z" class="g4_12" />
<path d="M1815.2,469.7l5.1,0l0,-106.1l-5.1,0l0,106.1Z" class="g5_12" />
<path d="M1759.1,416.6l0,4.4l24.2,0l0,18.8c-5.7,4.6,-15.3,7.3,-24.1,7.3c-19.6,0,-31.5,-14.4,-31.5,-30.4c0,-16.8,12.9,-30.5,30.6,-30.5c9.4,0,19.9,3.7,26.5,9.9l6.9,-6.2c-9.6,-8.1,-21.7,-12.5,-33.5,-12.5c-22.8,0,-40.8,17.4,-40.8,39.2c0,21.7,17.9,39.3,41.3,39.3c11.8,0,24.6,-4.3,33.6,-11.3l0,-32.4l-33.2,0Z" class="g4_12" />
<path d="M1934.3,421l30.2,0l0,-4.4l0,-4.4l-30.2,0l0,-24.1l50,0l0,-8.8l-59.9,0l0,74.7l62.5,0l0,-8.8l-52.6,0Z" class="g4_12" />
<g clip-path="url(#c3_12)">
<path d="M1676.2,379.3l-43,74.7l0.1,0l10.4,0l12.9,-22.4l21.2,0l0,-8l-16.6,0l16.6,-28.7l34,59.1l10.4,0l0.1,0l-43,-74.7Z" class="g4_12" />
</g>
<path d="M2146.3,379.3l-3.1,0l-43,74.7l0.1,0l10.4,0l34,-59.1l16.6,28.7l-16.5,0l0,8l21.1,0l12.9,22.4l10.4,0l0.1,0Z" class="g4_12" />
<path d="M1739.6,528.1l4.8,0l0,-38l-4.8,0l0,38Z" class="g4_12" />
<path d="M1756.3,503.5l-4.7,0l0,24.6l4.7,0ZM1754,491.3c1.8,0,3.3,1.3,3.3,3.1c0,1.8,-1.5,3.1,-3.3,3.1c-1.8,0,-3.3,-1.3,-3.3,-3.1c0,-1.8,1.5,-3.1,3.3,-3.1Z" class="g4_12" />
<path d="M1765.7,503.5l7.5,18.5l7.4,-18.5l5.1,0l-10.3,24.6l0.1,0l-4.7,0l-10.2,-24.6Z" class="g4_12" />
<path d="M1807.5,513.9c-0.6,-4.1,-3.5,-6.6,-7.5,-6.6c-4,0,-7.2,2.5,-7.8,6.6Zm4.7,3.7l-20,0c0.6,4.1,3.8,6.7,8,6.7c2.9,0,5.7,-1.4,7,-3.8c1.3,0.5,2.8,1.1,4.1,1.6c-2.1,4.3,-6.5,6.5,-11.3,6.5c-7,0,-12.5,-5.1,-12.5,-12.9c0,-7.8,5.5,-12.7,12.5,-12.7c7,0,12.2,4.9,12.2,12.7c0,0.6,0,1.4,0,1.9Z" class="g4_12" />
<path d="M1836.2,503.5l-4.7,0l0,24.6l4.7,0Zm-2.4,-12.2c1.9,0,3.3,1.3,3.3,3.1c0,1.8,-1.4,3.1,-3.3,3.1c-1.8,0,-3.3,-1.3,-3.3,-3.1c0,-1.8,1.5,-3.1,3.3,-3.1Z" class="g4_12" />
<path d="M1848.2,528.1l-4.7,0l0,-24.6l4.7,0l0,3.7c1.5,-3,5,-4.2,7.7,-4.2c6.1,0,9.5,4,9.5,10.9l0,14.2l-4.8,0l0,-13.9c0,-4.1,-2.1,-6.6,-5.4,-6.6c-3.5,0,-7,2,-7,7.2Z" class="g4_12" />
<path d="M1898,503.5l0,4l-5.2,0l0,20.6l-4.8,0l0,-20.6l-4.4,0l0,-4l4.4,0l0,-9.3l4.8,0l0,9.3Z" class="g4_12" />
<path d="M1921.6,515.7c0,-4.9,-3.7,-8.1,-8.1,-8.1c-4.4,0,-8.1,3.2,-8.1,8.1c0,5,3.7,8.3,8.1,8.3c4.4,0,8.1,-3.3,8.1,-8.3m-20.9,0c0,-7.8,5.8,-12.7,12.8,-12.7c7,0,12.9,4.9,12.9,12.7c0,7.8,-5.9,12.9,-12.9,12.9c-7,0,-12.8,-5.1,-12.8,-12.9Z" class="g4_12" />
<path d="M1952.8,514.8l0,13.3l-4.7,0l0,-14c0,-4,-2.1,-6.5,-5.4,-6.5c-3.4,0,-6.8,2,-6.8,7.2l0,13.3l-4.8,0l0,-24.6l4.8,0l0,3.7c1.3,-2.8,4.8,-4,6.8,-4.1c0.9,-0.1,1.8,0,2.7,0.1c3.1,0.5,5.2,2.1,6.4,4.8c2.3,-4.4,6.1,-5,8.5,-5c6.2,0,9.5,4,9.5,10.9l0,14.2l-4.8,0l0,-13.9c0,-4.1,-2.1,-6.6,-5.6,-6.6c-4.1,0,-6.6,3.1,-6.6,7.2Z" class="g4_12" />
<path d="M1995.2,515.7c0,-4.9,-3.7,-8.1,-8.1,-8.1c-4.4,0,-8.1,3.2,-8.1,8.1c0,5,3.7,8.3,8.1,8.3c4.4,0,8.1,-3.3,8.1,-8.3m-21,0c0,-7.8,5.9,-12.7,12.9,-12.7c7,0,12.9,4.9,12.9,12.7c0,7.8,-5.9,12.9,-12.9,12.9c-7,0,-12.9,-5.1,-12.9,-12.9Z" class="g4_12" />
<path d="M2009.5,528.1l-4.8,0l0,-24.6l4.8,0l0,5.5c1.3,-4.3,3.6,-6,6.8,-6c1.8,0,3.6,0.4,4.3,0.9l-0.7,4.5c-1.4,-0.7,-2.7,-0.9,-3.7,-0.9c-4.7,0,-6.7,5.1,-6.7,11.6Z" class="g4_12" />
<path d="M2028.7,528.1l-4.8,0l0,-24.6l4.8,0l0,5.5c1.2,-4.3,3.6,-6,6.8,-6c1.7,0,3.6,0.4,4.2,0.9l-0.7,4.5c-1.3,-0.7,-2.6,-0.9,-3.6,-0.9c-4.7,0,-6.7,5.1,-6.7,11.6Z" class="g4_12" />
<path d="M2063,515.7c0,-4.9,-3.6,-8.1,-8.1,-8.1c-4.4,0,-8,3.2,-8,8.1c0,5,3.6,8.3,8,8.3c4.5,0,8.1,-3.3,8.1,-8.3m-20.9,0c0,-7.8,5.9,-12.7,12.8,-12.7c7,0,12.9,4.9,12.9,12.7c0,7.8,-5.9,12.9,-12.9,12.9c-6.9,0,-12.8,-5.1,-12.8,-12.9Z" class="g4_12" />
<path d="M2096.2,528.1L2089.5,510l-6.4,18.1l-3.9,0l-9.4,-24.6l5.1,0l6.2,17.2l6.1,-17.2l4.6,0l6.2,17.2l6.1,-17.2l5.1,0l-9.1,24.6Z" class="g4_12" />
<path d="M340.3,297.8l29.8,0c3.6,0,5.5,0,7.4,0.7c2.2,0.7,3.8,2.4,4.6,4.6c0.6,1.9,0.6,3.8,0.6,7.4l0,29.8c0,3.6,0,5.5,-0.6,7.4c-0.8,2.2,-2.4,3.9,-4.6,4.6c-1.9,0.7,-3.8,0.7,-7.5,0.7l-29.7,0c-3.7,0,-5.5,0,-7.5,-0.7c-2.1,-0.7,-3.8,-2.4,-4.6,-4.6c-0.6,-1.9,-0.6,-3.8,-0.6,-7.4l0,-29.8c0,-3.6,0,-5.5,0.6,-7.4c0.8,-2.2,2.5,-3.9,4.6,-4.6c2,-0.7,3.8,-0.7,7.5,-0.7Z" class="g7_12" />
<g clip-path="url(#c4_12)">
<path d="M336.8,338.5l35.3,0l0,-26.1l-35.3,0l0,26.1Z" class="g1_12" />
</g>
<text 
x="404" 
y="352" 
dx="0,0" 
class="s6_12"
>DO</text>

<text 
x="404" 
y="1246" 
dx="0,0,0,-0.7,0,-0.8,0,0,0,0,-0.3,0,0,0,-0.2,0,0,0,0,0,0,0,0,-0.6,-0.3,0,0,-0.7,0" 
class="s4_12"
>Don’t customize slogan font, </text>

<text 
x="404" 
y="1292" 
dx="0,0,0,-0.9,0,0,0,0,0,0,0,0,0,0,0,0,0,0,0,-0.6,0,0,0,-2.1,0" 
class="s4_12"
>nor change slogan color. </text>

<path d="M320,877.7l2464.8,0" class="g8_12" />
<path d="M1450,1372.9c-4.8,4.1,-8.8,6.6,-18.6,6.6l-20.8,0l0,-52.3l20.8,0c9.7,0,14.3,2.6,18.9,6.9c4.7,4.8,7.3,11.6,7.3,19.2c0,7.7,-2.8,14.8,-7.6,19.6m-18.3,-53.8l-30.2,0l0,68.5l30.2,0c12.7,0,19.2,-3.4,25.4,-9.1c6.4,-6.1,10,-15.3,10,-25.2c0,-9.8,-3.4,-18.5,-9.5,-24.7c-6.1,-5.8,-13.2,-9.5,-25.9,-9.5Z" class="g4_12" />
<path d="M1551.2,1319.1l-9.1,0l0,68.4l52,0l0,-8l-42.9,0Z" class="g4_12" />
<path d="M1644.5,1319.1l-61.8,0l0,8.1l26.4,0l0,60.3l9.1,0l0,-60.3l26.3,0Z" class="g4_12" />
<g clip-path="url(#c5_12)">
<path d="M1376,1401.9l4.7,0l0,-97.2l-4.7,0l0,97.2Z" class="g5_12" />
</g>
<path d="M1324.9,1353.3l0,4.1l22,0l0,17.2c-5.2,4.1,-13.9,6.7,-21.9,6.7c-17.9,0,-28.8,-13.2,-28.8,-27.9c0,-15.4,11.8,-28,27.9,-28c8.6,0,18.1,3.5,24.2,9.1l6.2,-5.6c-8.7,-7.5,-19.8,-11.6,-30.5,-11.6c-20.8,0,-37.2,16.1,-37.2,36c0,19.9,16.3,36,37.6,36c10.9,0,22.5,-4,30.7,-10.3l0,-29.7l-30.2,0Z" class="g4_12" />
<path d="M1484.7,1357.4l27.5,0l0,-4.1l0,-4l-27.5,0l0,-22.1l45.6,0l0,-8.1l-54.7,0l0,68.4l57.1,0l0,-8l-48,0Z" class="g4_12" />
<g clip-path="url(#c5_12)">
<path d="M1249.2,1319.1l-39.2,68.4l0.1,0l9.5,0l11.8,-20.5l19.2,0l0,-7.3l-15,0l15,-26.3l31.1,54.1l9.5,0l0.1,0L1252,1319.1Z" class="g4_12" />
</g>
<path d="M1678,1319.1l-2.8,0l-39.3,68.4l0.1,0l9.5,0l31.1,-54.1l15.1,26.3l-15,0l0,7.3l19.2,0l11.7,20.5l9.5,0l0.1,0Z" class="g4_12" />
<path d="M1307,1455.5l4.4,0l0,-34.8l-4.4,0l0,34.8Z" class="g5_12" />
<path d="M1322.3,1432.9l-4.3,0l0,22.6l4.3,0Zm-2.1,-11.1c1.6,0,3,1.2,3,2.8c0,1.7,-1.4,2.9,-3,2.9c-1.7,0,-3.1,-1.2,-3.1,-2.9c0,-1.6,1.4,-2.8,3.1,-2.8Z" class="g5_12" />
<path d="M1330.8,1432.9l6.9,17l6.7,-17l4.7,0l-9.4,22.6l0.1,0l-4.3,0l-9.3,-22.6Z" class="g5_12" />
<path d="M1369,1442.5c-0.6,-3.8,-3.2,-6.1,-6.8,-6.1c-3.7,0,-6.6,2.3,-7.1,6.1Zm4.2,3.4l-18.1,0c0.5,3.7,3.4,6.1,7.2,6.1c2.7,0,5.2,-1.2,6.4,-3.5c1.2,0.5,2.6,1,3.8,1.5c-1.9,3.9,-6,6,-10.3,6c-6.4,0,-11.5,-4.7,-11.5,-11.9c0,-7.1,5.1,-11.6,11.5,-11.6c6.3,0,11.1,4.5,11.1,11.6c0,0.6,0,1.3,-0.1,1.8Z" class="g5_12" />
<path d="M1395.2,1432.9l-4.4,0l0,22.6l4.4,0Zm-2.2,-11.1c1.7,0,3,1.2,3,2.8c0,1.7,-1.3,2.9,-3,2.9c-1.6,0,-3,-1.2,-3,-2.9c0,-1.6,1.4,-2.8,3,-2.8Z" class="g5_12" />
<path d="M1406.1,1455.5l-4.3,0l0,-22.6l4.3,0l0,3.4c1.4,-2.7,4.6,-3.8,7,-3.8c5.6,0,8.7,3.6,8.7,10l0,13l-4.4,0l0,-12.8c0,-3.7,-1.9,-5.9,-4.9,-5.9c-3.2,0,-6.4,1.7,-6.4,6.5Z" class="g5_12" />
<path d="M1451.6,1432.9l0,3.8l-4.8,0l0,18.8l-4.4,0l0,-18.8l-4,0l0,-3.8l4,0l0,-8.5l4.4,0l0,8.5Z" class="g5_12" />
<path d="M1473,1444.1c0,-4.5,-3.3,-7.3,-7.3,-7.3c-4.1,0,-7.4,2.8,-7.4,7.3c0,4.6,3.3,7.6,7.4,7.6c4,0,7.3,-3,7.3,-7.6m-19,0c0,-7.1,5.3,-11.6,11.7,-11.6c6.3,0,11.7,4.5,11.7,11.6c0,7.2,-5.4,11.9,-11.7,11.9c-6.4,0,-11.7,-4.7,-11.7,-11.9Z" class="g5_12" />
<path d="M1501.5,1443.3l0,12.2l-4.3,0l0,-12.8c0,-3.7,-1.9,-5.9,-4.9,-5.9c-3.1,0,-6.2,1.8,-6.2,6.5l0,12.2l-4.4,0l0,-22.6l4.4,0l0,3.4c1.2,-2.5,4.4,-3.6,6.2,-3.7c0.9,-0.1,1.7,0,2.4,0.1c2.9,0.4,4.8,1.9,5.9,4.4c2.1,-4,5.5,-4.6,7.8,-4.6c5.6,0,8.6,3.6,8.6,10l0,13l-4.4,0l0,-12.8c0,-3.7,-1.9,-5.9,-5.1,-5.9c-3.7,-0.1,-6,2.8,-6,6.5Z" class="g5_12" />
<path d="M1540.2,1444.1c0,-4.5,-3.4,-7.3,-7.4,-7.3c-4.1,0,-7.4,2.8,-7.4,7.3c0,4.6,3.3,7.6,7.4,7.6c4,0,7.4,-3,7.4,-7.6m-19.1,0c0,-7.1,5.3,-11.6,11.7,-11.6c6.3,0,11.7,4.5,11.7,11.6c0,7.2,-5.4,11.9,-11.7,11.9c-6.4,0,-11.7,-4.7,-11.7,-11.9Z" class="g5_12" />
<path d="M1553.2,1455.5l-4.3,0l0,-22.6l4.3,0l0,5.1c1.2,-4,3.3,-5.5,6.3,-5.5c1.5,0,3.2,0.4,3.8,0.8l-0.6,4.1c-1.2,-0.6,-2.4,-0.7,-3.3,-0.7c-4.4,0,-6.2,4.6,-6.2,10.6Z" class="g5_12" />
<path d="M1570.7,1455.5l-4.4,0l0,-22.6l4.4,0l0,5.1c1.1,-4,3.3,-5.5,6.2,-5.5c1.6,0,3.3,0.4,3.9,0.8l-0.7,4.1c-1.2,-0.6,-2.4,-0.7,-3.3,-0.7c-4.3,0,-6.1,4.6,-6.1,10.6Z" class="g5_12" />
<path d="M1602.1,1444.1c0,-4.5,-3.4,-7.3,-7.4,-7.3c-4.1,0,-7.4,2.8,-7.4,7.3c0,4.6,3.3,7.6,7.4,7.6c4,0,7.4,-3,7.4,-7.6m-19.1,0c0,-7.1,5.3,-11.6,11.7,-11.6c6.4,0,11.7,4.5,11.7,11.6c0,7.2,-5.3,11.9,-11.7,11.9c-6.4,0,-11.7,-4.7,-11.7,-11.9Z" class="g5_12" />
<path d="M1632.3,1455.5l-6.1,-16.6l-5.9,16.6l-3.5,0l-8.6,-22.6l4.7,0l5.6,15.8l5.6,-15.8l4.2,0l5.6,15.8l5.6,-15.8l4.7,0l-8.3,22.6Z" class="g5_12" />
<text 
x="1897" 
y="1095" 
dx="0,0,-0.6,-0.6,0,-0.7,0,0,0,-0.6" 
class="s7_12"
>powered by</text>

<path d="M2411.4,1087.2c-3.9,3.2,-7.1,5.2,-15,5.2l-16.8,0l0,-41.7l16.8,0c7.8,0,11.5,2.1,15.2,5.5c3.8,3.9,5.9,9.3,5.9,15.3c0,6.2,-2.3,11.8,-6.1,15.7m-14.8,-42.9l-24.2,0l0,54.6l24.2,0c10.2,0,15.4,-2.7,20.5,-7.2c5.1,-5,8,-12.2,8,-20.2c0,-7.8,-2.8,-14.7,-7.6,-19.6c-5,-4.7,-10.7,-7.6,-20.9,-7.6Z" class="g4_12" />
<path d="M2492.7,1044.3l-7.3,0l0,54.6l41.8,0l0,-6.5l-34.5,0Z" class="g4_12" />
<path d="M2567.8,1044.3l-49.7,0l0,6.4l21.2,0l0,48.2l7.3,0l0,-48.2l21.2,0Z" class="g4_12" />
<g clip-path="url(#c6_12)">
<path d="M2351.8,1110.3l3.8,0l0,-77.5l-3.8,0l0,77.5Z" class="g5_12" />
</g>
<path d="M2310.7,1071.6l0,3.2l17.8,0l0,13.7c-4.2,3.3,-11.3,5.4,-17.7,5.4c-14.4,0,-23.1,-10.6,-23.1,-22.3c0,-12.3,9.4,-22.3,22.4,-22.3c6.9,0,14.6,2.7,19.4,7.3l5.1,-4.6c-7.1,-5.9,-15.9,-9.2,-24.6,-9.2c-16.7,0,-29.9,12.8,-29.9,28.7c0,15.9,13.1,28.8,30.3,28.8c8.7,0,18.1,-3.2,24.7,-8.3l0,-23.7l-24.4,0Z" class="g4_12" />
<path d="M2439.2,1074.8l22.1,0l0,-3.2l0,-3.3l-22.1,0l0,-17.6l36.7,0l0,-6.4l-44,0l0,54.6l45.9,0l0,-6.5l-38.6,0Z" class="g4_12" />
<path d="M2249.9,1044.3l-31.6,54.6l0.1,0l7.6,0l9.5,-16.4l15.5,0l0,-5.9l-12.1,0l12.1,-21l25,43.3l7.6,0l0.1,0l-31.6,-54.6Z" class="g4_12" />
<path d="M2594.7,1044.3l-2.3,0l-31.5,54.6l7.7,0l25,-43.3l12.1,21l-12.1,0l0,5.9l15.5,0l9.4,16.4l7.7,0l0.1,0Z" class="g4_12" />
<path d="M2296.4,1153.1l3.5,0l0,-27.8l-3.5,0l0,27.8Z" class="g4_12" />
<path d="M2308.7,1135.1l-3.5,0l0,18l3.5,0Zm-1.8,-8.9c1.4,0,2.5,1,2.5,2.3c0,1.3,-1.1,2.2,-2.5,2.2c-1.3,0,-2.4,-0.9,-2.4,-2.2c0,-1.3,1.1,-2.3,2.4,-2.3Z" class="g4_12" />
<path d="M2315.5,1135.1l5.5,13.5l5.4,-13.5l3.8,0l-7.5,18l-3.4,0l-7.5,-18Z" class="g4_12" />
<path d="M2346.2,1142.7c-0.4,-3,-2.6,-4.8,-5.5,-4.8c-3,0,-5.3,1.8,-5.7,4.8Zm3.4,2.7l-14.6,0c0.4,3,2.8,4.9,5.8,4.9c2.2,0,4.2,-1,5.2,-2.8c0.9,0.4,2,0.8,3,1.2c-1.5,3.2,-4.8,4.8,-8.3,4.8c-5.1,0,-9.2,-3.8,-9.2,-9.5c0,-5.7,4.1,-9.3,9.2,-9.3c5.1,0,9,3.6,9,9.3c0,0.5,0,1,-0.1,1.4Z" class="g4_12" />
<path d="M2367.2,1135.1l-3.4,0l0,18l3.4,0Zm-1.7,-8.9c1.4,0,2.4,1,2.4,2.3c0,1.3,-1,2.2,-2.4,2.2c-1.3,0,-2.4,-0.9,-2.4,-2.2c0,-1.3,1.1,-2.3,2.4,-2.3Z" class="g4_12" />
<path d="M2376.1,1153.1l-3.5,0l0,-18l3.5,0l0,2.7c1.1,-2.2,3.6,-3.1,5.6,-3.1c4.5,0,6.9,2.9,6.9,8l0,10.4l-3.5,0l0,-10.2c0,-3,-1.5,-4.8,-3.9,-4.8c-2.6,0,-5.1,1.5,-5.1,5.3Z" class="g4_12" />
<path d="M2412.6,1135.1l0,3l-3.8,0l0,15l-3.5,0l0,-15l-3.3,0l0,-3l3.3,0l0,-6.8l3.5,0l0,6.8Z" class="g4_12" />
<path d="M2429.9,1144c0,-3.6,-2.7,-5.9,-6,-5.9c-3.2,0,-5.9,2.3,-5.9,5.9c0,3.7,2.7,6.1,5.9,6.1c3.3,0,6,-2.4,6,-6.1m-15.4,0c0,-5.7,4.3,-9.3,9.4,-9.3c5.2,0,9.5,3.6,9.5,9.3c0,5.7,-4.3,9.5,-9.5,9.5c-5.1,0,-9.4,-3.8,-9.4,-9.5Z" class="g4_12" />
<path d="M2452.8,1143.4l0,9.7l-3.5,0l0,-10.2c0,-3,-1.5,-4.8,-3.9,-4.8c-2.5,0,-5,1.5,-5,5.3l0,9.7l-3.5,0l0,-18l3.5,0l0,2.7c0.9,-2,3.5,-2.9,5,-3c0.7,-0.1,1.3,0,1.9,0.1c2.3,0.3,3.9,1.5,4.7,3.5c1.7,-3.2,4.5,-3.7,6.3,-3.7c4.5,0,6.9,2.9,6.9,8l0,10.4l-3.5,0l0,-10.2c0,-3,-1.5,-4.8,-4.1,-4.8c-3,0,-4.8,2.3,-4.8,5.3Z" class="g4_12" />
<path d="M2483.8,1144c0,-3.6,-2.7,-5.9,-5.9,-5.9c-3.2,0,-5.9,2.3,-5.9,5.9c0,3.7,2.7,6.1,5.9,6.1c3.2,0,5.9,-2.4,5.9,-6.1m-15.3,0c0,-5.7,4.3,-9.3,9.4,-9.3c5.1,0,9.5,3.6,9.5,9.3c0,5.7,-4.4,9.5,-9.5,9.5c-5.1,0,-9.4,-3.8,-9.4,-9.5Z" class="g4_12" />
<path d="M2494.4,1153.1l-3.6,0l0,-18l3.6,0l0,4c0.9,-3.1,2.6,-4.4,5,-4.4c1.2,0,2.6,0.4,3.1,0.7l-0.5,3.3c-1,-0.5,-2,-0.6,-2.7,-0.6c-3.5,0,-4.9,3.7,-4.9,8.4Z" class="g4_12" />
<path d="M2508.4,1153.1l-3.5,0l0,-18l3.5,0l0,4c0.9,-3.1,2.7,-4.4,5,-4.4c1.3,0,2.6,0.4,3.1,0.7l-0.5,3.3c-1,-0.5,-1.9,-0.6,-2.7,-0.6c-3.4,0,-4.9,3.7,-4.9,8.4Z" class="g4_12" />
<path d="M2533.6,1144c0,-3.6,-2.7,-5.9,-5.9,-5.9c-3.2,0,-5.9,2.3,-5.9,5.9c0,3.7,2.7,6.1,5.9,6.1c3.2,0,5.9,-2.4,5.9,-6.1m-15.3,0c0,-5.7,4.3,-9.3,9.4,-9.3c5.1,0,9.4,3.6,9.4,9.3c0,5.7,-4.3,9.5,-9.4,9.5c-5.1,0,-9.4,-3.8,-9.4,-9.5Z" class="g4_12" />
<path d="M2558,1153.1l-4.9,-13.2l-4.8,13.2l-2.8,0l-6.9,-18l3.7,0l4.5,12.6l4.6,-12.6l3.3,0l4.6,12.6l4.5,-12.6l3.7,0l-6.7,18Z" class="g4_12" />
<text 
x="435" 
y="120" 
dx="0,-1,0,0,0,0,-1,0,0,0,0,0,0,0,0,-0.8,0,0,0,0,-0.9,0,0,0,0,0,0,0,0,-1.9,0,0,0,0,0,0,0,0,0,0,0,0,0,0,0,-0.9,-0.7,-0.7,0" 
class="s8_12"
>Logo Lookup - Using the logo with additional text</text>



<!-- Any embedded fonts defined here -->
<style type="text/css" ><![CDATA[

@font-face {
	font-family: AbrilFatface-Regular_2x;
	src: url("fonts/AbrilFatface-Regular_2x.woff") format("woff");
}

@font-face {
	font-family: Helvetica-Light_9;
	src: url("fonts/Helvetica-Light_9.woff") format("woff");
}

@font-face {
	font-family: SofiaProLight_8;
	src: url("fonts/SofiaProLight_8.woff") format("woff");
}

@font-face {
	font-family: SofiaProBold_q;
	src: url("fonts/SofiaProBold_q.woff") format("woff");
}

]]></style>

</svg>
