<?xml version="1.0" encoding="UTF-8" standalone="no"?>
<!DOCTYPE svg PUBLIC "-//W3C//DTD SVG 1.1//EN"
"http://www.w3.org/Graphics/SVG/1.1/DTD/svg11.dtd">


<!-- Page 13 -->
<svg x="0" y="0" width="2933" height="1650" viewBox="0 0 2933 1650" version="1.1" xmlns="http://www.w3.org/2000/svg" xmlns:xlink="http://www.w3.org/1999/xlink"
style="display: block;margin-left: auto;margin-right: auto;">
<defs>
<clipPath id="c0_13"><path d="M59.6,97.8l0,-55l288.7,0l0,55Z" /></clipPath>
<clipPath id="c1_13"><path d="M345,1080c-0.2,-0.1,-0.3,-0.3,-0.5,-0.4l-3.2,-3.2c-0.4,-0.4,-0.6,-0.9,-0.6,-1.6c0,-0.6,0.2,-1.1,0.6,-1.5l6.9,-6.9l-6.9,-6.8c-0.4,-0.4,-0.6,-1,-0.6,-1.6c0,-0.6,0.2,-1.1,0.6,-1.6l3.2,-3.1c0.4,-0.4,1,-0.7,1.6,-0.7c0.6,0,1.1,0.3,1.6,0.7l6.8,6.8l6.8,-6.8c0.5,-0.4,1,-0.7,1.6,-0.7c0.6,0,1.1,0.3,1.6,0.7l3.1,3.1c0.2,0.2,0.3,0.4,0.4,0.5l0,2.2c-0.1,0.2,-0.2,0.4,-0.4,0.5l-6.8,6.8l6.8,6.9c0.2,0.1,0.3,0.3,0.4,0.4l0,2.2c-0.1,0.2,-0.2,0.4,-0.4,0.5l-3.1,3.2c-0.2,0.1,-0.3,0.3,-0.5,0.4l-2.2,0c-0.2,-0.1,-0.3,-0.3,-0.5,-0.4l-6.8,-6.8l-6.8,6.8c-0.2,0.1,-0.4,0.3,-0.5,0.4Z" /></clipPath>
<clipPath id="c2_13"><path d="M350.5,345.3c-0.6,0,-1.1,-0.2,-1.5,-0.7L338.4,333.9l0,-3.2l2.8,-2.9c0.4,-0.4,0.9,-0.6,1.5,-0.6c0.5,0,1,0.2,1.4,0.6l6.4,6.5L364.6,320l3.1,0l2.9,2.9c0.4,0.4,0.6,0.9,0.6,1.5c0,0.6,-0.2,1.1,-0.6,1.5L352,344.6c-0.4,0.5,-0.9,0.7,-1.5,0.7Z" /></clipPath>

<style type="text/css"><![CDATA[

.g1_13{
fill: #FFFFFF;
}
.g2_13{
fill: none;
stroke: #A6AAA9;
stroke-width: 1.5277778;
stroke-linecap: butt;
stroke-linejoin: miter;
stroke-miterlimit: 4;
stroke-dasharray: 4,4;
}
.g3_13{
fill: none;
stroke: #DCDEE0;
stroke-width: 1.5277778;
stroke-linecap: butt;
stroke-linejoin: miter;
stroke-miterlimit: 4;
}
.g4_13{
}
.g5_13{
fill: #E61E19;
}
.g6_13{
fill: #C82506;
}
.g7_13{
fill: #70BF41;
}
.g8_13{
fill: none;
stroke: #53585F;
stroke-width: 1.5277778;
stroke-linecap: butt;
stroke-linejoin: round;
stroke-miterlimit: 4;
stroke-dasharray: 2,4;
}

.s1_13{
font-size: 18.33px;
font-family: Helvetica-Light_9;
fill: #000000;
}
.s2_13{
font-size: 27.50px;
font-family: Helvetica-Light_9;
fill: #53585F;
}
.s3_13{
font-size: 76.39px;
font-family: SofiaProBold_q;
fill: #C82506;
}
.s4_13{
font-size: 38.19px;
font-family: SofiaProBold_q;
fill: #53585F;
}
.s5_13{
font-size: 38.19px;
font-family: SofiaProLight_8;
fill: #53585F;
}
.s6_13{
font-size: 76.39px;
font-family: SofiaProBold_q;
fill: #70BF41;
}
.s7_13{
font-size: 33.23px;
font-family: SofiaProLight_8;
fill: #53585F;
}
.s8_13{
font-size: 33.23px;
font-family: SofiaProLight_r;
fill: #53585F;
}
.s9_13{
font-size: 76.39px;
font-family: Helvetica-Light_9;
fill: #000000;
}
.s10_13{
font-size: 76.39px;
font-family: SofiaProLight_8;
fill: #000000;
}
.s11_13{
font-size: 67.99px;
font-family: SofiaProLight_8;
fill: #000000;
}

]]></style>

</defs>
<path d="M0,0
L0,1650
L2933,1650
L2933,0 Z " 
fill="#FFFFFF" stroke="none" />
<path d="M0,1650l2933.3,0l0,-1650L0,0L0,1650Z" class="g1_13" />
<text 
x="127" 
y="123" 
dx="0,0,0,0,0,0,0,0,0,0,0,0,0,0,0,0,0,0,0,0,0,0,0,0" 
class="s1_13"
>Brand Design Guide 2017 </text>

<path d="M387.6,161.3l0,-137.5" class="g2_13" />
<path d="M4.5,1564.2l2924.4,0" class="g3_13" />
<path d="M196.2,81.3c-2.7,2.4,-5,3.8,-10.6,3.8l-11.8,0l0,-29.6l11.8,0c5.5,0,8.1,1.5,10.8,3.9c2.7,2.7,4.2,6.6,4.2,10.8c0,4.4,-1.6,8.4,-4.4,11.1M185.8,50.9l-17.2,0l0,38.7l17.2,0c7.2,0,10.9,-1.9,14.5,-5.1c3.6,-3.5,5.6,-8.6,5.6,-14.3c0,-5.5,-1.9,-10.4,-5.3,-13.9C197.1,53,193,50.9,185.8,50.9Z" class="g4_13" />
<path d="M253.8,50.9l-5.1,0l0,38.7l29.5,0l0,-4.5l-24.4,0Z" class="g4_13" />
<path d="M307,50.9l-35.2,0l0,4.6l15,0l0,34.1l5.2,0l0,-34.1l15,0Z" class="g4_13" />
<g clip-path="url(#c0_13)">
<path d="M154.1,97.8l2.7,0l0,-55l-2.7,0l0,55Z" class="g5_13" />
</g>
<path d="M125,70.3l0,2.3l12.5,0l0,9.7c-2.9,2.4,-7.9,3.8,-12.5,3.8c-10.2,0,-16.3,-7.5,-16.3,-15.8c0,-8.7,6.7,-15.8,15.9,-15.8c4.8,0,10.3,1.9,13.7,5.1l3.6,-3.2c-5,-4.2,-11.3,-6.5,-17.4,-6.5c-11.9,0,-21.2,9.1,-21.2,20.3c0,11.3,9.3,20.4,21.4,20.4c6.2,0,12.8,-2.2,17.5,-5.8l0,-16.8L125,68Z" class="g4_13" />
<path d="M215.9,72.6l15.7,0l0,-2.3l0,-2.3l-15.7,0l0,-12.5l26,0l0,-4.6l-31.1,0l0,38.7l32.5,0l0,-4.5l-27.4,0Z" class="g4_13" />
<g clip-path="url(#c0_13)">
<path d="M81.9,50.9L59.6,89.6l5.4,0L71.7,78l11,0l0,-4.1l-8.6,0L82.7,59l17.7,30.6l5.4,0l0.1,0L83.5,50.9Z" class="g4_13" />
<path d="M326,50.9l-1.6,0L302.1,89.6l5.4,0L325.2,59l8.6,14.9l-8.6,0l0,4.1l11,0l6.7,11.6l5.4,0Z" class="g4_13" />
</g>
<path d="M1.3,180.1l2924.4,0" class="g2_13" />
<text 
x="44" 
y="1610" 
dx="0,0,0,0,0,0,0,0,0,0,0,0,0,0,0,0,0,0,0,0,0,0,0,0,0,0,0,0,0,0,0,0,0,0" 
class="s2_13"
>Copyright © 2017 AG Delta Pte Ltd.</text>

<text 
x="2853" 
y="1610" 
dx="0,0" 
class="s2_13"
>13</text>

<text 
x="404" 
y="1093" 
dx="0,0,0,0,0" 
class="s3_13"
>DON’T</text>

<text 
x="404" 
y="424" 
dx="0,-0.4,0,0,0,0,0,0" 
class="s4_13"
>Normal: </text>

<text 
x="404" 
y="470" 
dx="0,-1.2,0,0,0,0,0,-0.5,-0.6,0,0,0,0,0,0,0,0,0,0,0,-0.5,-0.6,0,0,0,0" 
class="s5_13"
>A uppercase, G uppercase, </text>

<text 
x="404" 
y="516" 
dx="0,0,0,0,-0.3,0,0,0,0,0,0,0,0,0,-0.5,-0.6,0,0,0,0,0,0,0,-1.6,0" 
class="s5_13"
>Delta, D uppercase only. </text>

<text 
x="404" 
y="562" 
dx="0,-0.2,0,0,0,0,0,0,0,0,0,-0.6,0,0,0,0,0,-0.4,0,0,0,-1.2,-0.6,0,0,0,0,0,0,0,0,0,-0.3,0,0" 
class="s5_13"
>Single space between AG and Delta. </text>

<text 
x="404" 
y="653" 
dx="0,-0.3,0,0,0,-0.3,-0.2,0,0,0,0" 
class="s4_13"
>Uppercase: </text>

<text 
x="616" 
y="653" 
dx="0,0,0,-1.1,0,0,0,0,0,-0.3,0,0,-1,0,0,0,0,0,0,0,0,-1,0,0,0,0,0,0,0,0,0,0,0" 
class="s5_13"
>ALL Capital will only be used in </text>

<text 
x="404" 
y="699" 
dx="0,0,0,0,0,-0.3,-0.5,0,0,-0.8,0,0,-0.8,0,0,0,0,0,-0.5,0,0,0,0,-0.5,0,0,-0.5,0,0,0,0,0,0,0,0,0,0,0,-0.5,-0.6,0,0,0" 
class="s5_13"
>the event if entire paragraph is uppercase.</text>

<path d="M340.3,1038.7l29.8,0c3.6,0,5.5,0,7.4,0.6c2.2,0.8,3.8,2.5,4.6,4.6c0.6,2,0.6,3.8,0.6,7.5l0,29.8c0,3.6,0,5.4,-0.6,7.4c-0.8,2.1,-2.4,3.8,-4.6,4.6c-1.9,0.6,-3.8,0.6,-7.5,0.6l-29.7,0c-3.7,0,-5.5,0,-7.5,-0.6c-2.1,-0.8,-3.8,-2.5,-4.6,-4.6c-0.6,-2,-0.6,-3.8,-0.6,-7.5l0,-29.8c0,-3.6,0,-5.4,0.6,-7.4c0.8,-2.1,2.5,-3.8,4.6,-4.6c2,-0.6,3.8,-0.6,7.5,-0.6Z" class="g6_13" />
<g clip-path="url(#c1_13)">
<path d="M337.5,1083.4l34,0l0,-34l-34,0l0,34Z" class="g1_13" />
</g>
<path d="M340.3,305.3l29.8,0c3.6,0,5.5,0,7.4,0.6c2.2,0.8,3.8,2.5,4.6,4.6c0.6,2,0.6,3.8,0.6,7.5l0,29.8c0,3.6,0,5.4,-0.6,7.4c-0.8,2.1,-2.4,3.8,-4.6,4.6c-1.9,0.6,-3.8,0.6,-7.5,0.6l-29.7,0c-3.7,0,-5.5,0,-7.5,-0.6c-2.1,-0.8,-3.8,-2.5,-4.6,-4.6c-0.6,-2,-0.6,-3.8,-0.6,-7.5l0,-29.8c0,-3.6,0,-5.4,0.6,-7.4c0.8,-2.1,2.5,-3.8,4.6,-4.6c2,-0.6,3.8,-0.6,7.5,-0.6Z" class="g7_13" />
<g clip-path="url(#c2_13)">
<path d="M336.8,346.1l35.3,0l0,-27.7l-35.3,0l0,27.7Z" class="g1_13" />
</g>
<text 
x="404" 
y="360" 
dx="0,0" 
class="s6_13"
>DO</text>

<text 
x="404" 
y="1179" 
dx="0,0,0,-0.6,0,-0.7,0,0,0,0,0,0,0,0,0,0,0,0,-0.4,0,0,0,0,0,0,0,0,0,0,-0.7,0" 
class="s7_13"
>Don’t add “|” between G and D. </text>

<text 
x="404" 
y="1217" 
dx="0,0,0,-0.6,0,-0.7,0,0,0,0,0,0,0,0,0,0,0,0,-0.5,-0.5,0,0,0,0,0,-0.8" 
class="s7_13"
>Don’t change uppercase or </text>

<text 
x="404" 
y="1255" 
dx="0,0,-0.4,-0.4,0,-0.5,-0.5,0,0,0,0,-0.5,0,0,0,0,0,0,-1.4,0" 
class="s7_13"
>lowercase randomly. </text>

<text 
x="404" 
y="1294" 
dx="0,0,0,-0.6,0,-0.7,0,0,0,0,0,0,0,0,0,-0.3,0,0,-0.7,0,0,0,0" 
class="s7_13"
>Don’t use shortcut in o</text>

<text 
x="735" 
y="1294" 
dx="0" 
class="s8_13"
>ﬃ</text>

<text 
x="766" 
y="1294" 
dx="0,0,0,0,0,0,0,0,0,0" 
class="s7_13"
>cial use. </text>

<path d="M320,773l2464.8,0" class="g8_13" />
<text 
x="1321" 
y="1121" 
dx="0,0,0,0,0,0,0,0" 
class="s9_13"
>AG|Delta</text>

<text 
x="1316" 
y="527" 
dx="0,-1.2,0,0,0,0,-6.2,-4.4" 
class="s10_13"
>AG DELTA</text>

<text 
x="1321" 
y="1272" 
dx="0,0,0,0,0,0,0" 
class="s9_13"
>agdelta</text>

<text 
x="1821" 
y="1272" 
dx="0,0,0,0,0,0,0,0" 
class="s9_13"
>AG delta</text>

<text 
x="2316" 
y="1272" 
dx="0,0,0,0,0,0,0" 
class="s9_13"
>Agdelta</text>

<text 
x="1316" 
y="394" 
dx="0,-1.2,0,0,0,0,0,-0.7" 
class="s10_13"
>AG Delta</text>

<text 
x="435" 
y="120" 
dx="0,-1,0,0,0,0,-1,0,0,0,0,0,0,0,0,0,-1.9,-2.1,0,0,0,0,0,0,0,0,-1.4,0,0" 
class="s10_13"
>Logo Lookup - Do’s and Don’ts</text>

<text 
x="1831" 
y="1121" 
dx="0,0,0,0,0,0,0,0" 
class="s9_13"
>ag|delta</text>

<text 
x="2313" 
y="1121" 
dx="0,0,0" 
class="s9_13"
>AGD</text>

<text 
x="1315" 
y="1437" 
dx="0,0,-0.7,-0.7,0,-1,0,0,0,-0.8,-1.7,-2.1,-1.1,0,0,0,0,-5.5,-3.9" 
class="s11_13"
>powered by AG DELTA</text>

<text 
x="1897" 
y="392" 
dx="0,-1.5,-0.8,-0.8,0,-1.1,0,0,0,-0.9,-1.9,-2.4,-1.2,0,0,0,0,0,-0.7" 
class="s10_13"
>Powered by AG Delta</text>

<text 
x="1897" 
y="525" 
dx="0,0,-1.1,0,0,0,0,0,0,-2.2,-3,-2.4,-1.2,0,0,0,0,-6.2,-4.4" 
class="s10_13"
>POWERED BY AG DELTA</text>



<!-- Any embedded fonts defined here -->
<style type="text/css" ><![CDATA[

@font-face {
	font-family: SofiaProLight_r;
	src: url("fonts/SofiaProLight_r.woff") format("woff");
}

@font-face {
	font-family: Helvetica-Light_9;
	src: url("fonts/Helvetica-Light_9.woff") format("woff");
}

@font-face {
	font-family: SofiaProLight_8;
	src: url("fonts/SofiaProLight_8.woff") format("woff");
}

@font-face {
	font-family: SofiaProBold_q;
	src: url("fonts/SofiaProBold_q.woff") format("woff");
}

]]></style>

</svg>
