<?xml version="1.0" encoding="UTF-8" standalone="no"?>
<!DOCTYPE svg PUBLIC "-//W3C//DTD SVG 1.1//EN"
"http://www.w3.org/Graphics/SVG/1.1/DTD/svg11.dtd">


<!-- Page 24 -->
<svg x="0" y="0" width="2933" height="1650" viewBox="0 0 2933 1650" version="1.1" xmlns="http://www.w3.org/2000/svg" xmlns:xlink="http://www.w3.org/1999/xlink"
style="display: block;margin-left: auto;margin-right: auto;">
<defs>
<clipPath id="c0_24"><path d="M59.6,97.8l0,-55l288.7,0l0,55Z" /></clipPath>
<clipPath id="c1_24"><path d="M1588.9,1471.3l0,-1127.5l796,0l0,1127.5Z" /></clipPath>
<clipPath id="c2_24"><path d="M1641.1,521.8l0,-14.7l503,0l0,14.7Z" /></clipPath>
<clipPath id="c3_24"><path d="M1641.1,550l0,-14.8l503,0l0,14.8Z" /></clipPath>
<clipPath id="c4_24"><path d="M1641.1,578.1l0,-14.7l503,0l0,14.7Z" /></clipPath>
<clipPath id="c5_24"><path d="M1641.1,606.2l0,-14.7l503,0l0,14.7Z" /></clipPath>
<clipPath id="c6_24"><path d="M1641.1,634.3l0,-14.7l503,0l0,14.7Z" /></clipPath>
<clipPath id="c7_24"><path d="M1641.1,662.4l0,-14.7l503,0l0,14.7Z" /></clipPath>
<clipPath id="c8_24"><path d="M1641.1,690.6l0,-14.8l503,0l0,14.8Z" /></clipPath>
<clipPath id="c9_24"><path d="M1641.1,718.7l0,-14.7l503,0l0,14.7Z" /></clipPath>
<clipPath id="c10_24"><path d="M1641.1,746.8l0,-14.7l503,0l0,14.7Z" /></clipPath>
<clipPath id="c11_24"><path d="M1641.1,774.9l0,-14.7l503,0l0,14.7Z" /></clipPath>
<clipPath id="c12_24"><path d="M1641.1,803.1l0,-14.8l503,0l0,14.8Z" /></clipPath>
<clipPath id="c13_24"><path d="M1641.1,831.2l0,-14.8l503,0l0,14.8Z" /></clipPath>
<clipPath id="c14_24"><path d="M1641.1,859.3l0,-14.7l503,0l0,14.7Z" /></clipPath>
<clipPath id="c15_24"><path d="M1641.1,887.4l0,-14.7l503,0l0,14.7Z" /></clipPath>
<clipPath id="c16_24"><path d="M1641.1,915.5l0,-14.7l503,0l0,14.7Z" /></clipPath>
<clipPath id="c17_24"><path d="M1641.1,943.7l0,-14.8l503,0l0,14.8Z" /></clipPath>
<clipPath id="c18_24"><path d="M1641.1,971.8l0,-14.8l503,0l0,14.8Z" /></clipPath>
<clipPath id="c19_24"><path d="M1641.1,999.9l0,-14.7l503,0l0,14.7Z" /></clipPath>
<clipPath id="c20_24"><path d="M1641.1,1028l0,-14.7l503,0l0,14.7Z" /></clipPath>
<clipPath id="c21_24"><path d="M1641.1,1056.1l0,-14.7l503,0l0,14.7Z" /></clipPath>
<clipPath id="c22_24"><path d="M1641.1,1084.3l0,-14.8l503,0l0,14.8Z" /></clipPath>
<clipPath id="c23_24"><path d="M1641.1,1112.4l0,-14.8l503,0l0,14.8Z" /></clipPath>
<clipPath id="c24_24"><path d="M1641.1,1140.5l0,-14.7l503,0l0,14.7Z" /></clipPath>
<clipPath id="c25_24"><path d="M1641.1,1168.6l0,-14.7l503,0l0,14.7Z" /></clipPath>
<clipPath id="c26_24"><path d="M1641.1,1196.7l0,-14.7l503,0l0,14.7Z" /></clipPath>
<clipPath id="c27_24"><path d="M1641.1,1224.9l0,-14.8l503,0l0,14.8Z" /></clipPath>
<clipPath id="c28_24"><path d="M1641.1,1253l0,-14.7l503,0l0,14.7Z" /></clipPath>
<clipPath id="c29_24"><path d="M1641.1,1281.1l0,-14.7l503,0l0,14.7Z" /></clipPath>
<clipPath id="c30_24"><path d="M1641.1,1309.2l0,-14.7l503,0l0,14.7Z" /></clipPath>
<clipPath id="c31_24"><path d="M1641.1,1337.3l0,-14.7l503,0l0,14.7Z" /></clipPath>
<clipPath id="c32_24"><path d="M1641.1,1365.5l0,-14.8l503,0l0,14.8Z" /></clipPath>
<clipPath id="c33_24"><path d="M1883.2,429.7c3,0,4.2,-0.8,5.7,-2.1c1.5,-1.5,2.4,-3.6,2.4,-6c0,-2.3,-0.8,-4.4,-2.3,-5.9c-1.4,-1.3,-2.8,-2.1,-5.8,-2.1l-6.4,0l0,16.1Zm-9.2,2.4l0,-21l9.3,0c3.9,0,6.1,1.1,8,2.9c1.8,1.9,2.9,4.6,2.9,7.6c0,3.1,-1.1,5.9,-3.1,7.8c-1.9,1.7,-3.9,2.7,-7.8,2.7Z" /></clipPath>
<clipPath id="c34_24"><path d="M1917.3,432.1l0,-21l2.8,0l0,18.6l13.2,0l0,2.4Z" /></clipPath>
<clipPath id="c35_24"><path d="M1937.9,432.1l0,-18.5l-8.1,0l0,-2.5l19,0l0,2.5l-8.1,0l0,18.5Z" /></clipPath>
<clipPath id="c36_24"><path d="M1866.1,436.6l0,-29.9l1.5,0l0,29.9Z" /></clipPath>
<clipPath id="c37_24"><path d="M1850.2,432.7c-6.5,0,-11.6,-5,-11.6,-11.1c0,-6.1,5.1,-11,11.5,-11c3.3,0,6.7,1.2,9.4,3.5l-1.9,1.7c-1.9,-1.7,-4.8,-2.8,-7.5,-2.8c-4.9,0,-8.6,3.9,-8.6,8.6c0,4.5,3.4,8.6,8.9,8.6c2.5,0,5.2,-0.8,6.8,-2.1l0,-5.2l-6.8,0l0,-1.3l0,-1.2l9.3,0l0,9.1c-2.5,2,-6.1,3.2,-9.5,3.2Z" /></clipPath>
<clipPath id="c38_24"><path d="M1896.8,432.1l0,-21l16.8,0l0,2.5l-14,0l0,6.8l8.5,0l0,1.2l0,1.3l-8.5,0l0,6.8l14.8,0l0,2.4Z" /></clipPath>
<clipPath id="c39_24"><path d="M1815,432.1l0,0l12.1,-21l0.8,0l12.1,21l-2.9,0l-9.6,-16.6l-4.7,8.1l4.7,0l0,2.2l-5.9,0l-3.7,6.3Z" /></clipPath>
<clipPath id="c40_24"><path d="M1946.2,432.1l12.1,-21l0.8,0l12.1,21l-2.9,0l-3.6,-6.3l-6,0l0,-2.2l4.7,0l-4.7,-8.1l-9.6,16.6Z" /></clipPath>
<clipPath id="c41_24"><path d="M1844.9,453l0,-10.7l1.3,0l0,10.7Z" /></clipPath>
<clipPath id="c42_24"><path d="M1848.2,453l0,-6.9l1.4,0l0,6.9Zm0.7,-8.6c-0.5,0,-0.9,-0.4,-0.9,-0.9c0,-0.5,0.4,-0.9,0.9,-0.9c0.5,0,0.9,0.4,0.9,0.9c0,0.5,-0.4,0.9,-0.9,0.9Z" /></clipPath>
<clipPath id="c43_24"><path d="M1853.6,453l-2.8,-6.9l1.4,0l2.1,5.2l2.1,-5.2l1.4,0l-2.9,6.9Z" /></clipPath>
<clipPath id="c44_24"><path d="M1863.9,449c-0.1,-1.2,-0.9,-1.9,-2.1,-1.9c-1.1,0,-2,0.7,-2.1,1.9Zm-2.1,4.2c-1.9,0,-3.5,-1.5,-3.5,-3.7c0,-2.2,1.6,-3.6,3.5,-3.6c2,0,3.5,1.4,3.5,3.6c0,0.2,0,0.4,0,0.6l-5.6,0c0.1,1.1,1,1.8,2.2,1.8c0.8,0,1.6,-0.3,2,-1c0.3,0.1,0.8,0.3,1.1,0.4c-0.6,1.2,-1.8,1.9,-3.2,1.9Z" /></clipPath>
<clipPath id="c45_24"><path d="M1870.7,453l0,-6.9l1.3,0l0,6.9Zm0.7,-8.6c-0.6,0,-1,-0.4,-1,-0.9c0,-0.5,0.4,-0.9,1,-0.9c0.5,0,0.9,0.4,0.9,0.9c0,0.5,-0.4,0.9,-0.9,0.9Z" /></clipPath>
<clipPath id="c46_24"><path d="M1874.1,453l0,-6.9l1.3,0l0,1c0.4,-0.8,1.4,-1.2,2.2,-1.2c1.7,0,2.6,1.2,2.6,3.1l0,4l-1.3,0l0,-3.9c0,-1.2,-0.6,-1.9,-1.5,-1.9c-1,0,-2,0.6,-2,2.1l0,3.7Z" /></clipPath>
<clipPath id="c47_24"><path d="M1886.6,453l0,-5.8l-1.3,0l0,-1.1l1.3,0l0,-2.6l1.3,0l0,2.6l1.5,0l0,1.1l-1.5,0l0,5.8Z" /></clipPath>
<clipPath id="c48_24"><path d="M1893.7,451.8c1.3,0,2.3,-0.9,2.3,-2.3c0,-1.4,-1,-2.3,-2.3,-2.3c-1.2,0,-2.2,0.9,-2.2,2.3c0,1.4,1,2.3,2.2,2.3Zm0,1.4c-1.9,0,-3.6,-1.5,-3.6,-3.7c0,-2.2,1.7,-3.6,3.6,-3.6c2,0,3.7,1.4,3.7,3.6c0,2.2,-1.7,3.7,-3.7,3.7Z" /></clipPath>
<clipPath id="c49_24"><path d="M1898.7,453l0,-6.9l1.3,0l0,1c0.4,-0.8,1.4,-1.1,1.9,-1.1c0.1,0,0.2,0,0.2,0c0.2,0,0.4,0,0.6,0c0.9,0.1,1.5,0.6,1.8,1.4c0.6,-1.3,1.7,-1.5,2.4,-1.5c1.7,0,2.6,1.2,2.6,3.1l0,4l-1.3,0l0,-3.9c0,-1.2,-0.6,-1.9,-1.6,-1.9c-1.1,0,-1.8,0.9,-1.8,2.1l0,3.7l-1.4,0l0,-3.9c0,-1.2,-0.5,-1.9,-1.4,-1.9c-1,0,-2,0.6,-2,2.1l0,3.7Z" /></clipPath>
<clipPath id="c50_24"><path d="M1914.4,451.8c1.3,0,2.3,-0.9,2.3,-2.3c0,-1.4,-1,-2.3,-2.3,-2.3c-1.2,0,-2.3,0.9,-2.3,2.3c0,1.4,1.1,2.3,2.3,2.3Zm0,1.4c-2,0,-3.6,-1.5,-3.6,-3.7c0,-2.2,1.6,-3.6,3.6,-3.6c2,0,3.6,1.4,3.6,3.6c0,2.2,-1.6,3.7,-3.6,3.7Z" /></clipPath>
<clipPath id="c51_24"><path d="M1919.4,453l0,-6.9l1.3,0l0,1.5c0.4,-1.2,1,-1.7,1.9,-1.7c0.5,0,1,0.2,1.2,0.3l-0.2,1.3c-0.3,-0.2,-0.7,-0.3,-1,-0.3c-1.3,0,-1.9,1.4,-1.9,3.3l0,2.5Z" /></clipPath>
<clipPath id="c52_24"><path d="M1924.7,453l0,-6.9l1.4,0l0,1.5c0.3,-1.2,1,-1.7,1.9,-1.7c0.5,0,1,0.2,1.2,0.3l-0.2,1.3c-0.4,-0.2,-0.7,-0.3,-1,-0.3c-1.3,0,-1.9,1.4,-1.9,3.3l0,2.5Z" /></clipPath>
<clipPath id="c53_24"><path d="M1933.5,451.8c1.2,0,2.3,-0.9,2.3,-2.3c0,-1.4,-1.1,-2.3,-2.3,-2.3c-1.3,0,-2.3,0.9,-2.3,2.3c0,1.4,1,2.3,2.3,2.3Zm0,1.4c-2,0,-3.6,-1.5,-3.6,-3.7c0,-2.2,1.6,-3.6,3.6,-3.6c1.9,0,3.6,1.4,3.6,3.6c0,2.2,-1.7,3.7,-3.6,3.7Z" /></clipPath>
<clipPath id="c54_24"><path d="M1940.3,453l-2.6,-6.9l1.4,0l1.7,4.8l1.7,-4.8l1.3,0l1.8,4.8l1.7,-4.8l1.4,0l-2.5,6.9l-1.1,0l-1.9,-5.1l-1.8,5.1Z" /></clipPath>
<clipPath id="c55_24"><path d="M444.6,1472.8l0,-1127.5l796,0l0,1127.5Z" /></clipPath>
<clipPath id="c56_24"><path d="M669.3,449.7l0,-66.9l192.7,0l0,66.9Z" /></clipPath>
<clipPath id="c57_24"><path d="M503.4,1385.7l0,-901.2l517.8,0l0,901.2Z" /></clipPath>
<clipPath id="c58_24"><path d="M1061.3,1274.6l0,-91.1l119.1,0l0,91.1Z" /></clipPath>
<clipPath id="c59_24"><path d="M1061.3,1385.7l0,-91l119.1,0l0,91Z" /></clipPath>
<clipPath id="c60_24"><path d="M503.4,1450l0,-48.2l517.8,0l0,48.2Z" /></clipPath>

<style type="text/css"><![CDATA[

.g1_24{
fill: #FFFFFF;
}
.g2_24{
fill: none;
stroke: #A6AAA9;
stroke-width: 1.5277778;
stroke-linecap: butt;
stroke-linejoin: miter;
stroke-miterlimit: 4;
stroke-dasharray: 4,4;
}
.g3_24{
fill: none;
stroke: #DCDEE0;
stroke-width: 1.5277778;
stroke-linecap: butt;
stroke-linejoin: miter;
stroke-miterlimit: 4;
}
.g4_24{
}
.g5_24{
fill: #E61E19;
}
.g6_24{
fill: none;
stroke: #AAB2BD;
stroke-width: 0.668884;
stroke-linecap: square;
stroke-linejoin: miter;
}
.g7_24{
fill: #D8D8D8;
}
.g8_24{
fill: none;
stroke: #979797;
stroke-width: 1.337768;
stroke-linecap: square;
stroke-linejoin: miter;
}
.g9_24{
fill: none;
stroke: #000000;
stroke-width: 1.5277778;
stroke-linecap: butt;
stroke-linejoin: miter;
stroke-miterlimit: 4;
}

.s1_24{
font-size: 18.33px;
font-family: Helvetica-Light_9;
fill: #000000;
}
.s2_24{
font-size: 27.50px;
font-family: Helvetica-Light_9;
fill: #53585F;
}
.s3_24{
font-size: 76.39px;
font-family: SofiaProLight_8;
fill: #000000;
}
.s4_24{
font-size: 9.37px;
font-family: Helvetica_6q;
fill: #656D78;
}
.s5_24{
font-size: 24.10px;
font-family: Helvetica_6v;
fill: #656D78;
}
.s6_24{
font-size: 38.19px;
font-family: Helvetica-Light_9;
fill: #000000;
}
.s7_24{
font-size: 38.19px;
font-family: SofiaProLight_8;
fill: #000000;
}
.s8_24{
font-size: 38.19px;
font-family: SofiaProLight_r;
fill: #000000;
}

]]></style>

</defs>
<path d="M0,0
L0,1650
L2933,1650
L2933,0 Z " 
fill="#FFFFFF" stroke="none" />
<path d="M0,1650l2933.3,0l0,-1650L0,0L0,1650Z" class="g1_24" />
<text 
x="127" 
y="123" 
dx="0,0,0,0,0,0,0,0,0,0,0,0,0,0,0,0,0,0,0,0,0,0,0,0" 
class="s1_24"
>Brand Design Guide 2017 </text>

<path d="M387.6,161.3l0,-137.5" class="g2_24" />
<path d="M4.5,1564.2l2924.4,0" class="g3_24" />
<path d="M196.2,81.3c-2.7,2.4,-5,3.8,-10.6,3.8l-11.8,0l0,-29.6l11.8,0c5.5,0,8.1,1.5,10.8,3.9c2.7,2.7,4.2,6.6,4.2,10.8c0,4.4,-1.6,8.4,-4.4,11.1M185.8,50.9l-17.2,0l0,38.7l17.2,0c7.2,0,10.9,-1.9,14.5,-5.1c3.6,-3.5,5.6,-8.6,5.6,-14.3c0,-5.5,-1.9,-10.4,-5.3,-13.9C197.1,53,193,50.9,185.8,50.9Z" class="g4_24" />
<path d="M253.8,50.9l-5.1,0l0,38.7l29.5,0l0,-4.5l-24.4,0Z" class="g4_24" />
<path d="M307,50.9l-35.2,0l0,4.6l15,0l0,34.1l5.2,0l0,-34.1l15,0Z" class="g4_24" />
<g clip-path="url(#c0_24)">
<path d="M154.1,97.8l2.7,0l0,-55l-2.7,0l0,55Z" class="g5_24" />
</g>
<path d="M125,70.3l0,2.3l12.5,0l0,9.7c-2.9,2.4,-7.9,3.8,-12.5,3.8c-10.2,0,-16.3,-7.5,-16.3,-15.8c0,-8.7,6.7,-15.8,15.9,-15.8c4.8,0,10.3,1.9,13.7,5.1l3.6,-3.2c-5,-4.2,-11.3,-6.5,-17.4,-6.5c-11.9,0,-21.2,9.1,-21.2,20.3c0,11.3,9.3,20.4,21.4,20.4c6.2,0,12.8,-2.2,17.5,-5.8l0,-16.8L125,68Z" class="g4_24" />
<path d="M215.9,72.6l15.7,0l0,-2.3l0,-2.3l-15.7,0l0,-12.5l26,0l0,-4.6l-31.1,0l0,38.7l32.5,0l0,-4.5l-27.4,0Z" class="g4_24" />
<g clip-path="url(#c0_24)">
<path d="M81.9,50.9L59.6,89.6l5.4,0L71.7,78l11,0l0,-4.1l-8.6,0L82.7,59l17.7,30.6l5.4,0l0.1,0L83.5,50.9Z" class="g4_24" />
<path d="M326,50.9l-1.6,0L302.1,89.6l5.4,0L325.2,59l8.6,14.9l-8.6,0l0,4.1l11,0l6.7,11.6l5.4,0Z" class="g4_24" />
</g>
<path d="M1.3,180.1l2924.4,0" class="g2_24" />
<text 
x="44" 
y="1610" 
dx="0,0,0,0,0,0,0,0,0,0,0,0,0,0,0,0,0,0,0,0,0,0,0,0,0,0,0,0,0,0,0,0,0,0" 
class="s2_24"
>Copyright © 2017 AG Delta Pte Ltd.</text>

<text 
x="2853" 
y="1610" 
dx="0,0" 
class="s2_24"
>24</text>

<text 
x="435" 
y="120" 
dx="0,0,0,0,0,-1.1,0,0,0,0,0,0,0,0,0,0,0" 
class="s3_24"
>General Documents</text>

<g clip-path="url(#c1_24)">
<path d="M1582.2,1477.9l809.4,0l0,-1140.8l-809.4,0l0,1140.8Z" class="g1_24" />
</g>
<text 
x="2229" 
y="1329" 
dx="0,0,0,0,0,0,0,0,0,0,0,0" 
class="s4_24"
>65 6486 5888</text>

<text 
x="2229" 
y="1342" 
dx="0,0,0,0,0,0,0,0,0,0,0,0" 
class="s4_24"
>65 6777 0169</text>

<text 
x="2229" 
y="1356" 
dx="0,0,0,0,0,0,0,0,0,0,0,0,0,0,0" 
class="s4_24"
>www.agdelta.com</text>

<text 
x="2229" 
y="1261" 
dx="0,0,0,0,0,0,0,0,0,0,0,0,0,0,0,0" 
class="s4_24"
>AG Delta Pte Ltd</text>

<text 
x="2229" 
y="1274" 
dx="0,0,0,0,0,0,0,0,0,0,0,0,0,0,0,0,0,0,0,0" 
class="s4_24"
>6 Shenton Way #37-01</text>

<text 
x="2229" 
y="1287" 
dx="0,0,0,0,0,0,0,0,0,0,0,0,0,0" 
class="s4_24"
>OUE Downtown 1</text>

<text 
x="2229" 
y="1301" 
dx="0,0,0,0,0,0,0,0,0,0,0,0,0,0,0,0" 
class="s4_24"
>Singapore 068809</text>

<text 
x="1808" 
y="1429" 
dx="0,0,0,0,0,0,0,0,0,0,0,0,0,0,0,0,0,0,0,0,0,0,0,0,0,0,0,0,0,0,0" 
class="s4_24"
>STRICTLY PRIVATE &amp; CONFIDENTIAL</text>

<g clip-path="url(#c1_24)">
<path d="M2183.2,326.3l0,1144.2" class="g6_24" />
</g>
<g clip-path="url(#c2_24)">
<path d="M1634.4,528.5l516.4,0l0,-28.1l-516.4,0l0,28.1Z" class="g7_24" />
</g>
<g clip-path="url(#c3_24)">
<path d="M1634.4,556.7l516.4,0l0,-28.2l-516.4,0l0,28.2Z" class="g7_24" />
</g>
<g clip-path="url(#c4_24)">
<path d="M1634.4,584.8l516.4,0l0,-28.1l-516.4,0l0,28.1Z" class="g7_24" />
</g>
<g clip-path="url(#c5_24)">
<path d="M1634.4,612.9l516.4,0l0,-28.1l-516.4,0l0,28.1Z" class="g7_24" />
</g>
<g clip-path="url(#c6_24)">
<path d="M1634.4,641l516.4,0l0,-28.1l-516.4,0l0,28.1Z" class="g7_24" />
</g>
<g clip-path="url(#c7_24)">
<path d="M1634.4,669.1l516.4,0l0,-28.1l-516.4,0l0,28.1Z" class="g7_24" />
</g>
<g clip-path="url(#c8_24)">
<path d="M1634.4,697.3l516.4,0l0,-28.2l-516.4,0l0,28.2Z" class="g7_24" />
</g>
<g clip-path="url(#c9_24)">
<path d="M1634.4,725.4l516.4,0l0,-28.1l-516.4,0l0,28.1Z" class="g7_24" />
</g>
<g clip-path="url(#c10_24)">
<path d="M1634.4,753.5l516.4,0l0,-28.1l-516.4,0l0,28.1Z" class="g7_24" />
</g>
<g clip-path="url(#c11_24)">
<path d="M1634.4,781.6l516.4,0l0,-28.1l-516.4,0l0,28.1Z" class="g7_24" />
</g>
<g clip-path="url(#c12_24)">
<path d="M1634.4,809.7l516.4,0l0,-28.1l-516.4,0l0,28.1Z" class="g7_24" />
</g>
<g clip-path="url(#c13_24)">
<path d="M1634.4,837.9l516.4,0l0,-28.2l-516.4,0l0,28.2Z" class="g7_24" />
</g>
<g clip-path="url(#c14_24)">
<path d="M1634.4,866l516.4,0l0,-28.1l-516.4,0l0,28.1Z" class="g7_24" />
</g>
<g clip-path="url(#c15_24)">
<path d="M1634.4,894.1l516.4,0l0,-28.1l-516.4,0l0,28.1Z" class="g7_24" />
</g>
<g clip-path="url(#c16_24)">
<path d="M1634.4,922.2l516.4,0l0,-28.1l-516.4,0l0,28.1Z" class="g7_24" />
</g>
<g clip-path="url(#c17_24)">
<path d="M1634.4,950.4l516.4,0l0,-28.2l-516.4,0l0,28.2Z" class="g7_24" />
</g>
<g clip-path="url(#c18_24)">
<path d="M1634.4,978.5l516.4,0l0,-28.1l-516.4,0l0,28.1Z" class="g7_24" />
</g>
<g clip-path="url(#c19_24)">
<path d="M1634.4,1006.6l516.4,0l0,-28.1l-516.4,0l0,28.1Z" class="g7_24" />
</g>
<g clip-path="url(#c20_24)">
<path d="M1634.4,1034.7l516.4,0l0,-28.1l-516.4,0l0,28.1Z" class="g7_24" />
</g>
<g clip-path="url(#c21_24)">
<path d="M1634.4,1062.8l516.4,0l0,-28.1l-516.4,0l0,28.1Z" class="g7_24" />
</g>
<g clip-path="url(#c22_24)">
<path d="M1634.4,1091l516.4,0l0,-28.2l-516.4,0l0,28.2Z" class="g7_24" />
</g>
<g clip-path="url(#c23_24)">
<path d="M1634.4,1119.1l516.4,0l0,-28.1l-516.4,0l0,28.1Z" class="g7_24" />
</g>
<g clip-path="url(#c24_24)">
<path d="M1634.4,1147.2l516.4,0l0,-28.1l-516.4,0l0,28.1Z" class="g7_24" />
</g>
<g clip-path="url(#c25_24)">
<path d="M1634.4,1175.3l516.4,0l0,-28.1l-516.4,0l0,28.1Z" class="g7_24" />
</g>
<g clip-path="url(#c26_24)">
<path d="M1634.4,1203.4l516.4,0l0,-28.1l-516.4,0l0,28.1Z" class="g7_24" />
</g>
<g clip-path="url(#c27_24)">
<path d="M1634.4,1231.6l516.4,0l0,-28.2l-516.4,0l0,28.2Z" class="g7_24" />
</g>
<g clip-path="url(#c28_24)">
<path d="M1634.4,1259.7l516.4,0l0,-28.1l-516.4,0l0,28.1Z" class="g7_24" />
</g>
<g clip-path="url(#c29_24)">
<path d="M1634.4,1287.8l516.4,0l0,-28.1l-516.4,0l0,28.1Z" class="g7_24" />
</g>
<g clip-path="url(#c30_24)">
<path d="M1634.4,1315.9l516.4,0l0,-28.1l-516.4,0l0,28.1Z" class="g7_24" />
</g>
<g clip-path="url(#c31_24)">
<path d="M1634.4,1344l516.4,0l0,-28.1l-516.4,0l0,28.1Z" class="g7_24" />
</g>
<g clip-path="url(#c32_24)">
<path d="M1634.4,1372.2l516.4,0l0,-28.2l-516.4,0l0,28.2Z" class="g7_24" />
</g>
<g clip-path="url(#c33_24)">
<path d="M1867.3,438.8l33.6,0l0,-34.4l-33.6,0l0,34.4Z" class="g4_24" />
</g>
<g clip-path="url(#c34_24)">
<path d="M1910.6,438.8l29.4,0l0,-34.4l-29.4,0l0,34.4Z" class="g4_24" />
</g>
<g clip-path="url(#c35_24)">
<path d="M1923.1,438.8l32.4,0l0,-34.4l-32.4,0l0,34.4Z" class="g4_24" />
</g>
<g clip-path="url(#c36_24)">
<path d="M1859.4,443.2l14.9,0l0,-43.2l-14.9,0l0,43.2Z" class="g5_24" />
</g>
<g clip-path="url(#c37_24)">
<path d="M1831.9,439.4l34.5,0l0,-35.5l-34.5,0l0,35.5Z" class="g4_24" />
</g>
<g clip-path="url(#c38_24)">
<path d="M1890.1,438.8l31,0l0,-34.4l-31,0l0,34.4Z" class="g4_24" />
</g>
<g clip-path="url(#c39_24)">
<path d="M1808.3,438.8l38.4,0l0,-34.4l-38.4,0l0,34.4Z" class="g4_24" />
</g>
<g clip-path="url(#c40_24)">
<path d="M1939.5,438.8l38.4,0l0,-34.4l-38.4,0l0,34.4Z" class="g4_24" />
</g>
<g clip-path="url(#c41_24)">
<path d="M1838.2,459.7l14.7,0l0,-24.1l-14.7,0l0,24.1Z" class="g4_24" />
</g>
<g clip-path="url(#c42_24)">
<path d="M1841.3,459.7l15.2,0l0,-23.7l-15.2,0l0,23.7Z" class="g4_24" />
</g>
<g clip-path="url(#c43_24)">
<path d="M1844.1,459.7l20.4,0l0,-20.3l-20.4,0l0,20.3Z" class="g4_24" />
</g>
<g clip-path="url(#c44_24)">
<path d="M1851.6,459.8l20.4,0l0,-20.6l-20.4,0l0,20.6Z" class="g4_24" />
</g>
<g clip-path="url(#c45_24)">
<path d="M1863.7,459.7l15.3,0l0,-23.7l-15.3,0l0,23.7Z" class="g4_24" />
</g>
<g clip-path="url(#c46_24)">
<path d="M1867.4,459.7l19.5,0l0,-20.5l-19.5,0l0,20.5Z" class="g4_24" />
</g>
<g clip-path="url(#c47_24)">
<path d="M1878.7,459.7l17.4,0l0,-22.9l-17.4,0l0,22.9Z" class="g4_24" />
</g>
<g clip-path="url(#c48_24)">
<path d="M1883.4,459.8l20.6,0l0,-20.6l-20.6,0l0,20.6Z" class="g4_24" />
</g>
<g clip-path="url(#c49_24)">
<path d="M1892,459.7l24.2,0l0,-20.5l-24.2,0l0,20.5Z" class="g4_24" />
</g>
<g clip-path="url(#c50_24)">
<path d="M1904.1,459.8l20.6,0l0,-20.6l-20.6,0l0,20.6Z" class="g4_24" />
</g>
<g clip-path="url(#c51_24)">
<path d="M1912.7,459.7l17.8,0l0,-20.5l-17.8,0l0,20.5Z" class="g4_24" />
</g>
<g clip-path="url(#c52_24)">
<path d="M1918.1,459.7l17.8,0l0,-20.5l-17.8,0l0,20.5Z" class="g4_24" />
</g>
<g clip-path="url(#c53_24)">
<path d="M1923.2,459.8l20.6,0l0,-20.6l-20.6,0l0,20.6Z" class="g4_24" />
</g>
<g clip-path="url(#c54_24)">
<path d="M1931,459.7l24.4,0l0,-20.3l-24.4,0l0,20.3Z" class="g4_24" />
</g>
<path d="M1588.9,343.8l796,0l0,1127.5l-796,0l0,-1127.5Z" class="g2_24" />
<g clip-path="url(#c55_24)">
<path d="M437.9,1479.5l809.3,0l0,-1140.9l-809.3,0l0,1140.9Z" class="g1_24" />
</g>
<path d="M1038.9,346.6l0,1125.4" class="g6_24" />
<g clip-path="url(#c56_24)">
<path d="M662.6,456.4l206.1,0l0,-80.3l-206.1,0l0,80.3Z" class="g7_24" />
</g>
<g clip-path="url(#c57_24)">
<path d="M496.8,1392.4l531.1,0l0,-914.6l-531.1,0l0,914.6Z" class="g7_24" />
</g>
<g clip-path="url(#c58_24)">
<path d="M1054.6,1281.3l132.4,0l0,-104.5l-132.4,0l0,104.5Z" class="g7_24" />
</g>
<text 
x="687" 
y="421" 
dx="0,0,0,0,0,0,0,0,0,0,0,0,0" 
class="s5_24"
>AG Delta Logo</text>

<text 
x="722" 
y="937" 
dx="0,0,0,0,0,0,0" 
class="s5_24"
>Content</text>

<text 
x="1077" 
y="1235" 
dx="0,0,0,0,0,0,0" 
class="s5_24"
>Address</text>

<text 
x="1122" 
y="440" 
dx="0,0,0,0,0,0,0" 
class="s5_24"
>Divider</text>

<path d="M1110.1,431.6l-71.5,0" class="g8_24" />
<path d="M1110.1,431.6l-71.5,0m0,0l14.5,4.1l0,-8.1l-14.5,4Z" class="g8_24" />
<g clip-path="url(#c59_24)">
<path d="M1054.6,1392.4l132.4,0l0,-104.4l-132.4,0l0,104.4Z" class="g7_24" />
</g>
<g clip-path="url(#c60_24)">
<path d="M496.8,1456.7l531.1,0l0,-61.6l-531.1,0l0,61.6Z" class="g7_24" />
</g>
<text 
x="1080" 
y="1346" 
dx="0,0,0,0,0,0,0" 
class="s5_24"
>Contact</text>

<text 
x="555" 
y="1432" 
dx="0,0,0,0,0,0,0,0,0,0,0,0,0,0,0,0,0,0,0,0,0,0,0,0,0,0,0,0,0,0,0,0,0,0,0,0,0,0,0,0" 
class="s5_24"
>Footer (Additional Info, copyright etc…)</text>

<path d="M444.6,345.3l796,0l0,1127.5l-796,0l0,-1127.5Z" class="g2_24" />
<text 
x="763" 
y="1532" 
dx="0,0,0,0,0,0" 
class="s6_24"
>Layout</text>

<text 
x="1947" 
y="1532" 
dx="0,0,0,0" 
class="s6_24"
>Demo</text>

<text 
x="426" 
y="265" 
dx="0,0,0,0,0,-0.5,0,0,0,0,0,0,0,0,0,0,0,0,0,0,-0.5,0,0,0,0,0,0,0,-0.6,0,0,0,0,-0.6,-0.3,0,-0.9,0,0,0,0,-1.2,-0.6,0,0,0,0,0,-0.3,0,0,0,0,0,0,0,0,0,0,0,0,0,0,0,0,0,0,0,0,0,0,0,0,0,0,0,0,0,-0.6,0,0,0,-0.5,0,0,0,0,0,0,0,0,0,0,0,0,0,0,0,0,0,0,0,0,0,0,0,0,0,0,0,-0.3,-1,0" 
class="s7_24"
>General Documents are applicable for all AG Delta business documents such as contracts, legal documents and any o</text>

<text 
x="2456" 
y="265" 
dx="0" 
class="s8_24"
>ﬃ</text>

<text 
x="2492" 
y="265" 
dx="0,0,0,0,0,0,0,0,0,-0.3,0,-2.1,0" 
class="s7_24"
>cial letter. </text>

<text 
x="1271" 
y="747" 
dx="0,0,0,0,0,0,0,0,-0.7,0,0,0,0,0" 
class="s6_24"
>Signature and </text>

<text 
x="1271" 
y="792" 
dx="0,0,0,0,0,0,0,0,0,-0.7,0" 
class="s6_24"
>stamps area</text>

<path d="M1260.9,756l-111.4,0l-0.8,0" class="g9_24" />
<path d="M1149.5,751.4l-9.2,4.6l9.2,4.6Z" class="g4_24" />


<!-- Any embedded fonts defined here -->
<style type="text/css" ><![CDATA[

@font-face {
	font-family: Helvetica_6v;
	src: url("fonts/Helvetica_6v.woff") format("woff");
}

@font-face {
	font-family: Helvetica_6q;
	src: url("fonts/Helvetica_6q.woff") format("woff");
}

@font-face {
	font-family: SofiaProLight_r;
	src: url("fonts/SofiaProLight_r.woff") format("woff");
}

@font-face {
	font-family: Helvetica-Light_9;
	src: url("fonts/Helvetica-Light_9.woff") format("woff");
}

@font-face {
	font-family: SofiaProLight_8;
	src: url("fonts/SofiaProLight_8.woff") format("woff");
}

]]></style>

</svg>
