<?xml version="1.0" encoding="UTF-8" standalone="no"?>
<!DOCTYPE svg PUBLIC "-//W3C//DTD SVG 1.1//EN"
"http://www.w3.org/Graphics/SVG/1.1/DTD/svg11.dtd">


<!-- Page 28 -->
<svg x="0" y="0" width="2933" height="1650" viewBox="0 0 2933 1650" version="1.1" xmlns="http://www.w3.org/2000/svg" xmlns:xlink="http://www.w3.org/1999/xlink"
style="display: block;margin-left: auto;margin-right: auto;">
<defs>
<clipPath id="c0_28"><path d="M59.6,97.8l0,-55l288.7,0l0,55Z" /></clipPath>
<clipPath id="c1_28"><path d="M684.6,918.8l0,-33l276.9,0l0,33Z" /></clipPath>
<clipPath id="c2_28"><path d="M1050.2,1108.5l0,-372.9l1.4,0l0,372.9Z" /></clipPath>

<style type="text/css"><![CDATA[

.g1_28{
fill: #FFFFFF;
}
.g2_28{
fill: none;
stroke: #A6AAA9;
stroke-width: 1.5277778;
stroke-linecap: butt;
stroke-linejoin: miter;
stroke-miterlimit: 4;
stroke-dasharray: 4,4;
}
.g3_28{
fill: none;
stroke: #DCDEE0;
stroke-width: 1.5277778;
stroke-linecap: butt;
stroke-linejoin: miter;
stroke-miterlimit: 4;
}
.g4_28{
}
.g5_28{
fill: #E61E19;
}
.g6_28{
fill: #E72324;
}
.g7_28{
fill: none;
stroke: #6D6E71;
stroke-width: 1.3972368;
stroke-linecap: butt;
stroke-linejoin: miter;
}
.g8_28{
fill: none;
stroke: #201C1D;
stroke-width: 1.3972368;
stroke-linecap: butt;
stroke-linejoin: miter;
}
.g9_28{
fill: #050604;
}
.g10_28{
fill: #E62524;
}
.g11_28{
fill: none;
stroke: #000000;
stroke-width: 1.9097222;
stroke-linecap: butt;
stroke-linejoin: miter;
}

.s1_28{
font-size: 18.33px;
font-family: Helvetica-Light_9;
fill: #000000;
}
.s2_28{
font-size: 27.50px;
font-family: Helvetica-Light_9;
fill: #53585F;
}
.s3_28{
font-size: 76.39px;
font-family: SofiaProLight_8;
fill: #000000;
}
.s4_28{
font-size: 27.97px;
font-family: SofiaProRegular_8z;
fill: rgba(32, 28, 29, 0.99);
}
.s5_28{
font-size: 25.17px;
font-family: STYuanti-SC-Regular_bm;
fill: rgba(32, 28, 29, 0.99);
}
.s6_28{
font-size: 22.38px;
font-family: SofiaProLight_8x;
fill: rgba(32, 28, 29, 0.99);
}
.s7_28{
font-size: 22.38px;
font-family: SofiaProLight_8y;
fill: rgba(32, 28, 29, 0.99);
}
.s8_28{
font-size: 19.58px;
font-family: SofiaProLight_8x;
fill: rgba(32, 28, 29, 0.99);
}
.s9_28{
font-size: 38.19px;
font-family: SofiaProLight_8;
fill: #000000;
}

]]></style>

</defs>
<path d="M0,0
L0,1650
L2933,1650
L2933,0 Z " 
fill="#FFFFFF" stroke="none" />
<path d="M0,1650l2933.3,0l0,-1650L0,0L0,1650Z" class="g1_28" />
<text 
x="127" 
y="123" 
dx="0,0,0,0,0,0,0,0,0,0,0,0,0,0,0,0,0,0,0,0,0,0,0,0" 
class="s1_28"
>Brand Design Guide 2017 </text>

<path d="M387.6,161.3l0,-137.5" class="g2_28" />
<path d="M4.5,1564.2l2924.4,0" class="g3_28" />
<path d="M196.2,81.3c-2.7,2.4,-5,3.8,-10.6,3.8l-11.8,0l0,-29.6l11.8,0c5.5,0,8.1,1.5,10.8,3.9c2.7,2.7,4.2,6.6,4.2,10.8c0,4.4,-1.6,8.4,-4.4,11.1M185.8,50.9l-17.2,0l0,38.7l17.2,0c7.2,0,10.9,-1.9,14.5,-5.1c3.6,-3.5,5.6,-8.6,5.6,-14.3c0,-5.5,-1.9,-10.4,-5.3,-13.9C197.1,53,193,50.9,185.8,50.9Z" class="g4_28" />
<path d="M253.8,50.9l-5.1,0l0,38.7l29.5,0l0,-4.5l-24.4,0Z" class="g4_28" />
<path d="M307,50.9l-35.2,0l0,4.6l15,0l0,34.1l5.2,0l0,-34.1l15,0Z" class="g4_28" />
<g clip-path="url(#c0_28)">
<path d="M154.1,97.8l2.7,0l0,-55l-2.7,0l0,55Z" class="g5_28" />
</g>
<path d="M125,70.3l0,2.3l12.5,0l0,9.7c-2.9,2.4,-7.9,3.8,-12.5,3.8c-10.2,0,-16.3,-7.5,-16.3,-15.8c0,-8.7,6.7,-15.8,15.9,-15.8c4.8,0,10.3,1.9,13.7,5.1l3.6,-3.2c-5,-4.2,-11.3,-6.5,-17.4,-6.5c-11.9,0,-21.2,9.1,-21.2,20.3c0,11.3,9.3,20.4,21.4,20.4c6.2,0,12.8,-2.2,17.5,-5.8l0,-16.8L125,68Z" class="g4_28" />
<path d="M215.9,72.6l15.7,0l0,-2.3l0,-2.3l-15.7,0l0,-12.5l26,0l0,-4.6l-31.1,0l0,38.7l32.5,0l0,-4.5l-27.4,0Z" class="g4_28" />
<g clip-path="url(#c0_28)">
<path d="M81.9,50.9L59.6,89.6l5.4,0L71.7,78l11,0l0,-4.1l-8.6,0L82.7,59l17.7,30.6l5.4,0l0.1,0L83.5,50.9Z" class="g4_28" />
<path d="M326,50.9l-1.6,0L302.1,89.6l5.4,0L325.2,59l8.6,14.9l-8.6,0l0,4.1l11,0l6.7,11.6l5.4,0Z" class="g4_28" />
</g>
<path d="M1.3,180.1l2924.4,0" class="g2_28" />
<text 
x="44" 
y="1610" 
dx="0,0,0,0,0,0,0,0,0,0,0,0,0,0,0,0,0,0,0,0,0,0,0,0,0,0,0,0,0,0,0,0,0,0" 
class="s2_28"
>Copyright © 2017 AG Delta Pte Ltd.</text>

<text 
x="2853" 
y="1610" 
dx="0,0" 
class="s2_28"
>28</text>

<text 
x="435" 
y="120" 
dx="0,-0.8,0,0,0,0,0,0,-1.1" 
class="s3_28"
>Name Card</text>

<path d="M1633.2,1109.2l623.3,0l0,-374.3l-623.3,0l0,374.3Z" class="g6_28" />
<path d="M1937.4,917.9c-2.7,2.3,-4.9,3.6,-10.3,3.6l-11.5,0l0,-28.6l11.5,0c5.3,0,7.9,1.4,10.4,3.8c2.6,2.6,4.1,6.3,4.1,10.5c0,4.2,-1.6,8.1,-4.2,10.7m-10.1,-29.4l-16.7,0l0,37.5l16.7,0c7,0,10.5,-1.9,14,-5c3.5,-3.4,5.5,-8.4,5.5,-13.8c0,-5.4,-1.9,-10.1,-5.2,-13.5c-3.4,-3.2,-7.3,-5.2,-14.3,-5.2Z" class="g1_28" />
<path d="M1993.1,888.5l-5,0l0,37.5l28.7,0l0,-4.5l-23.7,0Z" class="g1_28" />
<path d="M2044.6,888.5l-34.1,0l0,4.4l14.6,0l0,33.1l5,0l0,-33.1l14.5,0Z" class="g1_28" />
<path d="M1896.5,933.8l2.6,0l0,-53.2l-2.6,0l0,53.2Z" class="g1_28" />
<path d="M1868.4,907.2l0,2.2l12.1,0l0,9.4c-2.8,2.3,-7.7,3.7,-12.1,3.7c-9.9,0,-15.8,-7.2,-15.8,-15.3c0,-8.4,6.5,-15.3,15.4,-15.3c4.7,0,9.9,1.9,13.3,5l3.4,-3.1c-4.8,-4.1,-10.9,-6.3,-16.8,-6.3c-11.5,0,-20.5,8.8,-20.5,19.7c0,10.9,9,19.7,20.7,19.7c6,0,12.4,-2.1,17,-5.6l0,-16.3l-16.7,0Z" class="g1_28" />
<path d="M1956.5,909.4l15.1,0l0,-2.2l0,-2.2l-15.1,0l0,-12.1l25.1,0l0,-4.4l-30.1,0l0,37.5l31.4,0l0,-4.5l-26.4,0Z" class="g1_28" />
<path d="M1826.7,888.5L1805,926l0.1,0l5.2,0l6.5,-11.3l10.6,0l0,-4l-8.3,0l8.3,-14.4l17.2,29.7l5.2,0l-21.6,-37.5Z" class="g1_28" />
<path d="M2063.1,888.5l-1.6,0L2039.9,926l5.3,0l17.1,-29.7l8.3,14.4l-8.3,0l0,4l10.6,0l6.5,11.3l5.2,0l0.1,0Z" class="g1_28" />
<path d="M1858.5,963.2l2.4,0l0,-19.1l-2.4,0l0,19.1Z" class="g1_28" />
<path d="M1867,950.8l-2.4,0l0,12.4l2.4,0Zm-1.2,-6.1c0.9,0,1.6,0.7,1.6,1.6c0,0.9,-0.7,1.5,-1.6,1.5c-0.9,0,-1.7,-0.6,-1.7,-1.5c0,-0.9,0.8,-1.6,1.7,-1.6Z" class="g1_28" />
<path d="M1871.7,950.8l3.7,9.3l3.7,-9.3l2.6,0l-5.2,12.4l0.1,0l-2.3,0l-5.2,-12.4Z" class="g1_28" />
<path d="M1892.7,956c-0.3,-2,-1.8,-3.3,-3.8,-3.3c-2,0,-3.6,1.3,-3.9,3.3Zm2.3,1.9l-10,0c0.3,2.1,1.9,3.4,4,3.4c1.5,0,2.9,-0.7,3.5,-1.9c0.7,0.2,1.4,0.5,2.1,0.8c-1,2.1,-3.3,3.3,-5.7,3.3c-3.5,0,-6.3,-2.6,-6.3,-6.5c0,-3.9,2.8,-6.4,6.3,-6.4c3.5,0,6.2,2.5,6.2,6.4c0,0.3,0,0.7,-0.1,0.9Z" class="g1_28" />
<path d="M1907.1,950.8l-2.4,0l0,12.4l2.4,0Zm-1.2,-6.1c1,0,1.7,0.7,1.7,1.6c0,0.9,-0.7,1.5,-1.7,1.5c-0.9,0,-1.6,-0.6,-1.6,-1.5c0,-0.9,0.7,-1.6,1.6,-1.6Z" class="g1_28" />
<path d="M1913.2,963.2l-2.4,0l0,-12.4l2.4,0l0,1.9c0.7,-1.5,2.5,-2.1,3.8,-2.1c3.1,0,4.8,2,4.8,5.4l0,7.2l-2.4,0l0,-7c0,-2.1,-1,-3.3,-2.7,-3.3c-1.8,0,-3.5,1,-3.5,3.6Z" class="g1_28" />
<path d="M1938.2,950.8l0,2.1l-2.6,0l0,10.3l-2.4,0l0,-10.3l-2.2,0l0,-2.1l2.2,0l0,-4.6l2.4,0l0,4.6Z" class="g1_28" />
<path d="M1950.1,957c0,-2.5,-1.9,-4.1,-4.1,-4.1c-2.2,0,-4.1,1.6,-4.1,4.1c0,2.5,1.9,4.1,4.1,4.1c2.2,0,4.1,-1.6,4.1,-4.1m-10.6,0c0,-3.9,3,-6.4,6.5,-6.4c3.5,0,6.5,2.5,6.5,6.4c0,3.9,-3,6.5,-6.5,6.5c-3.5,0,-6.5,-2.6,-6.5,-6.5Z" class="g1_28" />
<path d="M1965.8,956.5l0,6.7l-2.4,0l0,-7c0,-2.1,-1.1,-3.3,-2.7,-3.3c-1.7,0,-3.4,1,-3.4,3.6l0,6.7l-2.4,0l0,-12.4l2.4,0l0,1.9c0.6,-1.4,2.4,-2,3.4,-2.1c0.5,0,0.9,0,1.3,0.1c1.6,0.2,2.7,1.1,3.3,2.4c1.1,-2.2,3,-2.5,4.2,-2.5c3.1,0,4.8,2,4.8,5.4l0,7.2l-2.4,0l0,-7c0,-2,-1.1,-3.3,-2.8,-3.3c-2.1,0,-3.3,1.6,-3.3,3.6Z" class="g1_28" />
<path d="M1987.1,957c0,-2.5,-1.9,-4.1,-4.1,-4.1c-2.2,0,-4.1,1.6,-4.1,4.1c0,2.5,1.9,4.1,4.1,4.1c2.2,0,4.1,-1.6,4.1,-4.1m-10.6,0c0,-3.9,3,-6.4,6.5,-6.4c3.5,0,6.5,2.5,6.5,6.4c0,3.9,-3,6.5,-6.5,6.5c-3.5,0,-6.5,-2.6,-6.5,-6.5Z" class="g1_28" />
<path d="M1994.3,963.2l-2.4,0l0,-12.4l2.4,0l0,2.8c0.6,-2.2,1.8,-3,3.4,-3c0.9,0,1.8,0.2,2.1,0.4l-0.3,2.3c-0.7,-0.3,-1.3,-0.4,-1.8,-0.4c-2.4,0,-3.4,2.5,-3.4,5.8Z" class="g1_28" />
<path d="M2003.9,963.2l-2.4,0l0,-12.4l2.4,0l0,2.8c0.6,-2.2,1.8,-3,3.4,-3c0.9,0,1.8,0.2,2.2,0.4l-0.4,2.3c-0.7,-0.3,-1.3,-0.4,-1.8,-0.4c-2.4,0,-3.4,2.5,-3.4,5.8Z" class="g1_28" />
<path d="M2021.2,957c0,-2.5,-1.9,-4.1,-4.1,-4.1c-2.2,0,-4,1.6,-4,4.1c0,2.5,1.8,4.1,4,4.1c2.2,0,4.1,-1.6,4.1,-4.1m-10.5,0c0,-3.9,2.9,-6.4,6.4,-6.4c3.5,0,6.5,2.5,6.5,6.4c0,3.9,-3,6.5,-6.5,6.5c-3.5,0,-6.4,-2.6,-6.4,-6.5Z" class="g1_28" />
<path d="M2037.9,963.2l-3.4,-9.1l-3.2,9.1l-2,0l-4.7,-12.4l2.6,0l3.1,8.7l3,-8.7l2.4,0l3.1,8.7l3.1,-8.7l2.5,0l-4.6,12.4Z" class="g1_28" />
<path d="M1050.9,735.6l0,372.9" class="g7_28" />
<path d="M637.8,1108.5l689.1,0l0,-372.9l-689.1,0l0,372.9Z" class="g8_28" />
<g clip-path="url(#c1_28)">
<g fill="#201C1D" fill-opacity="0.99" >
<use xlink:href="#f0_2" transform="matrix(18.3,0,0,18.3,830.1,910.4)" />
</g>
</g>
<text 
x="684" 
y="910" 
dx="0,0,0,0,-0.3,-0.2,-0.7,-0.9,-0.2,0" 
class="s4_28"
>Andrew Au </text>

<g clip-path="url(#c1_28)">
<g fill="#201C1D" fill-opacity="0.99" >
<use xlink:href="#f0_3" transform="matrix(18.3,0,0,18.3,933.5,910.4)" />
</g>
</g>
<text 
x="858" 
y="910" 
dx="0,0,0" 
class="s5_28"
>区宏远</text>

<text 
x="684" 
y="940" 
dx="0,0,0,0,-0.1,-0.5,0,0,-0.3,0,0,0,0,0,-0.3,0,0" 
class="s6_28"
>Chief Executive O</text>

<text 
x="860" 
y="940" 
dx="0" 
class="s7_28"
>ﬃ</text>

<text 
x="881" 
y="940" 
dx="0,-0.3" 
class="s6_28"
>ce</text>

<text 
x="684" 
y="1015" 
dx="0,0,0,0,-0.3,-0.2,-0.7,0,0,0,0,0,0,0,0,0,-0.2,0,0,-0.3,0" 
class="s8_28"
>andrew.au@agdelta.com</text>

<text 
x="684" 
y="1047" 
dx="0,0,0,-0.7,0,0,0,0,0,0,-0.2,0,0,-0.3,0" 
class="s8_28"
>www.agdelta.com</text>

<text 
x="1086" 
y="911" 
dx="0,0" 
class="s8_28"
>O:</text>

<text 
x="1086" 
y="940" 
dx="0,0,0" 
class="s8_28"
>M: </text>

<text 
x="1123" 
y="911" 
dx="0,0,0,0,0,0,0,0,0,0,0,0,0" 
class="s8_28"
>+65 6486 5888</text>

<text 
x="1123" 
y="940" 
dx="0,0,0,0,0,0,0,0,0,0,0,0,0" 
class="s8_28"
>+65 9011 9547</text>

<text 
x="1086" 
y="979" 
dx="0,0,0,0,0,0,0,-0.2,0,0,-0.6,-1,0,-0.8" 
class="s8_28"
>6 Shenton Way,</text>

<text 
x="1086" 
y="1002" 
dx="0,0,0,-1,0,0,0,0,0,0,0,0,0,-0.2,0,0,-0.2,-0.2,0,0,0" 
class="s8_28"
>#37-01 OUE Downtown 1</text>

<text 
x="1086" 
y="1024" 
dx="0,-0.1,0,0,0,0,0,0,-0.3,0,0,0,0,0,0,0" 
class="s8_28"
>Singapore 068809</text>

<g clip-path="url(#c2_28)">
<path d="M1050.9,735.6l0,372.9" class="g7_28" />
</g>
<path d="M807.7,803.9c-2.4,2.1,-4.4,3.3,-9.4,3.3l-10.5,0l0,-26.3l10.5,0c4.9,0,7.2,1.3,9.6,3.5c2.4,2.4,3.7,5.9,3.7,9.7c0,3.9,-1.4,7.4,-3.9,9.8m-9.2,-27.1l-15.3,0l0,34.5l15.3,0c6.4,0,9.7,-1.7,12.8,-4.5c3.2,-3.1,5.1,-7.7,5.1,-12.7c0,-5,-1.8,-9.3,-4.8,-12.4c-3.1,-3,-6.7,-4.9,-13.1,-4.9Z" class="g9_28" />
<path d="M859,776.8l-4.6,0l0,34.5l26.3,0l0,-4.1l-21.7,0Z" class="g9_28" />
<path d="M906.3,776.8l-31.4,0l0,4.1l13.4,0l0,30.4l4.6,0l0,-30.4l13.4,0Z" class="g9_28" />
<path d="M770.2,818.6l2.4,0l0,-49l-2.4,0l0,49Z" class="g10_28" />
<path d="M744.3,794.1l0,2l11.2,0l0,8.7c-2.6,2.1,-7.1,3.3,-11.1,3.3c-9.1,0,-14.6,-6.6,-14.6,-14c0,-7.7,6,-14.1,14.2,-14.1c4.3,0,9.1,1.8,12.2,4.6l3.2,-2.8C754.9,778,749.3,776,743.9,776c-10.5,0,-18.9,8,-18.9,18.1c0,10,8.3,18.1,19.1,18.1c5.5,0,11.4,-2,15.6,-5.2l0,-15l-15.4,0Z" class="g9_28" />
<path d="M825.3,796.1l13.9,0l0,-2l0,-2.1l-13.9,0l0,-11.1l23.1,0l0,-4.1l-27.7,0l0,34.5l28.9,0l0,-4.1l-24.3,0Z" class="g9_28" />
<path d="M706,776.8l-19.9,34.5l0.1,0l4.8,0L697,801l9.7,0l0,-3.7l-7.6,0L706.7,784l15.8,27.3l4.8,0L707.4,776.8Z" class="g9_28" />
<path d="M923.2,776.8l-1.4,0l-19.9,34.5l0.1,0l4.8,0L922.5,784l7.6,13.3l-7.6,0l0,3.7l9.8,0l5.9,10.3l4.9,0Z" class="g9_28" />
<text 
x="916" 
y="679" 
dx="0,-1.5,-0.5,0,0" 
class="s9_28"
>Front</text>

<text 
x="1897" 
y="679" 
dx="0,0,0,0" 
class="s9_28"
>Back</text>

<text 
x="426" 
y="404" 
dx="0,0,0,0,0,0,0,0,0,0,-0.6,0,-0.5,0,0,0,-0.5,-0.3,0,0,-0.3,-0.3,0,0,-0.6,0,0,0,0,0,0,0,-0.4,0,0,0,0,0,0,0,0,-0.6,0,-0.5,0,0,0,0,0,0,0,0" 
class="s9_28"
>The name card previews can be downloaded from HERE. </text>

<path d="M1315.2,407.1l93.1,0" class="g11_28" />
<text 
x="426" 
y="337" 
dx="0,0,0,0,-0.5,0,0,0,-0.5,0,0,0,-0.2,0,0,0,0,0,0,0,0,0,0,-1,-0.5,0,0,0,0,0,0,0,0,0,0,0,-0.3,0,0,0,0,0,0,-1,-0.5,0,0,0,0,0,0,0,0,-0.5,0,0,0,0,0,0,0,-0.6,-0.3,0,-0.9,0,0,0,0,0,0,-0.6,0,-0.5,0,0,0" 
class="s9_28"
>There are both Chinese version and English version available for name cards. </text>


<defs>
	<path d="M1324.6,-238.2C1025.1,24.4,947.2,207.8,947.2,478.2c0,216.9,110,458.3,372.8,664.6l22.9,-19.9C1151.9,956.4,1048.1,695.1,1048.1,476.7c0,-270.4,77.9,-482.7,294.8,-692l-18.3,-22.9Z" 
	id="f0_2"
	transform="scale(0.001,-0.001)" />

	<path d="M175.7,-224.5l-22.9,22.9c191,180.3,278,427.7,278,666c0,233.8,-84,466,-282.6,650.9l18.3,22.9C440,927.4,534.7,681.4,534.7,464.4C534.7,194,407.9,-38.1,175.7,-224.5Z" 
	id="f0_3"
	transform="scale(0.001,-0.001)" />


</defs>

<!-- Any embedded fonts defined here -->
<style type="text/css" ><![CDATA[

@font-face {
	font-family: SofiaProRegular_8z;
	src: url("fonts/SofiaProRegular_8z.woff") format("woff");
}

@font-face {
	font-family: SofiaProLight_8x;
	src: url("fonts/SofiaProLight_8x.woff") format("woff");
}

@font-face {
	font-family: SofiaProLight_8y;
	src: url("fonts/SofiaProLight_8y.woff") format("woff");
}

@font-face {
	font-family: Helvetica-Light_9;
	src: url("fonts/Helvetica-Light_9.woff") format("woff");
}

@font-face {
	font-family: SofiaProLight_8;
	src: url("fonts/SofiaProLight_8.woff") format("woff");
}

@font-face {
	font-family: STYuanti-SC-Regular_bm;
	src: url("fonts/STYuanti-SC-Regular_bm.woff") format("woff");
}

]]></style>

</svg>
