<?xml version="1.0" encoding="UTF-8" standalone="no"?>
<!DOCTYPE svg PUBLIC "-//W3C//DTD SVG 1.1//EN"
"http://www.w3.org/Graphics/SVG/1.1/DTD/svg11.dtd">


<!-- Page 30 -->
<svg x="0" y="0" width="2933" height="1650" viewBox="0 0 2933 1650" version="1.1" xmlns="http://www.w3.org/2000/svg" xmlns:xlink="http://www.w3.org/1999/xlink"
style="display: block;margin-left: auto;margin-right: auto;">
<defs>
<clipPath id="c0_30"><path d="M59.6,97.8l0,-55l288.7,0l0,55Z" /></clipPath>
<clipPath id="c1_30"><path d="M352.9,1358.2l0,-851l325.4,0l0,851Z" /></clipPath>
<clipPath id="c2_30"><path d="M834.2,1358.2l0,-851l325.4,0l0,851Z" /></clipPath>
<clipPath id="c3_30"><path d="M1938.8,1017.5l0,-401.3l329.7,0l0,401.3Z" /></clipPath>

<style type="text/css"><![CDATA[

.g1_30{
fill: #FFFFFF;
}
.g2_30{
fill: none;
stroke: #A6AAA9;
stroke-width: 1.5277778;
stroke-linecap: butt;
stroke-linejoin: miter;
stroke-miterlimit: 4;
stroke-dasharray: 4,4;
}
.g3_30{
fill: none;
stroke: #DCDEE0;
stroke-width: 1.5277778;
stroke-linecap: butt;
stroke-linejoin: miter;
stroke-miterlimit: 4;
}
.g4_30{
}
.g5_30{
fill: #E61E19;
}
.g6_30{
fill: #424042;
}
.g7_30{
fill: #211E1E;
}
.g8_30{
fill: #595A5C;
}
.g9_30{
fill: #E72524;
}
.g10_30{
fill: #E22731;
}
.g11_30{
fill: #231F20;
}
.g12_30{
fill: none;
stroke: #9B9B9B;
stroke-width: 0.88171494;
stroke-linecap: butt;
stroke-linejoin: miter;
stroke-miterlimit: 4;
}
.g13_30{
fill: #373435;
}
.g14_30{
fill: #E7C9B2;
}
.g15_30{
fill: #474748;
}
.g16_30{
fill: #D7B8A1;
}
.g17_30{
fill: #E51E19;
}

.s1_30{
font-size: 18.33px;
font-family: Helvetica-Light_9;
fill: #000000;
}
.s2_30{
font-size: 27.50px;
font-family: Helvetica-Light_9;
fill: #53585F;
}
.s3_30{
font-size: 76.39px;
font-family: SofiaProLight_8;
fill: #000000;
}
.s4_30{
font-size: 76.39px;
font-family: SofiaProLight_r;
fill: #000000;
}
.s5_30{
font-size: 38.19px;
font-family: SofiaProLight_8;
fill: #000000;
}
.s6_30{
font-size: 21.15px;
font-family: SofiaProLight_9r;
fill: #373435;
}
.s7_30{
font-size: 42.30px;
font-family: SofiaProRegular_9s;
fill: #FFFFFF;
}
.s8_30{
font-size: 42.30px;
font-family: SofiaProRegular_9t;
fill: #FFFFFF;
}

]]></style>

</defs>
<path d="M0,0
L0,1650
L2933,1650
L2933,0 Z " 
fill="#FFFFFF" stroke="none" />
<path d="M0,1650l2933.3,0l0,-1650L0,0L0,1650Z" class="g1_30" />
<text 
x="127" 
y="123" 
dx="0,0,0,0,0,0,0,0,0,0,0,0,0,0,0,0,0,0,0,0,0,0,0,0" 
class="s1_30"
>Brand Design Guide 2017 </text>

<path d="M387.6,161.3l0,-137.5" class="g2_30" />
<path d="M4.5,1564.2l2924.4,0" class="g3_30" />
<path d="M196.2,81.3c-2.7,2.4,-5,3.8,-10.6,3.8l-11.8,0l0,-29.6l11.8,0c5.5,0,8.1,1.5,10.8,3.9c2.7,2.7,4.2,6.6,4.2,10.8c0,4.4,-1.6,8.4,-4.4,11.1M185.8,50.9l-17.2,0l0,38.7l17.2,0c7.2,0,10.9,-1.9,14.5,-5.1c3.6,-3.5,5.6,-8.6,5.6,-14.3c0,-5.5,-1.9,-10.4,-5.3,-13.9C197.1,53,193,50.9,185.8,50.9Z" class="g4_30" />
<path d="M253.8,50.9l-5.1,0l0,38.7l29.5,0l0,-4.5l-24.4,0Z" class="g4_30" />
<path d="M307,50.9l-35.2,0l0,4.6l15,0l0,34.1l5.2,0l0,-34.1l15,0Z" class="g4_30" />
<g clip-path="url(#c0_30)">
<path d="M154.1,97.8l2.7,0l0,-55l-2.7,0l0,55Z" class="g5_30" />
</g>
<path d="M125,70.3l0,2.3l12.5,0l0,9.7c-2.9,2.4,-7.9,3.8,-12.5,3.8c-10.2,0,-16.3,-7.5,-16.3,-15.8c0,-8.7,6.7,-15.8,15.9,-15.8c4.8,0,10.3,1.9,13.7,5.1l3.6,-3.2c-5,-4.2,-11.3,-6.5,-17.4,-6.5c-11.9,0,-21.2,9.1,-21.2,20.3c0,11.3,9.3,20.4,21.4,20.4c6.2,0,12.8,-2.2,17.5,-5.8l0,-16.8L125,68Z" class="g4_30" />
<path d="M215.9,72.6l15.7,0l0,-2.3l0,-2.3l-15.7,0l0,-12.5l26,0l0,-4.6l-31.1,0l0,38.7l32.5,0l0,-4.5l-27.4,0Z" class="g4_30" />
<g clip-path="url(#c0_30)">
<path d="M81.9,50.9L59.6,89.6l5.4,0L71.7,78l11,0l0,-4.1l-8.6,0L82.7,59l17.7,30.6l5.4,0l0.1,0L83.5,50.9Z" class="g4_30" />
<path d="M326,50.9l-1.6,0L302.1,89.6l5.4,0L325.2,59l8.6,14.9l-8.6,0l0,4.1l11,0l6.7,11.6l5.4,0Z" class="g4_30" />
</g>
<path d="M1.3,180.1l2924.4,0" class="g2_30" />
<text 
x="44" 
y="1610" 
dx="0,0,0,0,0,0,0,0,0,0,0,0,0,0,0,0,0,0,0,0,0,0,0,0,0,0,0,0,0,0,0,0,0,0" 
class="s2_30"
>Copyright © 2017 AG Delta Pte Ltd.</text>

<text 
x="2853" 
y="1610" 
dx="0,0" 
class="s2_30"
>30</text>

<text 
x="435" 
y="120" 
dx="0,-1,0,-0.7,-0.9,0,-1.1,0,0,0,0,0,0,-0.4,-0.7" 
class="s3_30"
>Lanyard and Sta</text>

<text 
x="1008" 
y="120" 
dx="0" 
class="s4_30"
>ﬀ</text>

<text 
x="1080" 
y="120" 
dx="0,-1.5,0,0" 
class="s3_30"
>Pass</text>

<text 
x="435" 
y="336" 
dx="0,-0.2,-0.3,0,0,0,0,-0.5,0" 
class="s5_30"
>Standard </text>

<text 
x="472" 
y="381" 
dx="0,-1.5,-0.5,0,0" 
class="s5_30"
>Front</text>

<text 
x="915" 
y="336" 
dx="0,-0.2,-0.3,0,0,0,0,-0.5,0" 
class="s5_30"
>Standard </text>

<text 
x="954" 
y="381" 
dx="0,0,0,0" 
class="s5_30"
>Back</text>

<path d="M514.2,507.9l-118.9,0l-41.7,63.5l0.1,0.5l53.3,0l108.3,0l109,0l53.3,0l0.1,-0.5L636,507.9Z" class="g6_30" />
<path d="M395.1,507.2L353,571.3l0.3,1.3l324.7,0l0.3,-1.3L636.2,507.2Zm0.5,1.4l240.1,0l41.1,62.6l-322.3,0Z" class="g6_30" />
<g clip-path="url(#c1_30)">
<path d="M636.3,507.2L515.6,1074.1l24,111.6l0.5,0L678.3,572Z" class="g7_30" />
</g>
<path d="M515.6,1073.6L490.2,1170l0,3.9l1.4,5.3l0,32.8l48.1,0l0,-32.8l1.4,-5.3l0,-3.9Z" class="g7_30" />
<g clip-path="url(#c1_30)">
<path d="M395.1,507.2L352.9,572l138.8,618.5l1.4,-10.6l22.5,-105.8Z" class="g7_30" />
</g>
<path d="M534.7,1236.2l-40.1,0l0,-18.6c0,-8.7,9,-15.7,20,-15.7c11.1,0,20.1,7,20.1,15.7Zm-20.1,-41.4c-14.9,0,-26.9,12.1,-26.9,27l0,20.8c0,2.4,1.9,4.4,4.3,4.4l45.2,0c2.5,0,4.4,-2,4.4,-4.4l0,-20.8c0,-14.9,-12.1,-27,-27,-27Z" class="g6_30" />
<path d="M495.2,1235.6l38.9,0l0,-18c0,-8.3,-8.7,-15.1,-19.5,-15.1c-10.7,0,-19.4,6.8,-19.4,15.1Zm40.1,1.2l-41.3,0l0,-19.2c0,-9,9.3,-16.3,20.6,-16.3c11.4,0,20.7,7.3,20.7,16.3Zm-20.7,-41.4c-14.5,0,-26.3,11.9,-26.3,26.4l0,20.8c0,2.1,1.6,3.8,3.7,3.8l45.2,0c2.1,0,3.8,-1.7,3.8,-3.8l0,-20.8c0,-14.5,-11.8,-26.4,-26.4,-26.4m22.6,52.2l-45.2,0c-2.7,0,-5,-2.2,-5,-5l0,-20.8c0,-15.2,12.4,-27.6,27.6,-27.6c15.3,0,27.6,12.4,27.6,27.6l0,20.8c0,2.8,-2.2,5,-5,5Z" class="g6_30" />
<path d="M523.7,1230c0,3,-2.5,5.4,-5.5,5.4l-7.2,0c-3,0,-5.4,-2.4,-5.4,-5.4c0,-3,2.4,-5.4,5.4,-5.4l7.2,0c3,0,5.5,2.4,5.5,5.4Z" class="g6_30" />
<path d="M511,1225.2c-2.6,0,-4.8,2.1,-4.8,4.8c0,2.6,2.2,4.8,4.8,4.8l7.2,0c2.7,0,4.9,-2.2,4.9,-4.8c0,-2.7,-2.2,-4.8,-4.9,-4.8Zm7.2,10.8l-7.2,0c-3.3,0,-6,-2.7,-6,-6c0,-3.3,2.7,-6,6,-6l7.2,0c3.4,0,6.1,2.7,6.1,6c0,3.3,-2.7,6,-6.1,6Z" class="g6_30" />
<g clip-path="url(#c1_30)">
<path d="M514.6,1253.4l14.5,0l8,64.3c0,0,9.1,40.5,-26.4,39.9c0,0,-28.4,2.7,-27.1,-37.4l8.8,3.5c0,0,-4.7,23.7,18.4,26.7c0,0,22.3,2,18.7,-25.9c0,0,-1,-31.3,-31.3,-26.1l-6.8,20.1l-9.1,-6c0,0,21.1,-54.5,19.1,-59.1Z" class="g6_30" />
<path d="M484.2,1321.1c-0.3,13,2.6,22.7,8.5,28.9c6.2,6.3,13.9,7,16.9,7c0.7,0,1.1,0,1.1,0c0.3,0,0.6,0,0.8,0c9,0,15.8,-2.8,20.2,-8.3c9.1,-11.4,4.9,-30.7,4.8,-30.9L528.6,1254l-26.5,0c0.3,7.8,-16.3,51.2,-19,58.2l7.9,5.4l6.7,-19.7l0.4,-0.1c2.3,-0.4,4.5,-0.6,6.6,-0.6c24.2,0,25.4,27,25.4,27.3c1.2,9.1,-0.3,16.1,-4.3,20.7c-4.6,5.3,-11.4,5.9,-14,5.9c-0.7,0,-1.1,-0.1,-1.1,-0.1c-6.8,-0.9,-12,-3.6,-15.2,-8.2c-5.2,-7.2,-4.2,-16.5,-3.8,-18.7Zm25.4,37.1c-3.2,0,-11.3,-0.7,-17.7,-7.4c-6.3,-6.5,-9.3,-16.8,-8.9,-30.6l0.1,-0.9l10,4l-0.1,0.5c-0.1,0.1,-2.1,10.7,3.4,18.3c3.1,4.3,8,6.9,14.5,7.7c0,0,0.3,0,0.9,0c2.5,0,8.8,-0.5,13.1,-5.4c3.8,-4.4,5.1,-11,4,-19.8c-0.1,-1.1,-1.1,-26.2,-24.2,-26.2c-1.9,0,-4,0.2,-6.1,0.5l-6.9,20.5l-10.1,-6.7l0.2,-0.5c8.4,-21.7,20.4,-55.3,19,-58.5l-0.3,-0.9l29.1,0l8.1,64.8c0.2,0.8,4.4,20,-5,31.8c-4.7,5.8,-11.8,8.8,-21.2,8.8c-0.3,0,-0.5,0,-0.8,0c0,0,-0.4,0,-1.1,0Z" class="g6_30" />
</g>
<path d="M556.5,1301.9c-1,3.5,-4.6,5.7,-8.2,4.7l-23.7,-6.3c-3.6,-0.9,-5.7,-4.6,-4.8,-8.2c1,-3.6,4.7,-5.7,8.3,-4.8l23.6,6.3c3.6,1,5.7,4.7,4.8,8.3Z" class="g6_30" />
<path d="M526.3,1287.7c-2.7,0,-5.2,1.9,-5.9,4.5c-0.4,1.6,-0.2,3.3,0.6,4.7c0.9,1.4,2.2,2.4,3.8,2.8l23.6,6.3c0.5,0.2,1.1,0.3,1.6,0.3c2.8,0,5.2,-1.9,5.9,-4.6c0.4,-1.6,0.2,-3.2,-0.6,-4.6c-0.8,-1.5,-2.2,-2.5,-3.7,-2.9l-23.7,-6.3c-0.5,-0.1,-1,-0.2,-1.6,-0.2m23.7,19.8c-0.6,0,-1.3,-0.1,-1.9,-0.3l-23.6,-6.3c-1.9,-0.5,-3.5,-1.7,-4.5,-3.4c-1,-1.7,-1.2,-3.7,-0.7,-5.6c0.8,-3.2,3.7,-5.4,7,-5.4c0.7,0,1.3,0.1,1.9,0.2l23.7,6.3c1.9,0.5,3.4,1.8,4.4,3.5c1,1.6,1.3,3.6,0.8,5.5c-0.9,3.2,-3.8,5.5,-7.1,5.5Z" class="g6_30" />
<path d="M534.3,1253.4c0,3.6,-2.9,6.4,-6.4,6.4l-26.5,0c-3.5,0,-6.4,-2.8,-6.4,-6.4c0,-3.5,2.9,-6.4,6.4,-6.4l26.5,0c3.5,0,6.4,2.9,6.4,6.4Z" class="g8_30" />
<path d="M533.4,1126.2c0.7,1.1,1,2.1,0.6,4.1l-0.9,4.4l-10.8,-2.2l0.9,-4.4c0.4,-2,1.1,-2.9,2.2,-3.7c1.2,-0.7,2.7,-1,4.3,-0.7c1.6,0.4,2.9,1.2,3.7,2.5m-11.9,1.5l-1.3,6.3l14.2,2.9l1.3,-6.3c0.5,-2.6,0.1,-4.1,-0.8,-5.7c-1,-1.6,-2.7,-2.7,-4.8,-3.2c-2,-0.4,-4,0,-5.5,1c-1.5,1,-2.6,2.3,-3.1,5Z" class="g1_30" />
<path d="M526.6,1102.7l-0.4,1.9l14.2,2.9l2.3,-10.9l-1.7,-0.3l-1.8,9Z" class="g1_30" />
<path d="M530.6,1083.2l-2.6,12.9l1.7,0.3l1.1,-5.5l12.5,2.6l0.4,-1.9L531.2,1089l1.1,-5.5Z" class="g1_30" />
<path d="M536.3,1142.9l0.2,-1l-20.2,-4.2l-0.2,1Z" class="g9_30" />
<path d="M524,1151.5l0.8,0.2l1,-4.6l3.6,0.7c0.6,1.3,0.7,3.2,0.4,4.9c-0.8,3.7,-4,5.4,-7,4.8c-3.2,-0.7,-5.3,-3.7,-4.6,-7c0.3,-1.8,1.5,-3.7,2.9,-4.7l-0.9,-1.5c-1.9,1.5,-3.3,3.6,-3.7,5.8c-0.9,4.4,1.7,8.5,5.8,9.4c4.2,0.8,8.2,-1.9,9.2,-6.4c0.4,-2.2,0.1,-4.8,-0.9,-6.8l-6.1,-1.3l-1.3,6.3Z" class="g1_30" />
<path d="M531.7,1118.2l1.2,-5.7l-0.8,-0.2l-0.9,-0.2l-1.2,5.8l-4.6,-0.9l2,-9.6l-1.7,-0.3l-2.3,11.4l14.2,2.9l2.4,-11.9l-1.6,-0.4l-2.1,10.1Z" class="g1_30" />
<path d="M513.6,1165.9l12.6,11.1l0.4,-2l-3.8,-3.3l0.8,-4.1l-1.5,-0.3l-0.6,3.2l-4.8,-4.3l12.5,-4.2l0.5,-2l-15.9,5.3Z" class="g1_30" />
<path d="M532.1,1076.2l-0.1,0.5l12.5,11.2l0.4,-2l-9.9,-8.8l6.1,-2.1l-0.7,3.2l1.6,0.3l0.8,-4l4.8,-1.6l0.4,-2Z" class="g1_30" />
<path d="M565.3,982.5c0.6,1.1,1,2.1,0.5,4.1l-1,4.4L554,988.5l1,-4.4c0.4,-2,1.2,-2.8,2.3,-3.6c1.2,-0.7,2.8,-0.9,4.3,-0.6c1.6,0.4,2.9,1.3,3.7,2.6m-12,1.2l-1.4,6.3l14.1,3.2l1.5,-6.2c0.6,-2.7,0.2,-4.2,-0.7,-5.7c-1,-1.7,-2.7,-2.9,-4.7,-3.3c-2,-0.5,-4,-0.2,-5.6,0.8c-1.5,1,-2.6,2.3,-3.2,4.9Z" class="g1_30" />
<path d="M559.1,958.8l-0.5,1.9l14.2,3.3l2.5,-10.8l-1.7,-0.4l-2.1,8.9Z" class="g1_30" />
<path d="M563.5,939.4l-2.9,12.9l1.6,0.4l1.3,-5.5L576,950l0.4,-1.8L564,945.3l1.2,-5.5Z" class="g1_30" />
<path d="M567.8,999.3l0.2,-1l-20.1,-4.7l-0.2,1Z" class="g9_30" />
<path d="M555.3,1007.6l0.8,0.2l1.1,-4.6l3.5,0.8c0.6,1.3,0.7,3.2,0.3,4.9c-0.8,3.7,-4.1,5.3,-7.1,4.6c-3.2,-0.7,-5.2,-3.8,-4.4,-7.1c0.4,-1.8,1.5,-3.6,3,-4.6l-0.9,-1.6c-1.9,1.5,-3.3,3.6,-3.8,5.8c-1,4.4,1.5,8.5,5.6,9.5c4.1,0.9,8.3,-1.7,9.3,-6.1c0.5,-2.3,0.2,-4.9,-0.7,-6.9l-6.1,-1.4l-1.5,6.3Z" class="g1_30" />
<path d="M563.8,974.5l1.3,-5.7l-0.8,-0.2l-0.9,-0.2l-1.3,5.7l-4.6,-1l2.2,-9.5l-1.6,-0.4l-2.7,11.4l14.2,3.2L572.3,966l-1.7,-0.4l-2.3,10Z" class="g1_30" />
<path d="M544.6,1021.7l12.2,11.4l0.5,-2l-3.7,-3.4l0.9,-4l-1.5,-0.4l-0.7,3.2l-4.7,-4.4l12.7,-3.9l0.4,-2l-16,4.9Z" class="g1_30" />
<path d="M565.2,932.4L565,933l12.3,11.5l0,-0.1l0.4,-1.9L568,933.4l6.2,-1.9l-0.7,3.2L575,935l0.9,-4l4.8,-1.5l0.5,-1.9l0,-0.1Z" class="g1_30" />
<path d="M598.5,837.4c0.7,1.2,1,2.2,0.5,4.2l-1,4.3l-10.8,-2.5l1,-4.4c0.5,-2,1.2,-2.8,2.4,-3.6c1.2,-0.7,2.7,-0.9,4.3,-0.5c1.6,0.3,2.9,1.3,3.6,2.5m-11.9,1.2l-1.5,6.3l14.1,3.3l1.5,-6.3c0.6,-2.6,0.2,-4.1,-0.6,-5.7c-1,-1.6,-2.7,-2.8,-4.8,-3.3c-2,-0.5,-3.9,-0.2,-5.5,0.8c-1.5,0.9,-2.6,2.2,-3.2,4.9Z" class="g1_30" />
<path d="M592.4,813.7l-0.4,1.9l14.1,3.4l2.6,-10.8L607,807.8l-2.1,8.9Z" class="g1_30" />
<path d="M597,794.3l-3,12.9l1.6,0.4l1.3,-5.5l12.5,2.9l0.4,-1.8l-12.4,-3l1.3,-5.5Z" class="g1_30" />
<path d="M600.9,854.2l0.2,-1l-20,-4.7l-0.3,1Z" class="g10_30" />
<path d="M588.4,862.5l0.8,0.2l1.1,-4.6l3.5,0.8c0.6,1.3,0.7,3.2,0.3,4.9c-0.9,3.7,-4.1,5.3,-7.1,4.6c-3.2,-0.7,-5.2,-3.8,-4.4,-7.2c0.4,-1.7,1.6,-3.5,3,-4.5l-0.8,-1.6c-2,1.4,-3.4,3.5,-3.9,5.8c-1,4.3,1.5,8.5,5.6,9.5c4.1,0.9,8.2,-1.7,9.3,-6.1c0.5,-2.2,0.3,-4.9,-0.7,-6.9L589,856l-1.5,6.3Z" class="g1_30" />
<path d="M597,829.4l1.4,-5.7l-0.8,-0.2l-0.9,-0.2l-1.3,5.7l-4.6,-1l2.3,-9.5l-1.7,-0.4l-2.7,11.3l14.1,3.4l2.8,-11.9L604,820.5l-2.4,10Z" class="g1_30" />
<path d="M577.6,876.5L589.8,888l0.4,-2l-3.6,-3.4l0.9,-4L586,878.2l-0.7,3.1l-4.7,-4.4l12.7,-3.8l0.5,-2l-16.1,4.8Z" class="g1_30" />
<path d="M598.7,787.4l-0.2,0.6l12.2,11.5l0.5,-2l-9.7,-9.1l6.2,-1.9l-0.7,3.1l1.5,0.4l0.9,-4l4.8,-1.4l0.5,-2Z" class="g1_30" />
<path d="M631.2,687.5c0.6,1.2,1,2.1,0.5,4.2l-1,4.3l-10.8,-2.5l1,-4.3c0.4,-2,1.2,-2.9,2.3,-3.6c1.2,-0.8,2.8,-1,4.3,-0.6c1.6,0.3,2.9,1.3,3.7,2.5m-12,1.2l-1.4,6.3l14.1,3.3l1.5,-6.3c0.6,-2.6,0.2,-4.1,-0.7,-5.7C631.8,684.7,630,683.5,628,683c-2,-0.5,-4,-0.2,-5.6,0.8c-1.5,1,-2.6,2.3,-3.2,4.9Z" class="g1_30" />
<path d="M625,663.9l-0.5,1.9l14.2,3.2l2.5,-10.8l-1.7,-0.4l-2.1,9Z" class="g1_30" />
<path d="M629.4,644.4l-2.9,12.9l1.6,0.4l1.3,-5.5l12.5,2.9l0.4,-1.9l-12.4,-2.9l1.2,-5.5Z" class="g1_30" />
<path d="M633.7,704.3l0.2,-1l-20.1,-4.6l-0.2,1Z" class="g10_30" />
<path d="M621.2,712.6l0.8,0.2l1.1,-4.6l3.5,0.8c0.6,1.3,0.7,3.3,0.3,4.9c-0.8,3.7,-4.1,5.4,-7.1,4.7c-3.2,-0.8,-5.2,-3.8,-4.4,-7.2c0.4,-1.7,1.5,-3.6,3,-4.6l-0.9,-1.5c-1.9,1.4,-3.3,3.5,-3.8,5.8c-1,4.3,1.5,8.5,5.6,9.4c4.1,1,8.3,-1.6,9.3,-6.1c0.5,-2.2,0.2,-4.9,-0.7,-6.9l-6.1,-1.4l-1.5,6.3Z" class="g1_30" />
<path d="M629.7,679.5l1.3,-5.7l-0.8,-0.2l-0.9,-0.2l-1.3,5.8l-4.6,-1.1l2.2,-9.5L624,668.2l-2.7,11.4l14.2,3.3L638.2,671l-1.7,-0.4l-2.3,10Z" class="g1_30" />
<path d="M610.5,726.7l12.2,11.5l0,-0.1l0.5,-1.9l-3.7,-3.5l0.9,-4l-1.5,-0.3l-0.7,3.1l-4.7,-4.4l12.7,-3.9l0.4,-2l-16,4.9Z" class="g1_30" />
<path d="M631.1,637.5l-0.2,0.6l12.3,11.4l0.4,-2l-9.7,-9l6.2,-1.9l-0.7,3.1l1.5,0.3l0.9,-4l4.8,-1.4l0.5,-2Z" class="g1_30" />
<path d="M663.5,540.4c0.6,1.2,0.9,2.2,0.4,4.2l-1,4.4l-10.8,-2.5l1,-4.4c0.5,-2,1.3,-2.8,2.4,-3.6c1.2,-0.7,2.7,-0.9,4.3,-0.6c1.6,0.4,2.9,1.3,3.7,2.5m-12,1.3L650,548l14.2,3.2l1.4,-6.3c0.6,-2.6,0.2,-4.1,-0.6,-5.7c-1,-1.6,-2.7,-2.8,-4.8,-3.3c-2,-0.4,-3.9,-0.1,-5.5,0.8c-1.5,1,-2.6,2.3,-3.2,5Z" class="g1_30" />
<path d="M665.9,557.2l0.2,-0.9l-20,-4.7l-0.3,1Z" class="g9_30" />
<path d="M653.4,565.6l0.8,0.1l1.1,-4.5l3.6,0.8c0.6,1.3,0.7,3.2,0.3,4.9c-0.9,3.7,-4.1,5.3,-7.2,4.6c-3.1,-0.7,-5.2,-3.8,-4.4,-7.1c0.4,-1.8,1.6,-3.6,3.1,-4.6l-0.9,-1.6c-2,1.5,-3.3,3.6,-3.9,5.8c-1,4.3,1.6,8.5,5.7,9.5c4.1,0.9,8.2,-1.7,9.2,-6.1c0.5,-2.3,0.3,-4.9,-0.6,-6.9L654,559.1l-1.4,6.3Z" class="g1_30" />
<path d="M642.7,579.7L655,591.1l0.4,-2l-3.7,-3.4l1,-4l-1.5,-0.4l-0.8,3.1l-4.7,-4.3l12.7,-3.9l0.5,-2l-16.1,4.9Z" class="g1_30" />
<path d="M488.7,1041.1c1,0.8,1.8,1.5,2.3,3.5l1,4.4l-10.8,2.6l-1,-4.3c-0.5,-2.1,-0.2,-3.1,0.5,-4.3c0.7,-1.2,2,-2.1,3.5,-2.5c1.6,-0.4,3.2,-0.1,4.5,0.6m-10.2,6.5l1.5,6.3l14.1,-3.5l-1.5,-6.2c-0.6,-2.7,-1.6,-3.8,-3.1,-4.8c-1.6,-1.1,-3.7,-1.4,-5.7,-0.9c-2,0.5,-3.7,1.7,-4.6,3.2c-0.9,1.6,-1.3,3.3,-0.7,5.9Z" class="g1_30" />
<path d="M472.5,1022.8l0.5,1.9l14.1,-3.4l-2.6,-10.8l-1.7,0.4l2.1,8.9Z" class="g1_30" />
<path d="M467.8,1003.4l3.1,12.8l1.7,-0.4l-1.3,-5.4l12.4,-3.1l-0.5,-1.8l-12.4,3l-1.3,-5.5Z" class="g1_30" />
<path d="M498.4,1055l-0.3,-1l-20,4.9l0.2,1Z" class="g9_30" />
<path d="M490.9,1068.1l0.9,-0.2l-1.2,-4.6l3.6,-0.9c1.1,0.9,2.1,2.6,2.5,4.3c0.9,3.7,-1.3,6.6,-4.3,7.3c-3.2,0.8,-6.4,-1,-7.2,-4.4c-0.4,-1.8,-0.2,-3.9,0.7,-5.5l-1.5,-1c-1.1,2.2,-1.4,4.7,-0.8,6.9c1,4.4,5.1,7,9.2,6c4.1,-1,6.6,-5.2,5.6,-9.6c-0.6,-2.3,-2,-4.5,-3.7,-5.9l-6.1,1.5l1.5,6.3Z" class="g1_30" />
<path d="M483.7,1034.7l-1.4,-5.7l-0.8,0.2l-0.8,0.2l1.4,5.7l-4.6,1.1l-2.3,-9.5l-1.6,0.4l2.7,11.4l14.1,-3.4l-2.9,-11.9l-1.6,0.4l2.4,10Z" class="g1_30" />
<path d="M487.7,1085.5l16,4.7l-0.4,-2l-4.9,-1.4l-0.9,-4l-1.5,0.4l0.7,3.1l-6.2,-1.8l9.6,-9.2l-0.4,-2l-12.2,11.6Z" class="g1_30" />
<path d="M466.1,996.5l0.2,0.5l16,4.8l-0.4,-2L469.1,996l4.7,-4.4l0.8,3.1l1.5,-0.4l-1,-3.9l3.6,-3.5l-0.4,-2Z" class="g1_30" />
<path d="M456.3,897.5c1,0.8,1.7,1.6,2.2,3.6l0.9,4.4l-10.8,2.3l-1,-4.3c-0.4,-2.1,-0.1,-3.1,0.6,-4.3c0.8,-1.2,2.1,-2,3.7,-2.4c1.6,-0.3,3.2,-0.1,4.4,0.7M446,903.8l1.3,6.3L461.5,907l-1.4,-6.3c-0.5,-2.7,-1.5,-3.9,-3,-4.9c-1.6,-1.1,-3.6,-1.4,-5.7,-1c-2,0.5,-3.6,1.6,-4.6,3.1c-1,1.6,-1.4,3.2,-0.8,5.9Z" class="g1_30" />
<path d="M440.6,878.8l0.4,1.9l14.1,-3.1l-2.3,-10.8l-1.7,0.4l2,8.9Z" class="g1_30" />
<path d="M436.3,859.3l2.8,12.9l1.7,-0.3l-1.2,-5.5l12.5,-2.8l-0.4,-1.8l-12.5,2.7L438,859Z" class="g1_30" />
<path d="M465.6,911.7l-0.2,-1l-20.1,4.4l0.2,0.9Z" class="g9_30" />
<path d="M457.9,924.5l0.8,-0.2l-1,-4.6l3.6,-0.7c1.1,0.9,2,2.6,2.4,4.3c0.8,3.7,-1.5,6.5,-4.5,7.2c-3.2,0.7,-6.3,-1.2,-7.1,-4.6c-0.4,-1.7,-0.1,-3.9,0.8,-5.4l-1.4,-1.1c-1.2,2.2,-1.5,4.7,-1,6.9c0.9,4.4,5,7.1,9.1,6.2c4.1,-0.9,6.7,-5,5.8,-9.5c-0.5,-2.3,-1.9,-4.5,-3.6,-5.9l-6.1,1.3l1.3,6.3Z" class="g1_30" />
<path d="M451.5,891l-1.3,-5.7l-0.8,0.1l-0.8,0.2l1.2,5.7l-4.6,1l-2,-9.5l-1.7,0.4l2.5,11.4l14.1,-3.1l-2.5,-11.9l-1.7,0.4l2.2,10Z" class="g1_30" />
<path d="M454.2,941.9l16,5.1l-0.5,-2l-4.8,-1.6l-0.8,-4l-1.5,0.3l0.6,3.2l-6.1,-2l9.8,-8.9l-0.4,-2l-12.4,11.3Z" class="g1_30" />
<path d="M434.8,852.4l0.1,0.5l16,5.2l0,-0.1l-0.4,-1.9L437.8,852l4.8,-4.3l0.7,3.1l1.5,-0.3l-0.9,-4l3.7,-3.4l-0.4,-2Z" class="g1_30" />
<path d="M424.5,752.1c1.1,0.9,1.8,1.6,2.2,3.6l0.9,4.4l-10.8,2.3L415.9,758c-0.5,-2,-0.1,-3.1,0.6,-4.2c0.8,-1.2,2.1,-2.1,3.6,-2.4c1.6,-0.3,3.2,-0.1,4.4,0.7m-10.3,6.2l1.3,6.3l14.2,-3l-1.3,-6.3c-0.6,-2.6,-1.6,-3.8,-3,-4.9c-1.6,-1.1,-3.6,-1.4,-5.7,-1c-2,0.4,-3.7,1.5,-4.7,3.1c-0.9,1.5,-1.4,3.2,-0.8,5.8Z" class="g1_30" />
<path d="M408.9,733.3l0.4,1.9l14.2,-3l-2.3,-10.8l-1.7,0.3l1.9,9Z" class="g1_30" />
<path d="M404.8,713.8l2.7,13l1.7,-0.4L408,720.9l12.5,-2.7l-0.4,-1.9L407.6,719l-1.1,-5.5Z" class="g1_30" />
<path d="M433.8,766.3l-0.2,-1l-20.2,4.3l0.3,1Z" class="g9_30" />
<path d="M426,779.1l0.8,-0.1l-1,-4.6l3.6,-0.8c1.1,0.9,2,2.6,2.4,4.3c0.8,3.7,-1.5,6.6,-4.5,7.2c-3.2,0.7,-6.4,-1.2,-7.1,-4.6c-0.4,-1.8,-0.1,-3.9,0.9,-5.4L419.6,774c-1.2,2.2,-1.5,4.7,-1,6.9c0.9,4.3,4.9,7.1,9.1,6.2c4.1,-0.9,6.7,-5,5.8,-9.4c-0.5,-2.3,-1.8,-4.6,-3.5,-6l-6.2,1.3l1.3,6.3Z" class="g1_30" />
<path d="M419.8,745.6l-1.2,-5.8l-0.9,0.2l-0.8,0.2l1.2,5.7l-4.6,1l-2,-9.5l-1.7,0.3l2.4,11.4l14.2,-3l-2.5,-11.9l-1.7,0.4l2.2,10Z" class="g1_30" />
<path d="M422.2,796.5l15.9,5.2l0,-0.1l-0.4,-1.9l-4.8,-1.6l-0.8,-4l-1.5,0.3l0.6,3.1l-6.1,-2l9.9,-8.8l-0.4,-2l-12.5,11.2Z" class="g1_30" />
<path d="M403.3,706.8l0.1,0.6l16,5.2l-0.5,-2l-12.6,-4.1l4.8,-4.3l0.7,3.1l1.5,-0.3l-0.8,-4l3.7,-3.4l-0.4,-1.9l0,-0.1Z" class="g1_30" />
<path d="M390.2,602.6c1.1,0.8,1.8,1.5,2.2,3.6l1,4.3l-10.9,2.4l-0.9,-4.4c-0.5,-2,-0.1,-3.1,0.6,-4.2c0.7,-1.2,2,-2.1,3.6,-2.4c1.6,-0.4,3.2,-0.1,4.4,0.7m-10.3,6.2l1.4,6.3l14.1,-3l-1.3,-6.3c-0.6,-2.7,-1.6,-3.9,-3,-4.9c-1.6,-1.1,-3.7,-1.4,-5.7,-1c-2.1,0.5,-3.7,1.6,-4.7,3.1c-0.9,1.5,-1.4,3.2,-0.8,5.8Z" class="g1_30" />
<path d="M374.5,583.9l0.4,1.9l14.2,-3.1l-2.4,-10.8l-1.6,0.3l1.9,9Z" class="g1_30" />
<path d="M370.3,564.4l2.8,12.9l1.6,-0.3l-1.2,-5.6L386,568.7l-0.4,-1.9l-12.5,2.7L371.9,564Z" class="g1_30" />
<path d="M399.6,616.8l-0.2,-1l-20.2,4.3l0.2,1Z" class="g9_30" />
<path d="M391.8,629.6l0.9,-0.2l-1,-4.6l3.5,-0.8c1.1,0.9,2,2.7,2.4,4.3c0.8,3.8,-1.4,6.6,-4.5,7.3c-3.2,0.7,-6.3,-1.2,-7,-4.6c-0.4,-1.8,-0.1,-3.9,0.8,-5.4l-1.5,-1.1c-1.1,2.2,-1.5,4.7,-1,6.9c0.9,4.3,5,7.1,9.1,6.2c4.2,-0.9,6.8,-5.1,5.8,-9.5c-0.5,-2.3,-1.9,-4.5,-3.5,-6l-6.2,1.4l1.4,6.3Z" class="g1_30" />
<path d="M385.4,596.1l-1.2,-5.8l-0.9,0.2l-0.8,0.2l1.2,5.7l-4.5,1l-2.1,-9.5l-1.7,0.4l2.5,11.4l14.2,-3.1l-2.6,-11.9l-1.7,0.4l2.2,10Z" class="g1_30" />
<path d="M388.1,646.9l16,5.1l-0.4,-2l-4.8,-1.5l-0.9,-4l-1.5,0.3l0.7,3.2L391,646l9.9,-8.9l-0.5,-2L388,646.3Z" class="g1_30" />
<path d="M368.7,557.4l0.2,0.6l15.9,5.1l-0.4,-2l-12.6,-4l4.7,-4.3l0.7,3.1l1.5,-0.3l-0.8,-4.1l3.7,-3.3l-0.4,-2l-0.1,0Z" class="g1_30" />
<path d="M511.7,545.4c-1.2,1,-2.2,1.6,-4.6,1.6l-5.2,0l0,-12.8l5.2,0c2.4,0,3.5,0.7,4.7,1.7c1.1,1.2,1.8,2.9,1.8,4.7c0,1.9,-0.7,3.6,-1.9,4.8m-4.5,-13.2l-7.5,0l0,16.8l7.5,0c3.1,0,4.7,-0.8,6.2,-2.2c1.6,-1.5,2.5,-3.7,2.5,-6.2c0,-2.4,-0.9,-4.5,-2.3,-6c-1.6,-1.5,-3.3,-2.4,-6.4,-2.4Z" class="g1_30" />
<path d="M536.6,532.2l-2.2,0l0,16.8l12.8,0l0,-2l-10.6,0Z" class="g1_30" />
<path d="M559.7,532.2l-15.3,0l0,2l6.6,0l0,14.8l2.2,0l0,-14.8l6.5,0Z" class="g1_30" />
<path d="M493.4,552.5l1.2,0l0,-23.8l-1.2,0l0,23.8Z" class="g9_30" />
<path d="M480.8,540.6l0,1l5.4,0l0,4.2c-1.3,1.1,-3.4,1.7,-5.4,1.7c-4.4,0,-7.1,-3.3,-7.1,-6.9c0,-3.7,2.9,-6.8,6.9,-6.8c2.1,0,4.5,0.8,6,2.2l1.5,-1.4c-2.2,-1.8,-4.9,-2.8,-7.5,-2.8c-5.2,0,-9.2,3.9,-9.2,8.8c0,4.9,4,8.9,9.3,8.9c2.7,0,5.5,-1,7.6,-2.6l0,-7.3l-7.5,0Z" class="g1_30" />
<path d="M520.2,541.6l6.8,0l0,-1l0,-1l-6.8,0l0,-5.4l11.3,0l0,-2l-13.5,0l0,16.8l14.1,0l0,-2l-11.9,0Z" class="g1_30" />
<path d="M462.1,532.2L452.4,549l0.1,0l2.3,0l2.9,-5l4.8,0l0,-1.8l-3.8,0l3.8,-6.5l7.6,13.3l2.4,0l-9.7,-16.8Z" class="g1_30" />
<path d="M567.9,532.2l-0.7,0L557.6,549l2.3,0l7.7,-13.3l3.7,6.5l-3.7,0l0,1.8l4.8,0l2.9,5l2.3,0Z" class="g1_30" />
<path d="M876.3,507.2l-42.1,64.1l0.3,1.3l324.8,0l0.3,-1.3l-42.1,-64.1Zm0.6,1.4l240,0l41.2,62.6l-322.4,0Z" class="g6_30" />
<path d="M995.4,507.9l-118.8,0l-41.8,63.5l0.1,0.5l53.3,0l108.4,0l109,0l53.2,0l0.1,-0.5l-41.7,-63.5Z" class="g6_30" />
<g clip-path="url(#c2_30)">
<path d="M1117.5,507.2L996.9,1074.1l23.9,111.6l0.5,0L1159.6,572Z" class="g6_30" />
</g>
<path d="M996.9,1073.6L971.4,1170l0,3.9l1.4,5.3l0,32.8l48.2,0l0,-32.8l1.4,-5.3l0,-3.9Z" class="g6_30" />
<g clip-path="url(#c2_30)">
<path d="M876.3,507.2L834.2,572l138.7,618.5l1.5,-10.6l22.5,-105.8Z" class="g6_30" />
</g>
<path d="M1015.9,1236.2l-40,0l0,-18.6c0,-8.7,8.9,-15.7,20,-15.7c11,0,20,7,20,15.7Zm-20,-41.4c-14.9,0,-27,12.1,-27,27l0,20.8c0,2.4,2,4.4,4.4,4.4l45.2,0c2.4,0,4.4,-2,4.4,-4.4l0,-20.8c0,-14.9,-12.1,-27,-27,-27Z" class="g6_30" />
<path d="M976.5,1235.6l38.8,0l0,-18c0,-8.3,-8.7,-15.1,-19.4,-15.1c-10.7,0,-19.4,6.8,-19.4,15.1Zm40,1.2l-41.3,0l0,-19.2c0,-9,9.3,-16.3,20.7,-16.3c11.4,0,20.6,7.3,20.6,16.3Zm-20.6,-41.4c-14.6,0,-26.4,11.9,-26.4,26.4l0,20.8c0,2.1,1.7,3.8,3.8,3.8l45.2,0c2.1,0,3.8,-1.7,3.8,-3.8l0,-20.8c0,-14.5,-11.9,-26.4,-26.4,-26.4m22.6,52.2l-45.2,0c-2.8,0,-5,-2.2,-5,-5l0,-20.8c0,-15.2,12.4,-27.6,27.6,-27.6c15.2,0,27.6,12.4,27.6,27.6l0,20.8c0,2.8,-2.3,5,-5,5Z" class="g6_30" />
<path d="M1004.9,1230c0,3,-2.4,5.4,-5.4,5.4l-7.2,0c-3,0,-5.5,-2.4,-5.5,-5.4c0,-3,2.5,-5.4,5.5,-5.4l7.2,0c3,0,5.4,2.4,5.4,5.4Z" class="g6_30" />
<path d="M992.3,1225.2c-2.7,0,-4.8,2.1,-4.8,4.8c0,2.6,2.1,4.8,4.8,4.8l7.2,0c2.6,0,4.8,-2.2,4.8,-4.8c0,-2.7,-2.2,-4.8,-4.8,-4.8Zm7.2,10.8l-7.2,0c-3.4,0,-6.1,-2.7,-6.1,-6c0,-3.3,2.7,-6,6.1,-6l7.2,0c3.3,0,6,2.7,6,6c0,3.3,-2.7,6,-6,6Z" class="g6_30" />
<g clip-path="url(#c2_30)">
<path d="M995.9,1253.4l14.4,0l8.1,64.3c0,0,9.1,40.5,-26.4,39.9c0,0,-28.4,2.7,-27.1,-37.4l8.7,3.5c0,0,-4.7,23.7,18.4,26.7c0,0,22.4,2,18.7,-25.9c0,0,-1,-31.3,-31.3,-26.1l-6.8,20.1l-9,-6c0,0,21,-54.5,19,-59.1Z" class="g6_30" />
<path d="M965.5,1321.1c-0.3,13,2.5,22.7,8.5,28.9c6.1,6.3,13.8,7,16.8,7c0.7,0,1.1,0,1.1,0c0.3,0,0.6,0,0.8,0c9.1,0,15.9,-2.8,20.3,-8.3c9,-11.4,4.8,-30.7,4.8,-30.9l-8,-63.8l-26.5,0c0.3,7.8,-16.3,51.2,-19,58.2l8,5.4l6.7,-19.7l0.3,-0.1c2.3,-0.4,4.5,-0.6,6.6,-0.6c24.3,0,25.4,27,25.4,27.3c1.2,9.1,-0.2,16.1,-4.2,20.7c-4.7,5.3,-11.4,5.9,-14.1,5.9c-0.6,0,-1,-0.1,-1,-0.1c-6.9,-0.9,-12,-3.6,-15.3,-8.2c-5.2,-7.2,-4.1,-16.5,-3.8,-18.7Zm25.3,37.1c-3.2,0,-11.2,-0.7,-17.7,-7.4c-6.3,-6.5,-9.3,-16.8,-8.8,-30.6l0,-0.9l10,4l-0.1,0.5c0,0.1,-2,10.7,3.5,18.3c3.1,4.3,7.9,6.9,14.4,7.7c0,0,0.3,0,0.9,0c2.5,0,8.8,-0.5,13.1,-5.4c3.8,-4.4,5.2,-11,4,-19.8c0,-1.1,-1.1,-26.2,-24.2,-26.2c-1.9,0,-3.9,0.2,-6,0.5l-7,20.5l-10.1,-6.7l0.2,-0.5c8.4,-21.7,20.5,-55.3,19.1,-58.5l-0.4,-0.9l29.2,0l8,64.8c0.2,0.8,4.4,20,-5,31.8c-4.6,5.8,-11.7,8.8,-21.2,8.8c-0.2,0,-0.5,0,-0.7,0c0,0,-0.5,0,-1.2,0Z" class="g6_30" />
</g>
<path d="M1037.7,1301.9c-0.9,3.5,-4.6,5.7,-8.2,4.7l-23.7,-6.3c-3.5,-0.9,-5.7,-4.6,-4.7,-8.2c0.9,-3.6,4.6,-5.7,8.2,-4.8l23.7,6.3c3.5,1,5.7,4.7,4.7,8.3Z" class="g6_30" />
<path d="M1007.6,1287.7c-2.8,0,-5.2,1.9,-5.9,4.5c-0.5,1.6,-0.2,3.3,0.6,4.7c0.8,1.4,2.1,2.4,3.7,2.8l23.7,6.3c0.5,0.2,1,0.3,1.5,0.3c2.8,0,5.2,-1.9,5.9,-4.6c0.5,-1.6,0.2,-3.2,-0.6,-4.6c-0.8,-1.5,-2.1,-2.5,-3.7,-2.9l-23.6,-6.3c-0.6,-0.1,-1.1,-0.2,-1.6,-0.2m23.6,19.8c-0.6,0,-1.2,-0.1,-1.9,-0.3l-23.6,-6.3c-1.9,-0.5,-3.5,-1.7,-4.5,-3.4c-0.9,-1.7,-1.2,-3.7,-0.7,-5.6c0.9,-3.2,3.8,-5.4,7.1,-5.4c0.6,0,1.2,0.1,1.9,0.2l23.6,6.3c1.9,0.5,3.5,1.8,4.5,3.5c0.9,1.6,1.2,3.6,0.7,5.5c-0.8,3.2,-3.8,5.5,-7.1,5.5Z" class="g6_30" />
<path d="M1015.5,1253.4c0,3.6,-2.8,6.4,-6.4,6.4l-26.5,0c-3.5,0,-6.4,-2.8,-6.4,-6.4c0,-3.5,2.9,-6.4,6.4,-6.4l26.5,0c3.6,0,6.4,2.9,6.4,6.4Z" class="g8_30" />
<path d="M1014.7,1126.2c0.6,1.1,1,2.1,0.5,4.1l-0.8,4.4l-10.9,-2.2l0.9,-4.4c0.4,-2,1.1,-2.9,2.2,-3.7c1.2,-0.7,2.8,-1,4.3,-0.7c1.6,0.4,3,1.2,3.8,2.5m-12,1.5l-1.3,6.3l14.2,2.9l1.3,-6.3c0.6,-2.6,0.2,-4.1,-0.7,-5.7c-1.1,-1.6,-2.8,-2.7,-4.9,-3.2c-2,-0.4,-3.9,0,-5.5,1c-1.5,1,-2.5,2.3,-3.1,5Z" class="g1_30" />
<path d="M1007.9,1102.7l-0.4,1.9l14.2,2.9l2.2,-10.9l-1.7,-0.3l-1.8,9Z" class="g1_30" />
<path d="M1011.9,1083.2l-2.7,12.9l1.7,0.3l1.1,-5.5l12.6,2.6l0.4,-1.9l-12.6,-2.6l1.2,-5.5Z" class="g1_30" />
<path d="M1017.5,1142.9l0.2,-1l-20.1,-4.2l-0.3,1Z" class="g9_30" />
<path d="M1005.2,1151.5l0.9,0.2l0.9,-4.6l3.6,0.7c0.6,1.3,0.8,3.2,0.4,4.9c-0.7,3.7,-3.9,5.4,-7,4.8c-3.2,-0.7,-5.3,-3.7,-4.6,-7c0.4,-1.8,1.5,-3.7,2.9,-4.7l-0.9,-1.5c-1.9,1.5,-3.2,3.6,-3.7,5.8c-0.9,4.4,1.8,8.5,5.9,9.4c4.1,0.8,8.2,-1.9,9.1,-6.4c0.5,-2.2,0.1,-4.8,-0.8,-6.8l-6.2,-1.3l-1.3,6.3Z" class="g1_30" />
<path d="M1012.9,1118.2l1.2,-5.7l-0.8,-0.2l-0.8,-0.2l-1.2,5.8l-4.6,-0.9l1.9,-9.6l-1.6,-0.3l-2.4,11.4l14.2,2.9l2.5,-11.9l-1.7,-0.4l-2.1,10.1Z" class="g1_30" />
<path d="M994.9,1165.9l12.5,11.1l0.4,-2l-3.7,-3.3l0.8,-4.1l-1.5,-0.3l-0.7,3.2l-4.8,-4.3l12.6,-4.2l0.4,-2l-15.9,5.3Z" class="g1_30" />
<path d="M1013.3,1076.2l-0.1,0.5l12.5,11.2l0.4,-2l-9.9,-8.8l6.1,-2.1l-0.6,3.2l1.5,0.3l0.8,-4l4.8,-1.6l0.4,-2Z" class="g1_30" />
<path d="M1046.6,982.5c0.6,1.1,0.9,2.1,0.4,4.1l-1,4.4l-10.8,-2.5l1,-4.4c0.5,-2,1.2,-2.8,2.4,-3.6c1.2,-0.7,2.7,-0.9,4.3,-0.6c1.6,0.4,2.9,1.3,3.7,2.6m-12,1.2l-1.5,6.3l14.2,3.2l1.4,-6.2c0.6,-2.7,0.2,-4.2,-0.6,-5.7c-1,-1.7,-2.7,-2.9,-4.8,-3.3c-2,-0.5,-4,-0.2,-5.5,0.8c-1.5,1,-2.6,2.3,-3.2,4.9Z" class="g1_30" />
<path d="M1040.3,958.8l-0.4,1.9L1054,964l2.5,-10.8l-1.7,-0.4l-2,8.9Z" class="g1_30" />
<path d="M1044.8,939.4l-3,12.9l1.7,0.4l1.3,-5.5l12.4,2.8l0.5,-1.8l-12.5,-2.9l1.3,-5.5Z" class="g1_30" />
<path d="M1049,999.3l0.2,-1l-20.1,-4.7l-0.2,1Z" class="g9_30" />
<path d="M1036.5,1007.6l0.8,0.2l1.1,-4.6l3.5,0.8c0.7,1.3,0.8,3.2,0.4,4.9c-0.9,3.7,-4.1,5.3,-7.2,4.6c-3.1,-0.7,-5.2,-3.8,-4.4,-7.1c0.4,-1.8,1.6,-3.6,3,-4.6l-0.8,-1.6c-2,1.5,-3.4,3.6,-3.9,5.8c-1,4.4,1.6,8.5,5.7,9.5c4.1,0.9,8.2,-1.7,9.2,-6.1c0.5,-2.3,0.3,-4.9,-0.7,-6.9l-6.1,-1.4l-1.4,6.3Z" class="g1_30" />
<path d="M1045,974.5l1.3,-5.7l-0.8,-0.2l-0.8,-0.2l-1.4,5.7l-4.5,-1l2.2,-9.5l-1.7,-0.4l-2.6,11.4l14.1,3.2l2.7,-11.8l-1.6,-0.4l-2.3,10Z" class="g1_30" />
<path d="M1025.8,1021.7l12.3,11.4l0.4,-2l-3.7,-3.4l1,-4l-1.6,-0.4l-0.7,3.2l-4.7,-4.4l12.7,-3.9l0.5,-2l-16.1,4.9Z" class="g1_30" />
<path d="M1046.4,932.4l-0.1,0.6l12.2,11.5l0,-0.1l0.5,-1.9l-9.7,-9.1l6.1,-1.9l-0.7,3.2l1.5,0.3l0.9,-4l4.8,-1.5l0.5,-1.9l0,-0.1Z" class="g1_30" />
<path d="M1079.8,837.4c0.6,1.2,0.9,2.2,0.4,4.2l-1,4.3l-10.8,-2.5l1,-4.4c0.5,-2,1.3,-2.8,2.4,-3.6c1.2,-0.7,2.8,-0.9,4.3,-0.5c1.6,0.3,2.9,1.3,3.7,2.5m-12,1.2l-1.5,6.3l14.1,3.3l1.5,-6.3c0.6,-2.6,0.3,-4.1,-0.6,-5.7c-1,-1.6,-2.7,-2.8,-4.7,-3.3c-2,-0.5,-4,-0.2,-5.6,0.8c-1.5,0.9,-2.6,2.2,-3.2,4.9Z" class="g1_30" />
<path d="M1073.7,813.7l-0.5,1.9l14.1,3.4l2.6,-10.8l-1.7,-0.4l-2.1,8.9Z" class="g1_30" />
<path d="M1078.3,794.3l-3.1,12.9l1.7,0.4l1.3,-5.5l12.4,2.9l0.5,-1.8l-12.5,-3l1.3,-5.5Z" class="g1_30" />
<path d="M1082.1,854.2l0.3,-1l-20.1,-4.7l-0.2,1Z" class="g10_30" />
<path d="M1069.6,862.5l0.8,0.2l1.1,-4.6l3.6,0.8c0.6,1.3,0.7,3.2,0.3,4.9c-0.9,3.7,-4.2,5.3,-7.2,4.6c-3.2,-0.7,-5.2,-3.8,-4.4,-7.2c0.4,-1.7,1.6,-3.5,3.1,-4.5l-0.9,-1.6c-2,1.4,-3.3,3.5,-3.9,5.8c-1,4.3,1.5,8.5,5.6,9.5c4.1,0.9,8.3,-1.7,9.3,-6.1c0.5,-2.2,0.3,-4.9,-0.6,-6.9l-6.1,-1.4l-1.5,6.3Z" class="g1_30" />
<path d="M1078.3,829.4l1.3,-5.7l-0.8,-0.2l-0.8,-0.2l-1.4,5.7l-4.5,-1l2.2,-9.5l-1.7,-0.4l-2.7,11.3l14.2,3.4l2.8,-11.9l-1.7,-0.4l-2.4,10Z" class="g1_30" />
<path d="M1058.8,876.5L1071,888l0.5,-2l-3.7,-3.4l1,-4l-1.5,-0.4l-0.8,3.1l-4.7,-4.4l12.7,-3.8l0.5,-2l-16,4.8Z" class="g1_30" />
<path d="M1079.9,787.4l-0.1,0.6l12.1,11.5l0.1,0l0.4,-2l-9.6,-9.1l6.1,-1.9l-0.7,3.1l1.5,0.4l1,-4l4.8,-1.4l0.4,-2Z" class="g1_30" />
<path d="M1112.4,687.5c0.7,1.2,1,2.1,0.5,4.2l-1,4.3l-10.8,-2.5l1,-4.3c0.5,-2,1.2,-2.9,2.4,-3.6c1.2,-0.8,2.7,-1,4.3,-0.6c1.6,0.3,2.9,1.3,3.6,2.5m-11.9,1.2L1099,695l14.2,3.3l1.4,-6.3c0.6,-2.6,0.2,-4.1,-0.6,-5.7c-1,-1.6,-2.7,-2.8,-4.8,-3.3c-2,-0.5,-4,-0.2,-5.5,0.8c-1.5,1,-2.6,2.3,-3.2,4.9Z" class="g1_30" />
<path d="M1106.2,663.9l-0.4,1.9l14.1,3.2l2.5,-10.8l-1.7,-0.4l-2,9Z" class="g1_30" />
<path d="M1110.7,644.4l-3,12.9l1.7,0.4l1.2,-5.5l12.5,2.9l0.5,-1.9l-12.5,-2.9l1.2,-5.5Z" class="g1_30" />
<path d="M1114.9,704.3l0.2,-1L1095,698.7l-0.2,1Z" class="g10_30" />
<path d="M1102.4,712.6l0.8,0.2l1.1,-4.6l3.5,0.8c0.7,1.3,0.8,3.3,0.4,4.9c-0.9,3.7,-4.1,5.4,-7.2,4.7c-3.1,-0.8,-5.2,-3.8,-4.4,-7.2c0.4,-1.7,1.6,-3.6,3,-4.6l-0.8,-1.5c-2,1.4,-3.4,3.5,-3.9,5.8c-1,4.3,1.5,8.5,5.7,9.4c4.1,1,8.2,-1.6,9.2,-6.1c0.5,-2.2,0.3,-4.9,-0.7,-6.9l-6.1,-1.4l-1.4,6.3Z" class="g1_30" />
<path d="M1110.9,679.5l1.3,-5.7l-0.8,-0.2l-0.8,-0.2l-1.4,5.8l-4.5,-1.1l2.2,-9.5l-1.7,-0.4l-2.6,11.4l14.1,3.3l2.7,-11.9l-1.6,-0.4l-2.3,10Z" class="g1_30" />
<path d="M1091.7,726.7l12.3,11.5l0,-0.1l0.4,-1.9l-3.7,-3.5l1,-4l-1.6,-0.3l-0.7,3.1l-4.7,-4.4l12.7,-3.9l0.5,-2l-16.1,4.9Z" class="g1_30" />
<path d="M1112.3,637.5l-0.1,0.6l12.2,11.4l0.5,-2l-9.7,-9l6.1,-1.9l-0.7,3.1l1.5,0.3l0.9,-4l4.8,-1.4l0.5,-2Z" class="g1_30" />
<path d="M1144.7,540.4c0.6,1.2,0.9,2.2,0.5,4.2l-1,4.4l-10.8,-2.5l1,-4.4c0.4,-2,1.2,-2.8,2.3,-3.6c1.2,-0.7,2.7,-0.9,4.3,-0.6c1.6,0.4,2.9,1.3,3.7,2.5m-12,1.3l-1.4,6.3l14.1,3.2l1.4,-6.3c0.7,-2.6,0.3,-4.1,-0.6,-5.7c-1,-1.6,-2.7,-2.8,-4.7,-3.3c-2.1,-0.4,-4,-0.1,-5.6,0.8c-1.5,1,-2.6,2.3,-3.2,5Z" class="g1_30" />
<path d="M1147.1,557.2l0.3,-0.9l-20.1,-4.7l-0.2,1Z" class="g9_30" />
<path d="M1134.6,565.6l0.9,0.1l1,-4.5l3.6,0.8c0.6,1.3,0.7,3.2,0.3,4.9c-0.8,3.7,-4.1,5.3,-7.1,4.6c-3.2,-0.7,-5.2,-3.8,-4.5,-7.1c0.4,-1.8,1.6,-3.6,3.1,-4.6l-0.9,-1.6c-1.9,1.5,-3.3,3.6,-3.8,5.8c-1,4.3,1.5,8.5,5.6,9.5c4.1,0.9,8.2,-1.7,9.3,-6.1c0.5,-2.3,0.2,-4.9,-0.7,-6.9l-6.1,-1.4l-1.5,6.3Z" class="g1_30" />
<path d="M1123.9,579.7l12.3,11.4l0.5,-2l-3.7,-3.4l0.9,-4l-1.5,-0.4l-0.7,3.1l-4.7,-4.3l12.6,-3.9l0.5,-2l-16,4.9Z" class="g1_30" />
<path d="M969.9,1041.1c1.1,0.8,1.8,1.5,2.3,3.5l1,4.4l-10.7,2.6l-1.1,-4.3c-0.5,-2.1,-0.1,-3.1,0.5,-4.3c0.8,-1.2,2,-2.1,3.6,-2.5c1.6,-0.4,3.2,-0.1,4.4,0.6m-10.1,6.5l1.5,6.3l14.1,-3.5l-1.6,-6.2c-0.6,-2.7,-1.6,-3.8,-3.1,-4.8c-1.6,-1.1,-3.6,-1.4,-5.7,-0.9c-2,0.5,-3.6,1.7,-4.6,3.2c-0.9,1.6,-1.3,3.3,-0.6,5.9Z" class="g1_30" />
<path d="M953.7,1022.8l0.5,1.9l14.1,-3.4l-2.6,-10.8l-1.7,0.4l2.2,8.9Z" class="g1_30" />
<path d="M949.1,1003.4l3.1,12.8l1.6,-0.4l-1.3,-5.4l12.4,-3.1l-0.4,-1.8l-12.5,3l-1.3,-5.5Z" class="g1_30" />
<path d="M979.6,1055l-0.2,-1l-20,4.9l0.2,1Z" class="g9_30" />
<path d="M972.2,1068.1l0.8,-0.2l-1.1,-4.6l3.5,-0.9c1.2,0.9,2.1,2.6,2.5,4.3c0.9,3.7,-1.3,6.6,-4.3,7.3c-3.2,0.8,-6.3,-1,-7.2,-4.4c-0.4,-1.8,-0.1,-3.9,0.7,-5.5l-1.5,-1c-1.1,2.2,-1.3,4.7,-0.8,6.9c1,4.4,5.2,7,9.3,6c4.1,-1,6.6,-5.2,5.5,-9.6c-0.5,-2.3,-1.9,-4.5,-3.7,-5.9l-6.1,1.5l1.5,6.3Z" class="g1_30" />
<path d="M965,1034.7l-1.4,-5.7l-0.8,0.2l-0.9,0.2l1.4,5.7l-4.5,1.1l-2.3,-9.5l-1.7,0.4l2.7,11.4l14.1,-3.4l-2.8,-11.9l-1.7,0.4l2.4,10Z" class="g1_30" />
<path d="M968.9,1085.5l16.1,4.7l-0.5,-2l-4.8,-1.4l-1,-4l-1.5,0.4l0.8,3.1l-6.2,-1.8l9.6,-9.2l-0.5,-2l-12.1,11.6Z" class="g1_30" />
<path d="M947.4,996.5l0.1,0.5l16.1,4.8l-0.5,-2L950.4,996l4.6,-4.4l0.8,3.1l1.5,-0.4l-1,-3.9l3.7,-3.5l-0.5,-2Z" class="g1_30" />
<path d="M937.5,897.5c1.1,0.8,1.8,1.6,2.2,3.6l1,4.4l-10.9,2.3l-0.9,-4.3c-0.5,-2.1,-0.1,-3.1,0.6,-4.3c0.8,-1.2,2,-2,3.6,-2.4c1.6,-0.3,3.2,-0.1,4.4,0.7m-10.3,6.3l1.4,6.3L942.7,907l-1.3,-6.3c-0.6,-2.7,-1.6,-3.9,-3,-4.9c-1.6,-1.1,-3.7,-1.4,-5.7,-1c-2,0.5,-3.7,1.6,-4.7,3.1c-0.9,1.6,-1.4,3.2,-0.8,5.9Z" class="g1_30" />
<path d="M921.8,878.8l0.4,1.9l14.2,-3.1L934,866.8l-1.6,0.4l1.9,8.9Z" class="g1_30" />
<path d="M917.6,859.3l2.8,12.9l1.6,-0.3l-1.2,-5.5l12.5,-2.8l-0.4,-1.8l-12.5,2.7L919.2,859Z" class="g1_30" />
<path d="M946.9,911.7l-0.2,-1l-20.2,4.4l0.2,0.9Z" class="g9_30" />
<path d="M939.1,924.5l0.9,-0.2l-1,-4.6l3.5,-0.7c1.1,0.9,2,2.6,2.4,4.3c0.8,3.7,-1.4,6.5,-4.5,7.2c-3.2,0.7,-6.3,-1.2,-7,-4.6c-0.4,-1.7,-0.1,-3.9,0.8,-5.4l-1.5,-1.1c-1.1,2.2,-1.5,4.7,-1,6.9c0.9,4.4,5,7.1,9.1,6.2c4.2,-0.9,6.8,-5,5.8,-9.5c-0.5,-2.3,-1.8,-4.5,-3.5,-5.9l-6.2,1.3l1.4,6.3Z" class="g1_30" />
<path d="M932.7,891l-1.2,-5.7l-0.9,0.1l-0.8,0.2l1.3,5.7l-4.6,1l-2.1,-9.5l-1.7,0.4l2.5,11.4l14.2,-3.1l-2.6,-11.9l-1.7,0.4l2.2,10Z" class="g1_30" />
<path d="M935.5,941.9l15.9,5.1L951,945l-4.8,-1.6l-0.9,-4l-1.5,0.3l0.7,3.2l-6.1,-2l9.8,-8.9l-0.5,-2l-12.4,11.3Z" class="g1_30" />
<path d="M916.1,852.4l0.1,0.5l15.9,5.2l0,-0.1l-0.4,-1.9L919.1,852l4.7,-4.3l0.7,3.1l1.5,-0.3l-0.8,-4l3.7,-3.4l-0.4,-2Z" class="g1_30" />
<path d="M905.8,752.1c1,0.9,1.7,1.6,2.2,3.6l0.9,4.4L898,762.4L897.1,758c-0.4,-2,-0.1,-3.1,0.6,-4.2c0.8,-1.2,2.1,-2.1,3.7,-2.4c1.6,-0.3,3.2,-0.1,4.4,0.7m-10.4,6.2l1.4,6.3l14.1,-3l-1.3,-6.3c-0.5,-2.6,-1.5,-3.8,-3,-4.9c-1.5,-1.1,-3.6,-1.4,-5.7,-1c-2,0.4,-3.6,1.5,-4.6,3.1c-1,1.5,-1.4,3.2,-0.9,5.8Z" class="g1_30" />
<path d="M890.2,733.3l0.4,1.9l14.1,-3l-2.2,-10.8l-1.7,0.3l1.9,9Z" class="g1_30" />
<path d="M886,713.8l2.8,13l1.6,-0.4l-1.1,-5.5l12.5,-2.7l-0.4,-1.9L888.9,719l-1.2,-5.5Z" class="g1_30" />
<path d="M915.1,766.3l-0.3,-1l-20.1,4.3l0.2,1Z" class="g9_30" />
<path d="M907.2,779.1l0.9,-0.1l-1,-4.6l3.6,-0.8c1.1,0.9,2,2.6,2.3,4.3c0.8,3.7,-1.5,6.6,-4.5,7.2c-3.2,0.7,-6.3,-1.2,-7,-4.6c-0.4,-1.8,-0.1,-3.9,0.8,-5.4L900.8,774c-1.1,2.2,-1.5,4.7,-1,6.9c0.9,4.3,5,7.1,9.1,6.2c4.1,-0.9,6.8,-5,5.8,-9.4c-0.5,-2.3,-1.8,-4.6,-3.5,-6l-6.1,1.3l1.3,6.3Z" class="g1_30" />
<path d="M901,745.6l-1.2,-5.8L899,740l-0.9,0.2l1.2,5.7l-4.5,1l-2.1,-9.5l-1.6,0.3l2.4,11.4l14.2,-3l-2.5,-11.9l-1.7,0.4l2.1,10Z" class="g1_30" />
<path d="M903.5,796.5l15.9,5.2l0,-0.1L919,799.7l-4.8,-1.6l-0.9,-4l-1.5,0.3l0.7,3.1l-6.1,-2l9.8,-8.8l-0.4,-2l-12.5,11.2Z" class="g1_30" />
<path d="M884.6,706.8l0.1,0.6l15.9,5.2l-0.4,-2l-12.6,-4.1l4.8,-4.3l0.6,3.1l1.6,-0.3l-0.9,-4l3.7,-3.4L897,695.7l0,-0.1Z" class="g1_30" />
<path d="M871.4,602.6c1.1,0.8,1.8,1.5,2.3,3.6l0.9,4.3l-10.8,2.4l-1,-4.4c-0.4,-2,-0.1,-3.1,0.6,-4.2c0.8,-1.2,2.1,-2.1,3.6,-2.4c1.7,-0.4,3.2,-0.1,4.4,0.7m-10.3,6.2l1.4,6.3l14.2,-3l-1.4,-6.3c-0.6,-2.7,-1.5,-3.9,-3,-4.9c-1.6,-1.1,-3.6,-1.4,-5.7,-1c-2,0.5,-3.6,1.6,-4.7,3.1c-0.9,1.5,-1.3,3.2,-0.8,5.8Z" class="g1_30" />
<path d="M855.7,583.9l0.4,1.9l14.2,-3.1L868,571.9l-1.7,0.3l1.9,9Z" class="g1_30" />
<path d="M851.5,564.4l2.8,12.9L856,577l-1.2,-5.6l12.5,-2.7l-0.4,-1.9l-12.5,2.7L853.2,564Z" class="g1_30" />
<path d="M880.8,616.8l-0.2,-1l-20.1,4.3l0.2,1Z" class="g9_30" />
<path d="M873.1,629.6l0.8,-0.2l-1,-4.6l3.6,-0.8c1.1,0.9,2,2.7,2.3,4.3c0.9,3.8,-1.4,6.6,-4.4,7.3c-3.2,0.7,-6.4,-1.2,-7.1,-4.6c-0.4,-1.8,-0.1,-3.9,0.8,-5.4l-1.4,-1.1c-1.2,2.2,-1.5,4.7,-1.1,6.9c1,4.3,5.1,7.1,9.2,6.2c4.1,-0.9,6.7,-5.1,5.7,-9.5c-0.5,-2.3,-1.8,-4.5,-3.5,-6l-6.1,1.4l1.3,6.3Z" class="g1_30" />
<path d="M866.7,596.1l-1.3,-5.8l-0.8,0.2l-0.8,0.2l1.2,5.7l-4.6,1l-2,-9.5l-1.7,0.4l2.5,11.4l14.1,-3.1l-2.6,-11.9l-1.6,0.4l2.1,10Z" class="g1_30" />
<path d="M869.4,646.9l15.9,5.1l-0.4,-2l-4.8,-1.5l-0.8,-4l-1.6,0.3l0.7,3.2l-6.1,-2l9.8,-8.9l-0.4,-2l-12.4,11.2Z" class="g1_30" />
<path d="M850,557.4l0.1,0.6l16,5.1l-0.5,-2l-12.6,-4l4.8,-4.3l0.7,3.1l1.5,-0.3l-0.9,-4.1l3.7,-3.3l-0.4,-2Z" class="g1_30" />
<path d="M997.2,572.5l109,0l53.3,0l0.1,-0.4l-41.8,-63.5l-121.7,0l-118.9,0l-41.7,63.5l0.1,0.4l53.2,0Z" class="g11_30" />
<path d="M994.9,545.4c-1.2,1,-2.2,1.6,-4.6,1.6l-5.2,0l0,-12.8l5.2,0c2.3,0,3.5,0.6,4.6,1.7c1.2,1.2,1.8,2.8,1.8,4.7c0,1.9,-0.7,3.6,-1.8,4.8m-4.6,-13.2l-7.4,0l0,16.8l7.4,0c3.2,0,4.8,-0.8,6.3,-2.2c1.6,-1.5,2.5,-3.8,2.5,-6.2c0,-2.4,-0.9,-4.5,-2.4,-6c-1.5,-1.5,-3.2,-2.4,-6.4,-2.4Z" class="g1_30" />
<path d="M1019.8,532.2l-2.2,0l0,16.8l12.8,0l0,-2l-10.6,0Z" class="g1_30" />
<path d="M1042.9,532.2l-15.3,0l0,2l6.5,0l0,14.8l2.3,0l0,-14.8l6.5,0Z" class="g1_30" />
<path d="M976.6,552.5l1.1,0l0,-23.8l-1.1,0l0,23.8Z" class="g9_30" />
<path d="M964,540.6l0,1l5.4,0l0,4.2c-1.3,1.1,-3.4,1.7,-5.4,1.7c-4.4,0,-7.1,-3.3,-7.1,-6.9c0,-3.8,2.9,-6.8,6.9,-6.8c2.1,0,4.5,0.8,5.9,2.2l1.6,-1.4c-2.2,-1.8,-4.9,-2.8,-7.5,-2.8c-5.2,0,-9.2,3.9,-9.2,8.8c0,4.9,4,8.8,9.3,8.8c2.6,0,5.5,-0.9,7.5,-2.5l0,-7.3l-7.4,0Z" class="g1_30" />
<path d="M1003.4,541.6l6.8,0l0,-1l0,-1l-6.8,0l0,-5.4l11.3,0l0,-2l-13.5,0l0,16.8l14,0l0,-2l-11.8,0Z" class="g1_30" />
<path d="M945.3,532.2L935.6,549l2.4,0l2.9,-5l4.7,0l0,-1.8l-3.7,0l3.7,-6.5l7.7,13.3l2.4,0L946,532.2Z" class="g1_30" />
<path d="M1051.1,532.2l-0.7,0l-9.7,16.8l0.1,0l2.3,0l7.7,-13.3l3.7,6.5l-3.7,0l0,1.8l4.7,0l2.9,5l2.4,0Z" class="g1_30" />
<path d="M856.5,532.2l-2.3,0l0,16.8l12.9,0l0,-2l-10.6,0Z" class="g1_30" />
<path d="M879.5,532.2l-15.3,0l0,2l6.6,0l0,14.8l2.2,0l0,-14.8l6.5,0Z" class="g1_30" />
<path d="M887.8,532.2l-0.7,0L877.4,549l2.4,0l7.6,-13.3l3.7,6.5l-3.7,0l0,1.8l4.8,0l2.9,5l2.3,0Z" class="g1_30" />
<path d="M1139.1,540.6l0,0.9l5.5,0l0,4.3c-1.3,1,-3.5,1.6,-5.4,1.6c-4.4,0,-7.1,-3.2,-7.1,-6.8c0,-3.8,2.9,-6.9,6.9,-6.9c2.1,0,4.4,0.9,5.9,2.2l1.6,-1.3c-2.2,-1.9,-4.9,-2.9,-7.6,-2.9c-5.1,0,-9.2,4,-9.2,8.8c0,4.9,4.1,8.9,9.3,8.9c2.7,0,5.6,-1,7.6,-2.6l0,-7.2l-7.5,0Z" class="g1_30" />
<path d="M1120.5,532.2l-9.7,16.8l2.4,0l2.9,-5.1l4.7,0l0,-1.8l-3.7,0l3.7,-6.4l7.7,13.3l2.3,0l0.1,0l-9.7,-16.8Z" class="g1_30" />
<path fill-rule="evenodd" d="M2352.3,1243.8l0,-837.6c0,-13.9,-11.4,-25.3,-25.4,-25.3l-457,0c-14,0,-25.4,11.4,-25.4,25.3l0,837.6c0,13.9,11.4,25.3,25.4,25.3l457,0c14,0,25.4,-11.4,25.4,-25.3Z" class="g1_30" />
<path d="M2352.3,1243.8l0,-837.6c0,-13.9,-11.4,-25.3,-25.4,-25.3l-457,0c-14,0,-25.4,11.4,-25.4,25.3l0,837.6c0,13.9,11.4,25.3,25.4,25.3l457,0c14,0,25.4,-11.4,25.4,-25.3Z" class="g12_30" />
<path fill-rule="evenodd" d="M2352.3,1215.2l0,28.6c0,13.9,-11.4,25.3,-25.4,25.3l-457,0c-14,0,-25.4,-11.4,-25.4,-25.3l0,-28.6Z" class="g4_30" />
<path fill-rule="evenodd" d="M2069.7,1056.1l0.3,-0.2l-0.2,0.4Z" class="g13_30" />
<path fill-rule="evenodd" d="M1996.8,761.8c7.4,-2.5,16.9,6,21.2,18.9c4.2,12.9,1.6,25.4,-5.8,27.8c-7.5,2.5,-17,-6,-21.3,-18.9c-4.2,-12.9,-1.6,-25.3,5.9,-27.8Z" class="g14_30" />
<path fill-rule="evenodd" d="M2215.1,761.8c-7.4,-2.5,-16.9,6,-21.2,18.9c-4.2,12.9,-1.6,25.4,5.8,27.8c7.5,2.5,17,-6,21.3,-18.9c4.2,-12.9,1.6,-25.3,-5.9,-27.8Z" class="g14_30" />
<g clip-path="url(#c3_30)">
<path fill-rule="evenodd" d="M2066.6,927c-87.3,38.2,-113.5,49.3,-123.9,58.5c-7.8,6.9,-14,23.5,-19.5,43.9c43.7,39.6,100.4,65.1,162.8,69.3l19.6,0l17.3,0c63.6,-4.3,121.1,-30.6,165.1,-71.3c-5.1,-19.5,-10.9,-35.2,-18.5,-41.9c-10.3,-9.2,-35.6,-19.7,-122.9,-58Z" class="g15_30" />
</g>
<path fill-rule="evenodd" d="M2063.7,841.4l0,64.8l0,38.7c23.3,27.5,61.5,28.5,84.8,0l0,-38.7l0,-64.8c0,-52.3,-84.8,-52.3,-84.8,0Z" class="g16_30" />
<path fill-rule="evenodd" d="M2106.1,667.7c-142.3,0,-91.1,185.3,-81.8,199c10.2,15.1,58.8,41.6,81.8,41.6c23,0,71.6,-29.9,81.9,-45c9.3,-13.7,60.5,-195.6,-81.9,-195.6Z" class="g14_30" />
<path fill-rule="evenodd" d="M2029.1,773.5c5.4,-5.3,9.2,-28.5,9.1,-27.1c18.3,3.9,25.8,-18.2,32.9,-24c28.1,-23.1,116.5,-24.8,133.4,52.2C2223,717.3,2184.6,646.4,2106.3,646.4c-39.7,0,-93.5,8.9,-89.1,47.7c-26.5,22.8,-17.6,48.9,-8.8,70.1c4.3,9.8,15,12.2,20.7,9.3Z" class="g15_30" />
<path fill-rule="evenodd" d="M2039.7,728.3c0.1,-0.1,0.1,-0.1,0.1,-0.1c-0.2,-0.1,-0.4,-0.2,-0.7,-0.3c-0.4,-0.2,-1,-0.3,-1.5,-0.3l0,0.6c0.4,0,0.8,0,1.1,0.1c0.9,0.1,0.8,0,1,0Z" class="g15_30" />
<path fill-rule="evenodd" d="M2200.5,750.3c0.5,-3.8,0.5,-8,-0.1,-12.4c-0.6,-4.5,-2.2,-9.1,-4.7,-13.4c-0.6,-1.1,-1.4,-2.1,-2.2,-3.1c-0.7,-0.9,-1.5,-2.1,-2.3,-2.8c-1.7,-1.7,-3.4,-3.6,-5.1,-4.8c-1.7,-1.4,-3.4,-2.9,-5.2,-4c-1.9,-1.2,-3.7,-2.3,-5.5,-3.4c-7.2,-4,-13.9,-6.6,-19.2,-8.9c-5.2,-2.1,-9.1,-3.9,-11.6,-5.2c-2.3,-1.3,-3.6,-2.1,-3.6,-2.1l-6.6,16.3c-0.5,-0.1,-1,-0.3,-1.6,-0.4c-1.7,-0.4,-3.5,-0.8,-5.3,-1.1c-1.7,-0.3,-3.3,-0.6,-4.9,-0.9c-3.3,-0.6,-6.4,-1.1,-9.5,-1.7c-6.3,-1.1,-12.4,-2,-18,-2.3c-5.6,-0.3,-10.6,-0.5,-16.5,1.5c-3.5,1.3,-5,2.5,-6.3,3.4c-0.6,0.4,-1,0.8,-1.2,1c-0.3,0.2,-0.4,0.4,-0.4,0.4l8.5,9.3c-0.9,-0.4,-1.5,-0.7,-1.5,-0.7l-0.9,2.1c-1.6,-0.2,-3.1,-0.4,-4.4,-0.7c-3.8,-0.7,-6.4,-1.8,-8.1,-2.6c-0.8,-0.4,-1.4,-0.8,-1.8,-1c-0.3,-0.2,-0.6,-0.4,-0.6,-0.4l-6,15.9l-4.8,1c0,0,0.2,0.3,0.4,0.9c0.1,0.4,0.3,0.9,0.5,1.4l-14.4,3.5l0,-6.9c-1,-0.1,-2,-0.1,-3.1,0l-9.7,1.2l1.5,6.5c0.4,1.8,0.7,3.6,1.3,5.2c0.7,1.5,1.4,3.2,2.3,4.5c1.8,2.8,3.8,5.1,6.1,7c4.4,3.8,9.2,6.2,14,8.2c4.8,1.9,9.8,3.2,14.7,4.1c4.9,0.8,9.9,1.2,14.8,0.9c-9.5,-2.2,-18.2,-6.7,-25.5,-12.2c-0.2,-0.2,-0.4,-0.4,-0.6,-0.6c6.1,2.5,13,3.9,19.7,4.7c9.6,1.1,18.9,1,25.9,0.6c7,-0.4,11.6,-1,11.6,-1c0,0,-4.6,-0.7,-11.3,-2.2c-6.7,-1.6,-15.5,-4.1,-23.6,-7.5c-3.5,-1.5,-6.9,-3.2,-9.9,-4.9c4.5,1.3,9.2,1.7,13.7,1.7c7.1,0.1,13.8,-0.8,18.8,-1.4c5,-0.8,8.4,-1.3,8.4,-1.3c0,0,-3.4,-0.4,-8.4,-1.1c-3.9,-0.6,-9,-1.4,-14.1,-2.7c7.2,-1.6,14.6,-3.6,21.8,-5.2c5.7,-1.2,11.4,-2.1,16.6,-1.9c5.2,0.3,10,1.5,13.8,3.6c3.9,2.1,6.7,4.6,8.6,6.5c1.8,2,2.8,3.2,2.8,3.2c0,0,-0.6,-1.4,-1.9,-3.9c-1.3,-2.4,-3.3,-5.8,-6.9,-9.2c-1.7,-1.8,-3.9,-3.4,-6.4,-5c-1.9,-1.1,-4.1,-2.1,-6.4,-3c0.9,0,1.8,-0.1,2.7,-0.1c0.7,-0.1,1.5,-0.2,2.2,-0.3c0.9,0.2,2,0.4,3.2,0.7c3.8,0.8,9,1.5,14.7,2.2c3.5,0.4,7.3,0.8,11.1,1.3c1,0.7,2,1.3,2.9,2c3.8,2.8,6.4,6,8,8.3c1.6,2.4,2.4,3.9,2.4,3.9c0,0,-0.4,-1.6,-1.2,-4.5c-0.8,-2.1,-1.9,-4.9,-3.8,-8c0.8,0.2,1.5,0.4,2.4,0.6c1.4,0.4,2.7,1.1,4.2,1.6c1.5,0.6,2.5,1.3,3.8,1.9c0.7,0.3,1.1,0.7,1.7,1.1c0.5,0.4,1.1,0.7,1.6,1.1c1.9,1.8,3.6,4,4.9,6.7c1.2,2.7,2.2,5.8,2.7,9c1.1,6.5,1.2,13.1,1.3,18.7c0.1,5.7,0.2,10.5,0.5,13.9c0.3,3.3,0.5,5.2,0.5,5.2c0,0,0.3,-1.9,0.9,-5.1c0.4,-2,1.1,-4.6,1.8,-7.5c0.7,2.8,1.5,5.6,2.3,8.5c1.9,7,3.9,13.9,5,19.2c0.6,2.6,0.9,4.9,1.2,6.4c0.3,1.6,0.5,2.5,0.5,2.5c0,0,0,-0.9,0.2,-2.5c0.2,-1.6,0.5,-3.8,0.6,-6.6c0.5,-5.5,0.5,-12.8,0.6,-20.1c0.1,-7.3,0.3,-14.4,0.9,-19.5c0.2,-2.6,0.7,-4.6,0.8,-6.1c0.3,-1.4,0.4,-2.2,0.4,-2.2l-7.4,-0.3c0.3,-1.6,0.5,-3.1,0.7,-4.7m-165.2,-5.6c-0.4,-0.1,-0.8,-0.2,-1.1,-0.4l-0.3,-0.1c-0.3,-0.2,-0.9,-0.4,-0.6,-0.3c0.1,-0.1,0,0.1,0.1,-0.2l0.3,-0.8c0.2,-0.5,0.3,-1,0.5,-1.5l0.3,-1.3c0,0.1,0,0.1,0,0.1c0.7,-0.4,1.5,-0.9,2.2,-1.3c0.2,0.5,0.5,1,0.8,1.6c0.1,0,0.1,0.1,0.1,0.1l0,4.4c-0.7,0,-1.5,-0.1,-2.3,-0.3Z" class="g15_30" />
<path fill-rule="evenodd" d="M2022.4,771.5c0.4,-0.9,0.8,-1.7,1.1,-2.3c0.7,-1.3,1,-2,1,-2l-15.7,-5.9c0,0,-0.1,1,-0.5,2.8c-0.1,0.9,-0.3,2,-0.5,3.2c-0.3,1.3,-0.5,2.7,-0.6,4.2c-0.6,6.1,-0.3,14.1,0.7,21.7c1.3,7.6,3,14.9,4.6,20.3c1.5,5.3,2.6,8.9,2.6,8.9c0,0,0,-3.7,0,-9.3c0,-5.5,0.3,-12.9,1.2,-20c0.8,-5.4,2,-10.6,3.4,-14.8c0,2.6,0,5.8,0.1,9c0.1,4,0.7,8.1,1.5,11c0.3,1.5,0.9,2.6,1.1,3.4c0.3,0.8,0.5,1.3,0.5,1.3c0,0,0,-0.5,-0.1,-1.4c0,-0.8,-0.2,-2,-0.1,-3.5c0.1,-2.9,0.6,-6.7,1.5,-10.4c1,-3.7,2.1,-7.4,2.9,-10.5c0.4,-1.4,0.6,-2.8,0.7,-3.7c0.2,-1,0.3,-1.5,0.3,-1.5l-6,0c0.1,-0.2,0.2,-0.4,0.3,-0.5Z" class="g15_30" />
<path fill-rule="evenodd" d="M2003.5,696.5c1.1,-1.4,3.3,-2.6,5.6,-2.6c2.3,-0.1,4.6,0.7,6,1.6c1.5,0.8,2.2,1.6,2.2,1.6l1.8,-2.2c0,0,-1.1,-0.9,-3,-1.6c-1.8,-0.7,-4.5,-1.2,-7.1,-0.8c-2.7,0.4,-4.9,2.1,-5.9,3.7c-0.5,0.8,-0.8,1.6,-0.9,2.1c-0.2,0.5,-0.3,0.8,-0.3,0.8c0,0,0.2,-0.3,0.4,-0.8c0.2,-0.5,0.6,-1.1,1.2,-1.8Z" class="g15_30" />
<path fill-rule="evenodd" d="M2224.7,733.5c-1,-2.8,-2.5,-6.7,-4.6,-11.3c-4.2,-9.3,-11.2,-21.1,-20.2,-32c-9.1,-10.8,-20.5,-20.7,-32.2,-25.4c-1.4,-0.6,-2.8,-1.1,-4.2,-1.7c-1.3,-0.5,-2.7,-0.8,-4,-1.1c-2.6,-0.7,-4.8,-1.3,-6.8,-1.4c-4,-0.4,-6.3,-0.5,-6.3,-0.5l2.8,29.9c0.1,0.3,3.6,-1.6,11.3,-0.9c7.6,0.5,18.8,5.2,29.3,12.1c10.3,7.1,20,16.1,26.3,23.5c3.3,3.7,5.8,7,7.5,9.4c1.6,2.4,2.5,3.8,2.5,3.8c0,0,-0.5,-1.6,-1.4,-4.4Z" class="g15_30" />
<path fill-rule="evenodd" d="M2087.3,673.7c1.5,-1.3,4.1,-3.3,7.9,-5.4c7.7,-4.3,20.3,-8.2,33.4,-10.5c13.1,-2.2,26.8,-2.9,37.1,-2.3c5.1,0.4,9.4,0.9,12.3,1.5c3,0.6,4.7,1,4.7,1c0,0,-1.5,-0.8,-4.2,-2.3c-2.8,-1.4,-6.8,-3.2,-11.8,-5c-10.1,-3.6,-24,-6.9,-38.5,-8.6c-14.4,-1.5,-29.4,-1.5,-41.4,1.1c-6,1.2,-11.2,3,-14.9,4.7c-3.7,1.9,-5.8,3.1,-5.8,3.1l19.1,24.9c0,0,0.8,-0.7,2.1,-2.2Z" class="g15_30" />
<path fill-rule="evenodd" d="M2014,714c2.4,0.4,3.7,2.1,3.8,2l7.1,-13.6c0,0,-0.3,-0.1,-0.8,-0.3c-0.6,-0.2,-1.3,-0.5,-2.5,-0.8c-2,-0.5,-5.5,-1,-9.2,-0.1c-3.9,0.8,-7.6,3,-10.3,5.9c-2.8,2.8,-4.8,6.1,-6.4,9.4c-3.1,6.7,-4.5,13.7,-4.9,18.9c-0.5,5.3,0.3,8.7,0.3,8.7c0,0,0.2,-3.5,2,-8.1c1.7,-4.7,4.9,-10.6,9.1,-15.3c2.1,-2.3,4.4,-4.3,6.5,-5.5c2.2,-1.2,4.1,-1.4,5.3,-1.2Z" class="g15_30" />
<path fill-rule="evenodd" d="M1844.5,1215.1l507.8,0l0,-197.4l-507.8,0l0,197.4Z" class="g17_30" />
<text 
x="1997" 
y="1150" 
dx="0,0,0,0,0,-0.3,-0.3,0,0,0,-0.2,0,0,0,0,0,0,0,0,0" 
class="s6_30"
>Employee No.: 121404</text>

<text 
x="1988" 
y="1091" 
dx="0,-0.2,-0.3" 
class="s7_30"
>Sta</text>

<text 
x="2052" 
y="1091" 
dx="0" 
class="s8_30"
>ﬀ</text>

<text 
x="2093" 
y="1091" 
dx="0,-0.4,0,0" 
class="s7_30"
>Name</text>

<text 
x="1996" 
y="1178" 
dx="0,0,0,0,0,0,0,0,0,0,0,0,0,-0.4,0,0,0,0,0,0" 
class="s6_30"
>TIN: 311-963-266-000</text>

<path d="M2092.5,500.3c-3.3,2.8,-6.1,4.5,-12.8,4.5l-14.2,0l0,-35.6l14.2,0c6.7,0,9.8,1.8,13,4.7c3.2,3.3,5,7.9,5,13.1c0,5.2,-1.9,10,-5.2,13.3m-12.6,-36.6l-20.6,0l0,46.6l20.6,0c8.7,0,13.2,-2.3,17.5,-6.1c4.3,-4.3,6.8,-10.5,6.8,-17.2c0,-6.7,-2.4,-12.6,-6.5,-16.8c-4.2,-4,-9.1,-6.5,-17.8,-6.5Z" class="g4_30" />
<path d="M2161.8,463.7l-6.2,0l0,46.6l35.6,0l0,-5.5l-29.4,0Z" class="g4_30" />
<path d="M2225.9,463.7l-42.4,0l0,5.5l18.1,0l0,41.1l6.2,0l0,-41.1l18.1,0Z" class="g4_30" />
<path d="M2041.7,520.1l3.3,0l0,-66.2l-3.3,0l0,66.2Z" class="g17_30" />
<path d="M2006.7,487l0,2.7l15.1,0l0,11.7c-3.5,2.9,-9.5,4.6,-15,4.6c-12.3,0,-19.7,-9,-19.7,-19c0,-10.4,8,-19,19.1,-19c5.8,0,12.4,2.3,16.5,6.2l4.3,-3.9c-6,-5,-13.5,-7.8,-20.9,-7.8c-14.2,0,-25.5,10.9,-25.5,24.5c0,13.5,11.2,24.5,25.8,24.5c7.4,0,15.4,-2.7,21.1,-7.1l0,-20.1l-20.8,0Z" class="g4_30" />
<path d="M2116.3,489.7l18.8,0l0,-2.7l0,-2.7l-18.8,0l0,-15.1l31.2,0l0,-5.5l-37.5,0l0,46.6l39.2,0l0,-5.5l-32.9,0Z" class="g4_30" />
<path d="M1954.9,463.7L1928,510.3l6.5,0l8.1,-14l13.2,0l0,-5l-10.3,0l10.3,-17.9l21.3,36.9l6.5,0l0.1,0l-26.9,-46.6Z" class="g4_30" />
<path d="M2248.8,463.7l-1.9,0L2220,510.3l6.5,0l21.3,-36.9l10.3,17.9l-10.2,0l0,5l13.1,0l8.1,14l6.5,0l0.1,0Z" class="g4_30" />


<!-- Any embedded fonts defined here -->
<style type="text/css" ><![CDATA[

@font-face {
	font-family: SofiaProLight_9r;
	src: url("fonts/SofiaProLight_9r.woff") format("woff");
}

@font-face {
	font-family: SofiaProLight_r;
	src: url("fonts/SofiaProLight_r.woff") format("woff");
}

@font-face {
	font-family: SofiaProRegular_9s;
	src: url("fonts/SofiaProRegular_9s.woff") format("woff");
}

@font-face {
	font-family: SofiaProRegular_9t;
	src: url("fonts/SofiaProRegular_9t.woff") format("woff");
}

@font-face {
	font-family: Helvetica-Light_9;
	src: url("fonts/Helvetica-Light_9.woff") format("woff");
}

@font-face {
	font-family: SofiaProLight_8;
	src: url("fonts/SofiaProLight_8.woff") format("woff");
}

]]></style>

</svg>
