<?xml version="1.0" encoding="UTF-8" standalone="no"?>
<!DOCTYPE svg PUBLIC "-//W3C//DTD SVG 1.1//EN"
"http://www.w3.org/Graphics/SVG/1.1/DTD/svg11.dtd">


<!-- Page 7 -->
<svg x="0" y="0" width="2933" height="1650" viewBox="0 0 2933 1650" version="1.1" xmlns="http://www.w3.org/2000/svg" xmlns:xlink="http://www.w3.org/1999/xlink"
style="display: block;margin-left: auto;margin-right: auto;">
<defs>
<clipPath id="c0_7"><path d="M59.6,97.8l0,-55l288.7,0l0,55Z" /></clipPath>
<clipPath id="c1_7"><path d="M216.9,572.9l0,-128.3l673.8,0l0,128.3Z" /></clipPath>
<clipPath id="c2_7"><path d="M226.1,968.6l0,-194l655.4,0l0,194Z" /></clipPath>
<clipPath id="c3_7"><path d="M227.6,1307.8l0,-82.5l744.1,0l0,82.5Z" /></clipPath>

<style type="text/css"><![CDATA[

.g1_7{
fill: #FFFFFF;
}
.g2_7{
fill: none;
stroke: #A6AAA9;
stroke-width: 1.5277778;
stroke-linecap: butt;
stroke-linejoin: miter;
stroke-miterlimit: 4;
stroke-dasharray: 4,4;
}
.g3_7{
fill: none;
stroke: #DCDEE0;
stroke-width: 1.5277778;
stroke-linecap: butt;
stroke-linejoin: miter;
stroke-miterlimit: 4;
}
.g4_7{
}
.g5_7{
fill: #E61E19;
}
.g6_7{
fill: #53585F;
}

.s1_7{
font-size: 18.33px;
font-family: Helvetica-Light_9;
fill: #000000;
}
.s2_7{
font-size: 27.50px;
font-family: Helvetica-Light_9;
fill: #53585F;
}
.s3_7{
font-size: 76.39px;
font-family: SofiaProLight_8;
fill: #000000;
}
.s4_7{
font-size: 33.23px;
font-family: SofiaProLight_8;
fill: #000000;
}
.s5_7{
font-size: 38.19px;
font-family: SofiaProLight_8;
fill: #EC5D57;
}

]]></style>

</defs>
<path d="M0,0
L0,1650
L2933,1650
L2933,0 Z " 
fill="#FFFFFF" stroke="none" />
<path d="M0,1650l2933.3,0l0,-1650L0,0L0,1650Z" class="g1_7" />
<text 
x="127" 
y="123" 
dx="0,0,0,0,0,0,0,0,0,0,0,0,0,0,0,0,0,0,0,0,0,0,0,0" 
class="s1_7"
>Brand Design Guide 2017 </text>

<path d="M387.6,161.3l0,-137.5" class="g2_7" />
<path d="M4.5,1564.2l2924.4,0" class="g3_7" />
<path d="M196.2,81.3c-2.7,2.4,-5,3.8,-10.6,3.8l-11.8,0l0,-29.6l11.8,0c5.5,0,8.1,1.5,10.8,3.9c2.7,2.7,4.2,6.6,4.2,10.8c0,4.4,-1.6,8.4,-4.4,11.1M185.8,50.9l-17.2,0l0,38.7l17.2,0c7.2,0,10.9,-1.9,14.5,-5.1c3.6,-3.5,5.6,-8.6,5.6,-14.3c0,-5.5,-1.9,-10.4,-5.3,-13.9C197.1,53,193,50.9,185.8,50.9Z" class="g4_7" />
<path d="M253.8,50.9l-5.1,0l0,38.7l29.5,0l0,-4.5l-24.4,0Z" class="g4_7" />
<path d="M307,50.9l-35.2,0l0,4.6l15,0l0,34.1l5.2,0l0,-34.1l15,0Z" class="g4_7" />
<g clip-path="url(#c0_7)">
<path d="M154.1,97.8l2.7,0l0,-55l-2.7,0l0,55Z" class="g5_7" />
</g>
<path d="M125,70.3l0,2.3l12.5,0l0,9.7c-2.9,2.4,-7.9,3.8,-12.5,3.8c-10.2,0,-16.3,-7.5,-16.3,-15.8c0,-8.7,6.7,-15.8,15.9,-15.8c4.8,0,10.3,1.9,13.7,5.1l3.6,-3.2c-5,-4.2,-11.3,-6.5,-17.4,-6.5c-11.9,0,-21.2,9.1,-21.2,20.3c0,11.3,9.3,20.4,21.4,20.4c6.2,0,12.8,-2.2,17.5,-5.8l0,-16.8L125,68Z" class="g4_7" />
<path d="M215.9,72.6l15.7,0l0,-2.3l0,-2.3l-15.7,0l0,-12.5l26,0l0,-4.6l-31.1,0l0,38.7l32.5,0l0,-4.5l-27.4,0Z" class="g4_7" />
<g clip-path="url(#c0_7)">
<path d="M81.9,50.9L59.6,89.6l5.4,0L71.7,78l11,0l0,-4.1l-8.6,0L82.7,59l17.7,30.6l5.4,0l0.1,0L83.5,50.9Z" class="g4_7" />
<path d="M326,50.9l-1.6,0L302.1,89.6l5.4,0L325.2,59l8.6,14.9l-8.6,0l0,4.1l11,0l6.7,11.6l5.4,0Z" class="g4_7" />
</g>
<path d="M1.3,180.1l2924.4,0" class="g2_7" />
<text 
x="44" 
y="1610" 
dx="0,0,0,0,0,0,0,0,0,0,0,0,0,0,0,0,0,0,0,0,0,0,0,0,0,0,0,0,0,0,0,0,0,0" 
class="s2_7"
>Copyright © 2017 AG Delta Pte Ltd.</text>

<text 
x="2861" 
y="1610" 
dx="0" 
class="s2_7"
>7</text>

<text 
x="435" 
y="120" 
dx="0,-1,0,0,0,0,0,0,-1,0,0,0,-2.4,-3.5,0,0,0,0,0,0" 
class="s3_7"
>Logo - Logo Versions</text>

<path d="M535.8,534.6c-6.4,5.4,-11.8,8.7,-24.8,8.7l-27.6,0l0,-69.1l27.6,0c12.9,0,19,3.5,25.2,9.2c6.2,6.3,9.7,15.3,9.7,25.3c0,10.2,-3.8,19.5,-10.1,25.9m-24.4,-71l-40.1,0l0,90.3l40.1,0c16.9,0,25.5,-4.4,33.8,-11.9c8.4,-8.1,13.2,-20.2,13.2,-33.3c0,-12.9,-4.5,-24.4,-12.5,-32.5c-8.2,-7.8,-17.6,-12.6,-34.5,-12.6Z" class="g4_7" />
<path d="M670.1,463.6l-12,0l0,90.3l69,0l0,-10.6l-57,0Z" class="g4_7" />
<path d="M794.1,463.6l-82.1,0l0,10.6l35.1,0l0,79.7l12.1,0l0,-79.7l34.9,0Z" class="g4_7" />
<g clip-path="url(#c1_7)">
<path d="M437.4,572.9l6.3,0l0,-128.3l-6.3,0l0,128.3Z" class="g5_7" />
</g>
<path d="M369.5,508.7l0,5.4l29.3,0l0,22.7c-6.9,5.5,-18.5,8.8,-29.1,8.8c-23.8,0,-38.2,-17.4,-38.2,-36.8c0,-20.3,15.6,-36.9,37,-36.9c11.4,0,24.1,4.5,32.1,12l8.3,-7.5c-11.6,-9.8,-26.3,-15.2,-40.5,-15.2c-27.6,0,-49.5,21.2,-49.5,47.5c0,26.3,21.7,47.6,50.1,47.6c14.3,0,29.8,-5.3,40.7,-13.7l0,-39.2l-40.2,0Z" class="g4_7" />
<path d="M581.8,514.1l36.5,0l0,-5.4l0,-5.3l-36.5,0l0,-29.2l60.6,0l0,-10.6l-72.6,0l0,90.3l75.7,0l0,-10.6l-63.7,0Z" class="g4_7" />
<g clip-path="url(#c1_7)">
<path d="M269.1,463.6l-52.2,90.3l0.1,0l12.7,0l15.6,-27.1l25.6,0l0,-9.7l-20,0l20,-34.7l41.3,71.5l12.6,0l0.1,0L272.8,463.6Z" class="g4_7" />
<path d="M838.6,463.6l-3.8,0l-52.1,90.3l0.1,0l12.7,0l41.2,-71.5l20,34.7l-19.9,0l0,9.7l25.5,0L878,553.9l12.6,0l0.1,0Z" class="g4_7" />
</g>
<text 
x="227" 
y="415" 
dx="0,-0.2,0,0,0,0,0" 
class="s4_7"
>Primary</text>

<text 
x="1634" 
y="415" 
dx="0,-0.2,0,0,0,0,0,-0.8,0,0,-1.1,0,0,0,-0.3" 
class="s4_7"
>Primary - White</text>

<path d="M1626,432.6l792.1,0l0,152.8l-792.1,0Z" class="g6_7" />
<path d="M2008.5,528.9c-4.8,4,-8.8,6.5,-18.6,6.5l-20.8,0l0,-51.8l20.8,0c9.6,0,14.2,2.6,18.9,6.9c4.7,4.7,7.2,11.5,7.2,19c0,7.6,-2.8,14.6,-7.5,19.4m-18.3,-53.3l-30.1,0l0,67.8l30.1,0c12.7,0,19.1,-3.3,25.3,-8.9c6.4,-6.1,10,-15.2,10,-25c0,-9.7,-3.4,-18.3,-9.5,-24.4c-6.1,-5.8,-13.1,-9.5,-25.8,-9.5Z" class="g1_7" />
<path d="M2109.3,475.6l-9,0l0,67.8l51.8,0l0,-8l-42.8,0Z" class="g1_7" />
<path d="M2202.4,475.6l-61.7,0l0,8l26.4,0l0,59.8l9,0l0,-59.8l26.3,0Z" class="g1_7" />
<path d="M1934.6,557.6l4.8,0l0,-96.2l-4.8,0l0,96.2Z" class="g5_7" />
<path d="M1883.7,509.5l0,4l22,0l0,17c-5.2,4.2,-13.9,6.7,-21.9,6.7c-17.9,0,-28.7,-13.1,-28.7,-27.6c0,-15.3,11.8,-27.7,27.9,-27.7c8.5,0,18,3.4,24,9l6.3,-5.6c-8.8,-7.4,-19.8,-11.4,-30.4,-11.4c-20.8,0,-37.2,15.8,-37.2,35.6c0,19.7,16.3,35.7,37.6,35.7c10.8,0,22.4,-4,30.6,-10.3l0,-29.4l-30.2,0Z" class="g1_7" />
<path d="M2043,513.5l27.4,0l0,-4l0,-4l-27.4,0l0,-21.9l45.5,0l0,-8l-54.5,0l0,67.8l56.9,0l0,-8l-47.9,0Z" class="g1_7" />
<path d="M1808.3,475.6l-39.1,67.8l9.5,0l11.8,-20.3l19.2,0l0,-7.3l-15,0l15,-26l31,53.6l9.4,0l0.1,0l-39.1,-67.8Z" class="g1_7" />
<path d="M2235.7,475.6l-2.8,0l-39.1,67.8l0.1,0l9.5,0l30.9,-53.6l15.1,26l-15,0l0,7.3l19.2,0l11.7,20.3l9.5,0l0.1,0Z" class="g1_7" />
<text 
x="227" 
y="745" 
dx="0,-0.4,0,0,0,-0.8,0,0,0,0,0,0,0,0,0,0,0,-0.8,-0.4,0,0,0,0,-0.5,0" 
class="s4_7"
>Logo with slogan vertical</text>

<path d="M536.3,862c-6.2,5.3,-11.5,8.5,-24.1,8.5l-26.9,0l0,-67.1l26.9,0c12.5,0,18.4,3.3,24.5,8.9c6,6.1,9.4,14.9,9.4,24.6c0,9.9,-3.6,18.9,-9.8,25.1M512.6,793l-39,0l0,87.8l39,0c16.4,0,24.7,-4.3,32.8,-11.5c8.2,-8,12.9,-19.7,12.9,-32.4c0,-12.5,-4.4,-23.7,-12.2,-31.6C538.2,797.7,529,793,512.6,793Z" class="g4_7" />
<path d="M667,793l-11.7,0l0,87.8l67.1,0l0,-10.3l-55.4,0Z" class="g4_7" />
<path d="M787.6,793l-79.9,0l0,10.4l34.2,0l0,77.4l11.7,0l0,-77.4l34,0Z" class="g4_7" />
<g clip-path="url(#c2_7)">
<path d="M440.6,899.3l6.1,0l0,-124.7l-6.1,0l0,124.7Z" class="g5_7" />
</g>
<path d="M374.5,836.9l0,5.2l28.5,0l0,22.1c-6.7,5.3,-18,8.6,-28.3,8.6c-23.2,0,-37.2,-17,-37.2,-35.8c0,-19.8,15.2,-35.9,36.1,-35.9c11,0,23.4,4.4,31.2,11.7l8.1,-7.3C401.6,796,387.3,790.7,373.5,790.7c-26.9,0,-48.2,20.6,-48.2,46.2c0,25.5,21.1,46.2,48.7,46.2c14,0,29,-5.1,39.7,-13.3l0,-38l-39.2,0Z" class="g4_7" />
<path d="M581,842.1l35.5,0l0,-5.2l0,-5.1l-35.5,0l0,-28.4l58.9,0l0,-10.4l-70.6,0l0,87.8l73.7,0l0,-10.3l-62,0Z" class="g4_7" />
<g clip-path="url(#c2_7)">
<path d="M276.8,793l-50.7,87.8l0.1,0l12.3,0l15.2,-26.3l24.9,0l0,-9.4l-19.4,0l19.4,-33.8l40.2,69.5l12.2,0l0.1,0L280.4,793Z" class="g4_7" />
<path d="M830.8,793l-3.6,0l-50.7,87.8l0.1,0l12.3,0L829,811.3l19.5,33.8l-19.4,0l0,9.4l24.8,0l15.2,26.3l12.3,0l0.1,0Z" class="g4_7" />
</g>
<path d="M351.5,968l5.6,0l0,-44.7l-5.6,0l0,44.7Z" class="g4_7" />
<path d="M371.3,939.1l-5.6,0l0,28.9l5.6,0Zm-2.8,-14.4c2.1,0,3.9,1.6,3.9,3.7c0,2.1,-1.8,3.7,-3.9,3.7c-2.1,0,-3.9,-1.6,-3.9,-3.7c0,-2.1,1.8,-3.7,3.9,-3.7Z" class="g4_7" />
<path d="M382.3,939.1l8.8,21.7l8.7,-21.7l6,0L393.7,968l0.1,0l-5.5,0l-12,-28.9Z" class="g4_7" />
<path d="M431.5,951.3c-0.7,-4.9,-4.1,-7.8,-8.8,-7.8c-4.7,0,-8.5,2.9,-9.1,7.8Zm5.5,4.4l-23.4,0c0.6,4.8,4.4,7.8,9.3,7.8c3.5,0,6.7,-1.6,8.3,-4.4c1.5,0.6,3.3,1.2,4.8,1.8c-2.4,5.1,-7.7,7.7,-13.3,7.7c-8.2,0,-14.8,-6,-14.8,-15.2c0,-9.1,6.6,-15,14.8,-15c8.3,0,14.4,5.9,14.4,15c0,0.7,0,1.6,-0.1,2.3Z" class="g4_7" />
<path d="M465.4,939.1l-5.6,0l0,28.9l5.6,0Zm-2.8,-14.4c2.1,0,3.9,1.6,3.9,3.7c0,2.1,-1.8,3.7,-3.9,3.7c-2.1,0,-3.9,-1.6,-3.9,-3.7c0,-2.1,1.8,-3.7,3.9,-3.7Z" class="g4_7" />
<path d="M479.6,968l-5.7,0l0,-28.9l5.7,0l0,4.3c1.7,-3.5,5.9,-5,9,-5c7.2,0,11.2,4.8,11.2,12.9l0,16.7l-5.7,0l0,-16.4c0,-4.8,-2.4,-7.6,-6.4,-7.6c-4,0,-8.1,2.2,-8.1,8.4Z" class="g4_7" />
<path d="M538.2,939.1l0,4.7l-6.1,0l0,24.2l-5.6,0l0,-24.2l-5.2,0l0,-4.7l5.2,0l0,-10.9l5.6,0l0,10.9Z" class="g4_7" />
<path d="M566,953.4c0,-5.8,-4.3,-9.4,-9.5,-9.4c-5.2,0,-9.6,3.6,-9.6,9.4c0,5.9,4.4,9.8,9.6,9.8c5.2,0,9.5,-3.9,9.5,-9.8m-24.7,0c0,-9.1,6.9,-15,15.2,-15c8.2,0,15.1,5.9,15.1,15c0,9.2,-6.9,15.2,-15.1,15.2c-8.3,0,-15.2,-6,-15.2,-15.2Z" class="g4_7" />
<path d="M602.8,952.4l0,15.6l-5.6,0l0,-16.4c0,-4.8,-2.5,-7.6,-6.3,-7.6c-4,0,-8,2.3,-8,8.4l0,15.6l-5.6,0l0,-28.9l5.6,0l0,4.3c1.5,-3.2,5.6,-4.6,8,-4.8c1.1,-0.1,2.2,0,3.1,0.2c3.7,0.5,6.2,2.4,7.6,5.6c2.7,-5.2,7.2,-6,10,-6c7.3,0,11.2,4.8,11.2,12.9l0,16.7l-5.6,0l0,-16.4c0,-4.7,-2.5,-7.6,-6.7,-7.6c-4.7,-0.1,-7.7,3.6,-7.7,8.4Z" class="g4_7" />
<path d="M652.7,953.4c0,-5.8,-4.3,-9.4,-9.5,-9.4c-5.2,0,-9.6,3.6,-9.6,9.4c0,5.9,4.4,9.8,9.6,9.8c5.2,0,9.5,-3.9,9.5,-9.8m-24.6,0c0,-9.1,6.8,-15,15.1,-15c8.2,0,15.2,5.9,15.2,15c0,9.2,-7,15.2,-15.2,15.2c-8.3,0,-15.1,-6,-15.1,-15.2Z" class="g4_7" />
<path d="M669.6,968l-5.6,0l0,-28.9l5.6,0l0,6.5c1.5,-5.1,4.3,-7.2,8.1,-7.2c2,0,4.2,0.6,5,1.2l-0.9,5.2c-1.5,-0.7,-3.1,-1,-4.3,-1c-5.5,0,-7.9,6,-7.9,13.7Z" class="g4_7" />
<path d="M692.2,968l-5.7,0l0,-28.9l5.7,0l0,6.5c1.5,-5.1,4.3,-7.2,8,-7.2c2.1,0,4.3,0.6,5.1,1.2l-0.9,5.2c-1.6,-0.7,-3.1,-1,-4.3,-1c-5.6,0,-7.9,6,-7.9,13.7Z" class="g4_7" />
<path d="M732.7,953.4c0,-5.8,-4.3,-9.4,-9.5,-9.4c-5.2,0,-9.6,3.6,-9.6,9.4c0,5.9,4.4,9.8,9.6,9.8c5.2,0,9.5,-3.9,9.5,-9.8m-24.6,0c0,-9.1,6.8,-15,15.1,-15c8.2,0,15.2,5.9,15.2,15c0,9.2,-7,15.2,-15.2,15.2c-8.3,0,-15.1,-6,-15.1,-15.2Z" class="g4_7" />
<path d="M771.8,968l-7.9,-21.3L756.3,968l-4.6,0l-11,-28.9l6,0l7.2,20.2l7.3,-20.2l5.4,0l7.3,20.2l7.2,-20.2l6.1,0L776.4,968Z" class="g4_7" />
<text 
x="227" 
y="308" 
dx="0,0,-0.4,0,0,0,-0.2,0,0,0,0,0,-1,0,0,0,-0.8,0,0,0,0,0,-0.3,0,0,0,0,-0.5,0,0,0,0,0,0,0,0,0,-0.8,0,0,0,0,0,-0.6,0" 
class="s5_7"
>*Use Primary set as standard and ﬁrst choice.</text>

<text 
x="1634" 
y="771" 
dx="0,-0.2,0,0,0,0,0,-0.8,0,0,-1.1,0,0,0,-0.3,0,-0.8,0,0,0,0,0,0,0,0,0,0,0,-0.8,-0.4,0,0,0,0,-0.5,0" 
class="s4_7"
>Primary - White with slogan vertical</text>

<path d="M1626.1,789.4l792.1,0l0,213.2l-792.1,0Z" class="g6_7" />
<path d="M2023.8,883.3c-4.8,4,-8.9,6.5,-18.6,6.5l-20.8,0l0,-51.7l20.8,0c9.6,0,14.2,2.6,18.9,6.8c4.6,4.8,7.2,11.5,7.2,19c0,7.7,-2.8,14.6,-7.5,19.4m-18.3,-53.2l-30.1,0l0,67.7l30.1,0c12.6,0,19.1,-3.3,25.3,-8.9c6.3,-6.1,10,-15.1,10,-25c0,-9.7,-3.5,-18.3,-9.5,-24.4c-6.1,-5.8,-13.2,-9.4,-25.8,-9.4Z" class="g1_7" />
<path d="M2124.6,830.1l-9,0l0,67.7l51.7,0l0,-8l-42.7,0Z" class="g1_7" />
<path d="M2217.7,830.1l-61.7,0l0,8l26.4,0l0,59.7l9,0l0,-59.7l26.3,0Z" class="g1_7" />
<path d="M1949.9,912.1l4.7,0l0,-96.3l-4.7,0l0,96.3Z" class="g5_7" />
<path d="M1899,863.9l0,4l22,0l0,17.1c-5.2,4.1,-13.9,6.6,-21.9,6.6c-17.9,0,-28.7,-13.1,-28.7,-27.6c0,-15.3,11.7,-27.7,27.8,-27.7c8.5,0,18.1,3.4,24.1,9l6.2,-5.6c-8.7,-7.3,-19.7,-11.4,-30.4,-11.4c-20.7,0,-37.1,15.9,-37.1,35.6c0,19.7,16.3,35.7,37.5,35.7c10.8,0,22.5,-4,30.7,-10.3l0,-29.4l-30.2,0Z" class="g1_7" />
<path d="M2058.3,867.9l27.4,0l0,-4l0,-3.9l-27.4,0l0,-21.9l45.4,0l0,-8l-54.4,0l0,67.7l56.8,0l0,-8l-47.8,0Z" class="g1_7" />
<path d="M1823.6,830.1l-39.2,67.7l0.1,0l9.5,0l11.7,-20.3l19.3,0l0,-7.3l-15.1,0l15.1,-26l30.9,53.6l9.5,0l0.1,0l-39.1,-67.7Z" class="g1_7" />
<path d="M2251,830.1l-2.8,0l-39.1,67.7l0.1,0l9.5,0l30.9,-53.6l15,26l-14.9,0l0,7.3l19.1,0l11.8,20.3l9.5,0Z" class="g1_7" />
<path d="M1881.2,965.1l4.3,0l0,-34.5l-4.3,0l0,34.5Z" class="g1_7" />
<path d="M1896.4,942.8l-4.3,0l0,22.3l4.3,0Zm-2.1,-11.1c1.7,0,3,1.2,3,2.8c0,1.7,-1.3,2.9,-3,2.9c-1.6,0,-3,-1.2,-3,-2.9c0,-1.6,1.4,-2.8,3,-2.8Z" class="g1_7" />
<path d="M1904.9,942.8l6.8,16.7l6.8,-16.7l4.6,0l-9.3,22.3l-4.2,0l-9.3,-22.3Z" class="g1_7" />
<path d="M1942.9,952.2c-0.5,-3.8,-3.2,-6,-6.8,-6c-3.6,0,-6.5,2.2,-7,6Zm4.3,3.4l-18.1,0c0.5,3.7,3.4,6,7.2,6c2.7,0,5.2,-1.2,6.4,-3.4c1.1,0.5,2.5,1,3.7,1.4c-1.9,3.9,-5.9,6,-10.3,6c-6.3,0,-11.4,-4.7,-11.4,-11.8c0,-7,5.1,-11.5,11.4,-11.5c6.4,0,11.1,4.5,11.1,11.5c0,0.6,0,1.3,0,1.8Z" class="g1_7" />
<path d="M1969,942.8l-4.3,0l0,22.3l4.3,0Zm-2.1,-11.1c1.7,0,3,1.2,3,2.8c0,1.7,-1.3,2.9,-3,2.9c-1.6,0,-3,-1.2,-3,-2.9c0,-1.6,1.4,-2.8,3,-2.8Z" class="g1_7" />
<path d="M1980,965.1l-4.4,0l0,-22.3l4.4,0l0,3.3c1.3,-2.7,4.5,-3.8,7,-3.8c5.5,0,8.6,3.6,8.6,9.9l0,12.9l-4.4,0l0,-12.6c0,-3.8,-1.8,-6,-4.9,-6c-3.1,0,-6.3,1.8,-6.3,6.5Z" class="g1_7" />
<path d="M2025.3,942.8l0,3.6l-4.8,0l0,18.7l-4.3,0l0,-18.7l-4,0l0,-3.6l4,0l0,-8.5l4.3,0l0,8.5Z" class="g1_7" />
<path d="M2046.7,953.8c0,-4.4,-3.4,-7.3,-7.4,-7.3c-4,0,-7.3,2.9,-7.3,7.3c0,4.6,3.3,7.5,7.3,7.5c4,0,7.4,-2.9,7.4,-7.5m-19,0c0,-7,5.3,-11.5,11.6,-11.5c6.4,0,11.7,4.5,11.7,11.5c0,7.1,-5.3,11.8,-11.7,11.8c-6.3,0,-11.6,-4.7,-11.6,-11.8Z" class="g1_7" />
<path d="M2075.1,953l0,12.1l-4.3,0l0,-12.7c0,-3.7,-1.9,-5.9,-4.9,-5.9c-3.1,0,-6.2,1.8,-6.2,6.5l0,12.1l-4.3,0l0,-22.3l4.3,0l0,3.3c1.2,-2.5,4.4,-3.6,6.2,-3.7c0.8,-0.1,1.7,0,2.4,0.1c2.8,0.4,4.8,1.9,5.9,4.4c2,-4,5.5,-4.6,7.7,-4.6c5.6,0,8.6,3.6,8.6,9.9l0,12.9l-4.3,0l0,-12.6c0,-3.7,-2,-6,-5.2,-6c-3.6,0,-5.9,2.8,-5.9,6.5Z" class="g1_7" />
<path d="M2113.6,953.8c0,-4.4,-3.3,-7.3,-7.4,-7.3c-4,0,-7.3,2.9,-7.3,7.3c0,4.6,3.3,7.5,7.3,7.5c4.1,0,7.4,-2.9,7.4,-7.5m-19,0c0,-7,5.3,-11.5,11.6,-11.5c6.4,0,11.8,4.5,11.8,11.5c0,7.1,-5.4,11.8,-11.8,11.8c-6.3,0,-11.6,-4.7,-11.6,-11.8Z" class="g1_7" />
<path d="M2126.6,965.1l-4.3,0l0,-22.3l4.3,0l0,5c1.2,-3.9,3.3,-5.5,6.2,-5.5c1.6,0,3.3,0.4,3.9,0.8l-0.7,4.1c-1.1,-0.6,-2.3,-0.8,-3.3,-0.8c-4.3,0,-6.1,4.6,-6.1,10.6Z" class="g1_7" />
<path d="M2144.1,965.1l-4.4,0l0,-22.3l4.4,0l0,5c1.1,-3.9,3.2,-5.5,6.2,-5.5c1.5,0,3.2,0.4,3.8,0.8l-0.6,4.1c-1.2,-0.6,-2.4,-0.8,-3.3,-0.8c-4.3,0,-6.1,4.6,-6.1,10.6Z" class="g1_7" />
<path d="M2175.3,953.8c0,-4.4,-3.3,-7.3,-7.3,-7.3c-4.1,0,-7.4,2.9,-7.4,7.3c0,4.6,3.3,7.5,7.4,7.5c4,0,7.3,-2.9,7.3,-7.5m-19,0c0,-7,5.3,-11.5,11.7,-11.5c6.3,0,11.7,4.5,11.7,11.5c0,7.1,-5.4,11.8,-11.7,11.8c-6.4,0,-11.7,-4.7,-11.7,-11.8Z" class="g1_7" />
<path d="M2205.5,965.1l-6.1,-16.4l-5.9,16.4l-3.5,0l-8.5,-22.3l4.6,0l5.6,15.6l5.6,-15.6l4.2,0l5.6,15.6l5.6,-15.6l4.6,0l-8.2,22.3Z" class="g1_7" />
<text 
x="227" 
y="1153" 
dx="0,-0.4,0,0,0,-0.8,0,0,0,0,0,0,0,0,0,0,0,0,0,0,0,0,-0.2,0,0,-0.3,0" 
class="s4_7"
>Logo with slogan horizontal</text>

<path d="M430.8,1283.1c-4,3.5,-7.5,5.6,-15.7,5.6l-17.7,0l0,-44.4l17.7,0c8.2,0,12,2.3,16,5.9c4,4.1,6.2,9.9,6.2,16.3c0,6.6,-2.4,12.5,-6.5,16.6m-15.5,-45.6l-25.5,0l0,58.1l25.5,0c10.8,0,16.2,-2.9,21.5,-7.7c5.4,-5.2,8.5,-13,8.5,-21.4c0,-8.3,-2.9,-15.7,-8,-20.9c-5.2,-5,-11.2,-8.1,-22,-8.1Z" class="g4_7" />
<path d="M516.5,1237.5l-7.7,0l0,58.1l44,0l0,-6.9l-36.3,0Z" class="g4_7" />
<path d="M595.5,1237.5l-52.4,0l0,6.8l22.4,0l0,51.3l7.7,0l0,-51.3l22.3,0Z" class="g4_7" />
<path d="M368.1,1307.8l4,0l0,-82.5l-4,0l0,82.5Z" class="g5_7" />
<path d="M324.9,1266.5l0,3.5l18.7,0l0,14.5c-4.5,3.6,-11.9,5.7,-18.6,5.7c-15.2,0,-24.4,-11.2,-24.4,-23.6c0,-13.1,10,-23.8,23.7,-23.8c7.2,0,15.3,3,20.4,7.8l5.3,-4.8c-7.4,-6.4,-16.8,-9.8,-25.8,-9.8c-17.7,0,-31.6,13.6,-31.6,30.5c0,16.9,13.9,30.6,31.9,30.6c9.2,0,19.1,-3.4,26,-8.8l0,-25.2l-25.6,0Z" class="g4_7" />
<path d="M460.2,1270l23.2,0l0,-3.5l0,-3.4l-23.2,0l0,-18.8l38.6,0l0,-6.8l-46.3,0l0,58.1l48.3,0l0,-6.9l-40.6,0Z" class="g4_7" />
<g clip-path="url(#c3_7)">
<path d="M260.9,1237.5l-33.3,58.1l0.1,0l8.1,0l9.9,-17.5l16.3,0l0,-6.2l-12.7,0L262,1249.6l26.3,46l8.1,0l-33.2,-58.1Z" class="g4_7" />
</g>
<path d="M623.8,1237.5l-2.4,0l-33.2,58.1l0.1,0l8,0l26.3,-46l12.8,22.3l-12.7,0l0,6.2l16.2,0l10,17.5l8.1,0Z" class="g4_7" />
<path d="M686.3,1281.1l3.7,0l0,-29.6l-3.7,0l0,29.6Z" class="g4_7" />
<path d="M699.2,1262l-3.7,0l0,19.1l3.7,0Zm-1.8,-9.5c1.4,0,2.5,1,2.5,2.4c0,1.4,-1.1,2.4,-2.5,2.4c-1.4,0,-2.6,-1,-2.6,-2.4c0,-1.4,1.2,-2.4,2.6,-2.4Z" class="g4_7" />
<path d="M706.4,1262l5.8,14.3l5.7,-14.3l3.9,0l-7.9,19.1l0.1,0l-3.6,0L702.5,1262Z" class="g4_7" />
<path d="M738.7,1270c-0.5,-3.2,-2.7,-5.1,-5.8,-5.1c-3.1,0,-5.5,1.9,-6,5.1Zm3.6,2.9l-15.4,0c0.5,3.2,2.9,5.2,6.1,5.2c2.3,0,4.4,-1,5.5,-2.9c1,0.4,2.1,0.8,3.1,1.2c-1.6,3.4,-5,5.1,-8.7,5.1c-5.4,0,-9.7,-4,-9.7,-10c0,-6.1,4.3,-9.9,9.7,-9.9c5.4,0,9.4,3.8,9.4,9.9c0,0.4,0,1,0,1.4Z" class="g4_7" />
<path d="M760.8,1262l-3.6,0l0,19.1l3.6,0Zm-1.8,-9.5c1.4,0,2.6,1,2.6,2.4c0,1.4,-1.2,2.4,-2.6,2.4c-1.4,0,-2.5,-1,-2.5,-2.4c0,-1.4,1.1,-2.4,2.5,-2.4Z" class="g4_7" />
<path d="M770.2,1281.1l-3.7,0l0,-19.1l3.7,0l0,2.8c1.1,-2.3,3.8,-3.3,5.9,-3.3c4.7,0,7.3,3.2,7.3,8.5l0,11.1l-3.7,0l0,-10.8c0,-3.2,-1.6,-5.1,-4.2,-5.1c-2.7,0,-5.3,1.5,-5.3,5.6Z" class="g4_7" />
<path d="M808.6,1262l0,3.1l-4,0l0,16l-3.7,0l0,-16l-3.4,0l0,-3.1l3.4,0l0,-7.3l3.7,0l0,7.3Z" class="g4_7" />
<path d="M826.8,1271.5c0,-3.9,-2.9,-6.3,-6.3,-6.3c-3.4,0,-6.2,2.4,-6.2,6.3c0,3.9,2.8,6.4,6.2,6.4c3.4,0,6.3,-2.5,6.3,-6.4m-16.2,0c0,-6.1,4.5,-10,9.9,-10c5.4,0,10,3.9,10,10c0,6,-4.6,10,-10,10c-5.4,0,-9.9,-4,-9.9,-10Z" class="g4_7" />
<path d="M850.9,1270.8l0,10.3l-3.7,0l0,-10.9c0,-3.1,-1.6,-5,-4.1,-5c-2.6,0,-5.3,1.6,-5.3,5.6l0,10.3l-3.6,0l0,-19.1l3.6,0l0,2.8c1.1,-2.1,3.7,-3,5.3,-3.2c0.7,0,1.4,0,2.1,0.2c2.3,0.3,4,1.6,4.9,3.7c1.8,-3.4,4.7,-4,6.6,-4c4.7,0,7.3,3.2,7.3,8.5l0,11.1l-3.7,0l0,-10.8c0,-3.2,-1.6,-5.1,-4.3,-5.1c-3.2,0,-5.1,2.4,-5.1,5.6Z" class="g4_7" />
<path d="M883.6,1271.5c0,-3.9,-2.8,-6.3,-6.3,-6.3c-3.4,0,-6.2,2.4,-6.2,6.3c0,3.9,2.8,6.4,6.2,6.4c3.5,0,6.3,-2.5,6.3,-6.4m-16.2,0c0,-6.1,4.5,-10,9.9,-10c5.4,0,10,3.9,10,10c0,6,-4.6,10,-10,10c-5.4,0,-9.9,-4,-9.9,-10Z" class="g4_7" />
<path d="M894.7,1281.1l-3.7,0l0,-19.1l3.7,0l0,4.3c0.9,-3.4,2.8,-4.8,5.2,-4.8c1.4,0,2.8,0.4,3.3,0.8l-0.5,3.5c-1.1,-0.5,-2.1,-0.7,-2.8,-0.7c-3.7,0,-5.2,4,-5.2,9Z" class="g4_7" />
<path d="M909.5,1281.1l-3.7,0l0,-19.1l3.7,0l0,4.3c0.9,-3.4,2.8,-4.8,5.2,-4.8c1.4,0,2.8,0.4,3.3,0.8l-0.6,3.5c-1,-0.5,-2,-0.7,-2.8,-0.7c-3.6,0,-5.1,4,-5.1,9Z" class="g4_7" />
<path d="M936,1271.5c0,-3.9,-2.8,-6.3,-6.2,-6.3c-3.5,0,-6.3,2.4,-6.3,6.3c0,3.9,2.8,6.4,6.3,6.4c3.4,0,6.2,-2.5,6.2,-6.4m-16.2,0c0,-6.1,4.6,-10,10,-10c5.4,0,9.9,3.9,9.9,10c0,6,-4.5,10,-9.9,10c-5.4,0,-10,-4,-10,-10Z" class="g4_7" />
<path d="M961.6,1281.1L956.4,1267l-4.9,14.1l-3.1,0L941.2,1262l4,0l4.7,13.4l4.8,-13.4l3.5,0l4.8,13.4l4.7,-13.4l4,0l-7.1,19.1Z" class="g4_7" />
<text 
x="1634" 
y="1153" 
dx="0,-0.2,0,0,0,0,0,-0.8,0,0,-1.1,0,0,0,-0.3,0,-0.8,0,0,0,0,0,0,0,0,0,0,0,0,0,0,0,0,-0.2,0,0,-0.3,0" 
class="s4_7"
>Primary - White with slogan horizontal</text>

<path d="M1625.9,1176.4l792.1,0l0,152.8l-792.1,0Z" class="g6_7" />
<path d="M1865,1268.1c-3.8,3.3,-7,5.2,-14.7,5.2l-16.4,0l0,-41.1l16.4,0c7.6,0,11.2,2.1,14.9,5.5c3.7,3.8,5.8,9.1,5.8,15c0,6.1,-2.2,11.7,-6,15.4m-14.4,-42.2l-23.8,0l0,53.8l23.8,0c10,0,15,-2.7,20,-7.1c5,-4.9,7.8,-12,7.8,-19.9c0,-7.6,-2.7,-14.5,-7.4,-19.3c-4.9,-4.6,-10.4,-7.5,-20.4,-7.5Z" class="g1_7" />
<path d="M1944.6,1225.9l-7.1,0l0,53.8l40.9,0l0,-6.4l-33.8,0Z" class="g1_7" />
<path d="M2018.1,1225.9l-48.6,0l0,6.3l20.8,0l0,47.5l7.1,0l0,-47.5l20.7,0Z" class="g1_7" />
<path d="M1806.7,1291l3.7,0l0,-76.4l-3.7,0l0,76.4Z" class="g5_7" />
<path d="M1766.4,1252.8l0,3.1l17.4,0l0,13.6c-4.1,3.2,-11,5.2,-17.3,5.2c-14.1,0,-22.6,-10.3,-22.6,-21.9c0,-12.1,9.2,-22,21.9,-22c6.8,0,14.3,2.7,19.1,7.2l4.9,-4.5c-6.9,-5.8,-15.6,-9,-24,-9c-16.4,0,-29.4,12.6,-29.4,28.2c0,15.7,12.9,28.4,29.7,28.4c8.5,0,17.7,-3.2,24.2,-8.2l0,-23.3l-23.9,0Z" class="g1_7" />
<path d="M1892.3,1255.9l21.6,0l0,-3.1l0,-3.2l-21.6,0l0,-17.4l35.9,0l0,-6.3l-43.1,0l0,53.8l44.9,0l0,-6.4l-37.7,0Z" class="g1_7" />
<path d="M1706.9,1225.9l-30.9,53.8l7.5,0l9.3,-16.2l15.2,0l0,-5.7l-11.9,0l11.9,-20.7l24.4,42.6l7.5,0l0.1,0l-30.9,-53.8Z" class="g1_7" />
<path d="M2044.5,1225.9l-2.2,0l-30.9,53.8l7.5,0l24.5,-42.6l11.8,20.7l-11.8,0l0,5.7l15.2,0l9.2,16.2l7.5,0l0.1,0Z" class="g1_7" />
<path d="M2102.6,1266.3l3.4,0l0,-27.4l-3.4,0l0,27.4Z" class="g1_7" />
<path d="M2114.6,1248.5l-3.4,0l0,17.8l3.4,0Zm-1.7,-8.7c1.3,0,2.4,0.9,2.4,2.2c0,1.3,-1.1,2.3,-2.4,2.3c-1.3,0,-2.4,-1,-2.4,-2.3c0,-1.3,1.1,-2.2,2.4,-2.2Z" class="g1_7" />
<path d="M2121.3,1248.5l5.4,13.4l5.3,-13.4l3.7,0l-7.4,17.8l-3.3,0l-7.3,-17.8Z" class="g1_7" />
<path d="M2151.3,1256c-0.4,-2.9,-2.5,-4.7,-5.3,-4.7c-2.9,0,-5.2,1.8,-5.6,4.7Zm3.4,2.7l-14.3,0c0.4,3,2.7,4.8,5.7,4.8c2.1,0,4.1,-0.9,5,-2.7c1,0.4,2,0.8,3,1.1c-1.5,3.2,-4.7,4.7,-8.1,4.7c-5,0,-9,-3.6,-9,-9.2c0,-5.7,4,-9.2,9,-9.2c5,0,8.7,3.5,8.7,9.2c0,0.4,0,0.9,0,1.3Z" class="g1_7" />
<path d="M2172,1248.5l-3.4,0l0,17.8l3.4,0Zm-1.7,-8.7c1.3,0,2.3,0.9,2.3,2.2c0,1.3,-1,2.3,-2.3,2.3c-1.3,0,-2.4,-1,-2.4,-2.3c0,-1.3,1.1,-2.2,2.4,-2.2Z" class="g1_7" />
<path d="M2180.6,1266.3l-3.4,0l0,-17.8l3.4,0l0,2.7c1.1,-2.1,3.6,-3,5.5,-3c4.4,0,6.8,2.9,6.8,7.8l0,10.3l-3.4,0l0,-10c0,-3,-1.5,-4.8,-3.9,-4.8c-2.5,0,-5,1.4,-5,5.2Z" class="g1_7" />
<path d="M2216.4,1248.5l0,3l-3.8,0l0,14.8l-3.4,0l0,-14.8l-3.2,0l0,-3l3.2,0l0,-6.6l3.4,0l0,6.6Z" class="g1_7" />
<path d="M2233.3,1257.4c0,-3.6,-2.7,-5.9,-5.8,-5.9c-3.2,0,-5.8,2.3,-5.8,5.9c0,3.6,2.6,5.9,5.8,5.9c3.1,0,5.8,-2.3,5.8,-5.9m-15,0c0,-5.7,4.2,-9.2,9.2,-9.2c5,0,9.2,3.5,9.2,9.2c0,5.6,-4.2,9.2,-9.2,9.2c-5,0,-9.2,-3.6,-9.2,-9.2Z" class="g1_7" />
<path d="M2255.7,1256.7l0,9.6l-3.4,0l0,-10.1c0,-2.9,-1.5,-4.7,-3.8,-4.7c-2.5,0,-4.9,1.5,-4.9,5.2l0,9.6l-3.5,0l0,-17.8l3.5,0l0,2.7c0.9,-2,3.4,-2.8,4.8,-3c0.7,0,1.4,0,2,0.2c2.2,0.3,3.8,1.5,4.6,3.4c1.6,-3.1,4.4,-3.6,6.1,-3.6c4.4,0,6.8,2.9,6.8,7.8l0,10.3l-3.4,0l0,-10c0,-3,-1.6,-4.8,-4.1,-4.8c-2.9,0,-4.7,2.2,-4.7,5.2Z" class="g1_7" />
<path d="M2286.1,1257.4c0,-3.6,-2.6,-5.9,-5.8,-5.9c-3.2,0,-5.8,2.3,-5.8,5.9c0,3.6,2.6,5.9,5.8,5.9c3.2,0,5.8,-2.3,5.8,-5.9m-15,0c0,-5.7,4.2,-9.2,9.2,-9.2c5,0,9.3,3.5,9.3,9.2c0,5.6,-4.3,9.2,-9.3,9.2c-5,0,-9.2,-3.6,-9.2,-9.2Z" class="g1_7" />
<path d="M2296.4,1266.3l-3.4,0l0,-17.8l3.4,0l0,4c0.9,-3.1,2.6,-4.3,4.9,-4.3c1.3,0,2.6,0.3,3.1,0.7l-0.5,3.2c-1,-0.5,-1.9,-0.6,-2.6,-0.6c-3.4,0,-4.9,3.6,-4.9,8.3Z" class="g1_7" />
<path d="M2310.2,1266.3l-3.5,0l0,-17.8l3.5,0l0,4c0.9,-3.1,2.6,-4.3,4.9,-4.3c1.2,0,2.6,0.3,3,0.7l-0.5,3.2c-0.9,-0.5,-1.9,-0.6,-2.6,-0.6c-3.4,0,-4.8,3.6,-4.8,8.3Z" class="g1_7" />
<path d="M2334.9,1257.4c0,-3.6,-2.7,-5.9,-5.8,-5.9c-3.2,0,-5.8,2.3,-5.8,5.9c0,3.6,2.6,5.9,5.8,5.9c3.1,0,5.8,-2.3,5.8,-5.9m-15,0c0,-5.7,4.1,-9.2,9.2,-9.2c5,0,9.2,3.5,9.2,9.2c0,5.6,-4.2,9.2,-9.2,9.2c-5.1,0,-9.2,-3.6,-9.2,-9.2Z" class="g1_7" />
<path d="M2358.7,1266.3l-4.8,-13l-4.6,13l-2.8,0l-6.8,-17.8l3.7,0l4.4,12.5l4.4,-12.5l3.4,0l4.4,12.5l4.4,-12.5l3.7,0l-6.6,17.8Z" class="g1_7" />


<!-- Any embedded fonts defined here -->
<style type="text/css" ><![CDATA[

@font-face {
	font-family: Helvetica-Light_9;
	src: url("fonts/Helvetica-Light_9.woff") format("woff");
}

@font-face {
	font-family: SofiaProLight_8;
	src: url("fonts/SofiaProLight_8.woff") format("woff");
}

]]></style>

</svg>
