<?xml version="1.0" encoding="UTF-8" standalone="no"?>
<!DOCTYPE svg PUBLIC "-//W3C//DTD SVG 1.1//EN"
"http://www.w3.org/Graphics/SVG/1.1/DTD/svg11.dtd">


<!-- Page 8 -->
<svg x="0" y="0" width="2933" height="1650" viewBox="0 0 2933 1650" version="1.1" xmlns="http://www.w3.org/2000/svg" xmlns:xlink="http://www.w3.org/1999/xlink"
style="display: block;margin-left: auto;margin-right: auto;">
<defs>
<clipPath id="c0_8"><path d="M59.6,97.8l0,-55l288.7,0l0,55Z" /></clipPath>
<clipPath id="c1_8"><path d="M1637.8,398.8l0,-113.1l594.3,0l0,113.1Z" /></clipPath>
<clipPath id="c2_8"><path d="M349.7,389.4c-0.2,-0.1,-0.5,-0.2,-0.7,-0.4L338.4,378.2l0,-3.2l2.8,-2.9c0.4,-0.4,0.9,-0.6,1.5,-0.6c0.5,0,1,0.2,1.4,0.6l6.4,6.5l14.2,-14.4c0.2,-0.2,0.5,-0.4,0.9,-0.5l1.2,0c0.3,0.1,0.6,0.3,0.8,0.5l3,3c0.4,0.4,0.6,0.9,0.6,1.5c0,0.6,-0.2,1.1,-0.6,1.5L352,389c-0.2,0.2,-0.5,0.3,-0.7,0.4Z" /></clipPath>
<clipPath id="c3_8"><path d="M1631.7,611.1l0,-116.1l606.5,0l0,116.1Z" /></clipPath>
<clipPath id="c4_8"><path d="M1628.6,1342.9l0,-116.1l606.5,0l0,116.1Z" /></clipPath>

<style type="text/css"><![CDATA[

.g1_8{
fill: #FFFFFF;
}
.g2_8{
fill: none;
stroke: #A6AAA9;
stroke-width: 1.5277778;
stroke-linecap: butt;
stroke-linejoin: miter;
stroke-miterlimit: 4;
stroke-dasharray: 4,4;
}
.g3_8{
fill: none;
stroke: #DCDEE0;
stroke-width: 1.5277778;
stroke-linecap: butt;
stroke-linejoin: miter;
stroke-miterlimit: 4;
}
.g4_8{
}
.g5_8{
fill: #E61E19;
}
.g6_8{
fill: #70BF41;
}

.s1_8{
font-size: 18.33px;
font-family: Helvetica-Light_9;
fill: #000000;
}
.s2_8{
font-size: 27.50px;
font-family: Helvetica-Light_9;
fill: #53585F;
}
.s3_8{
font-size: 76.39px;
font-family: SofiaProLight_8;
fill: #000000;
}
.s4_8{
font-size: 76.39px;
font-family: SofiaProBold_q;
fill: #70BF41;
}
.s5_8{
font-size: 38.19px;
font-family: SofiaProLight_8;
fill: #53585F;
}

]]></style>

</defs>
<path d="M0,0
L0,1650
L2933,1650
L2933,0 Z " 
fill="#FFFFFF" stroke="none" />
<path d="M0,1650l2933.3,0l0,-1650L0,0L0,1650Z" class="g1_8" />
<text 
x="127" 
y="123" 
dx="0,0,0,0,0,0,0,0,0,0,0,0,0,0,0,0,0,0,0,0,0,0,0,0" 
class="s1_8"
>Brand Design Guide 2017 </text>

<path d="M387.6,161.3l0,-137.5" class="g2_8" />
<path d="M4.5,1564.2l2924.4,0" class="g3_8" />
<path d="M196.2,81.3c-2.7,2.4,-5,3.8,-10.6,3.8l-11.8,0l0,-29.6l11.8,0c5.5,0,8.1,1.5,10.8,3.9c2.7,2.7,4.2,6.6,4.2,10.8c0,4.4,-1.6,8.4,-4.4,11.1M185.8,50.9l-17.2,0l0,38.7l17.2,0c7.2,0,10.9,-1.9,14.5,-5.1c3.6,-3.5,5.6,-8.6,5.6,-14.3c0,-5.5,-1.9,-10.4,-5.3,-13.9C197.1,53,193,50.9,185.8,50.9Z" class="g4_8" />
<path d="M253.8,50.9l-5.1,0l0,38.7l29.5,0l0,-4.5l-24.4,0Z" class="g4_8" />
<path d="M307,50.9l-35.2,0l0,4.6l15,0l0,34.1l5.2,0l0,-34.1l15,0Z" class="g4_8" />
<g clip-path="url(#c0_8)">
<path d="M154.1,97.8l2.7,0l0,-55l-2.7,0l0,55Z" class="g5_8" />
</g>
<path d="M125,70.3l0,2.3l12.5,0l0,9.7c-2.9,2.4,-7.9,3.8,-12.5,3.8c-10.2,0,-16.3,-7.5,-16.3,-15.8c0,-8.7,6.7,-15.8,15.9,-15.8c4.8,0,10.3,1.9,13.7,5.1l3.6,-3.2c-5,-4.2,-11.3,-6.5,-17.4,-6.5c-11.9,0,-21.2,9.1,-21.2,20.3c0,11.3,9.3,20.4,21.4,20.4c6.2,0,12.8,-2.2,17.5,-5.8l0,-16.8L125,68Z" class="g4_8" />
<path d="M215.9,72.6l15.7,0l0,-2.3l0,-2.3l-15.7,0l0,-12.5l26,0l0,-4.6l-31.1,0l0,38.7l32.5,0l0,-4.5l-27.4,0Z" class="g4_8" />
<g clip-path="url(#c0_8)">
<path d="M81.9,50.9L59.6,89.6l5.4,0L71.7,78l11,0l0,-4.1l-8.6,0L82.7,59l17.7,30.6l5.4,0l0.1,0L83.5,50.9Z" class="g4_8" />
<path d="M326,50.9l-1.6,0L302.1,89.6l5.4,0L325.2,59l8.6,14.9l-8.6,0l0,4.1l11,0l6.7,11.6l5.4,0Z" class="g4_8" />
</g>
<path d="M1.3,180.1l2924.4,0" class="g2_8" />
<text 
x="44" 
y="1610" 
dx="0,0,0,0,0,0,0,0,0,0,0,0,0,0,0,0,0,0,0,0,0,0,0,0,0,0,0,0,0,0,0,0,0,0" 
class="s2_8"
>Copyright © 2017 AG Delta Pte Ltd.</text>

<text 
x="2861" 
y="1610" 
dx="0" 
class="s2_8"
>8</text>

<text 
x="435" 
y="120" 
dx="0,-1,0,0,0,0,0,0,-1,0,0,0,0,0,0" 
class="s3_8"
>Logo - Logo use</text>

<path d="M1919,365c-5.6,4.7,-10.3,7.6,-21.8,7.6l-24.4,0l0,-60.8l24.4,0c11.3,0,16.7,3.1,22.2,8.1c5.5,5.6,8.5,13.5,8.5,22.3c0,9,-3.3,17.2,-8.9,22.8m-21.5,-62.6l-35.3,0l0,79.6l35.3,0c14.9,0,22.5,-3.9,29.8,-10.5c7.4,-7.2,11.7,-17.8,11.7,-29.3c0,-11.4,-4,-21.5,-11.1,-28.7c-7.2,-6.8,-15.5,-11.1,-30.4,-11.1Z" class="g4_8" />
<path d="M2037.5,302.4l-10.6,0l0,79.6l60.9,0l0,-9.4l-50.3,0Z" class="g4_8" />
<path d="M2146.9,302.4l-72.4,0l0,9.4l30.9,0l0,70.2l10.7,0l0,-70.2l30.8,0Z" class="g4_8" />
<g clip-path="url(#c1_8)">
<path d="M1832.2,398.8l5.6,0l0,-113.1l-5.6,0l0,113.1Z" class="g5_8" />
</g>
<path d="M1772.4,342.2l0,4.7l25.8,0l0,20c-6.1,4.9,-16.3,7.8,-25.7,7.8c-21,0,-33.7,-15.3,-33.7,-32.4c0,-17.9,13.8,-32.6,32.7,-32.6c10,0,21.2,4.1,28.3,10.6l7.3,-6.5c-10.2,-8.7,-23.2,-13.5,-35.7,-13.5c-24.4,0,-43.7,18.7,-43.7,41.9c0,23.1,19.2,41.9,44.2,41.9c12.7,0,26.3,-4.6,35.9,-12.1l0,-34.5l-35.4,0Z" class="g4_8" />
<path d="M1959.6,346.9l32.2,0l0,-4.7l0,-4.7l-32.2,0l0,-25.7l53.4,0l0,-9.4l-64,0l0,79.6l66.8,0l0,-9.4l-56.2,0Z" class="g4_8" />
<path d="M1683.8,302.4l-46,79.6l0.1,0l11.1,0l13.8,-23.9l22.6,0l0,-8.5l-17.7,0L1685.4,319l36.4,63l11.1,0l0.1,0l-46,-79.6Z" class="g4_8" />
<path d="M2186.1,302.4l-3.3,0l-46,79.6l0.1,0l11.2,0l36.4,-63l17.6,30.6l-17.5,0l0,8.5l22.5,0l13.8,23.9l11.1,0l0.1,0Z" class="g4_8" />
<path d="M340.3,349l29.8,0c3.6,0,5.5,0,7.4,0.6c2.2,0.8,3.8,2.5,4.6,4.6c0.6,2,0.6,3.8,0.6,7.5l0,29.8c0,3.6,0,5.4,-0.6,7.4c-0.8,2.1,-2.4,3.8,-4.6,4.6c-1.9,0.6,-3.8,0.6,-7.5,0.6l-29.7,0c-3.7,0,-5.5,0,-7.5,-0.6c-2.1,-0.8,-3.8,-2.5,-4.6,-4.6c-0.6,-2,-0.6,-3.8,-0.6,-7.5l0,-29.8c0,-3.6,0,-5.4,0.6,-7.4c0.8,-2.1,2.5,-3.8,4.6,-4.6c2,-0.6,3.8,-0.6,7.5,-0.6Z" class="g6_8" />
<g clip-path="url(#c2_8)">
<path d="M336.8,390.4l35.3,0l0,-27.7l-35.3,0l0,27.7Z" class="g1_8" />
</g>
<text 
x="404" 
y="404" 
dx="0,0" 
class="s4_8"
>DO</text>

<text 
x="404" 
y="481" 
dx="0,0,0,0,0,0,0,0,0,0,0,-1,0,0,-0.5,-0.2,-0.3,0,0,-0.5,0,0,0,0,0,0,0,0" 
class="s5_8"
>The primary preferred usage </text>

<text 
x="404" 
y="527" 
dx="0,0,0,-0.6,0,0,0,0,0,-0.6,0,0,0,-0.9,0,0,0,-1,0,0,0,-0.3,0" 
class="s5_8"
>is full color on white </text>

<text 
x="404" 
y="572" 
dx="0,0,0,0,-1.1,0,-0.5,0,0,0,0,0" 
class="s5_8"
>background. </text>

<text 
x="404" 
y="664" 
dx="0,-0.2,-0.2,0,0,0,0,0,0,0,0,0,0,0,-0.8,0,0,0,0,-1.1,0,-0.5,0,0,0,0" 
class="s5_8"
>Optional light background </text>

<text 
x="404" 
y="710" 
dx="0,0,0,-1,0,0,0,0,0,0,0,0,0,0,0,0,0,0,0,0,0,0,0,0" 
class="s5_8"
>may be used as along as </text>

<text 
x="404" 
y="756" 
dx="0,0,-0.2,0,0,0,-0.5,0,0,0,0,0,0,0,0,0,0,-0.5,0,0,0,0,0,0,0,0,0,0,0,0,-0.9" 
class="s5_8"
>both red line in the middle or </text>

<text 
x="404" 
y="802" 
dx="0,0,0,0,0,0,-0.5,-0.3,-0.3,0,-0.8,0,-0.6,0,0,0,-0.5,0,0,-0.8,0,0,0,0,0,0,0,0,-0.9" 
class="s5_8"
>black text contrast is clear </text>

<text 
x="404" 
y="847" 
dx="0,0,0,0,0,0,0,0" 
class="s5_8"
>enough. </text>

<text 
x="404" 
y="939" 
dx="0,-1.5,0,0,0,-1,0,0,0,-0.3,0,0,-0.6,0,0,0,-0.9,0,0,0,0,0,0,0,0,0,-0.6,0,0,0,0" 
class="s5_8"
>Full white color is applicable </text>

<text 
x="404" 
y="985" 
dx="0,0,0,0,0,0,-0.6,0,0,0,0,0,-1,0,0,0,0,0,-0.6,0,0,0,0,0,0,0,0,0" 
class="s5_8"
>as secondary choice as long </text>

<text 
x="404" 
y="1031" 
dx="0,0,0,-1.2,-0.6,0,0,0,0,0,-0.3,0,0,0,0,0,0,0,0,0,0,0,-1" 
class="s5_8"
>as AG Delta is legibly </text>

<text 
x="404" 
y="1077" 
dx="0,-0.5,0,-0.6,0,0,0,0,0,0,0,0,0,0" 
class="s5_8"
>recognisable. </text>

<text 
x="404" 
y="1168" 
dx="0,-0.2,0,0,0,0,0,-1,0,-0.6,0,0,0,-0.9,0,0,0,0,0,0,0,0,0,-0.6,0,0,0,0" 
class="s5_8"
>Primary color is applicable.</text>

<path d="M1413,265.9l1054,0l0,152.7l-1054,0Z" class="g2_8" />
<path d="M1413,707.8l1054,0l0,152.8l-1054,0Z" class="g4_8" />
<path d="M1919,803.4c-5.6,4.8,-10.3,7.7,-21.8,7.7l-24.4,0l0,-60.8l24.4,0c11.3,0,16.7,3,22.2,8c5.5,5.6,8.5,13.6,8.5,22.3c0,9.1,-3.3,17.2,-8.9,22.8m-21.5,-62.5l-35.3,0l0,79.6l35.3,0c14.9,0,22.5,-3.9,29.8,-10.5c7.4,-7.2,11.7,-17.8,11.7,-29.4c0,-11.3,-4,-21.4,-11.1,-28.6c-7.2,-6.8,-15.5,-11.1,-30.4,-11.1Z" class="g1_8" />
<path d="M2037.5,740.9l-10.6,0l0,79.6l60.9,0l0,-9.4l-50.3,0Z" class="g1_8" />
<path d="M2146.9,740.9l-72.4,0l0,9.4l30.9,0l0,70.2l10.7,0l0,-70.2l30.8,0Z" class="g1_8" />
<path d="M1832.2,837.2l5.6,0l0,-113l-5.6,0l0,113Z" class="g5_8" />
<path d="M1772.4,780.7l0,4.7l25.8,0l0,20c-6.1,4.9,-16.3,7.8,-25.7,7.8c-21,0,-33.7,-15.4,-33.7,-32.4c0,-18,13.8,-32.6,32.7,-32.6c10,0,21.2,4,28.3,10.6l7.3,-6.6c-10.2,-8.6,-23.2,-13.4,-35.7,-13.4c-24.4,0,-43.7,18.7,-43.7,41.8c0,23.2,19.2,42,44.2,42c12.7,0,26.3,-4.7,35.9,-12.1l0,-34.5l-35.4,0Z" class="g1_8" />
<path d="M1959.6,785.4l32.2,0l0,-4.7l0,-4.7l-32.2,0l0,-25.7l53.4,0l0,-9.4l-64,0l0,79.6l66.8,0l0,-9.4l-56.2,0Z" class="g1_8" />
<path d="M1683.8,740.9l-46,79.6l0.1,0l11.1,0l13.8,-23.9l22.6,0l0,-8.5l-17.7,0l17.7,-30.6l36.4,63l11.1,0l0.1,0l-46,-79.6Z" class="g1_8" />
<path d="M2186.1,740.9l-3.3,0l-46,79.6l0.1,0l11.2,0l36.4,-63l17.6,30.6l-17.5,0l0,8.5l22.5,0l13.8,23.9l11.1,0l0.1,0Z" class="g1_8" />
<image preserveAspectRatio="none" x="1410" y="906" width="1060" height="232" xlink:href="8/img/1.png" />
<path d="M1919,1044.8c-5.6,4.8,-10.3,7.7,-21.8,7.7l-24.4,0l0,-60.8l24.4,0c11.3,0,16.7,3,22.2,8c5.5,5.6,8.5,13.5,8.5,22.3c0,9,-3.3,17.2,-8.9,22.8m-21.5,-62.5l-35.3,0l0,79.6l35.3,0c14.9,0,22.5,-3.9,29.8,-10.5c7.4,-7.2,11.7,-17.8,11.7,-29.4c0,-11.3,-4,-21.4,-11.1,-28.6c-7.2,-6.9,-15.5,-11.1,-30.4,-11.1Z" class="g1_8" />
<path d="M2037.5,982.3l-10.6,0l0,79.6l60.9,0l0,-9.4l-50.3,0Z" class="g1_8" />
<path d="M2146.9,982.3l-72.4,0l0,9.4l30.9,0l0,70.2l10.7,0l0,-70.2l30.8,0Z" class="g1_8" />
<path d="M1832.2,1078.6l5.6,0l0,-113l-5.6,0l0,113Z" class="g5_8" />
<path d="M1772.4,1022.1l0,4.7l25.8,0l0,20c-6.1,4.8,-16.3,7.8,-25.7,7.8c-21,0,-33.7,-15.4,-33.7,-32.5c0,-17.9,13.8,-32.5,32.7,-32.5c10,0,21.2,4,28.3,10.6l7.3,-6.6c-10.2,-8.6,-23.2,-13.4,-35.7,-13.4c-24.4,0,-43.7,18.7,-43.7,41.8c0,23.2,19.2,42,44.2,42c12.7,0,26.3,-4.7,35.9,-12.1l0,-34.5l-35.4,0Z" class="g1_8" />
<path d="M1959.6,1026.8l32.2,0l0,-4.7l0,-4.7l-32.2,0l0,-25.7l53.4,0l0,-9.4l-64,0l0,79.6l66.8,0l0,-9.4l-56.2,0Z" class="g1_8" />
<path d="M1683.8,982.3l-46,79.6l0.1,0l11.1,0l13.8,-23.9l22.6,0l0,-8.5l-17.7,0l17.7,-30.6l36.4,63l11.1,0l0.1,0l-46,-79.6Z" class="g1_8" />
<path d="M2186.1,982.3l-3.3,0l-46,79.6l0.1,0l11.2,0l36.4,-63l17.6,30.6l-17.5,0l0,8.5l22.5,0l13.8,23.9l11.1,0l0.1,0Z" class="g1_8" />
<path d="M1918.7,576.4c-5.7,4.9,-10.6,7.9,-22.3,7.9l-24.9,0l0,-62.5l24.9,0c11.6,0,17.1,3.1,22.7,8.3c5.6,5.7,8.7,13.9,8.7,22.9c0,9.3,-3.4,17.6,-9.1,23.4m-21.9,-64.2l-36.1,0l0,81.7l36.1,0c15.2,0,22.9,-4,30.4,-10.7c7.5,-7.4,11.9,-18.3,11.9,-30.2c0,-11.7,-4.1,-22,-11.3,-29.4c-7.4,-7,-15.8,-11.4,-31,-11.4Z" class="g4_8" />
<path d="M2039.6,512.2l-10.8,0l0,81.7l62.1,0l0,-9.6l-51.3,0Z" class="g4_8" />
<path d="M2151.3,512.2l-74,0l0,9.6l31.7,0l0,72.1l10.8,0l0,-72.1l31.5,0Z" class="g4_8" />
<path d="M1830.1,611.1l5.7,0l0,-116.1l-5.7,0l0,116.1Z" class="g4_8" />
<path d="M1769,553.1l0,4.8l26.4,0l0,20.5c-6.2,5,-16.7,8,-26.3,8c-21.4,0,-34.3,-15.8,-34.3,-33.3c0,-18.4,14.1,-33.4,33.3,-33.4c10.3,0,21.7,4.1,28.9,10.9l7.5,-6.8C1794,514.9,1780.8,510.1,1768,510.1c-24.9,0,-44.5,19.1,-44.5,42.9c0,23.8,19.5,43.1,45,43.1c13,0,26.9,-4.8,36.7,-12.4l0,-35.5l-36.2,0Z" class="g4_8" />
<path d="M1960.1,557.9l32.9,0l0,-4.8l0,-4.9l-32.9,0l0,-26.4l54.5,0l0,-9.6l-65.3,0l0,81.7l68.2,0l0,-9.6l-57.4,0Z" class="g4_8" />
<g clip-path="url(#c3_8)">
<path d="M1678.6,512.2l-46.9,81.7l0.1,0l11.3,0l14.1,-24.5l23.1,0l0,-8.8l-18.1,0l18.1,-31.4l37.1,64.7l11.4,0l0.1,0l-47,-81.7Z" class="g4_8" />
</g>
<path d="M2191.3,512.2l-3.4,0L2141,593.9l0.1,0l11.4,0l37.1,-64.7l18,31.4l-17.9,0l0,8.8l22.9,0l14.1,24.5l11.4,0l0.1,0Z" class="g4_8" />
<path d="M1413,477l1054,0l0,152.7l-1054,0Z" class="g2_8" />
<path d="M1413,1207.3l1054,0l0,152.8l-1054,0Z" class="g2_8" />
<path d="M1915.6,1308.2c-5.7,4.9,-10.5,7.9,-22.2,7.9l-24.9,0l0,-62.5l24.9,0c11.5,0,17,3.2,22.6,8.3c5.6,5.7,8.7,13.9,8.7,22.9c0,9.3,-3.3,17.7,-9.1,23.4M1893.7,1244l-36.1,0l0,81.7l36.1,0c15.2,0,22.9,-4,30.4,-10.7c7.6,-7.4,11.9,-18.3,11.9,-30.2c0,-11.6,-4.1,-22,-11.3,-29.4c-7.3,-7,-15.8,-11.4,-31,-11.4Z" class="g5_8" />
<path d="M2036.6,1244l-10.8,0l0,81.7l62.1,0l0,-9.6l-51.3,0Z" class="g5_8" />
<path d="M2148.2,1244l-73.9,0l0,9.6l31.6,0l0,72.1l10.8,0l0,-72.1l31.5,0Z" class="g5_8" />
<g clip-path="url(#c4_8)">
<path d="M1827.1,1342.9l5.6,0l0,-116.1l-5.6,0l0,116.1Z" class="g5_8" />
</g>
<path d="M1766,1284.9l0,4.8l26.3,0l0,20.5c-6.2,5,-16.6,8,-26.2,8c-21.4,0,-34.4,-15.7,-34.4,-33.3c0,-18.4,14.1,-33.4,33.4,-33.4c10.2,0,21.6,4.1,28.9,10.9l7.4,-6.8c-10.4,-8.9,-23.6,-13.7,-36.4,-13.7c-24.9,0,-44.6,19.1,-44.6,42.9c0,23.8,19.5,43.1,45.1,43.1c12.9,0,26.8,-4.8,36.7,-12.4l0,-35.5l-36.2,0Z" class="g5_8" />
<path d="M1957.1,1289.7l32.8,0l0,-4.8l0,-4.9l-32.8,0l0,-26.4l54.5,0l0,-9.6l-65.4,0l0,81.7l68.2,0l0,-9.6l-57.3,0Z" class="g5_8" />
<path d="M1675.5,1244l-46.9,81.7l0.1,0l11.4,0l14.1,-24.5l23,0l0,-8.8l-18,0l18,-31.4l37.2,64.7l11.3,0l0.1,0L1678.9,1244Z" class="g5_8" />
<path d="M2188.2,1244l-3.3,0l-47,81.7l0.1,0l11.4,0l37.1,-64.7l18.1,31.4l-18,0l0,8.8l23,0l14.1,24.5l11.3,0l0.1,0Z" class="g5_8" />


<!-- Any embedded fonts defined here -->
<style type="text/css" ><![CDATA[

@font-face {
	font-family: Helvetica-Light_9;
	src: url("fonts/Helvetica-Light_9.woff") format("woff");
}

@font-face {
	font-family: SofiaProLight_8;
	src: url("fonts/SofiaProLight_8.woff") format("woff");
}

@font-face {
	font-family: SofiaProBold_q;
	src: url("fonts/SofiaProBold_q.woff") format("woff");
}

]]></style>

</svg>
