<?xml version="1.0" encoding="UTF-8" standalone="no"?>
<!DOCTYPE svg PUBLIC "-//W3C//DTD SVG 1.1//EN"
"http://www.w3.org/Graphics/SVG/1.1/DTD/svg11.dtd">


<!-- Page 9 -->
<svg x="0" y="0" width="2933" height="1650" viewBox="0 0 2933 1650" version="1.1" xmlns="http://www.w3.org/2000/svg" xmlns:xlink="http://www.w3.org/1999/xlink"
style="display: block;margin-left: auto;margin-right: auto;">
<defs>
<clipPath id="c0_9"><path d="M59.6,97.8l0,-55l288.7,0l0,55Z" /></clipPath>
<clipPath id="c1_9"><path d="M1637.8,381.9l0,-113l594.3,0l0,113Z" /></clipPath>
<clipPath id="c2_9"><path d="M345.4,389.6c-0.3,-0.1,-0.6,-0.3,-0.9,-0.5l-3.2,-3c-0.4,-0.4,-0.6,-0.9,-0.6,-1.5c0,-0.6,0.2,-1.1,0.6,-1.5l6.9,-6.5l-6.9,-6.4c-0.4,-0.4,-0.6,-0.9,-0.6,-1.5c0,-0.6,0.2,-1.1,0.6,-1.5l3.2,-3c0.4,-0.4,1,-0.6,1.6,-0.6c0.6,0,1.1,0.2,1.6,0.6l6.8,6.5l6.8,-6.5c0.5,-0.4,1,-0.6,1.6,-0.6c0.6,0,1.1,0.2,1.6,0.6l3.1,3c0.2,0.2,0.3,0.3,0.4,0.5l0,2c-0.1,0.2,-0.2,0.3,-0.4,0.5l-6.8,6.4l6.8,6.5c0.2,0.1,0.3,0.3,0.4,0.4l0,2.1c-0.1,0.2,-0.2,0.3,-0.4,0.5l-3.1,3c-0.3,0.2,-0.6,0.4,-1,0.5l-1.3,0c-0.3,-0.1,-0.6,-0.3,-0.9,-0.5l-6.8,-6.5l-6.8,6.5c-0.3,0.2,-0.6,0.4,-1,0.5Z" /></clipPath>
<clipPath id="c3_9"><path d="M1637.8,592.8l0,-113.1l594.3,0l0,113.1Z" /></clipPath>
<clipPath id="c4_9"><path d="M1637.8,1060.3l0,-113.1l594.3,0l0,113.1Z" /></clipPath>
<clipPath id="c5_9"><path d="M1624,1459l0,-117.6l621.8,0l0,117.6Z" /></clipPath>
<clipPath id="c6_9"><path d="M1628.6,1278.8l0,-117.7l612.7,0l0,117.7Z" /></clipPath>

<style type="text/css"><![CDATA[

.g1_9{
fill: #FFFFFF;
}
.g2_9{
fill: none;
stroke: #A6AAA9;
stroke-width: 1.5277778;
stroke-linecap: butt;
stroke-linejoin: miter;
stroke-miterlimit: 4;
stroke-dasharray: 4,4;
}
.g3_9{
fill: none;
stroke: #DCDEE0;
stroke-width: 1.5277778;
stroke-linecap: butt;
stroke-linejoin: miter;
stroke-miterlimit: 4;
}
.g4_9{
}
.g5_9{
fill: #E61E19;
}
.g6_9{
fill: #C82506;
}
.g7_9{
fill: #003DFF;
}

.s1_9{
font-size: 18.33px;
font-family: Helvetica-Light_9;
fill: #000000;
}
.s2_9{
font-size: 27.50px;
font-family: Helvetica-Light_9;
fill: #53585F;
}
.s3_9{
font-size: 76.39px;
font-family: SofiaProLight_8;
fill: #000000;
}
.s4_9{
font-size: 76.39px;
font-family: SofiaProBold_q;
fill: #C82506;
}
.s5_9{
font-size: 38.19px;
font-family: SofiaProLight_8;
fill: #53585F;
}

]]></style>

</defs>
<path d="M0,0
L0,1650
L2933,1650
L2933,0 Z " 
fill="#FFFFFF" stroke="none" />
<path d="M0,1650l2933.3,0l0,-1650L0,0L0,1650Z" class="g1_9" />
<text 
x="127" 
y="123" 
dx="0,0,0,0,0,0,0,0,0,0,0,0,0,0,0,0,0,0,0,0,0,0,0,0" 
class="s1_9"
>Brand Design Guide 2017 </text>

<path d="M387.6,161.3l0,-137.5" class="g2_9" />
<path d="M4.5,1564.2l2924.4,0" class="g3_9" />
<path d="M196.2,81.3c-2.7,2.4,-5,3.8,-10.6,3.8l-11.8,0l0,-29.6l11.8,0c5.5,0,8.1,1.5,10.8,3.9c2.7,2.7,4.2,6.6,4.2,10.8c0,4.4,-1.6,8.4,-4.4,11.1M185.8,50.9l-17.2,0l0,38.7l17.2,0c7.2,0,10.9,-1.9,14.5,-5.1c3.6,-3.5,5.6,-8.6,5.6,-14.3c0,-5.5,-1.9,-10.4,-5.3,-13.9C197.1,53,193,50.9,185.8,50.9Z" class="g4_9" />
<path d="M253.8,50.9l-5.1,0l0,38.7l29.5,0l0,-4.5l-24.4,0Z" class="g4_9" />
<path d="M307,50.9l-35.2,0l0,4.6l15,0l0,34.1l5.2,0l0,-34.1l15,0Z" class="g4_9" />
<g clip-path="url(#c0_9)">
<path d="M154.1,97.8l2.7,0l0,-55l-2.7,0l0,55Z" class="g5_9" />
</g>
<path d="M125,70.3l0,2.3l12.5,0l0,9.7c-2.9,2.4,-7.9,3.8,-12.5,3.8c-10.2,0,-16.3,-7.5,-16.3,-15.8c0,-8.7,6.7,-15.8,15.9,-15.8c4.8,0,10.3,1.9,13.7,5.1l3.6,-3.2c-5,-4.2,-11.3,-6.5,-17.4,-6.5c-11.9,0,-21.2,9.1,-21.2,20.3c0,11.3,9.3,20.4,21.4,20.4c6.2,0,12.8,-2.2,17.5,-5.8l0,-16.8L125,68Z" class="g4_9" />
<path d="M215.9,72.6l15.7,0l0,-2.3l0,-2.3l-15.7,0l0,-12.5l26,0l0,-4.6l-31.1,0l0,38.7l32.5,0l0,-4.5l-27.4,0Z" class="g4_9" />
<g clip-path="url(#c0_9)">
<path d="M81.9,50.9L59.6,89.6l5.4,0L71.7,78l11,0l0,-4.1l-8.6,0L82.7,59l17.7,30.6l5.4,0l0.1,0L83.5,50.9Z" class="g4_9" />
<path d="M326,50.9l-1.6,0L302.1,89.6l5.4,0L325.2,59l8.6,14.9l-8.6,0l0,4.1l11,0l6.7,11.6l5.4,0Z" class="g4_9" />
</g>
<path d="M1.3,180.1l2924.4,0" class="g2_9" />
<text 
x="44" 
y="1610" 
dx="0,0,0,0,0,0,0,0,0,0,0,0,0,0,0,0,0,0,0,0,0,0,0,0,0,0,0,0,0,0,0,0,0,0" 
class="s2_9"
>Copyright © 2017 AG Delta Pte Ltd.</text>

<image preserveAspectRatio="none" x="596" y="-832" width="2640" height="1649" xlink:href="9/img/1.png" />
<image preserveAspectRatio="none" x="244" y="-88" width="2524" height="1649" xlink:href="9/img/2.png" />
<text 
x="2861" 
y="1610" 
dx="0" 
class="s2_9"
>9</text>

<text 
x="435" 
y="120" 
dx="0,-1,0,0,0,0,0,0,-1,0,0,0,0,0,0" 
class="s3_9"
>Logo - Logo use</text>

<path d="M1919,348.2c-5.6,4.7,-10.3,7.6,-21.8,7.6l-24.4,0l0,-60.8l24.4,0c11.3,0,16.7,3,22.2,8c5.5,5.7,8.5,13.6,8.5,22.4c0,9,-3.3,17.1,-8.9,22.8m-21.5,-62.6l-35.3,0l0,79.6l35.3,0c14.9,0,22.5,-3.9,29.8,-10.5c7.4,-7.2,11.7,-17.8,11.7,-29.3c0,-11.4,-4,-21.5,-11.1,-28.7c-7.2,-6.8,-15.5,-11.1,-30.4,-11.1Z" class="g4_9" />
<path d="M2037.5,285.6l-10.6,0l0,79.6l60.9,0l0,-9.4l-50.3,0Z" class="g4_9" />
<path d="M2146.9,285.6l-72.4,0l0,9.4l30.9,0l0,70.2l10.7,0l0,-70.2l30.8,0Z" class="g4_9" />
<g clip-path="url(#c1_9)">
<path d="M1832.2,381.9l5.6,0l0,-113l-5.6,0l0,113Z" class="g5_9" />
</g>
<path d="M1772.4,325.4l0,4.7l25.8,0l0,20c-6.1,4.9,-16.3,7.8,-25.7,7.8c-21,0,-33.7,-15.4,-33.7,-32.4c0,-17.9,13.8,-32.6,32.7,-32.6c10,0,21.2,4.1,28.3,10.6l7.3,-6.5c-10.2,-8.7,-23.2,-13.5,-35.7,-13.5c-24.4,0,-43.7,18.7,-43.7,41.9c0,23.1,19.2,41.9,44.2,41.9c12.7,0,26.3,-4.6,35.9,-12.1l0,-34.5l-35.4,0Z" class="g4_9" />
<path d="M1959.6,330.1l32.2,0l0,-4.7l0,-4.7l-32.2,0l0,-25.7l53.4,0l0,-9.4l-64,0l0,79.6l66.8,0l0,-9.4l-56.2,0Z" class="g4_9" />
<path d="M1683.8,285.6l-46,79.6l0.1,0l11.1,0l13.8,-23.9l22.6,0l0,-8.5l-17.7,0l17.7,-30.6l36.4,63l11.1,0l0.1,0l-46,-79.6Z" class="g4_9" />
<path d="M2186.1,285.6l-3.3,0l-46,79.6l0.1,0l11.2,0l36.4,-63l17.6,30.6l-17.5,0l0,8.5l22.5,0l13.8,23.9l11.1,0l0.1,0Z" class="g4_9" />
<text 
x="404" 
y="404" 
dx="0,0,0,0,0" 
class="s4_9"
>DON’T</text>

<text 
x="404" 
y="481" 
dx="0,0,0,-0.7,0,-0.8,0,0,0,0,0,-0.6,0,0,0,0,-0.5,0,0,0,0,0,0,-1.1,0,-0.5,0,0,0,0" 
class="s5_9"
>Don’t use coloured background </text>

<text 
x="404" 
y="527" 
dx="0,0,-0.9,0,0,0,0,0,0,-0.6,0,0,0,-0.5,0,0,-0.8,0,0,0,0,-1.1,0,-0.5,0,0,0,0,0,-0.5,0,0,0" 
class="s5_9"
>or less contrast background, the </text>

<text 
x="404" 
y="572" 
dx="0,0,0,0,0,-1,0,0,0,0,0,0,0,0,0,0,-0.5,0,-0.5,-0.3,0,0,-0.5,0,-0.6,0,0,0,0,0,0,0,0" 
class="s5_9"
>logo will be hard to recognised. </text>

<text 
x="404" 
y="664" 
dx="0,0,0,-0.7,0,-0.8,-1.6,0,0,0,0,0,0,-1.6,0,0,0,0,-2.1,-0.3,0,-1.6,-0.2,0,0,0,-0.9,-1.6,-0.6,0,0,0,-2.1" 
class="s5_9"
>Don’t change logo to other color.</text>

<image preserveAspectRatio="none" x="1410" y="420" width="1060" height="232" xlink:href="9/img/3.png" />
<path d="M1919,791.2c-5.6,4.8,-10.3,7.7,-21.8,7.7l-24.4,0l0,-60.8l24.4,0c11.3,0,16.7,3,22.2,8c5.5,5.6,8.5,13.5,8.5,22.3c0,9,-3.3,17.2,-8.9,22.8m-21.4,-62.5l-35.4,0l0,79.6l35.4,0c14.8,0,22.4,-3.9,29.7,-10.5c7.4,-7.2,11.7,-17.8,11.7,-29.4c0,-11.3,-4,-21.4,-11.1,-28.6c-7.2,-6.9,-15.5,-11.1,-30.3,-11.1Z" class="g1_9" />
<path d="M2037.5,728.7l-10.6,0l0,79.6l60.9,0l0,-9.4l-50.3,0Z" class="g1_9" />
<path d="M2146.9,728.7l-72.4,0l0,9.4l30.9,0l0,70.2l10.7,0l0,-70.2l30.8,0Z" class="g1_9" />
<path d="M1832.2,825l5.6,0l0,-113.1l-5.6,0l0,113.1Z" class="g1_9" />
<path d="M1772.4,768.5l0,4.7l25.8,0l0,20c-6.1,4.8,-16.3,7.8,-25.7,7.8c-21,0,-33.7,-15.4,-33.7,-32.5c0,-17.9,13.8,-32.5,32.7,-32.5c10,0,21.2,4,28.3,10.6l7.3,-6.6c-10.2,-8.6,-23.2,-13.4,-35.7,-13.4c-24.4,0,-43.7,18.6,-43.7,41.8c0,23.2,19.2,41.9,44.2,41.9c12.7,0,26.3,-4.6,35.9,-12l0,-34.5l-35.4,0Z" class="g1_9" />
<path d="M1959.6,773.2l32.2,0l0,-4.7l0,-4.7l-32.2,0l0,-25.7l53.4,0l0,-9.4l-64,0l0,79.6l66.8,0l0,-9.4l-56.2,0Z" class="g1_9" />
<path d="M1683.8,728.7l-46,79.6l0.1,0l11.1,0l13.8,-23.9l22.6,0l0,-8.6l-17.7,0l17.7,-30.5l36.4,63l11.1,0l0.1,0l-46,-79.6Z" class="g1_9" />
<path d="M2186.1,728.7l-3.3,0l-46,79.6l0.1,0l11.2,0l36.4,-63l17.6,30.5l-17.5,0l0,8.6l22.5,0l13.8,23.9l11.1,0l0.1,0Z" class="g1_9" />
<path d="M340.3,349l29.8,0c3.6,0,5.5,0,7.4,0.6c2.2,0.8,3.8,2.5,4.6,4.6c0.6,2,0.6,3.8,0.6,7.5l0,29.8c0,3.6,0,5.4,-0.6,7.4c-0.8,2.1,-2.4,3.8,-4.6,4.6c-1.9,0.6,-3.8,0.6,-7.5,0.6l-29.7,0c-3.7,0,-5.5,0,-7.5,-0.6c-2.1,-0.8,-3.8,-2.5,-4.6,-4.6c-0.6,-2,-0.6,-3.8,-0.6,-7.5l0,-29.8c0,-3.6,0,-5.4,0.6,-7.4c0.8,-2.1,2.5,-3.8,4.6,-4.6c2,-0.6,3.8,-0.6,7.5,-0.6Z" class="g6_9" />
<g clip-path="url(#c2_9)">
<path d="M337.5,392.7l34,0l0,-32.1l-34,0l0,32.1Z" class="g1_9" />
</g>
<path d="M1919,559c-5.6,4.7,-10.3,7.7,-21.8,7.7l-24.4,0l0,-60.9l24.4,0c11.3,0,16.7,3.1,22.2,8.1c5.5,5.6,8.5,13.5,8.5,22.3c0,9,-3.3,17.2,-8.9,22.8m-21.5,-62.6l-35.3,0l0,79.7l35.3,0c14.9,0,22.5,-3.9,29.8,-10.5c7.4,-7.2,11.7,-17.8,11.7,-29.4c0,-11.3,-4,-21.5,-11.1,-28.7c-7.2,-6.8,-15.5,-11.1,-30.4,-11.1Z" class="g4_9" />
<path d="M2037.5,496.4l-10.6,0l0,79.6l60.9,0l0,-9.3l-50.3,0Z" class="g4_9" />
<path d="M2146.9,496.4l-72.4,0l0,9.4l30.9,0l0,70.2l10.7,0l0,-70.2l30.8,0Z" class="g4_9" />
<g clip-path="url(#c3_9)">
<path d="M1832.2,592.8l5.6,0l0,-113.1l-5.6,0l0,113.1Z" class="g5_9" />
</g>
<path d="M1772.4,536.2l0,4.7l25.8,0l0,20c-6.1,4.9,-16.3,7.8,-25.7,7.8c-21,0,-33.7,-15.3,-33.7,-32.4c0,-17.9,13.8,-32.5,32.7,-32.5c10,0,21.2,4,28.3,10.6l7.3,-6.6c-10.2,-8.7,-23.2,-13.4,-35.7,-13.4c-24.4,0,-43.7,18.6,-43.7,41.8c0,23.1,19.2,41.9,44.2,41.9c12.7,0,26.3,-4.6,35.9,-12l0,-34.5l-35.4,0Z" class="g4_9" />
<path d="M1959.6,540.9l32.2,0l0,-4.7l0,-4.6l-32.2,0l0,-25.8l53.4,0l0,-9.4l-64,0l0,79.6l66.8,0l0,-9.3l-56.2,0Z" class="g4_9" />
<path d="M1683.8,496.4l-46,79.6l0.1,0l11.1,0l13.8,-23.8l22.6,0l0,-8.6l-17.7,0L1685.4,513l36.4,63l11.1,0l0.1,0l-46,-79.6Z" class="g4_9" />
<path d="M2186.1,496.4l-3.3,0l-46,79.6l0.1,0l11.2,0l36.4,-63l17.6,30.6l-17.5,0l0,8.6l22.5,0l13.8,23.8l11.1,0l0.1,0Z" class="g4_9" />
<path d="M1407.5,926.8l1054.1,0l0,152.7l-1054.1,0Z" class="g6_9" />
<path d="M1919,1026.5c-5.6,4.7,-10.3,7.7,-21.8,7.7l-24.4,0l0,-60.9l24.4,0c11.3,0,16.7,3.1,22.2,8.1c5.5,5.6,8.5,13.5,8.5,22.3c0,9,-3.3,17.2,-8.9,22.8m-21.5,-62.6l-35.3,0l0,79.7l35.3,0c14.9,0,22.5,-3.9,29.8,-10.5c7.4,-7.2,11.7,-17.8,11.7,-29.4c0,-11.3,-4,-21.5,-11.1,-28.7c-7.2,-6.8,-15.5,-11.1,-30.4,-11.1Z" class="g4_9" />
<path d="M2037.5,963.9l-10.6,0l0,79.6l60.9,0l0,-9.3l-50.3,0Z" class="g4_9" />
<path d="M2146.9,963.9l-72.4,0l0,9.4l30.9,0l0,70.2l10.7,0l0,-70.2l30.8,0Z" class="g4_9" />
<g clip-path="url(#c4_9)">
<path d="M1832.2,1060.3l5.6,0l0,-113.1l-5.6,0l0,113.1Z" class="g5_9" />
</g>
<path d="M1772.4,1003.7l0,4.7l25.8,0l0,20c-6.1,4.9,-16.3,7.8,-25.7,7.8c-21,0,-33.7,-15.3,-33.7,-32.4c0,-17.9,13.8,-32.5,32.7,-32.5c10,0,21.2,4,28.3,10.6l7.3,-6.6c-10.2,-8.7,-23.2,-13.4,-35.7,-13.4c-24.4,0,-43.7,18.6,-43.7,41.8c0,23.1,19.2,41.9,44.2,41.9c12.7,0,26.3,-4.6,35.9,-12l0,-34.5l-35.4,0Z" class="g4_9" />
<path d="M1959.6,1008.4l32.2,0l0,-4.7l0,-4.6l-32.2,0l0,-25.8l53.4,0l0,-9.4l-64,0l0,79.6l66.8,0l0,-9.3l-56.2,0Z" class="g4_9" />
<path d="M1683.8,963.9l-46,79.6l0.1,0l11.1,0l13.8,-23.8l22.6,0l0,-8.6l-17.7,0l17.7,-30.6l36.4,63l11.1,0l0.1,0l-46,-79.6Z" class="g4_9" />
<path d="M2186.1,963.9l-3.3,0l-46,79.6l0.1,0l11.2,0l36.4,-63l17.6,30.6l-17.5,0l0,8.6l22.5,0l13.8,23.8l11.1,0l0.1,0Z" class="g4_9" />
<path d="M1918.3,1423.9c-5.9,4.9,-10.9,8,-22.9,8l-25.5,0l0,-63.3l25.5,0c11.9,0,17.5,3.1,23.3,8.3c5.7,5.9,8.9,14.1,8.9,23.2c0,9.4,-3.4,17.9,-9.3,23.8m-22.5,-65.1l-37,0l0,82.8l37,0c15.6,0,23.5,-4,31.2,-10.9c7.7,-7.5,12.2,-18.5,12.2,-30.6c0,-11.8,-4.2,-22.3,-11.6,-29.8c-7.5,-7.1,-16.2,-11.5,-31.8,-11.5Z" class="g7_9" />
<path d="M2042.3,1358.8l-11.1,0l0,82.8l63.6,0l0,-9.7l-52.5,0Z" class="g7_9" />
<path d="M2156.7,1358.8l-75.8,0l0,9.8l32.4,0l0,73l11.1,0l0,-73l32.3,0Z" class="g7_9" />
<g clip-path="url(#c5_9)">
<path d="M1827.5,1459l5.8,0l0,-117.6l-5.8,0l0,117.6Z" class="g7_9" />
</g>
<path d="M1764.8,1400.2l0,4.9l27.1,0l0,20.8c-6.4,5.1,-17.1,8.1,-26.9,8.1c-22,0,-35.3,-16,-35.3,-33.7c0,-18.7,14.5,-33.9,34.2,-33.9c10.5,0,22.2,4.2,29.6,11l7.7,-6.8c-10.7,-9,-24.2,-14,-37.4,-14c-25.5,0,-45.7,19.4,-45.7,43.5c0,24.1,20.1,43.7,46.2,43.7c13.3,0,27.6,-4.8,37.7,-12.6l0,-35.9l-37.2,0Z" class="g7_9" />
<path d="M1960.8,1405.1l33.6,0l0,-4.9l0,-4.9l-33.6,0l0,-26.7l55.8,0l0,-9.8l-67,0l0,82.8l70,0l0,-9.7l-58.8,0Z" class="g7_9" />
<path d="M1672.1,1358.8l-48.1,82.8l0.1,0l11.7,0l14.4,-24.8l23.6,0l0,-8.9l-18.4,0l18.5,-31.8l38,65.5l11.7,0l0.1,0l-48.1,-82.8Z" class="g7_9" />
<path d="M2197.7,1358.8l-3.4,0l-48.1,82.8l0.1,0l11.6,0l38.1,-65.5l18.5,31.8l-18.4,0l0,8.9l23.5,0l14.5,24.8l11.6,0l0.1,0Z" class="g7_9" />
<path d="M1918.5,1243.6c-5.8,4.9,-10.7,8,-22.5,8l-25.1,0l0,-63.3l25.1,0c11.7,0,17.2,3.2,22.9,8.4c5.7,5.8,8.8,14,8.8,23.2c0,9.4,-3.4,17.9,-9.2,23.7m-22.1,-65.1l-36.5,0l0,82.8l36.5,0c15.3,0,23.1,-4,30.7,-10.9c7.6,-7.4,12,-18.5,12,-30.5c0,-11.8,-4.1,-22.4,-11.4,-29.8c-7.4,-7.1,-16,-11.6,-31.3,-11.6Z" class="g4_9" />
<path d="M2040.7,1178.5l-10.9,0l0,82.8l62.7,0l0,-9.7l-51.8,0Z" class="g4_9" />
<path d="M2153.5,1178.5l-74.7,0l0,9.8l31.9,0l0,73l10.9,0l0,-73l31.9,0Z" class="g4_9" />
<g clip-path="url(#c6_9)">
<path d="M1829.1,1278.8l5.7,0l0,-117.7l-5.7,0l0,117.7Z" class="g5_9" />
</g>
<path d="M1767.3,1219.9l0,4.9l26.7,0l0,20.8c-6.3,5.1,-16.9,8.1,-26.5,8.1c-21.7,0,-34.7,-15.9,-34.7,-33.7c0,-18.7,14.2,-33.9,33.7,-33.9c10.3,0,21.8,4.2,29.1,11.1l7.6,-6.9c-10.6,-9,-23.9,-13.9,-36.9,-13.9c-25.1,0,-45,19.4,-45,43.5c0,24.1,19.8,43.6,45.5,43.6c13.1,0,27.2,-4.8,37.1,-12.6l0,-35.9l-36.6,0Z" class="g5_9" />
<path d="M1960.4,1224.8l33.2,0l0,-4.9l0,-4.9l-33.2,0l0,-26.7l55,0l0,-9.8l-66,0l0,82.8l68.9,0l0,-9.7l-57.9,0Z" class="g4_9" />
<path d="M1676,1178.5l-47.4,82.8l0.1,0l11.5,0l14.2,-24.8l23.3,0l0,-8.9l-18.2,0l18.2,-31.8l37.5,65.5l11.5,0l0.1,0l-47.4,-82.8Z" class="g5_9" />
<g clip-path="url(#c6_9)">
<path d="M2193.8,1178.5l-3.3,0l-47.4,82.8l0.1,0l11.4,0l37.6,-65.5l18.2,31.8l-18.1,0l0,8.9l23.1,0l14.3,24.8l11.5,0l0.1,0Z" class="g4_9" />
</g>


<!-- Any embedded fonts defined here -->
<style type="text/css" ><![CDATA[

@font-face {
	font-family: Helvetica-Light_9;
	src: url("fonts/Helvetica-Light_9.woff") format("woff");
}

@font-face {
	font-family: SofiaProLight_8;
	src: url("fonts/SofiaProLight_8.woff") format("woff");
}

@font-face {
	font-family: SofiaProBold_q;
	src: url("fonts/SofiaProBold_q.woff") format("woff");
}

]]></style>

</svg>
