<?xml version="1.0" encoding="UTF-8" standalone="no"?>
<!DOCTYPE svg PUBLIC "-//W3C//DTD SVG 1.1//EN"
"http://www.w3.org/Graphics/SVG/1.1/DTD/svg11.dtd">


<!-- Page 1 -->
<svg x="0" y="0" width="1466" height="825" viewBox="0 0 1466 825" version="1.1" xmlns="http://www.w3.org/2000/svg" xmlns:xlink="http://www.w3.org/1999/xlink"
style="display: block;margin-left: auto;margin-right: auto;">
<defs>
<clipPath id="c0_1"><path d="M0,821.4L0,0L1460.3,0l0,821.4Z" /></clipPath>

<style type="text/css"><![CDATA[

.g1_1{
fill: #F46524;
}
.g2_1{
fill-opacity: 0;
}
.g3_1{
fill: none;
stroke: #FFFFFF;
stroke-width: 4.5635333;
stroke-linecap: butt;
stroke-linejoin: round;
stroke-miterlimit: 14;
}
.g4_1{
fill: none;
stroke: #FFFFFF;
stroke-width: 2.2817667;
stroke-linecap: butt;
stroke-linejoin: round;
stroke-miterlimit: 14;
}

.s1_1{
font-size: 97.36px;
font-family: Raleway-Bold_60;
fill: #FFFFFF;
}
.s2_1{
font-size: 45.64px;
font-family: Calibri_64;
fill: #FFFFFF;
}

]]></style>

</defs>
<path d="M0,0
L0,825
L1466,825
L1466,0 Z " 
fill="#FFFFFF" stroke="none" />
<g clip-path="url(#c0_1)">
<path fill-rule="evenodd" d="M0,0L1460.3,0l0,821.4L0,821.4Z" class="g1_1" />
</g>
<path fill-rule="evenodd" d="M395.7,66.4l997.2,0Z" class="g2_1" />
<path d="M395.7,66.4l997.2,0" class="g3_1" />
<path fill-rule="evenodd" d="M395.7,757l997.2,0Z" class="g2_1" />
<path d="M395.7,757l997.2,0" class="g4_1" />
<path fill-rule="evenodd" d="M67.9,66.4l29.3,0Z" class="g2_1" />
<path d="M67.9,66.4l29.3,0" class="g4_1" />
<path fill-rule="evenodd" d="M378.8,100.6l1011.1,0l0,397.7l-1011.1,0Z" class="g2_1" />
<text 
x="392" 
y="207" 
dx="0,0,0,0,0,-1,0,0,0,0" 
class="s1_1"
>Case ±tudy</text>

<text 
x="392" 
y="324" 
dx="0,0,0,-1,0,0,0,0,0,-1,0,0,0,0,0,0" 
class="s1_1"
>&amp;G Delta Website</text>

<text 
x="392" 
y="440" 
dx="0,0,0,0,0,0" 
class="s1_1"
>Revamp</text>

<path fill-rule="evenodd" d="M381.7,517.2l1011.2,0l0,198.3l-1011.2,0Z" class="g2_1" />
<text 
x="395" 
y="690" 
dx="0,0,0,0,0,0,-1.1,0,0,0,0,-1.1,0,0,0" 
class="s2_1"
>°onia ±hen 2017</text>



<!-- Any embedded fonts defined here -->
<style type="text/css" ><![CDATA[

@font-face {
	font-family: Calibri_64;
	src: url("fonts/Calibri_64.woff") format("woff");
}

@font-face {
	font-family: Raleway-Bold_60;
	src: url("fonts/Raleway-Bold_60.woff") format("woff");
}

]]></style>

</svg>
