<?xml version="1.0" encoding="UTF-8" standalone="no"?>
<!DOCTYPE svg PUBLIC "-//W3C//DTD SVG 1.1//EN"
"http://www.w3.org/Graphics/SVG/1.1/DTD/svg11.dtd">


<!-- Page 2 -->
<svg x="0" y="0" width="1466" height="825" viewBox="0 0 1466 825" version="1.1" xmlns="http://www.w3.org/2000/svg" xmlns:xlink="http://www.w3.org/1999/xlink"
style="display: block;margin-left: auto;margin-right: auto;">
<defs>
<clipPath id="c0_2"><path d="M0,821.4L0,0L1460.3,0l0,821.4Z" /></clipPath>

<style type="text/css"><![CDATA[

.g1_2{
fill: #FFFFFF;
}
.g2_2{
fill: #F46524;
}
.g3_2{
fill-opacity: 0;
}
.g4_2{
fill: none;
stroke: #FFFFFF;
stroke-width: 2.2817667;
stroke-linecap: butt;
stroke-linejoin: round;
stroke-miterlimit: 14;
}

.s1_2{
font-size: 73.02px;
font-family: Raleway-Bold_60;
fill: #F46524;
}
.s2_2{
font-size: 30.42px;
font-family: Calibri_64;
fill: #FFFFFF;
}

]]></style>

</defs>
<path d="M0,0
L0,825
L1466,825
L1466,0 Z " 
fill="#FFFFFF" stroke="none" />
<g clip-path="url(#c0_2)">
<path fill-rule="evenodd" d="M0,0L1460.3,0l0,821.4L0,821.4Z" class="g1_2" />
<path fill-rule="evenodd" d="M730.2,0l730.1,0l0,821.5l-730.1,0Z" class="g2_2" />
</g>
<path fill-rule="evenodd" d="M803.3,717.9l74.7,0Z" class="g3_2" />
<path d="M803.3,717.9l74.7,0" class="g4_2" />
<path fill-rule="evenodd" d="M46.3,254.8l646.1,0l0,210.5l-646.1,0Z" class="g3_2" />
<text 
x="186" 
y="346" 
dx="0,0,0,0,0,0,0,0" 
class="s1_2"
>Document</text>

<text 
x="240" 
y="433" 
dx="0,0,0,0,0,0,0" 
class="s1_2"
>Outline</text>

<path fill-rule="evenodd" d="M788.9,115.7l612.7,0l0,590.1l-612.7,0Z" class="g3_2" />
<text 
x="794" 
y="303" 
dx="0,0" 
class="s2_2"
>1.</text>

<text 
x="857" 
y="303" 
dx="0,0,0,0,0,0,0,0,0" 
class="s2_2"
>²³je´tive</text>

<text 
x="794" 
y="357" 
dx="0,0" 
class="s2_2"
>2.</text>

<text 
x="857" 
y="357" 
dx="0,0,0,0,0,0,0,0,-0.7,0,0,0,0,0,0,0" 
class="s2_2"
>µe³site ¶nalysis</text>

<text 
x="794" 
y="412" 
dx="0,0" 
class="s2_2"
>3.</text>

<text 
x="857" 
y="412" 
dx="0,0,0,0,-0.7,0,0,0,0,0" 
class="s2_2"
>·¸² ¹eport</text>

<text 
x="794" 
y="467" 
dx="0,0" 
class="s2_2"
>4.</text>

<text 
x="857" 
y="467" 
dx="0,0,0,0,0,0,0,-0.7,0,0,0,0,0,0,0,0" 
class="s2_2"
>ºisual ·olutions</text>

<text 
x="794" 
y="522" 
dx="0,0" 
class="s2_2"
>5.</text>

<text 
x="857" 
y="522" 
dx="0,0,0,0,0,0,0" 
class="s2_2"
>·ummary</text>



<!-- Any embedded fonts defined here -->
<style type="text/css" ><![CDATA[

@font-face {
	font-family: Calibri_64;
	src: url("fonts/Calibri_64.woff") format("woff");
}

@font-face {
	font-family: Raleway-Bold_60;
	src: url("fonts/Raleway-Bold_60.woff") format("woff");
}

]]></style>

</svg>
