<?xml version="1.0" encoding="UTF-8" standalone="no"?>
<!DOCTYPE svg PUBLIC "-//W3C//DTD SVG 1.1//EN"
"http://www.w3.org/Graphics/SVG/1.1/DTD/svg11.dtd">


<!-- Page 21 -->
<svg x="0" y="0" width="1466" height="825" viewBox="0 0 1466 825" version="1.1" xmlns="http://www.w3.org/2000/svg" xmlns:xlink="http://www.w3.org/1999/xlink"
style="display: block;margin-left: auto;margin-right: auto;">
<defs>
<clipPath id="c0_21"><path d="M0,821.4L0,0L1460.3,0l0,821.4Z" /></clipPath>

<style type="text/css"><![CDATA[

.g1_21{
fill: #FFFFFF;
}
.g2_21{
fill-opacity: 0;
}
.g3_21{
fill: #FFFFFF;
fill-opacity: 0;
}
.g4_21{
fill: #C7E4F6;
}
.g5_21{
fill: none;
stroke: #7F7F7F;
stroke-width: 1.1408833;
stroke-linecap: butt;
stroke-linejoin: miter;
stroke-miterlimit: 11;
}

.s1_21{
font-size: 21.30px;
font-family: Calibri-Bold_6g;
fill: #000000;
}
.s2_21{
font-size: 18.25px;
font-family: Calibri_64;
fill: #000000;
}
.s3_21{
font-size: 18.25px;
font-family: Calibri_64;
fill: #0C0C0C;
}
.s4_21{
font-size: 12.17px;
font-family: Calibri_64;
fill: #0C0C0C;
}
.s5_21{
font-size: 66.93px;
font-family: Calibri_64;
fill: #F46524;
}

]]></style>

</defs>
<path d="M0,0
L0,825
L1466,825
L1466,0 Z " 
fill="#FFFFFF" stroke="none" />
<g clip-path="url(#c0_21)">
<path fill-rule="evenodd" d="M0,0L1460.3,0l0,821.4L0,821.4Z" class="g1_21" />
<path fill-rule="evenodd" d="M56.5,123l1872.6,0l0,44.2l-1872.6,0Z" class="g2_21" />
</g>
<text 
x="66" 
y="154" 
dx="0,0,0,0,0,0,0,0,0,0,0,-0.5,0,0,0,0,-0.5,0,0,0,0,0,-0.5,0,0,0,0,0,0,0" 
class="s1_21"
>µomparison with other ±e³sites</text>

<path d="M57.7,163.4l1349.3,0l0,256.7l-1349.3,0l0,-256.7Z" class="g3_21" />
<path d="M57.7,163.4l245.5,0l0,39.5l-245.5,0l0,-39.5Z" class="g4_21" />
<path d="M303.2,163.4l202.1,0l0,39.5l-202.1,0l0,-39.5Z" class="g4_21" />
<path d="M505.3,163.4l219.3,0l0,39.5l-219.3,0l0,-39.5Z" class="g4_21" />
<path d="M724.6,163.4l202.6,0l0,39.5l-202.6,0l0,-39.5Z" class="g4_21" />
<path d="M927.2,163.4l220.8,0l0,39.5l-220.8,0l0,-39.5Z" class="g4_21" />
<path d="M1148,163.4l259,0l0,39.5l-259,0l0,-39.5Z" class="g4_21" />
<path d="M57.7,162.8l0,257.9" class="g5_21" />
<path d="M303.2,162.8l0,257.9" class="g5_21" />
<path d="M505.3,162.8l0,257.9" class="g5_21" />
<path d="M724.6,162.8l0,257.9" class="g5_21" />
<path d="M927.2,162.8l0,257.9" class="g5_21" />
<path d="M1148,162.8l0,257.9" class="g5_21" />
<path d="M1407,162.8l0,257.9" class="g5_21" />
<path d="M57.1,163.4l1350.4,0" class="g5_21" />
<path d="M57.1,202.9l1350.4,0" class="g5_21" />
<path d="M57.1,239.1l1350.4,0" class="g5_21" />
<path d="M57.1,275.3l1350.4,0" class="g5_21" />
<path d="M57.1,311.5l1350.4,0" class="g5_21" />
<path d="M57.1,347.7l1350.4,0" class="g5_21" />
<path d="M57.1,383.9l1350.4,0" class="g5_21" />
<path d="M57.1,420.1l1350.4,0" class="g5_21" />
<text 
x="307" 
y="189" 
dx="0,0,0,-0.4,0,0,0,0" 
class="s2_21"
>¶Å Áelta</text>

<text 
x="509" 
y="189" 
dx="0,0,0,0,0,0,0,0,-0.4,0,0,0,0" 
class="s2_21"
>±harles ¹iver</text>

<text 
x="729" 
y="189" 
dx="0,0,0,0,0" 
class="s2_21"
>Äin½É</text>

<text 
x="931" 
y="189" 
dx="0,0,0,0,0,0" 
class="s2_21"
>¶valoq</text>

<text 
x="1152" 
y="189" 
dx="0,0,0,0,0,0" 
class="s2_21"
>Äenego</text>

<text 
x="62" 
y="227" 
dx="0,0,0,0,0,0,0,-0.4,0,0,0,0,0,0,0" 
class="s2_21"
>Åoogle pagerank</text>

<text 
x="307" 
y="227" 
dx="0,0,0,0" 
class="s2_21"
>4/10</text>

<text 
x="509" 
y="227" 
dx="0,0,0,0" 
class="s2_21"
>4/10</text>

<text 
x="729" 
y="227" 
dx="0,0,0,0" 
class="s2_21"
>1/10</text>

<text 
x="931" 
y="227" 
dx="0,0,0,0" 
class="s2_21"
>5/10</text>

<text 
x="1152" 
y="227" 
dx="0,0,0,0" 
class="s2_21"
>3/10</text>

<text 
x="62" 
y="263" 
dx="0,0,0,0,0,0,0,-0.4,0,0,0,0,0,0,0,0" 
class="s2_21"
>Áomain authority</text>

<text 
x="307" 
y="263" 
dx="0,0,0,0,0,0" 
class="s2_21"
>31/100</text>

<text 
x="509" 
y="263" 
dx="0,0,0,0,0,0" 
class="s2_21"
>45/100</text>

<text 
x="729" 
y="263" 
dx="0,0,0,0,0" 
class="s2_21"
>17/10</text>

<text 
x="931" 
y="263" 
dx="0,0,0,0,0,0" 
class="s2_21"
>46/100</text>

<text 
x="1152" 
y="263" 
dx="0,0,0,0,0,0" 
class="s2_21"
>33/100</text>

<text 
x="62" 
y="300" 
dx="0,0,0,0,0,-0.4,0,0,0,0,0,0,0,0" 
class="s2_21"
>¾age authority</text>

<text 
x="307" 
y="300" 
dx="0,0,0,0,0,0" 
class="s2_21"
>37/100</text>

<text 
x="509" 
y="300" 
dx="0,0,0,0,0" 
class="s2_21"
>4/100</text>

<text 
x="729" 
y="300" 
dx="0,0,0,0,0,0" 
class="s2_21"
>23/100</text>

<text 
x="931" 
y="300" 
dx="0,0,0,0,0,0" 
class="s2_21"
>39/100</text>

<text 
x="1152" 
y="300" 
dx="0,0,0,0,0,0" 
class="s2_21"
>33/100</text>

<text 
x="62" 
y="336" 
dx="0,0,0,0,0,0,0,-0.4,0,0" 
class="s2_21"
>Áomain age</text>

<text 
x="307" 
y="336" 
dx="0,0,0,-0.4,0,0" 
class="s2_21"
>13 yrs</text>

<text 
x="509" 
y="336" 
dx="0,0,0,-0.4,0,0,0,-0.4,0,-0.4,0,0,0" 
class="s2_21"
>18 yrs 5 mths</text>

<text 
x="729" 
y="336" 
dx="0,0,0,-0.4,0,0,0,-0.4,0,-0.4,0,0,0" 
class="s2_21"
>13 yrs 5 mths</text>

<text 
x="931" 
y="336" 
dx="0,0,0,-0.4,0,0,0,-0.4,0,-0.4,0,0,0" 
class="s2_21"
>15 yrs 1 mths</text>

<text 
x="1152" 
y="336" 
dx="0,0,0,0" 
class="s2_21"
>6yrs</text>

<text 
x="62" 
y="372" 
dx="0,0,0,0,0,0,0,0,0,-0.4,0,0,0,0,0,0,0,0" 
class="s2_21"
>¸xternal Âa´klinks</text>

<text 
x="307" 
y="372" 
dx="0,0,0,0,0,0" 
class="s2_21"
>17,148</text>

<text 
x="509" 
y="372" 
dx="0,0,0,0" 
class="s2_21"
>2693</text>

<text 
x="729" 
y="372" 
dx="0,0" 
class="s2_21"
>65</text>

<text 
x="931" 
y="372" 
dx="0,0,0,0,0,0" 
class="s2_21"
>44,667</text>

<text 
x="1152" 
y="372" 
dx="0,0,0,0,0" 
class="s2_21"
>5,570</text>

<text 
x="62" 
y="408" 
dx="0,0,0,0,0,0,0,0,0,0,-0.4,0,0,0,0,0" 
class="s2_21"
>¹eferring Áomain</text>

<text 
x="307" 
y="408" 
dx="0,0,0" 
class="s2_21"
>100</text>

<text 
x="509" 
y="408" 
dx="0,0,0" 
class="s2_21"
>473</text>

<text 
x="729" 
y="408" 
dx="0,0" 
class="s2_21"
>19</text>

<text 
x="931" 
y="408" 
dx="0,0,0" 
class="s2_21"
>529</text>

<text 
x="1152" 
y="408" 
dx="0,0,0" 
class="s2_21"
>190</text>

<path d="M56.5,487L1407,487l0,296.6l-1350.5,0L56.5,487Z" class="g3_21" />
<path d="M56.5,486.4l0,297.8" class="g5_21" />
<path d="M217.8,486.4l0,297.8" class="g5_21" />
<path d="M408,486.4l0,297.8" class="g5_21" />
<path d="M1407,486.4l0,297.8" class="g5_21" />
<path d="M55.9,487l1351.6,0" class="g5_21" />
<path d="M55.9,536.3l1351.6,0" class="g5_21" />
<path d="M55.9,585.6l1351.6,0" class="g5_21" />
<path d="M55.9,639.9l1351.6,0" class="g5_21" />
<path d="M55.9,689.2l1351.6,0" class="g5_21" />
<path d="M55.9,734.3l1351.6,0" class="g5_21" />
<path d="M55.9,783.6l1351.6,0" class="g5_21" />
<text 
x="58" 
y="518" 
dx="0,0,0,0,0,0,0,-0.4,0,0,0,0,0,0,0" 
class="s3_21"
>Åoogle ¾agerank</text>

<text 
x="220" 
y="518" 
dx="0,0,0,0" 
class="s3_21"
>4/10</text>

<text 
x="410" 
y="507" 
dx="0,0,0,0,-0.4,0,0,0,0,0,0,0,0,0,0,-0.4,0,0,-0.4,0,0,0,0,0,-0.4,0,0,-0.4,0,0,0,-0.4,0,0,0,0,0,0,-0.4,0,0,0,-0.4,0,0,0,0,0,0,-0.4,0,0,0,-0.4,0,0,0,0,0,0,0,-0.4,0,0,0,-0.4,0,0,0,0,0,0,-0.4,0,0,0,0,0,0,0,-0.4,0,0,-0.4,0,0,0,0,0,-0.4,0,0,0,0,0,-0.4,0,0,-0.4,0,0,0,0,0,0,-0.4,0,0,0,0,0,0" 
class="s3_21"
>°he importan´e of pages to the world. °he higher the s´ores, the higher ´han´es of ³eing found on sear´h Åoogle.</text>

<text 
x="1268" 
y="507" 
dx="0,0,-0.4,0,0,0,0,0,0,0,-0.4,0,-0.4,0" 
class="s3_21"
>0 (worst) – 10</text>

<text 
x="410" 
y="529" 
dx="0,0,0,0,0,0,0,0,3.7,0,-0.4,0,0,3.7,0,0,0,0,0,-0.4,0,0,0,0,0,0,0,0,-0.4,0,0,-0.4,0,0,0,0,0,0,-0.4,0,0,-0.4,0,0,0,-0.4,0,0,0,0" 
class="s3_21"
>(Âest); 4 is a³ove average, ½t starts to get warm.</text>

<text 
x="58" 
y="567" 
dx="0,0,0,0,0,0,0,-0.4,0,0,0,0,0,0,0,0" 
class="s3_21"
>Áomain authority</text>

<text 
x="220" 
y="567" 
dx="0,0,0,0,0,0" 
class="s3_21"
>31/100</text>

<text 
x="410" 
y="556" 
dx="0,0,0,-0.4,0,0,-0.4,0,0,0,-0.4,0,0,0,0,0,0,-0.4,0,0,0,0,-0.4,0,0,0,0,0,0,0,0,0,-0.4,0,0,0,0,0,0,0,-0.4,0,0,-0.4,0,0,0,0,0,0,0,0,0,0,-0.4,0,0,0,-0.4,0,0,0,0,0,0,-0.4,0,0,3.7,0,0,0,0,0,0,0,0,-0.4,0,0,0,0,0,-0.4,0,0,0,0,-0.4,0,0,0,0,0,0,-0.4,0,0,0,0,0,0,-0.4,0,0,0,0,0,0,0,0,0,-0.4,0,0,0,0,0,0,-0.4,0,0,0,0,-0.4,0,0,-0.4,0,0" 
class="s3_21"
>½t is the single most important metri´s to understand the health of we³site. ·ites with higher Áomain ¶uthority s´ores tend to get</text>

<text 
x="410" 
y="578" 
dx="0,0,0,0,0,0,0,-0.4,0,0,0,0,0,0,-0.4,0,0,0,0,0,0,0" 
class="s3_21"
>³etter sear´h results.</text>

<text 
x="58" 
y="619" 
dx="0,0,0,0,0,-0.4,0,0,0,0,0,0,0,0" 
class="s3_21"
>¾age authority</text>

<text 
x="220" 
y="619" 
dx="0,0,0,0,0,0" 
class="s3_21"
>37/100</text>

<text 
x="410" 
y="608" 
dx="0,0,0,0,0,-0.4,0,0,0,0,0,0,0,0,0,-0.4,0,0,3.7,0,0,0,-0.4,0,0,0,0,0,0,0,-0.4,0,0,0,0,-0.4,0,0,-0.4,0,0,0,0,0,0,0,0,-0.4,0,0,0,-0.4,0,0,0,0,0,0,0,0,0,0,0,-0.4,0,0,0,0,-0.4,0,-0.4,0,0,0,0,0,0,0,0,-0.4,0,0,0,0,-0.4,0,0,0,0,-0.4,0,0,0,0,-0.4,0,0,0,0,-0.4,0,0,-0.4,0,0,0,0,0,-0.4,0,0,-0.4,0,-0.4,0,0,0,0,0,0,-0.4,0,0,0,0,0,0,0,-0.4,0,0,0,0,0" 
class="s3_21"
>¾age authority is ·¸² related term to des´ri³e the pro³a³ility that a spe´ifi´ page from site will ³e found on a sear´h engine. »igher</text>

<text 
x="410" 
y="630" 
dx="0,0,0,0,0,-0.4,0,0,0,0,0,0,0,0,0,-0.4,0,0,0,0,0,0,0,-0.4,0,0,0,0,0,0,0,-0.4,0,0,0,0,0,0,0,-0.4,0,0,-0.4,0,0,0,-0.4,0,0,0,0,-0.4,0,0,0,0,0,0,0,-0.4,0,0,-0.4,0,0,-0.4,0,0,0,0,0,0,-0.4,0,0,0,0,0,0,0" 
class="s3_21"
>page authority s´ores, greater ´han´es of we³ page showing up on sear´h engines.</text>

<text 
x="58" 
y="671" 
dx="0,0,0,0,0,0,0,0,0,-0.4,0,0,0,0,0,0,0,0" 
class="s3_21"
>¸xternal ³a´klinks</text>

<text 
x="220" 
y="671" 
dx="0,0,0,0,0" 
class="s3_21"
>17148</text>

<text 
x="410" 
y="660" 
dx="0,0,0,0.1,0,0,0,0,0,0,0,0,0,0.1,0,0,0,0,0,0,0,0,0.1,0,0,0,0,0.1,0,0,0,0,0,0,0,0,0,0.1,0,0,0,0,0.1,0,0,0.1,0,0,0,0,0,0,0,0,0.1,0,0,0,0.1,0,0,0.1,0,0,0,0,0,0,0,0,0,0.1,0,0,0,0,0,0,0,0,0,0.1,0,0,0,0,0,0,0.1,0,0,0,0,0,0,0,0,0,0.1,0,0,0,0.1,0,0,0,0,0,0,0.1,0,0,0,0,0,0,0,0,0,0.1,0,0,0,0,0,0,0,0.1,0,0,0,0.1,0,0,0,0,0" 
class="s3_21"
>½t transfers visitors from different page to we³site, and it transfers influen´e ´alled ¾age¹ank. °he higher ³a´klinks s´ores, the higher</text>

<text 
x="410" 
y="682" 
dx="0,0,0,0,0,-0.4,0,0,0,0,-0.4,0,0,0,0" 
class="s3_21"
>¾age ¹ank gets.</text>

<text 
x="58" 
y="718" 
dx="0,0,0,0,0,0,0,0,0,0,-0.4,0,0,0,0,0,0" 
class="s3_21"
>¹eferring Áomains</text>

<text 
x="220" 
y="718" 
dx="0,0,0" 
class="s3_21"
>100</text>

<text 
x="410" 
y="718" 
dx="0,0,0,-0.4,0,0,-0.4,0,0,0,-0.4,0,0,0,0,0,0,-0.4,0,0,0,0,-0.4,0,0,0,0,0,0,0,0,0,-0.4,0,0,0,-0.4,0,0,0,0,0,0,-0.4,0,0,0,0,0,-0.4,0,0,0,0,3.7,0,0,0,0,0,0,0,-0.4,0,0,-0.4,0,0,0,0,0,0,0,0,0,0,0,-0.4,0,0,0,0,-0.4,0,0,0,0,0,0,0,-0.4,0,0,0,0,0,0,-0.4,0,0,-0.4,0,0,0,3.7,0,0,0,0,0,0,0,0,0,-0.4,0,0,0,0,0,0" 
class="s3_21"
>½t is the domain that ³a´klinks are ´oming from, i.e. ºisitor is transferred from »u³³is, »u³³is is the referring domain.</text>

<text 
x="58" 
y="765" 
dx="0,0,0,0,0,0,0,-0.4,0,0" 
class="s3_21"
>Áomain age</text>

<text 
x="220" 
y="754" 
dx="0,0,0,-0.4,0,0,0,0,0,-0.4,0,-0.4,0,0,0,0,0,0,0,0,0,0,-0.4,0" 
class="s3_21"
>13 years / ¹egistered on</text>

<text 
x="220" 
y="776" 
dx="0,0" 
class="s3_21"
>29</text>

<text 
x="238" 
y="769" 
dx="0,0" 
class="s4_21"
>th</text>

<text 
x="253" 
y="776" 
dx="0,0,0,0,-0.4,0,0,0" 
class="s3_21"
>²´t 2004</text>

<text 
x="410" 
y="765" 
dx="0,0,0,0,-0.4,0,0,0,0,0,0,-0.4,0,0,-0.4,0,0,0,0,-0.4,0,0,0,0,0,-0.4,0,0,0,-0.4,0,0,0,0,0,0,0,-0.4,0,0,0,-0.4,0,0,0,0,-0.4,0,0,0,0,0,0,0,0,0,0" 
class="s3_21"
>°he Æength of time sin´e ¶ÅÁ we³site has ³een registered.</text>

<path fill-rule="evenodd" d="M56.5,441.3l839.2,0l0,43.7L56.5,485Z" class="g2_21" />
<text 
x="64" 
y="471" 
dx="0,0,0,0,0,0,0,0,-0.5,0,0,0,0,0,0,0,-0.5,0,0,0,0,0,0,0,0,0,-0.5,0,0,0,0,0,0,0" 
class="s1_21"
>µurrent ±e³site ¸ituation »nalysis</text>

<path fill-rule="evenodd" d="M57.7,9.2l1259.5,0l0,158.8L57.7,168Z" class="g2_21" />
<text 
x="71" 
y="116" 
dx="0,0,0,0,0,0,0,0,0,0,-1.6,0,0,0,0,0,0,0,0,0,0,-1.6,0,0,0,0,0,-1.6,0" 
class="s5_21"
>2.µe³site ·tatisti´s (part 2)</text>



<!-- Any embedded fonts defined here -->
<style type="text/css" ><![CDATA[

@font-face {
	font-family: Calibri_64;
	src: url("fonts/Calibri_64.woff") format("woff");
}

@font-face {
	font-family: Calibri-Bold_6g;
	src: url("fonts/Calibri-Bold_6g.woff") format("woff");
}

]]></style>

</svg>
