<?xml version="1.0" encoding="UTF-8" standalone="no"?>
<!DOCTYPE svg PUBLIC "-//W3C//DTD SVG 1.1//EN"
"http://www.w3.org/Graphics/SVG/1.1/DTD/svg11.dtd">


<!-- Page 23 -->
<svg x="0" y="0" width="1466" height="825" viewBox="0 0 1466 825" version="1.1" xmlns="http://www.w3.org/2000/svg" xmlns:xlink="http://www.w3.org/1999/xlink"
style="display: block;margin-left: auto;margin-right: auto;">
<defs>
<clipPath id="c0_23"><path d="M0,821.4L0,0L1460.3,0l0,821.4Z" /></clipPath>

<style type="text/css"><![CDATA[

.g1_23{
fill: #FFFFFF;
}
.g2_23{
fill-opacity: 0;
}

.s1_23{
font-size: 30.42px;
font-family: Calibri-Bold_6g;
fill: #262626;
}
.s2_23{
font-size: 21.30px;
font-family: Calibri_64;
fill: #262626;
}
.s3_23{
font-size: 66.93px;
font-family: Calibri_64;
fill: #F46524;
}

]]></style>

</defs>
<path d="M0,0
L0,825
L1466,825
L1466,0 Z " 
fill="#FFFFFF" stroke="none" />
<g clip-path="url(#c0_23)">
<path fill-rule="evenodd" d="M0,0L1460.3,0l0,821.4L0,821.4Z" class="g1_23" />
</g>
<path fill-rule="evenodd" d="M76.3,214.9l326.1,0l0,594.9l-326.1,0Z" class="g2_23" />
<text 
x="76" 
y="244" 
dx="0,0,0,0,0,0,0,-0.7,0,0,0,0,0,0,0,0,-0.7,0,0" 
class="s1_23"
>Àitle, Æeywords and</text>

<text 
x="76" 
y="284" 
dx="0,0,0,0,0,0,0,0" 
class="s1_23"
>¸nippets</text>

<text 
x="76" 
y="351" 
dx="0,0,0,0,0,-0.5,0,0,-0.5,0,-0.5,0,0,0,0,0,0,-0.5,0,0,0,-0.5,0,0,0,0,0,0,0,-0.5,0,0,0,-0.5,0,0" 
class="s2_23"
>°his is a sample ·¸² ·etting for our</text>

<text 
x="76" 
y="379" 
dx="0,0,0,0,0,0,0,0,0" 
class="s2_23"
>homepage.</text>

<text 
x="76" 
y="411" 
dx="0,0,0,0,0,-0.5,0,0,-0.5,0,0,0,0,-0.5,0,0,0,0,-0.5,0,0,0,0,0,0,-0.5,0,0,-0.5,0,0,0,-0.5,0,0,0,0" 
class="s2_23"
>°his is what will appear on the ·¸¹¾.</text>

<text 
x="76" 
y="439" 
dx="0,0,0,0,0,0,0,0,-0.5,0,0,0,0,0,-0.5,0,0,0,0,0,0,0,0,-0.5,0,0,0,0,-0.5,0,0,0,0,0,0,0,-0.5,0" 
class="s2_23"
>¸diting these settings will improve or</text>

<text 
x="76" 
y="468" 
dx="0,0,0,0,0,0,-0.5,0,0,0,-0.5,0,0,0,0,0" 
class="s2_23"
>lower the s´ores</text>

<text 
x="76" 
y="532" 
dx="0,0,0,0,-0.5,0,0,0,0,0,0,-0.5,0,0,0,0,0,0,0,0,0,0,0,-0.5,0,0,0,0,0,0,0,-0.5,0" 
class="s2_23"
>°he s´ores dynami´ally ´hanges as</text>

<text 
x="76" 
y="560" 
dx="0,0,0,0,-0.5,0,0,0,0,-0.5,0,0,0,-0.5,0,0,0,0,0,0,0,0,-0.5,0,0,0,-0.5,0,0,0,0" 
class="s2_23"
>you edit the settings and gives</text>

<text 
x="76" 
y="589" 
dx="0,0,0,0,0,0,0,0,0,0,0,0,-0.5,0,0,0,-0.5,0,0,0,0,0,0,0,0,0,0,-0.5,0,0,0,-0.5,0" 
class="s2_23"
>suggestions and guidelines how to</text>

<text 
x="76" 
y="617" 
dx="0,0,0,0,0,0,0,0,-0.5,0,0,0,-0.5,0,0,0,0,0,-0.5,0,0,0,0,-0.5,0,0,-0.5,0,0,0,-0.5,0" 
class="s2_23"
>improve the s´ore that is why we</text>

<text 
x="76" 
y="646" 
dx="0,0,0,0,0,-0.5,0,0,0,-0.5,0,0,0,0,0,-0.5,0,-0.5,0,0,0,0,0,0,0,0,0,0,0,-0.5,0,0,0,0,0" 
class="s2_23"
>need the ·ales &amp; ¼arketing’s effort</text>

<text 
x="76" 
y="674" 
dx="0,0,0,-0.5,0,0,0,0,0,-0.5,0,0,-0.5,0,0,0,-0.5,0,0,0,0,0,0,-0.5,0,0,-0.5,0,0,0,0,0,0,0" 
class="s2_23"
>or may³e an ·¸² agen´y to a´tually</text>

<text 
x="76" 
y="703" 
dx="0,0,0,-0.5,0,0,-0.5,0,0,0,0,0,-0.5,0,0,0,0,0,0,0,0,-0.5,0,0,0,-0.5,0,0,0,0,-0.5,0,0" 
class="s2_23"
>go to these settings and test the</text>

<text 
x="76" 
y="731" 
dx="0,0,0,0,0,0,0,0,0,-0.5,0,0,0,0,-0.5,0,0,0,0,-0.5,0,0,-0.5,0,0,0" 
class="s2_23"
>keywords they want to put.</text>

<path fill-rule="evenodd" d="M442.6,214.9l457.5,0l0,518.2l-457.5,0Z" class="g2_23" />
<image preserveAspectRatio="none" x="443" y="215" width="457" height="518" xlink:href="23/img/1.png" />
<path fill-rule="evenodd" d="M944.2,114.5l467.8,0l0,169.1l-467.8,0Z" class="g2_23" />
<image preserveAspectRatio="none" x="944" y="115" width="468" height="169" xlink:href="23/img/2.png" />
<path fill-rule="evenodd" d="M944.2,309.5l468.6,0l0,427.6l-468.6,0Z" class="g2_23" />
<image preserveAspectRatio="none" x="944" y="310" width="469" height="427" xlink:href="23/img/3.png" />
<path fill-rule="evenodd" d="M61,8L1320.5,8l0,158.8L61,166.8Z" class="g2_23" />
<text 
x="74" 
y="115" 
dx="0,0,0,0,0,0,0,0,0,0,0,-1.6,0,0,0,-1.6,0,0,0,0,0" 
class="s3_23"
>4.»omepage ·¸² ·ample</text>



<!-- Any embedded fonts defined here -->
<style type="text/css" ><![CDATA[

@font-face {
	font-family: Calibri_64;
	src: url("fonts/Calibri_64.woff") format("woff");
}

@font-face {
	font-family: Calibri-Bold_6g;
	src: url("fonts/Calibri-Bold_6g.woff") format("woff");
}

]]></style>

</svg>
