<?xml version="1.0" encoding="UTF-8" standalone="no"?>
<!DOCTYPE svg PUBLIC "-//W3C//DTD SVG 1.1//EN"
"http://www.w3.org/Graphics/SVG/1.1/DTD/svg11.dtd">


<!-- Page 25 -->
<svg x="0" y="0" width="1466" height="825" viewBox="0 0 1466 825" version="1.1" xmlns="http://www.w3.org/2000/svg" xmlns:xlink="http://www.w3.org/1999/xlink"
style="display: block;margin-left: auto;margin-right: auto;">
<defs>
<clipPath id="c0_25"><path d="M0,821.4L0,0L1460.3,0l0,821.4Z" /></clipPath>

<style type="text/css"><![CDATA[

.g1_25{
fill: #FFFFFF;
}
.g2_25{
fill-opacity: 0;
}
.g3_25{
fill: #CFE2F3;
}
.g4_25{
fill: none;
stroke: #CCCCCC;
stroke-width: 1.5211779;
stroke-linecap: butt;
stroke-linejoin: miter;
stroke-miterlimit: 11;
}

.s1_25{
font-size: 21.30px;
font-family: Calibri-Bold_6g;
fill: #F46524;
}
.s2_25{
font-size: 21.30px;
font-family: ArialMT_68;
fill: #000000;
}
.s3_25{
font-size: 21.30px;
font-family: Calibri_64;
fill: #000000;
}
.s4_25{
font-size: 21.30px;
font-family: Calibri_64;
fill: #222222;
}
.s5_25{
font-size: 21.30px;
font-family: Calibri-Bold_6g;
fill: #000000;
}
.s6_25{
font-size: 66.93px;
font-family: Calibri_64;
fill: #F46524;
}

]]></style>

</defs>
<path d="M0,0
L0,825
L1466,825
L1466,0 Z " 
fill="#FFFFFF" stroke="none" />
<g clip-path="url(#c0_25)">
<path fill-rule="evenodd" d="M0,0L1460.3,0l0,821.4L0,821.4Z" class="g1_25" />
</g>
<path fill-rule="evenodd" d="M80.7,131.2l500.4,0l0,669.7l-500.4,0Z" class="g2_25" />
<text 
x="118" 
y="156" 
dx="0,0,0,-0.5,0,0,0,0,0,0,0,-0.5,0,0,0,0,0,0,0" 
class="s1_25"
>1. Åigital »dvisory</text>

<text 
x="94" 
y="187" 
dx="0" 
class="s2_25"
>′</text>

<text 
x="118" 
y="187" 
dx="0,0,0,0,0,-0.5,0,0,0,0,0,0,0,0,-0.5,0,0,0,0,0,0,0,0" 
class="s3_25"
>¹o³o ¶dvisory solutions</text>

<text 
x="94" 
y="219" 
dx="0" 
class="s2_25"
>′</text>

<text 
x="118" 
y="219" 
dx="0,0,0,0,0,0,0,0,-0.5,0,0,0,0,0,0,0,0,-0.5,0,0,0,0,0,0,0,0" 
class="s3_25"
>Áigital ¶dvisory solutions</text>

<text 
x="94" 
y="251" 
dx="0" 
class="s2_25"
>′</text>

<text 
x="118" 
y="251" 
dx="0,0,0,0,0,0,0,0,-0.5,0,0,0,0,0,0,0,0,0,0,0,0,-0.5,0,0,0,0,0,0,0" 
class="s3_25"
>¸mpower ¹elationship ¼anagers</text>

<text 
x="94" 
y="283" 
dx="0" 
class="s2_25"
>′</text>

<text 
x="118" 
y="283" 
dx="0,0,0,0,0,0,0,0,-0.5,0,0,0,0,0,0,0,-0.5,0,0,0,0,0,0,0,0,0,0" 
class="s3_25"
>¸mpower ¾rodu´t gatekeepers</text>

<text 
x="94" 
y="315" 
dx="0" 
class="s2_25"
>′</text>

<text 
x="118" 
y="315" 
dx="0,0,0,0,0,0,0,0,0,0,0,0,0,-0.5,0,0,0,0,0,0,0,0,0" 
class="s3_25"
>¾re-advisory validation</text>

<text 
x="94" 
y="347" 
dx="0" 
class="s2_25"
>′</text>

<text 
x="118" 
y="347" 
dx="0,0,0,0,0,0,0,0,0,0,0,-0.5,0,0,0,0,0,-0.5,0,0,-0.5,0,0,0,0,0,0,0,0,-0.5,0,0,0,0,0,0" 
class="s3_25"
>½nvestment ideas to suita³le ´lients</text>

<text 
x="118" 
y="411" 
dx="0,0,0,-0.5,0,0,0,0,-0.5,0,0,0,0,0,0,0,0" 
class="s1_25"
>2. ¾est ´xe²ution</text>

<text 
x="94" 
y="442" 
dx="0" 
class="s2_25"
>′</text>

<text 
x="118" 
y="442" 
dx="0,0,0,0" 
class="s3_25"
>²¸¼·</text>

<text 
x="94" 
y="474" 
dx="0" 
class="s2_25"
>′</text>

<text 
x="118" 
y="474" 
dx="0,0,0,0,0,0,-0.5,0,0,0,0,0,0,0,0,0,0,-0.5,0,0,0,0,0" 
class="s3_25"
>²rder management system</text>

<text 
x="94" 
y="506" 
dx="0" 
class="s2_25"
>′</text>

<text 
x="118" 
y="506" 
dx="0,0,0,0,0,0,0,0,0,0,-0.5,0,0,0,0,0,0,0,0,0,0,-0.5,0,0,0,0,0" 
class="s3_25"
>¸xe´ution management system</text>

<text 
x="94" 
y="538" 
dx="0" 
class="s2_25"
>′</text>

<text 
x="118" 
y="538" 
dx="0,0,0,0,0,0,0,0,0,-0.5,0,0,0,0,0,0,0,-0.5,0,0,0,0,0,0" 
class="s3_25"
>¼ultiple produ´t issuers</text>

<text 
x="94" 
y="570" 
dx="0" 
class="s2_25"
>′</text>

<text 
x="118" 
y="570" 
dx="0,0,0,0,0,0,0,0,0,0,-0.5,0,0,0,0,0,0,0,0,0" 
class="s3_25"
>¾re-trade validation</text>

<text 
x="118" 
y="634" 
dx="0,0,0,-0.5,0,0,0,0,0,0,0,0,0,0,-0.5,0,0,0,0,0,0,0,0,0,0,-0.5,0,0,0,0,0,0,0" 
class="s1_25"
>3. ´nterprise µomplian²e solution</text>

<text 
x="94" 
y="666" 
dx="0" 
class="s2_25"
>′</text>

<text 
x="118" 
y="666" 
dx="0,0,0,0,0,0,0,0,0,0,0,0,-0.5,0,0,0,0,0,0,0,0,0,0,-0.5,0,0,0,0,-0.5,0,0,0,0,0" 
class="s3_25"
>´entralized ´omplian´e rule engine</text>

<text 
x="94" 
y="698" 
dx="0" 
class="s2_25"
>′</text>

<text 
x="118" 
y="698" 
dx="0,0,0,0,0,0,0,0,0,0,0,-0.5,0,0,0,0,0,0,0,0,-0.5,0,0,0,-0.5,0,0,0,0" 
class="s3_25"
>±omplian´e solution for ³anks</text>

<text 
x="94" 
y="730" 
dx="0" 
class="s2_25"
>′</text>

<text 
x="118" 
y="730" 
dx="0,0,0,0,0,0,0,0,0,0,0,-0.5,0,0,0,0,0,0,0,0,-0.5,0,0,0,-0.5,0,0,0,0,0,0,-0.5,0,0,0,0,0,0,0,0,0" 
class="s3_25"
>±omplian´e solution for wealth management</text>

<path d="M715.3,194.1l293.7,0l0,57.3l-293.7,0l0,-57.3Z" class="g3_25" />
<path d="M1009,194.1l255.1,0l0,57.3l-255.1,0l0,-57.3Z" class="g3_25" />
<path d="M715.3,193.4l0,461.9" class="g4_25" />
<path d="M1009,193.4l0,461.9" class="g4_25" />
<path d="M1264.1,193.4l0,461.9" class="g4_25" />
<path d="M714.6,194.1l550.2,0" class="g4_25" />
<path d="M714.6,251.4l550.2,0" class="g4_25" />
<path d="M714.6,291.7l550.2,0" class="g4_25" />
<path d="M714.6,332.1l550.2,0" class="g4_25" />
<path d="M714.6,372.4l550.2,0" class="g4_25" />
<path d="M714.6,412.7l550.2,0" class="g4_25" />
<path d="M714.6,453l550.2,0" class="g4_25" />
<path d="M714.6,493.3l550.2,0" class="g4_25" />
<path d="M714.6,533.6l550.2,0" class="g4_25" />
<path d="M714.6,573.9l550.2,0" class="g4_25" />
<path d="M714.6,614.2l550.2,0" class="g4_25" />
<path d="M714.6,654.5l550.2,0" class="g4_25" />
<text 
x="722" 
y="221" 
dx="0,0,0,0,0,0,0" 
class="s3_25"
>Çeyword</text>

<text 
x="1015" 
y="221" 
dx="0,0,0,0,0,-0.5,0,0,0,0,0,0,0,-0.5,0,0,0,0,0,0,0" 
class="s3_25"
>¶vg. monthly sear´hes</text>

<text 
x="722" 
y="278" 
dx="0,0,0,0,0,0,0" 
class="s3_25"
>finte´h</text>

<text 
x="1015" 
y="278" 
dx="0,0,0,0,-0.5,0,-0.5,0,0,0" 
class="s3_25"
>10Ç – 100Ç</text>

<text 
x="722" 
y="319" 
dx="0,0,0,0,0,-0.5,0,0,0,0,0,0,0" 
class="s3_25"
>ro³o advisory</text>

<text 
x="1015" 
y="319" 
dx="0,0,0,-0.5,0,-0.5,0,0" 
class="s3_25"
>1Ç - 10Ç</text>

<text 
x="722" 
y="359" 
dx="0,0,0,0,0,0,0,0,-0.5,0,0,0,0,0,0,0" 
class="s4_25"
>digital advisory</text>

<text 
x="1015" 
y="359" 
dx="0,0,0,0,-0.5,0,-0.5,0" 
class="s3_25"
>100 - 1Ç</text>

<text 
x="722" 
y="399" 
dx="0,0,0,0,0,0,0,0,0,0" 
class="s4_25"
>´omplian´e</text>

<text 
x="1015" 
y="399" 
dx="0,0,0,0,0,-0.5,0,-0.5,0" 
class="s3_25"
>100Ç - 1¼</text>

<text 
x="722" 
y="439" 
dx="0,0,0,0,0,0,0,-0.5,0,0,0,0,0,0,0,0,0" 
class="s4_25"
>wealth management</text>

<text 
x="1015" 
y="439" 
dx="0,0,0,0,-0.5,0,-0.5,0,0,0" 
class="s3_25"
>10Ç – 100Ç</text>

<text 
x="722" 
y="480" 
dx="0,0,0,0,0,0,0,0,0,0,-0.5,0,0,0,0,0,0,0,0,0" 
class="s4_25"
>exe´ution management</text>

<text 
x="1015" 
y="480" 
dx="0,0,0,0,-0.5,0,-0.5,0" 
class="s3_25"
>100 - 1Ç</text>

<text 
x="722" 
y="520" 
dx="0,0,0,0,0,-0.5,0,0,0,0,0,0,0,0,0" 
class="s4_25"
>risk management</text>

<text 
x="1015" 
y="520" 
dx="0,0,0,0,0,-0.5,0,-0.5,0" 
class="s3_25"
>100Ç - 1¼</text>

<text 
x="722" 
y="560" 
dx="0,0,0,0,0,0,0,0,-0.5,0,0,0,0,0,0" 
class="s4_25"
>private ³anking</text>

<text 
x="1015" 
y="560" 
dx="0,0,0,0,-0.5,0,-0.5,0,0,0" 
class="s3_25"
>10Ç – 100Ç</text>

<text 
x="722" 
y="601" 
dx="0,0,0,0,0,0,0,0,0,0,0,-0.5,0,0,0,0" 
class="s3_25"
>investment ideas</text>

<text 
x="1015" 
y="601" 
dx="0,0,0,-0.5,0,-0.5,0,0" 
class="s3_25"
>1Ç - 10Ç</text>

<text 
x="722" 
y="641" 
dx="0,0,0,0,0,0,0,0,0,0,0,-0.5,0,0,0,0,0,0" 
class="s3_25"
>investment ³anking</text>

<text 
x="1015" 
y="641" 
dx="0,0,0,0,0,-0.5,0,-0.5,0" 
class="s3_25"
>100Ç - 1¼</text>

<g clip-path="url(#c0_25)">
<path fill-rule="evenodd" d="M533.9,194.1l1460.3,0l0,54.8l-1460.3,0Z" class="g2_25" />
</g>
<path fill-rule="evenodd" d="M703.9,144.2l601.7,0l0,36.9l-601.7,0Z" class="g2_25" />
<text 
x="714" 
y="169" 
dx="0,0,0,0,0,0,0,0,-0.5,0,0,0,0,0,0,0,0,-0.5,0,0,0,0,0,0,0,-0.5,0,0,0,0,0,0,0,-0.5,0,0,0,0,0,0,0,0,0,0" 
class="s5_25"
>·elated Æeywords (Äoogle »d±ords statisti²s)</text>

<path fill-rule="evenodd" d="M80.7,10l1259.6,0l0,121.2l-1259.6,0Z" class="g2_25" />
<text 
x="94" 
y="98" 
dx="0,0,0,0,0,0,0,0,0,0,0,-1.6,0,0,0,0,0,0,0" 
class="s6_25"
>6.½dentify Çeywords</text>



<!-- Any embedded fonts defined here -->
<style type="text/css" ><![CDATA[

@font-face {
	font-family: ArialMT_68;
	src: url("fonts/ArialMT_68.woff") format("woff");
}

@font-face {
	font-family: Calibri_64;
	src: url("fonts/Calibri_64.woff") format("woff");
}

@font-face {
	font-family: Calibri-Bold_6g;
	src: url("fonts/Calibri-Bold_6g.woff") format("woff");
}

]]></style>

</svg>
