<?xml version="1.0" encoding="UTF-8" standalone="no"?>
<!DOCTYPE svg PUBLIC "-//W3C//DTD SVG 1.1//EN"
"http://www.w3.org/Graphics/SVG/1.1/DTD/svg11.dtd">


<!-- Page 27 -->
<svg x="0" y="0" width="1466" height="825" viewBox="0 0 1466 825" version="1.1" xmlns="http://www.w3.org/2000/svg" xmlns:xlink="http://www.w3.org/1999/xlink"
style="display: block;margin-left: auto;margin-right: auto;">
<defs>
<clipPath id="c0_27"><path d="M0,821.4L0,0L1460.3,0l0,821.4Z" /></clipPath>

<style type="text/css"><![CDATA[

.g1_27{
fill: #FFFFFF;
}
.g2_27{
fill-opacity: 0;
}
.g3_27{
fill: #FFFFFF;
fill-opacity: 0;
}
.g4_27{
fill: #C7E4F6;
}
.g5_27{
fill: none;
stroke: #7F7F7F;
stroke-width: 1.1408833;
stroke-linecap: butt;
stroke-linejoin: miter;
stroke-miterlimit: 11;
}

.s1_27{
font-size: 21.30px;
font-family: Calibri-Bold_6g;
fill: #000000;
}
.s2_27{
font-size: 21.30px;
font-family: Calibri_64;
fill: #000000;
}
.s3_27{
font-size: 18.25px;
font-family: Calibri_64;
fill: #F46524;
}
.s4_27{
font-size: 66.93px;
font-family: Calibri_64;
fill: #F46524;
}

]]></style>

</defs>
<path d="M0,0
L0,825
L1466,825
L1466,0 Z " 
fill="#FFFFFF" stroke="none" />
<g clip-path="url(#c0_27)">
<path fill-rule="evenodd" d="M0,0L1460.3,0l0,821.4L0,821.4Z" class="g1_27" />
<path fill-rule="evenodd" d="M533.9,194.1l1460.3,0l0,54.8l-1460.3,0Z" class="g2_27" />
</g>
<path fill-rule="evenodd" d="M57.7,141.5l1268.1,0l0,214.9l-1268.1,0Z" class="g2_27" />
<text 
x="72" 
y="166" 
dx="0,0,0,0,0,0,0,0" 
class="s1_27"
>¶inkedºn</text>

<text 
x="152" 
y="166" 
dx="0,0,-0.5,0,0,0,0,-0.5,0,0,0,0,0,0,-0.5,0,0,0,-0.5,0,0,0,-0.5,0,0,0,0,-0.5,0,0,0,0,0,0,0" 
class="s2_27"
>- ¼ain °arget for the next quarter.</text>

<text 
x="72" 
y="212" 
dx="0,0,0,0,0,0,0,0" 
class="s1_27"
>¼a²e³ook</text>

<text 
x="156" 
y="212" 
dx="0" 
class="s2_27"
>:</text>

<text 
x="72" 
y="234" 
dx="0,0,0,0,0,0,0,0,0,-0.5,0,0,-0.5,0,-0.5,0,0,0,0,0,0,-0.5,0,0,0,0,-0.5,0,0,0,0,-0.5,0,-0.5,0,0,0,0,0,0,0,-0.5,0,0,0,0,0,0,-0.5,0,0,-0.5,0,0,0,0,0,0,0,0,-0.5,0,0,0,0,0,0,0,0,0,0,0,-0.5,0,0,0,0,0,0,0,0,0,-0.5,0,0,-0.5,0,0,0,-0.5,0,0,0,0,-0.5,0,0,-0.5,0,0,0,0,-0.5,0,0,0,0,-0.5,0,0,0,0,0,0,0,0,0,-0.5,0,0,0,0,0,0,0,0,0,0,-0.5,0,0,0,0,-0.5,0,0,0,0,0,0" 
class="s2_27"
>Äa´e³ook is a so´ial tool with a ´ertain extent of personal engagement, ´hallenge we may fa´e is that some prospe´ts espe´ially from ³anking</text>

<text 
x="74" 
y="257" 
dx="0,0,0,0,0,0,0,0,0,-0.5,0,0,0,-0.5,0,0,0,-0.5,0,0,0,0,-0.5,0,0,-0.5,0,0,-0.5,0,0,0,0,0,0,0,0,-0.5,0,0,0,0,0,0,0,-0.5,0,0,-0.5,0,0,0,0,0,0,0,0,0,-0.5,0,0,-0.5,0,0,-0.5,0,0,0,0,0,0,0,0,0,0,0,-0.5,0,0,-0.5,0,0,0,-0.5,0,0,0,0,-0.5,0,0,0,0,0,0,0,0,-0.5,0,0,0,0,0,0,0,0,-0.5,0,0,0,-0.5,0,0,0,0,0,0,0,0,-0.5,0,0,0,0,0,0,0,0,0,0" 
class="s2_27"
>industry may not like to ³e a´tively engaged on Äa´e³ook. ½t is re´ommended to use same Æinked½n strategy for Äa´e³ook engagement.</text>

<text 
x="72" 
y="303" 
dx="0,0,0,0,0,0,0,-0.5,0,0,-0.5,0,-0.5,0,0,0,0,0,-0.5,0,0,0,0,0,0,0,0,0,0,-0.5,0,0,0,0,-0.5,0,0,0,0,0,-0.5,0,0,0,0,0,0,0,0,-0.5,0,0,0,0,0,-0.5,0,0,0,0,-0.5,0,0,0,-0.5,0,0,0,0,0,0,0,-0.5,0,0,-0.5,0,0" 
class="s2_27"
>*Âelow is a qui´k ´omparison with other Æinked½n pages that are similar to us.</text>

<path d="M73,342l1252.8,0l0,134.1L73,476.1L73,342Z" class="g3_27" />
<path d="M73,342l192.3,0l0,50.2L73,392.2L73,342Z" class="g4_27" />
<path d="M265.3,342l323.6,0l0,50.2l-323.6,0l0,-50.2Z" class="g4_27" />
<path d="M588.9,342l184.2,0l0,50.2l-184.2,0l0,-50.2Z" class="g4_27" />
<path d="M773.1,342l184.2,0l0,50.2l-184.2,0l0,-50.2Z" class="g4_27" />
<path d="M957.3,342l184.3,0l0,50.2l-184.3,0l0,-50.2Z" class="g4_27" />
<path d="M1141.6,342l184.2,0l0,50.2l-184.2,0l0,-50.2Z" class="g4_27" />
<path d="M73,341.4l0,135.3" class="g5_27" />
<path d="M265.3,341.4l0,135.3" class="g5_27" />
<path d="M588.9,341.4l0,135.3" class="g5_27" />
<path d="M773.1,341.4l0,135.3" class="g5_27" />
<path d="M957.3,341.4l0,135.3" class="g5_27" />
<path d="M1141.6,341.4l0,135.3" class="g5_27" />
<path d="M1325.8,341.4l0,135.3" class="g5_27" />
<path d="M72.5,342l1253.9,0" class="g5_27" />
<path d="M72.5,392.2l1253.9,0" class="g5_27" />
<path d="M72.5,434.2l1253.9,0" class="g5_27" />
<path d="M72.5,476.1l1253.9,0" class="g5_27" />
<text 
x="268" 
y="373" 
dx="0,0,0,-0.4,0,0,0,0" 
class="s3_27"
>¶Å Áelta</text>

<text 
x="592" 
y="373" 
dx="0,0,0,0,0,0,0,0,-0.4,0,0,0,0" 
class="s3_27"
>±harles ¹iver</text>

<text 
x="776" 
y="373" 
dx="0,0,0,0,-0.4,0" 
class="s3_27"
>Äin ½É</text>

<text 
x="960" 
y="373" 
dx="0,0,0,0,0,0" 
class="s3_27"
>¶valoq</text>

<text 
x="1145" 
y="373" 
dx="0,0,0,0,0,0" 
class="s3_27"
>Äenego</text>

<text 
x="76" 
y="419" 
dx="0,0,0,-0.4,0,0,-0.4,0,0,0,0,0,0" 
class="s3_27"
>¿o of Ãpdates</text>

<text 
x="268" 
y="419" 
dx="0" 
class="s3_27"
>6</text>

<text 
x="592" 
y="419" 
dx="0,0,0" 
class="s3_27"
>149</text>

<text 
x="776" 
y="419" 
dx="0" 
class="s3_27"
>1</text>

<text 
x="960" 
y="419" 
dx="0,0,0" 
class="s3_27"
>191</text>

<text 
x="1145" 
y="419" 
dx="0" 
class="s3_27"
>4</text>

<text 
x="76" 
y="461" 
dx="0,0,0,0,-0.4,0,0,-0.4,0,0,0,0,0,0,0" 
class="s3_27"
>¿o. of Äollower</text>

<text 
x="268" 
y="461" 
dx="0,0,0,0,-0.4,0,0,0,0,0,0,0,-0.4,0,0,0" 
class="s3_27"
>211 (°arget 600)</text>

<text 
x="592" 
y="461" 
dx="0,0,0,0" 
class="s3_27"
>6773</text>

<text 
x="776" 
y="461" 
dx="0,0,0,0" 
class="s3_27"
>1567</text>

<text 
x="960" 
y="461" 
dx="0,0,0,0" 
class="s3_27"
>8633</text>

<text 
x="1145" 
y="461" 
dx="0,0,0" 
class="s3_27"
>209</text>

<path fill-rule="evenodd" d="M55.7,492l1325.8,0l0,301.1l-1325.8,0Z" class="g2_27" />
<text 
x="81" 
y="524" 
dx="0,0,0,0,0,-0.5,0,0,-0.5,0,0,-0.5,0,0,0,0,-0.5,0,0,-0.5,0,0,0,0,0,0,0,-0.5,0,0,-0.5,0,0,0,0,0,0,0,0,-0.5,0,0,0,0,0,0,0,0" 
class="s1_27"
>±hat do we want to a²hieve on ¶inkedºn ²hannels?</text>

<text 
x="81" 
y="575" 
dx="0,0,0,0,0,0,0,0,-0.3,0,0,-0.3,0,0,0,0,0,0,0,0,0,-0.3,0,0,-0.3,0,0,0,0,0,-0.3,0,0,0,0,0,0,0,0,0,-0.3,0,0,-0.3,0,0,0,0,0,0,-0.3,0,0,0,0,0,0,0,-0.3,0,0,0,0,0,0,0,0,-0.3,0,0,0,0,0,-0.3,0,0,0,-0.3,0,0,0,0,0,-0.3,0,0,0,0,0,0,0,-0.3,0,0,0,0,0,0,0,-0.3,0,0,-0.3,0,0,0,0,0,-0.3,0,0,0,0,0,0,0,0,-0.3,0,0,0,0,0,-0.3,0,0,-0.3,0,0,0,0,0,0,0,0,0,-0.3,0,0,-0.3,0,0,0" 
class="s2_27"
>¸ngage: we en´ourage ¶Å Áelta employees to follow ´ompany Æinked½n page, and ·hare ±ompany updates on their personal pages if possi³le. ½n this</text>

<text 
x="90" 
y="600" 
dx="0,0,0,0,0,-0.5,0,0,-0.5,0,0,0,-0.5,0,-0.5,0,0,0,0,0,0,-0.5,0,0,0,0,0,0,-0.5,0,0,-0.5,0,0,0,0,0,0,-0.5,0,0,0,0,0,0,0,-0.5,0,0,0,0,0,0,0,0,0,-0.5,0,0,0,0,0,-0.5,0,0,0,0,-0.5,0,0,0,0,0,0,0,-0.5,0,0,0,0,-0.5,0,0,0,0,0,0,0,0,0" 
class="s2_27"
>way, we get a higher ´han´e to engage various audien´es other than ´ompany page followers.</text>

<text 
x="81" 
y="650" 
dx="0,0,0,0,0,0,0,0,0.4,0,0,0,0,0,0,0,0,0.4,0,0,0,0,0,0,0,0.4,0,0,0,0,0.4,0,0,0,0,0,0,0,0,0,0,0.4,0,0,0.4,0,0,0,0.4,0,0,0,0,0.4,0,0,0,0,0,0,0,0,0,0.4,0,0,0,0,0,0,0,0,0,0.4,0,0,0,0,0.4,0,0,0,0,0.4,0,0,0,0.4,0,0,0,0,0,0,0,0,0,0.4,0,0,0.4,0,0,0,0,0,0,0.4,0,0,0,0,0.4,0,0,0.4,0,0,0,0,0,0,0.4,0,0,0.4,0,0,0.4,0,0,0,0,0,0,0,0,0.4,0,0,0,0.4,0,0,0,0,0" 
class="s2_27"
>±onvert existing ´lients into followers: we now have Âar´lays, ±ontineo, Â¼², ·±Â, and ¶llian´e. µe invite them to follow us on Æinked½n via email;</text>

<text 
x="90" 
y="675" 
dx="0,0,0,0,0,-0.5,0,0,0,-0.5,0,0,0,0,0,-0.5,0,0,0,0,0,0,0,0,-0.5,0,0,-0.5,0,0,0,0,0,0,0,0,0,0,0,-0.5,0,0,0,-0.5,0,0,0,0,-0.5,0,0,-0.5,0,0,0,0,-0.5,0,0,0,0,-0.5,0,0,-0.5,0,0,0,0,0,-0.5,0,0,-0.5,0,0,0,0,0,-0.5,0,0,0,0,0,0,0" 
class="s2_27"
>they are great ´hannels to disseminate the news if they like or share ¶Å Áelta updates.</text>

<text 
x="81" 
y="725" 
dx="0,0,0,0,0,0,0,0,4.2,0,0,0,0,0,0,0,0,0,0,0,4.2,0,0,0,0,0,0,0,0,4.2,0,0,0,0,4.2,0,0,0,0,0,0,0,0,0,0,4.2,0,0,0,0,0,4.2,0,0,0,0,0,0,4.2,0,0,0,0,0,4.2,0,0,0,0,4.2,0,0,0,0,0,4.2,0,0,0,0,0,0,0,4.2,0,0,0,0,0,0,0,4.2,0,0,0,0,0,0,0,4.2,0,0,0,0,0,0,0,0,4.2,0,0,0,0,4.2,0,0,0,0,0,0,0,4.2,0,0,4.2,0,0,0,4.2,0,0,0,0,0,0,0,0,0" 
class="s2_27"
>±onvert resour´eful partners into followers: i.e., ¶ndrew ·hale from ¶sian ¾rivate Âanker, ¼i´hael ·tanhope from »u³³is. µe are indire´tly</text>

<text 
x="90" 
y="750" 
dx="0,0,0,0,0,0,0,0,0,0,-0.5,0,0,-0.5,0,0,0,-0.5,0,0,0,0,0,0,-0.5,0,0,0,0,0,0,0,0,0,-0.5,0,0,0,0,0,0,0,-0.5,0,0,0,0,0,-0.5,0,0,0,0,0,-0.5,0,0,0,0,0,0,0,0,0,-0.5,0,0,-0.5,0,0,0,0,0,-0.5,0,0,0,0,0,0,0,0,-0.5,0,0,0,0,0,0,0,-0.5,0,0,-0.5,0,0,0,-0.5,0,0,0,0,-0.5,0,0,-0.5,0,0,0,0,-0.5,0,0,0,0,-0.5,0,0,-0.5,0,0,-0.5,0,0,0,0,0,-0.5,0,0,-0.5,0,0,0,0,0,-0.5,0,0,0,0,0,0,0" 
class="s2_27"
>´onne´ted to our target audien´es through those event partners; we ´ould generate traffi´ to our page if they like us or share ¶Å Áelta updates.</text>

<path fill-rule="evenodd" d="M69.7,31l1259.5,0l0,97.7l-1259.5,0Z" class="g2_27" />
<text 
x="83" 
y="108" 
dx="0,0,0,0,0,0,0,0,0,-1.6,0,0,0,0" 
class="s4_27"
>8.·o´ial ¼edia</text>



<!-- Any embedded fonts defined here -->
<style type="text/css" ><![CDATA[

@font-face {
	font-family: Calibri_64;
	src: url("fonts/Calibri_64.woff") format("woff");
}

@font-face {
	font-family: Calibri-Bold_6g;
	src: url("fonts/Calibri-Bold_6g.woff") format("woff");
}

]]></style>

</svg>
