<?xml version="1.0" encoding="UTF-8" standalone="no"?>
<!DOCTYPE svg PUBLIC "-//W3C//DTD SVG 1.1//EN"
"http://www.w3.org/Graphics/SVG/1.1/DTD/svg11.dtd">


<!-- Page 5 -->
<svg x="0" y="0" width="1466" height="825" viewBox="0 0 1466 825" version="1.1" xmlns="http://www.w3.org/2000/svg" xmlns:xlink="http://www.w3.org/1999/xlink"
style="display: block;margin-left: auto;margin-right: auto;">
<defs>
<clipPath id="c0_5"><path d="M0,821.4L0,0L1460.3,0l0,821.4Z" /></clipPath>

<style type="text/css"><![CDATA[

.g1_5{
fill: #FFFFFF;
}
.g2_5{
fill-opacity: 0;
}
.g3_5{
fill: #FFFFFF;
fill-opacity: 0;
}
.g4_5{
fill: #C7E4F6;
}
.g5_5{
fill: none;
stroke: #7F7F7F;
stroke-width: 1.1408833;
stroke-linecap: butt;
stroke-linejoin: miter;
stroke-miterlimit: 11;
}

.s1_5{
font-size: 54.76px;
font-family: Calibri_64;
fill: #F46524;
}
.s2_5{
font-size: 24.34px;
font-family: Calibri_64;
fill: #F46524;
}
.s3_5{
font-size: 24.34px;
font-family: Calibri_64;
fill: #000000;
}
.s4_5{
font-size: 21.30px;
font-family: Calibri_64;
fill: #F46524;
}
.s5_5{
font-size: 21.30px;
font-family: Calibri_64;
fill: #000000;
}

]]></style>

</defs>
<path d="M0,0
L0,825
L1466,825
L1466,0 Z " 
fill="#FFFFFF" stroke="none" />
<g clip-path="url(#c0_5)">
<path fill-rule="evenodd" d="M0,0L1460.3,0l0,821.4L0,821.4Z" class="g1_5" />
</g>
<path fill-rule="evenodd" d="M57.4,126l1198.4,0l0,614.3l-1198.4,0Z" class="g2_5" />
<path fill-rule="evenodd" d="M74.7,41.9l577.8,0l0,59.7l-577.8,0Z" class="g2_5" />
<text 
x="74" 
y="94" 
dx="0,0,0,-1.3,0,0,0,0,0,0,0,-1.3,0,0,0,0,0,0,0,0" 
class="s1_5"
>1. ¾ro³lem statement</text>

<path fill-rule="evenodd" d="M57.4,157l1198.4,0l0,197.7l-1198.4,0Z" class="g2_5" />
<text 
x="60" 
y="183" 
dx="0" 
class="s2_5"
>-</text>

<text 
x="95" 
y="183" 
dx="0,0,0,0,0,0,0,0,0,0,0,0,-0.6,0,0,0,0,0,0,0,0,0,0,0,0,-0.6,0,0,0,0,0,0,0,0,0,-0.6,0,0,0,0,0" 
class="s2_5"
>½nformation ¶r´hite´ture organized ³adly.</text>

<text 
x="65" 
y="222" 
dx="0" 
class="s2_5"
>-</text>

<text 
x="95" 
y="222" 
dx="0,0,0,0,0,0,0,0,0,-0.6,0,0,0,0,0,0,-0.6,0,0,0,-0.6,0,0,0,0,0,0,0,0" 
class="s2_5"
>ºalua³le points not utilized.</text>

<text 
x="65" 
y="261" 
dx="0" 
class="s3_5"
>-</text>

<text 
x="95" 
y="261" 
dx="0,0,0,0,-0.6,0,0,0,0,-0.6,0,0,0,0,0,0,0,0,0,0,0,0,0,0,0,0,0,0,0,0,0,-0.6,0,0,0,0,-0.6,0,0,-0.6,0,0,0,0,0,0,-0.6,0,0,0,0,0,0,0,0,-0.6,0,0,0,0,0,0,0,-0.6,0,0,0,0,-0.6,0,0,0,0,0,0,0,0,0,0,-0.6,0,0,0,0,-0.6,0,0,0,-0.6,0,0,0,0,0,0,0,0,-0.6,0,0,0,0,0,0,0,0,0,-0.6,0,0,-0.6" 
class="s3_5"
>°he lead ´onversion/engagement rate is 0.02%. (¶verage we³site lead ´onversion rate for software (·oftware as a</text>

<text 
x="95" 
y="291" 
dx="0,0,0,0,0,0,0,0,0,-0.6,0,0,0,0,0,0,0,0,-0.6,0,0,-0.6,0,0,0,0,0,0,-0.6,0,-0.6,0,0,-0.6,0,0,0,-0.6,0,0,0,-0.6,0,0,0,0,0,-0.6,0,0,0,0,-0.6,0,0,0,0,0,0,0,-0.6,0,0,0,0,0,0,0,0,-0.6,0,0,0,0,0,0,0,0,0" 
class="s3_5"
>·ervi´e) industry is 5-7%-. ) µe are far ³elow than average industry ³en´hmark.</text>

<path fill-rule="evenodd" d="M57.4,354.7l635.2,0l0,70.1l-635.2,0Z" class="g2_5" />
<text 
x="67" 
y="379" 
dx="0,0,0,0,0,0,0,-0.5,0,0,0,0,0,-0.5,0,0,0,0,0,0,0,-0.5,0,0,0,0,0,0,0,0,-0.5,0,0,0,0,-0.5,0,0,0,0,-0.5,0,0,0,0,-0.5,0,0,-0.5,0,0,0,-0.5,0,0,0,0,-0.5,0,0,-0.5,0,0,0,0,0,0" 
class="s4_5"
>*°a³le shows µe³site ºisitors from Àune 2015 to Áe´ 2015 (6 months)</text>

<path d="M74.7,402l1254,0l0,196.7l-1254,0L74.7,402Z" class="g3_5" />
<path d="M74.7,402l232.5,0l0,54.7l-232.5,0l0,-54.7Z" class="g4_5" />
<path d="M307.2,402l317.4,0l0,54.7l-317.4,0l0,-54.7Z" class="g4_5" />
<path d="M624.6,402l239.1,0l0,54.7l-239.1,0l0,-54.7Z" class="g4_5" />
<path d="M863.7,402l232.5,0l0,54.7l-232.5,0l0,-54.7Z" class="g4_5" />
<path d="M1096.2,402l232.5,0l0,54.7l-232.5,0l0,-54.7Z" class="g4_5" />
<path d="M74.7,401.4l0,197.9" class="g5_5" />
<path d="M307.2,401.4l0,197.9" class="g5_5" />
<path d="M624.6,401.4l0,197.9" class="g5_5" />
<path d="M863.7,401.4l0,197.9" class="g5_5" />
<path d="M1096.2,401.4l0,197.9" class="g5_5" />
<path d="M1328.7,401.4l0,197.9" class="g5_5" />
<path d="M74.1,402l1255.2,0" class="g5_5" />
<path d="M74.1,456.7l1255.2,0" class="g5_5" />
<path d="M74.1,509.4l1255.2,0" class="g5_5" />
<path d="M74.1,562.2l1255.2,0" class="g5_5" />
<path d="M74.1,598.7l1255.2,0" class="g5_5" />
<text 
x="76" 
y="437" 
dx="0,0,0,0,0,0,0,0,0,-0.5,0,0,0" 
class="s5_5"
>ºisitors °ype</text>

<text 
x="311" 
y="437" 
dx="0,0,0,0,-0.5,0,0,-0.5,0,0,0,0" 
class="s5_5"
>¿o. of ºisit</text>

<text 
x="629" 
y="437" 
dx="0,0,0,-0.5" 
class="s5_5"
>³y %</text>

<text 
x="868" 
y="437" 
dx="0,0,0,0,0,-0.5,0,0,0,0,-0.5,0,0,0,0,-0.5,0,0,0,-0.5,0,0,0,0" 
class="s5_5"
>¶vg. ¾age ºiew per visit</text>

<text 
x="1100" 
y="437" 
dx="0,0,0,0,0,-0.5,0,0,0,0,0,0,0,-0.5,0,0,0,0,0,0,0" 
class="s5_5"
>¶vg. ·ession Áuration</text>

<text 
x="76" 
y="490" 
dx="0,0,0,0,-0.5,0,0,0,0,0,0,0" 
class="s5_5"
>¿ew ºisitors</text>

<text 
x="311" 
y="490" 
dx="0,0,0,0,0" 
class="s5_5"
>5,752</text>

<text 
x="629" 
y="490" 
dx="0,0,0,0,0" 
class="s5_5"
>62.8%</text>

<text 
x="868" 
y="490" 
dx="0,0,0,0" 
class="s5_5"
>2.07</text>

<text 
x="1100" 
y="490" 
dx="0,0,0,0,0" 
class="s5_5"
>01:35</text>

<text 
x="76" 
y="543" 
dx="0,0,0,0,0,0,0,0,0,0,-0.5,0,0,0,0,0,0,0" 
class="s5_5"
>¹eturning ºisitors</text>

<text 
x="311" 
y="543" 
dx="0,0,0,0,0" 
class="s5_5"
>3,404</text>

<text 
x="629" 
y="543" 
dx="0,0,0,0,0" 
class="s5_5"
>37.2%</text>

<text 
x="868" 
y="543" 
dx="0,0,0,0" 
class="s5_5"
>2.12</text>

<text 
x="1100" 
y="543" 
dx="0,0,0,0,0" 
class="s5_5"
>02:34</text>

<text 
x="76" 
y="588" 
dx="0,0,0,0,0" 
class="s5_5"
>°otal</text>

<text 
x="311" 
y="588" 
dx="0,0,0,0,0" 
class="s5_5"
>9,156</text>



<!-- Any embedded fonts defined here -->
<style type="text/css" ><![CDATA[

@font-face {
	font-family: Calibri_64;
	src: url("fonts/Calibri_64.woff") format("woff");
}

]]></style>

</svg>
