<?xml version="1.0" encoding="UTF-8" standalone="no"?>
<!DOCTYPE svg PUBLIC "-//W3C//DTD SVG 1.1//EN"
"http://www.w3.org/Graphics/SVG/1.1/DTD/svg11.dtd">


<!-- Page 6 -->
<svg x="0" y="0" width="1466" height="825" viewBox="0 0 1466 825" version="1.1" xmlns="http://www.w3.org/2000/svg" xmlns:xlink="http://www.w3.org/1999/xlink"
style="display: block;margin-left: auto;margin-right: auto;">
<defs>
<clipPath id="c0_6"><path d="M0,821.4L0,0L1460.3,0l0,821.4Z" /></clipPath>

<style type="text/css"><![CDATA[

.g1_6{
fill: #FFFFFF;
}
.g2_6{
fill-opacity: 0;
}
.g3_6{
fill: #FFFFFF;
fill-opacity: 0;
}
.g4_6{
fill: #C7E4F6;
}
.g5_6{
fill: none;
stroke: #7F7F7F;
stroke-width: 1.1408833;
stroke-linecap: butt;
stroke-linejoin: miter;
stroke-miterlimit: 11;
}

.s1_6{
font-size: 54.76px;
font-family: Calibri_64;
fill: #F46524;
}
.s2_6{
font-size: 21.30px;
font-family: Calibri_64;
fill: #000000;
}
.s3_6{
font-size: 21.30px;
font-family: Calibri-Bold_6g;
fill: #000000;
}

]]></style>

</defs>
<path d="M0,0
L0,825
L1466,825
L1466,0 Z " 
fill="#FFFFFF" stroke="none" />
<g clip-path="url(#c0_6)">
<path fill-rule="evenodd" d="M0,0L1460.3,0l0,821.4L0,821.4Z" class="g1_6" />
</g>
<path fill-rule="evenodd" d="M57.4,126l1198.4,0l0,614.3l-1198.4,0Z" class="g2_6" />
<path fill-rule="evenodd" d="M74.7,41.9l1038.6,0l0,59.7l-1038.6,0Z" class="g2_6" />
<text 
x="74" 
y="94" 
dx="0,0,0,-1.3,0,0,0,0,0,0,0,0,0,-1.3,0,0,0,0,0,0,0,0,0,0,0,-1.3,0,0,0,0,0,0,0,0,-1.3,0,0,0,0,-1.3" 
class="s1_6"
>2. ¶udien´es ¶´quisition ²verview part 1</text>

<path fill-rule="evenodd" d="M57.4,194.7l1198.4,0l0,43.6l-1198.4,0Z" class="g2_6" />
<text 
x="60" 
y="218" 
dx="0,0,0,0,-0.5,0,0,0,0,0,0,-0.5,0,0,0,0,0,0,0,0,-0.5,0,0" 
class="s2_6"
>²ur target audien´e is:</text>

<g clip-path="url(#c0_6)">
<path fill-rule="evenodd" d="M57.4,136.7l2330.2,0l0,77.2l-2330.2,0Z" class="g2_6" />
</g>
<text 
x="65" 
y="165" 
dx="0,0,0,0,0,-0.5,0,0,0,0,0,0,-0.5,0,0,-0.5,0,0,0,0,0,0,0,-0.5,0,0,-0.5,0,0,0,-0.5,0,0,0,0,0,0,0,0,-0.5,0,0,-0.5,0,0,0,0,0,0,0,-0.5,0,0,0,0,0,0,0,0,-0.5,0,0,0,0,-0.5,0,0,0,0,0,0,0,0,0,-0.5,0,0,0,0,0,0,-0.5,0,0,0,0,0,-0.5,0,0,0,0,0,0,0,0,0,-0.5,0,0,0,-0.5,0,0,0,0,0,0,0,0,-0.5,0,0,0,0,0,0,0,0,-0.5,0,0,-0.5,0,0,0,0,0,0,0,-0.5,0,0,0,0,0,0,0,0,0,0,-0.5,0,0,0,0" 
class="s2_6"
>°his report is fo´used on the analysis of we³site visitors from different so´ial media ´hannels, and proposed solution to improve engagement rate.</text>

<path d="M57.4,256.3l1351,0l0,473.8l-1351,0l0,-473.8Z" class="g3_6" />
<path d="M57.4,256.3l399.2,0l0,64l-399.2,0l0,-64Z" class="g4_6" />
<path d="M456.6,256.3l533.8,0l0,64l-533.8,0l0,-64Z" class="g4_6" />
<path d="M990.4,256.3l418,0l0,64l-418,0l0,-64Z" class="g4_6" />
<path d="M57.4,255.7l0,474.9" class="g5_6" />
<path d="M456.6,255.7l0,474.9" class="g5_6" />
<path d="M990.4,255.7l0,474.9" class="g5_6" />
<path d="M1408.4,255.7l0,474.9" class="g5_6" />
<path d="M56.9,256.3l1352.1,0" class="g5_6" />
<path d="M56.9,320.3l1352.1,0" class="g5_6" />
<path d="M56.9,402.9l1352.1,0" class="g5_6" />
<path d="M56.9,485.6l1352.1,0" class="g5_6" />
<path d="M56.9,568.2l1352.1,0" class="g5_6" />
<path d="M56.9,647.4l1352.1,0" class="g5_6" />
<path d="M56.9,730.1l1352.1,0" class="g5_6" />
<text 
x="65" 
y="296" 
dx="0,0,0,0,0,0,0" 
class="s3_6"
>°ersona</text>

<text 
x="464" 
y="296" 
dx="0,0,0,0,0,-0.5,0,0,0,0,0,0,0,-0.5,0,0,0,0,-0.5,0,0,0" 
class="s3_6"
>±hat attra²t them most</text>

<text 
x="998" 
y="296" 
dx="0,0,0,0,0,0,0,-0.5,0,0,-0.5,0,0,0,-0.5,0,0,0,0,0,0" 
class="s3_6"
>±hat’s on our we³site</text>

<text 
x="65" 
y="356" 
dx="0,0,0,0,0,0,0,0,0,0,0,-0.5,0,0,0,0,-0.5,0,0,0,0,-0.5,0,0,0,0,0,0,0,-0.5,0,0,0,0,0,-0.5" 
class="s2_6"
>±omplian´e team from ¾rivate Âanks &amp;</text>

<text 
x="65" 
y="382" 
dx="0,0,0,0,0,0,0,-0.5,0,0,0,0" 
class="s2_6"
>¹etail Âanks</text>

<text 
x="464" 
y="356" 
dx="0,0,0,0,-0.5,0,0,0,0,0,0,0,0,0,-0.5,0,0,0,-0.5,0,0,0,0,0,0,0,0,0,-0.5,0,0,0,0,0,0,0,0,-0.5,0,0,0,0,0,0,0,0,0,0,0,-0.5,0,0,0,0,-0.5,0,0,0" 
class="s2_6"
>²ur ³usiness, our strength, industry reputation, main team</text>

<text 
x="464" 
y="382" 
dx="0,0,0,0,0,0,0,0,-0.5,0,0,0,0,-0.5,0,0,0,-0.5,0,0,0,0,0,0,-0.5,0,0,0,0,0,0" 
class="s2_6"
>mem³er, news and ³logs, ´onta´t</text>

<text 
x="998" 
y="356" 
dx="0,0,0,0,0,-0.5,0,0,-0.5,0,0,0,-0.5,0,0,0,-0.5,0,0,0,-0.5,0,0,0,0,0,0,0,0,0,0,0,-0.5,0,0" 
class="s2_6"
>what we do, why us, ¶wards,¿ews and</text>

<text 
x="998" 
y="382" 
dx="0,0,0,0,0,0,0,0,0,0,-0.5,0,0,0,-0.5,0,0,0,0,0,-0.5,0,0,0,0,0,0,0,-0.5,0" 
class="s2_6"
>insights, our team, ±onta´t Ãs</text>

<text 
x="65" 
y="439" 
dx="0,0,0,0,0,0,0,0,-0.5,0,0,0,0,-0.5,0,0,0,0,-0.5,0,0,0,0,0,0,0,-0.5,0,0,0,0,0,-0.5,0,-0.5,0,0,0,0,0" 
class="s2_6"
>Áealing team from ¾rivate Âanks &amp; µealth</text>

<text 
x="65" 
y="464" 
dx="0,0,0,0,0,0,0,0,0,0,0,-0.5,0,0,0,0,0,0,0,0,0,0,0,0,-0.5,0,-0.5,0,0,0,0,0,0,-0.5,0,0,0,0" 
class="s2_6"
>¼anagement institutions &amp; ¹etail Âanks</text>

<text 
x="464" 
y="439" 
dx="0,0,0,0,-0.5,0,0,0,0,0,0,0,0,0,-0.5,0,0,0,-0.5,0,0,0,0,0,0,0,0,0,-0.5,0,0,0,0,0,0,0,0,-0.5,0,0,0,0,0,0,0,0,0,0,0,-0.5,0,0,0,0,-0.5,0,0,0" 
class="s2_6"
>²ur ³usiness, our strength, industry reputation, main team</text>

<text 
x="464" 
y="464" 
dx="0,0,0,0,0,0,0,0,-0.5,0,0,0,0,-0.5,0,0,0,-0.5,0,0,0,0,0,0,-0.5,0,0,0,0,0,0" 
class="s2_6"
>mem³er, news and ³logs, ´onta´t</text>

<text 
x="998" 
y="439" 
dx="0,0,0,0,0,-0.5,0,0,-0.5,0,0,0,-0.5,0,0,0,-0.5,0,0,0,-0.5,0,0,0,0,0,0,0,0,0,0,0,-0.5,0,0" 
class="s2_6"
>what we do, why us, ¶wards,¿ews and</text>

<text 
x="998" 
y="464" 
dx="0,0,0,0,0,0,0,0,0,0,-0.5,0,0,0,-0.5,0,0,0,0,0,-0.5,0,0,0,0,0,0,0,-0.5,0" 
class="s2_6"
>insights, our team, ±onta´t Ãs</text>

<text 
x="65" 
y="522" 
dx="0,0,0,0,0,0,0,0,0,-0.5,0,0,0,0,-0.5,0,0,0,0,0,0,0,-0.5,0,0,0,0,0,-0.5,0,-0.5,0,0,0,0,0,0,-0.5,0,0,0,0,0,-0.5" 
class="s2_6"
>¶dvisors from ¾rivate Âanks / ¹etail Âanks /</text>

<text 
x="65" 
y="547" 
dx="0,0,0" 
class="s2_6"
>½Ä¶</text>

<text 
x="464" 
y="522" 
dx="0,0,0,0,-0.5,0,0,0,0,0,0,0,0,0,-0.5,0,0,0,-0.5,0,0,0,0,0,0,0,0,0,-0.5,0,0,0,0,0,0,0,0,-0.5,0,0,0,0,0,0,0,0,0,0,0,-0.5,0,0,0,0,-0.5,0,0,0" 
class="s2_6"
>²ur ³usiness, our strength, industry reputation, main team</text>

<text 
x="464" 
y="547" 
dx="0,0,0,0,0,0,0,0,-0.5,0,0,0,0,-0.5,0,0,0,-0.5,0,0,0,0,0,0,-0.5,0,0,0,0,0,0" 
class="s2_6"
>mem³er, news and ³logs, ´onta´t</text>

<text 
x="998" 
y="522" 
dx="0,0,0,0,0,-0.5,0,0,-0.5,0,0,0,-0.5,0,0,0,-0.5,0,0,0,-0.5,0,0,0,0,0,0,0,0,0,0,0,-0.5,0,0" 
class="s2_6"
>what we do, why us, ¶wards,¿ews and</text>

<text 
x="998" 
y="547" 
dx="0,0,0,0,0,0,0,0,0,0,-0.5,0,0,0,-0.5,0,0,0" 
class="s2_6"
>insights, our team</text>

<text 
x="65" 
y="615" 
dx="0,0,0,0,0,0,0,0,0,0,0,-0.5,0,0,0,0,0,0,0,-0.5,0,-0.5,0,0,0,0,0,0,0,0,0,0" 
class="s2_6"
>½ndividual talents – ¹e´ruitment</text>

<text 
x="464" 
y="603" 
dx="0,0,0,0,-0.5,0,0,0,0,0,0,0,0,0,-0.5,0,0,0,0,0,0,0,0,-0.5,0,0,0,0,0,0,0,0,0,0,0,-0.5,0,0,0,0,0,0,0,-0.5,0,0,0,0,0,0,0,0" 
class="s2_6"
>²ur ³usiness, industry reputation, events, availa³le</text>

<text 
x="464" 
y="628" 
dx="0,0,0,0,0,0,0,0,0,0,0,-0.5,0,0,0,0,0,0" 
class="s2_6"
>positions, ´onta´t</text>

<text 
x="998" 
y="603" 
dx="0,0,0,0,0,-0.5,0,0,-0.5,0,0,0,-0.5,0,0,0,-0.5,0,0,0,-0.5,0,0,0,0,0,0,0,-0.5,0,0,0,0,0,0,0,0,-0.5,0,0,0" 
class="s2_6"
>what we do, why us, ¶wards, ´onta´t, news</text>

<text 
x="998" 
y="628" 
dx="0,0,0,0,-0.5,0,0,0,0,0,0,0" 
class="s2_6"
>and insights</text>

<text 
x="65" 
y="696" 
dx="0,0,0,0,-0.5,0,0,0,0,0" 
class="s2_6"
>¶ny others</text>

<text 
x="464" 
y="696" 
dx="0,0,0,0,0,0,0,0" 
class="s2_6"
>anything</text>



<!-- Any embedded fonts defined here -->
<style type="text/css" ><![CDATA[

@font-face {
	font-family: Calibri_64;
	src: url("fonts/Calibri_64.woff") format("woff");
}

@font-face {
	font-family: Calibri-Bold_6g;
	src: url("fonts/Calibri-Bold_6g.woff") format("woff");
}

]]></style>

</svg>
