<?xml version="1.0" encoding="UTF-8" standalone="no"?>
<!DOCTYPE svg PUBLIC "-//W3C//DTD SVG 1.1//EN"
"http://www.w3.org/Graphics/SVG/1.1/DTD/svg11.dtd">


<!-- Page 7 -->
<svg x="0" y="0" width="1466" height="825" viewBox="0 0 1466 825" version="1.1" xmlns="http://www.w3.org/2000/svg" xmlns:xlink="http://www.w3.org/1999/xlink"
style="display: block;margin-left: auto;margin-right: auto;">
<defs>
<clipPath id="c0_7"><path d="M0,821.4L0,0L1460.3,0l0,821.4Z" /></clipPath>

<style type="text/css"><![CDATA[

.g1_7{
fill: #FFFFFF;
}
.g2_7{
fill-opacity: 0;
}
.g3_7{
fill: #DCDEE0;
}
.g4_7{
fill: none;
stroke: #CBCBCB;
stroke-width: 1.5211779;
stroke-linecap: butt;
stroke-linejoin: miter;
stroke-miterlimit: 11;
}
.g5_7{
fill: none;
stroke: #937AB2;
stroke-width: 1.5211779;
stroke-linecap: butt;
stroke-linejoin: miter;
stroke-miterlimit: 11;
}

.s1_7{
font-size: 21.30px;
font-family: Calibri_64;
fill: #000000;
}
.s2_7{
font-size: 21.30px;
font-family: Calibri-Bold_6g;
fill: #F46524;
}
.s3_7{
font-size: 21.30px;
font-family: Calibri_64;
fill: #F46524;
}
.s4_7{
font-size: 15.21px;
font-family: Arial-BoldMT_6k;
fill: #000000;
}
.s5_7{
font-size: 15.21px;
font-family: ArialMT_68;
fill: #000000;
}
.s6_7{
font-size: 15.21px;
font-family: HelveticaNeue_6o;
fill: #000000;
}
.s7_7{
font-size: 54.76px;
font-family: Calibri_64;
fill: #F46524;
}

]]></style>

</defs>
<path d="M0,0
L0,825
L1466,825
L1466,0 Z " 
fill="#FFFFFF" stroke="none" />
<g clip-path="url(#c0_7)">
<path fill-rule="evenodd" d="M0,0L1460.3,0l0,821.4L0,821.4Z" class="g1_7" />
</g>
<path fill-rule="evenodd" d="M57.4,126l1198.4,0l0,614.3l-1198.4,0Z" class="g2_7" />
<path fill-rule="evenodd" d="M57.4,149.4l575.5,0l0,283.5l-575.5,0Z" class="g2_7" />
<image preserveAspectRatio="none" x="57" y="149" width="576" height="284" xlink:href="7/img/1.png" />
<path fill-rule="evenodd" d="M57.4,471.1l1361.4,0l0,299.4l-1361.4,0Z" class="g2_7" />
<text 
x="65" 
y="499" 
dx="0,0,0,0,0,0,0,0,-0.5,0,0,0,0,0,0,-0.5,0,0,0,0,0,-0.5,0,0,0,0,0,0,0,0,0,-0.5,0,0,0,0,-0.5,0,0,-0.5,0,0,0,0,0,0,0,0,-0.5,0,0,-0.5,0,0,0,0,0,0,-0.5,0,0,0,0,0,0,0" 
class="s1_7"
>²rgani´ ·ear´h means audien´es type in keywords on sear´h engines.</text>

<text 
x="672" 
y="499" 
dx="0,0,0,0,0,0,0,-0.5,0,0,0,0,0,0,0" 
class="s2_7"
>44.44% visitors</text>

<text 
x="809" 
y="499" 
dx="0,0,0,0,0,-0.5,0,0,0,0,0,0,0,0,-0.5,0,0,-0.5,0,0,0,0,0,0" 
class="s1_7"
>were dire´ted to we³site</text>

<text 
x="1031" 
y="499" 
dx="0,0,0,0,-0.5,0,0,0,0,0,0,0,-0.5,0,0,0,0,0" 
class="s2_7"
>via organi² sear²h</text>

<text 
x="1189" 
y="499" 
dx="0" 
class="s1_7"
>.</text>

<text 
x="65" 
y="549" 
dx="0,0,0,0,0,0,0,-0.5,0,0,0,0,0,-0.5,0,0,0,0,0,0,0,0,0,-0.5,0,0,0,0,0,0,0,0,-0.5,0,0,0,0,-0.5,0,0,-0.5,0,0,-0.5,0,0,0,0,0,-0.5,0,0,-0.5,0,0,0,0,0,0,-0.5,0,0,0,0,0,0,0" 
class="s1_7"
>Áire´t means audien´es dire´tly type in ¶Å Áelta on sear´h engines.</text>

<text 
x="657" 
y="549" 
dx="0,0,0,0,0,0,-0.5,0,0,0,0,0,0,0" 
class="s2_7"
>32.8% visitors</text>

<text 
x="784" 
y="549" 
dx="0,0,0,0,0,-0.5,0,0,0,0,0,0,0,-0.5,0,0,-0.5,0,0,0,0,0,0" 
class="s1_7"
>were ³rought to we³site</text>

<text 
x="1002" 
y="549" 
dx="0,0,0,0,-0.5,0,0,0,0,0,0,-0.5,0,0,0,0,0" 
class="s2_7"
>via dire²t sear²h</text>

<text 
x="1147" 
y="549" 
dx="0" 
class="s1_7"
>.</text>

<text 
x="65" 
y="599" 
dx="0,0,0,0,0,0,0,0,0,-0.5,0,0,0,0,0,-0.5,0,0,0,0,0,0,0,0,0,-0.5,0,0,0,-0.5,0,0,0,0,-0.5,0,0,0,0,0,0,-0.5,0,0,-0.5,0,0,0,0,0,0,0,0,-0.5,0,0,0,0,-0.5,0,0,0,0,-0.5,0,0,0,0,0,-0.5,0,0,0,0,0,0,0,-0.5,0,0,-0.5,0,0,0,0,0,0,0" 
class="s1_7"
>¹eferral means audien´es are ³a´k linked to we³site, i.e. from ¾ress ¹elease to µe³site.</text>

<text 
x="834" 
y="599" 
dx="0,0,0,0,0,0,0,-0.5,0,0,0,0,0,0,0" 
class="s2_7"
>20.62% visitors</text>

<text 
x="972" 
y="599" 
dx="0,0,0,0,0,-0.5,0,0,0,0,0,0,0,0,0,0,0,-0.5,0,0,-0.5,0,0,0,0,0,0" 
class="s1_7"
>were transferred to we³site</text>

<text 
x="1219" 
y="599" 
dx="0,0,0,0,0,-0.5,0,0,0,0,0,0,0,0,-0.5,0,0,0,0" 
class="s2_7"
>from external pages</text>

<text 
x="1397" 
y="599" 
dx="0" 
class="s3_7"
>.</text>

<text 
x="65" 
y="650" 
dx="0,0,0,0,0,0,0,-0.5,0,0,0,0,0,-0.5,0,0,0,0,0,0,0,0,-0.5,0,0,0,0,-0.5,0,0,0,0,0,0,0,0,0,-0.5,0,0,0,0,0,0,0,0,0,-0.5,0,0,0,0,0,0,0,0,-0.5,0,0,0,-0.5,0,0,0,0,0,0,0,0,0" 
class="s1_7"
>·o´ial ¼edia ´hannels like Æinked½n, Äa´e³ook, °witter, and Ålassdoor.</text>

<text 
x="679" 
y="650" 
dx="0,0,0,0,0,0,-0.5,0,0,0,0,0,0,0" 
class="s2_7"
>2.14% visitors</text>

<text 
x="806" 
y="650" 
dx="0,0,0,0,0,-0.5,0,0,0,0,0,0,0,0,-0.5,0,0,-0.5,0,0,0,0,0,0" 
class="s1_7"
>were dire´ted to we³site</text>

<text 
x="1027" 
y="650" 
dx="0,0,0,0,0,0,0,0,-0.5,0,0,0,0,0,0,-0.5,0,0,0,0,0,-0.5,0,0,0,0,0,0,0" 
class="s2_7"
>through so²ial media ²hannels</text>

<text 
x="1295" 
y="650" 
dx="0" 
class="s3_7"
>.</text>

<text 
x="65" 
y="700" 
dx="0,0,0,0,0,0,0,-0.2,0,0,0,0,-0.2,0,0,-0.2,0,-0.2,0,0,0,0,-0.2,0,0,-0.2,0,0,0,0,-0.2,0,0,0,0,0,0,0,0,0,0,0,0,-0.2,0,0,0,0,-0.2,0,0,0,0,0,0,-0.2,0,0,0,0,-0.2,0,0,0,0,0,-0.2,0,-0.2,0,0,0,0,-0.2,0,0,-0.2,0,0,0,-0.2,0,0,0,0,-0.2,0,0,0,0,0,0,0,0,0,0,0,-0.2,0,0,0,0,0,0,-0.2,0,0,0,0,0,0,0,0,0,-0.2,0,0,0,0,0,0,0,0,0,-0.2,0,0,0,0,0,0,0,0,-0.2,0,0,0,0.7,0,0,0,0,0,0,-0.2,0,0,0,0,-0.2,0" 
class="s1_7"
>Âoun´e ¹ate is a sign of user experien´es. »igh ³oun´e rate means a sign of ³ad user experien´e. Åoogle ¶nalyti´s ³en´hmark averages for Âoun´e ¹ate of</text>

<text 
x="65" 
y="725" 
dx="0,0,0,0,0,0,0,0,0.1,0,0,0,0,0,0,0,0.1,0" 
class="s1_7"
>´ontent we³site is</text>

<text 
x="230" 
y="725" 
dx="0,0,0,0,0.1,0,0.1,0,0,0" 
class="s2_7"
>40% - 60%.</text>

<text 
x="333" 
y="725" 
dx="0,0,0,0,0,0,0,0.1,0,0,0,0,0.1,0,0,0.1,0,0.1,0,0,0,0,0,0,0,0.1,0,0,0.1,0,0,0,0,0,0.1,0,0,0,0,0,0,0,0.1,0,0,0,0.1,0,0.1,0,0,0,0,0.1,0,0,0,0,0,0,0.1,0,0,0,0,0.1,0,0,0,0,0,0,0,0,0,0.1,0,0,0,0,0,0,0,0,0,0.1,0,0,0,0,0.1,0,0,0,0,0.1,0,0,0,0,0,0,0,0,0,0,0,0,0,0,0,0,0.1,0,0,0,0,0,0.1,0,0,0,0,0" 
class="s1_7"
>Âoun´e ¹ate is a measure of visit quality and a high Âoun´e ¹ate generally indi´ates that site entran´e/landing pages aren’t</text>

<text 
x="65" 
y="750" 
dx="0,0,0,0,0,0,0,0,0,-0.5,0,0,-0.5,0,0,0,-0.5,0,0,0,0,0,0,0,0,0,-0.5,0,0,0,0,0,0,0,-0.5,0,0,0,0,0,0,0,-0.5,0,0,-0.5,0,0,0,0,0,0,0,-0.5,0,0,0,0,0,0,-0.5,0,0,0,-0.5,0,0,0,0,0,0,0,-0.5" 
class="s1_7"
>relevant to the visitors. ±urrent we³site is working within the average –</text>

<text 
x="688" 
y="750" 
dx="0,0,0,0,0,0,0" 
class="s2_7"
>59.13%.</text>

<path d="M728.3,194.1l189.2,0l0,39.8l-189.2,0l0,-39.8Z" class="g1_7" />
<path d="M728.3,233.9l189.2,0l0,39.9l-189.2,0l0,-39.9Z" class="g3_7" />
<path d="M917.5,233.9l207.9,0l0,39.9l-207.9,0l0,-39.9Z" class="g3_7" />
<path d="M1125.4,233.9l195.3,0l0,39.9l-195.3,0l0,-39.9Z" class="g3_7" />
<path d="M728.3,273.8l189.2,0l0,39.8l-189.2,0l0,-39.8Z" class="g1_7" />
<path d="M728.3,313.6l189.2,0l0,39.9l-189.2,0l0,-39.9Z" class="g3_7" />
<path d="M917.5,313.6l207.9,0l0,39.9l-207.9,0l0,-39.9Z" class="g3_7" />
<path d="M1125.4,313.6l195.3,0l0,39.9l-195.3,0l0,-39.9Z" class="g3_7" />
<path d="M728.3,353.5l189.2,0l0,39.8l-189.2,0l0,-39.8Z" class="g1_7" />
<path d="M728.3,393.3l189.2,0l0,39.9l-189.2,0l0,-39.9Z" class="g3_7" />
<path d="M917.5,393.3l207.9,0l0,39.9l-207.9,0l0,-39.9Z" class="g3_7" />
<path d="M1125.4,393.3l195.3,0l0,39.9l-195.3,0l0,-39.9Z" class="g3_7" />
<path d="M728.3,153.5l0,280.4" class="g4_7" />
<path d="M917.5,153.5l0,280.4" class="g4_7" />
<path d="M1125.4,153.5l0,280.4" class="g4_7" />
<path d="M1320.7,153.5l0,280.4" class="g4_7" />
<path d="M727.6,154.3l593.9,0" class="g5_7" />
<path d="M727.6,194.1l593.9,0" class="g4_7" />
<path d="M727.6,233.9l593.9,0" class="g4_7" />
<path d="M727.6,273.8l593.9,0" class="g4_7" />
<path d="M727.6,313.6l593.9,0" class="g4_7" />
<path d="M727.6,353.5l593.9,0" class="g4_7" />
<path d="M727.6,393.3l593.9,0" class="g4_7" />
<path d="M727.6,433.2l593.9,0" class="g5_7" />
<text 
x="731" 
y="179" 
dx="0,0,0,0,0,0,0,0.4,0,0,0,0,0,0" 
class="s4_7"
>;°±²I³ 6´µ¶°·¸</text>

<text 
x="920" 
y="179" 
dx="0,0,0,0,0.4,0,0,0.4,0,0,0,0,0,0,0" 
class="s4_7"
>6°¹ °º »²¼²µ°·¼</text>

<text 
x="1128" 
y="179" 
dx="0,0,0.4,0,0,0,0.4,0,0,0.4,0,0,0,0,0,0.4,0,0,0,0" 
class="s4_7"
>½ °¾µ °º µ°µI³ ¿ÀÁÂÃ</text>

<text 
x="731" 
y="219" 
dx="0,0,0,0,0,0,0,0" 
class="s5_7"
>1°±²ML.±</text>

<text 
x="920" 
y="219" 
dx="0,0,0" 
class="s6_7"
>±²³</text>

<text 
x="1128" 
y="219" 
dx="0,0,0,0,0" 
class="s6_7"
>±´°µ¶</text>

<text 
x="731" 
y="259" 
dx="0,0,0,0,0,0,0,0" 
class="s5_7"
>D³´Mµ¶¶²</text>

<text 
x="920" 
y="259" 
dx="0,0" 
class="s6_7"
>!µ</text>

<text 
x="1128" 
y="259" 
dx="0,0,0,0,0" 
class="s6_7"
>³´!#¶</text>

<text 
x="731" 
y="299" 
dx="0,0,0,0,0,0,0" 
class="s5_7"
>·¸°¹¹Mº</text>

<text 
x="920" 
y="299" 
dx="0" 
class="s6_7"
>"</text>

<text 
x="1128" 
y="299" 
dx="0,0,0,0,0" 
class="s6_7"
>³´³#¶</text>

<text 
x="731" 
y="339" 
dx="0,0,0,0,0,0,0,0,0" 
class="s5_7"
>»¼³½½L¶¶º</text>

<text 
x="920" 
y="339" 
dx="0" 
class="s6_7"
>µ</text>

<text 
x="1128" 
y="339" 
dx="0,0,0,0,0" 
class="s6_7"
>³´³µ¶</text>

<text 
x="731" 
y="378" 
dx="0,0,0,0,0,0,0" 
class="s5_7"
>¾¶¿·¿µM</text>

<text 
x="920" 
y="378" 
dx="0" 
class="s6_7"
>³</text>

<text 
x="1128" 
y="378" 
dx="0,0" 
class="s6_7"
>³¶</text>

<text 
x="731" 
y="418" 
dx="0,0,0,0,0,0,0" 
class="s5_7"
>»¶¶O¼M)</text>

<text 
x="920" 
y="418" 
dx="0" 
class="s6_7"
>³</text>

<text 
x="1128" 
y="418" 
dx="0,0" 
class="s6_7"
>³¶</text>

<path fill-rule="evenodd" d="M74.7,41.9l1038.6,0l0,59.7l-1038.6,0Z" class="g2_7" />
<text 
x="74" 
y="94" 
dx="0,0,0,-1.3,0,0,0,0,0,0,0,0,0,-1.3,0,0,0,0,0,0,0,0,0,0,0,-1.3,0,0,0,0,0,0,0,0,-1.3,0,0,0,0,-1.3" 
class="s7_7"
>2. ¶udien´es ¶´quisition ²verview part 2</text>



<!-- Any embedded fonts defined here -->
<style type="text/css" ><![CDATA[

@font-face {
	font-family: ArialMT_68;
	src: url("fonts/ArialMT_68.woff") format("woff");
}

@font-face {
	font-family: Arial-BoldMT_6k;
	src: url("fonts/Arial-BoldMT_6k.woff") format("woff");
}

@font-face {
	font-family: Calibri_64;
	src: url("fonts/Calibri_64.woff") format("woff");
}

@font-face {
	font-family: Calibri-Bold_6g;
	src: url("fonts/Calibri-Bold_6g.woff") format("woff");
}

@font-face {
	font-family: HelveticaNeue_6o;
	src: url("fonts/HelveticaNeue_6o.woff") format("woff");
}

]]></style>

</svg>
