<?xml version="1.0" encoding="UTF-8" standalone="no"?>
<!DOCTYPE svg PUBLIC "-//W3C//DTD SVG 1.1//EN"
"http://www.w3.org/Graphics/SVG/1.1/DTD/svg11.dtd">


<!-- Page 1 -->
<svg x="0" y="0" width="1100" height="618" viewBox="0 0 1100 618" version="1.1" xmlns="http://www.w3.org/2000/svg" xmlns:xlink="http://www.w3.org/1999/xlink"
style="display: block;margin-left: auto;margin-right: auto;">
<defs>

<style type="text/css"><![CDATA[

.g1_1{
fill: #F46524;
}
.g2_1{
fill-opacity: 0;
}
.g3_1{
fill: none;
stroke: #FFFFFF;
stroke-width: 4.5635333;
stroke-linecap: butt;
stroke-linejoin: round;
stroke-miterlimit: 14;
}
.g4_1{
fill: none;
stroke: #FFFFFF;
stroke-width: 2.2817667;
stroke-linecap: butt;
stroke-linejoin: round;
stroke-miterlimit: 14;
}

.s1_1{
font-size: 79.10px;
font-family: ArialMT_5f;
fill: #FFFFFF;
}
.s2_1{
font-size: 27.38px;
font-family: ArialMT_5f;
fill: #FFFFFF;
}

]]></style>

</defs>
<path d="M0,0
L0,618
L1100,618
L1100,0 Z " 
fill="#FFFFFF" stroke="none" />
<path fill-rule="evenodd" d="M0,0L1095.2,0l0,616.1L0,616.1Z" class="g1_1" />
<path fill-rule="evenodd" d="M296.8,49.8l747.9,0Z" class="g2_1" />
<path d="M296.8,49.8l747.9,0" class="g3_1" />
<path fill-rule="evenodd" d="M296.8,567.7l747.9,0Z" class="g2_1" />
<path d="M296.8,567.7l747.9,0" class="g4_1" />
<path fill-rule="evenodd" d="M50.9,49.8l22,0Z" class="g2_1" />
<path d="M50.9,49.8l22,0" class="g4_1" />
<path fill-rule="evenodd" d="M284.1,66.4l795.1,0l0,321.5l-795.1,0Z" class="g2_1" />
<text 
x="294" 
y="161" 
dx="0,0,0,0,0,2.1,0,0,0,0" 
class="s1_1"
>(ase 8tudy</text>

<text 
x="294" 
y="255" 
dx="0,0,0,0,0,0,0,2.1,0,0,0,0,0,0,0,2.1,0,0" 
class="s1_1"
>)esign 5rocess and</text>

<text 
x="294" 
y="350" 
dx="0,0,0,0,0,0,0,0,0,0,0,0,0,0,2.1,0,0,0,0,0,0,0" 
class="s1_1"
>collaboration solution</text>

<path fill-rule="evenodd" d="M300.4,498.8l758.4,0l0,69.5l-758.4,0Z" class="g2_1" />
<text 
x="310" 
y="535" 
dx="0,0,0,0,0,0,0.7,0,0,0,0,0.7,0,0,0" 
class="s2_1"
>9onia (hen ±²³°</text>



<!-- Any embedded fonts defined here -->
<style type="text/css" ><![CDATA[

@font-face {
	font-family: ArialMT_5f;
	src: url("fonts/ArialMT_5f.woff") format("woff");
}

]]></style>

</svg>
