<?xml version="1.0" encoding="UTF-8" standalone="no"?>
<!DOCTYPE svg PUBLIC "-//W3C//DTD SVG 1.1//EN"
"http://www.w3.org/Graphics/SVG/1.1/DTD/svg11.dtd">


<!-- Page 13 -->
<svg x="0" y="0" width="1100" height="618" viewBox="0 0 1100 618" version="1.1" xmlns="http://www.w3.org/2000/svg" xmlns:xlink="http://www.w3.org/1999/xlink"
style="display: block;margin-left: auto;margin-right: auto;">
<defs>

<style type="text/css"><![CDATA[

.g1_13{
fill: #FFFFFF;
}
.g2_13{
fill-opacity: 0;
}
.g3_13{
fill: #222222;
}

.s1_13{
font-size: 42.59px;
font-family: ArialMT_5f;
fill: #F46524;
}
.s2_13{
font-size: 18.25px;
font-family: ArialMT_5f;
fill: #000000;
}
.s3_13{
font-size: 18.25px;
font-family: Arial-BoldMT_5r;
fill: #222222;
}
.s4_13{
font-size: 18.25px;
font-family: ArialMT_5f;
fill: #222222;
}

]]></style>

</defs>
<path d="M0,0
L0,618
L1100,618
L1100,0 Z " 
fill="#FFFFFF" stroke="none" />
<path fill-rule="evenodd" d="M0,0L1095.2,0l0,616.1L0,616.1Z" class="g1_13" />
<path fill-rule="evenodd" d="M37.3,10.8l1020.6,0l0,583.9l-1020.6,0Z" class="g2_13" />
<text 
x="47" 
y="61" 
dx="0,0,0,0,1.2,0,0,0,0,0,1.1,0,0,0,0,1.1,0,0,0,0,0,0,0,0,1.2,0,0,1.2,0,0,0,1.2,0,0,0,0,1.2,0,0,0,0,0,0,0" 
class="s1_13"
>9wo teams work together in the same pipeline</text>

<text 
x="47" 
y="89" 
dx="0,0,0,0.5,0,0,0,0,0,0,0,0.5,0,0,0.5,0,0,0,0.5,0,0,0,0,0,0,0,0.5,0,0,0,0,0,0,0,0,0,0.5,0,0,0,0.5,0,0,0,0,0,0,0,0,0,-0.7,0,0,0,0,0.5,0,0,0,0,0,0,0,0,0,0,0.5,0,0,0,0,0,0,0.5,0,0,0,0.5,0,0,0,0,0,0,0,0.5,0,0,0,0,0,0,0.5,0,0,0,0.5,0,0,0,0,0,0.5,0,0,0,0.5,0,0,0,0,0,0.5,0,0" 
class="s2_13"
>.t matters of how company structure the business¶ 'oth .nnovation )esign and 5roduct )esign has their own value and</text>

<text 
x="47" 
y="111" 
dx="0,0,0,0,0,0,0,0,0,0,0,0,0.5,0,0,0.5,0,0,0,0,0,0,0,0,0,0,0,0.5,0,0,0,0,0.5,0,0,0,0,0,0,0,0,0,0,0.5,0,0,0,0.5,0,0,0.5,0,0,0,0,0.5,0,0,0,0,0.5,0,0,0,0,0,0,0,0,0,0,0.5,0,0,0,0.5,0,0,0,0,0,0,0,0,0,0.5,0,0,0,0,0,0,0,-0.6,0,0,0,0,0.5,0,0.5,0,0,0,0,0,0,0,0.5,0,0,0,0.5,0,0,0,0,0,0,0,0" 
class="s2_13"
>contributeµ we essentially need production and we also need innovation for long´term vision¶ 9hus . comeout the following</text>

<text 
x="47" 
y="133" 
dx="0,0,0,0,0" 
class="s2_13"
>plan#</text>

<path d="M47.6,159.1l208.9,0l0,21.9L47.6,181l0,-21.9Z" class="g1_13" />
<text 
x="47" 
y="176" 
dx="0,0,0,0,0,0,0,0,0,0,0,0,0,0.5,0,0,0,0,0,0,0.5,0,0,0" 
class="s3_13"
>¸²·QQRYFWLRQ °HVLJQ ³·°¶</text>

<path d="M102.4,184.2l386.5,0l0,21.9l-386.5,0l0,-21.9Z" class="g1_13" />
<text 
x="68" 
y="201" 
dx="0" 
class="s4_13"
>´</text>

<text 
x="102" 
y="201" 
dx="0,0,0,0,0,0,0.5,0,0,0.5,0,0,0,0,0,0,0,0,0.5,0,0,0,0.5,0,0,0,0,0,0,0,0,0,0,0.5,0,0,0,0,0,0,0,0,0,0,0" 
class="s4_13"
>+ocus on creative and innovative designs¸54(¹</text>

<path d="M102.4,209.3l308.5,0l0,21.9l-308.5,0l0,-21.9Z" class="g1_13" />
<text 
x="68" 
y="226" 
dx="0" 
class="s4_13"
>´</text>

<text 
x="102" 
y="226" 
dx="0,0,0,0,0,0,0,0,0,0,0.5,0,0,0,0,0,0,0.5,0,0,0,0.5,0,0,0,0,0,0,0,0.5,0,0,0,0,0,0" 
class="s4_13"
>2arketing design and general designs</text>

<path d="M102.4,234.4l920.2,0l0,21.9l-920.2,0l0,-21.9Z" class="g1_13" />
<text 
x="68" 
y="251" 
dx="0" 
class="s4_13"
>´</text>

<text 
x="102" 
y="251" 
dx="0,0,0,0,0,0.5,0,0,0,0,0.5,0,0,0,0,0,0,0.5,0,0,0,0,0,0,0,0,0,0,0,0,0.5,0,0,0,0,0,0,0,0,0.5,0,0,0.5,0,0,0,0.5,0,0,0,0,0,0,0,0,0,0.5,0,0,0,0,0,0,0,0,0,0,0,0,0,0,0,0.5,0,0,0,0,0,0,0,0,0,0,0.5,0,0,0,0.5,0,0,0,0,0,0,0,0,0,0,0,0,0,0.5,0,0,0,0,0,0.5,0" 
class="s4_13"
>9ake 7)’s design requirementµ detailed :. and wireframe implementationµ adjustment and modifications based on</text>

<path d="M102.4,259.5l164.4,0l0,21.9l-164.4,0l0,-21.9Z" class="g1_13" />
<text 
x="102" 
y="277" 
dx="0,0,0,0,0,0,0,0,0,0,0,0,0.5,0,0,0,0,0" 
class="s4_13"
>development needs¶</text>

<path d="M47.6,334.8l187.6,0l0,21.9l-187.6,0l0,-21.9Z" class="g1_13" />
<text 
x="47" 
y="352" 
dx="0,0,0,0,0,0,0,0,0,0,0.5,0,0,0,0,0,0,0,0,0" 
class="s3_13"
>¹²5URiXhW °HVLJQ³5°¶</text>

<path d="M102.4,359.9l893.9,0l0,21.9l-893.9,0l0,-21.9Z" class="g1_13" />
<text 
x="68" 
y="377" 
dx="0" 
class="s4_13"
>´</text>

<text 
x="102" 
y="377" 
dx="0,0,0,0,0,0,0.5,0,0,0,0,0.5,0,0,0,0,0,0,0.5,0,0,0,0.5,0,0,0,0,0.5,0,0,0.5,0,0,0,0,0.5,0,0,0,0,0,0.5,0,0,0,0,0,0,0,0.5,0,0,0,0,0.5,0,0,0,0.5,0,0,0,0,0,0,0,0.5,0,0,0.5,0,0,0,0,0,0,0,0.5,0,0,0.5,0,0,0,0,0.5,0,0,0,0.5,0,0,0,0.5,0,0,0,0,0,0,0,0,0.5,0,0,0,0,0,0,0,0" 
class="s4_13"
>(arry both design and tech in high level impactµ find the balance in between to come out the workable solution¶</text>

<path d="M102.4,385l931.5,0l0,21.9l-931.5,0l0,-21.9Z" class="g1_13" />
<text 
x="68" 
y="402" 
dx="0" 
class="s4_13"
>´</text>

<text 
x="102" 
y="402" 
dx="0,0,0,0,0,0,0,0,0,0.5,0,0,0,0,0,0,0,0,0,0,0.5,0,0,0,0,0,0,0.5,0,0,0,0,0,0,0,0,0,0.5,0,0,0,0,0.5,0,0,0,0.5,0,0,0.5,0,0,0,0,0.5,0,0,0.5,0,0,0,0,0,0,0,0,0,0.5,0,0,0,0,0.5,0,0,0.5,0,0,0,0,0,0,0,0,0,0.5,0,0,0,0,0,0,0,0.5,0,0,0,0,0,0,0,0,0,0,0,0,0,0,0,0.5,0,0,0,0,0,0" 
class="s4_13"
>;alidate innovation design solutionµ sign off to push to developer what is workableµ backlog non´functioning designs</text>

<path d="M773.1,404l260.8,0l0,1.1l-260.8,0l0,-1.1Z" class="g3_13" />
<path d="M102.4,410.1l428.1,0l0,21.9l-428.1,0l0,-21.9Z" class="g1_13" />
<text 
x="102" 
y="427" 
dx="0,0,0,0,0.5,0,0,0,0,0,0,0.5,0,0,0,0,0,0,0,0,0.5,0,0,0,0.5,0,0,0,0,0,0,0,0,0.5,0,0,0.5,0,0,0,0.5,0,0,0.5,0,0,0,0,0.5,0,0,0.5,0,0,0" 
class="s4_13"
>for future research and analysis of how to work it out¶</text>

<path d="M102.4,429.1l428.1,0l0,1.1l-428.1,0l0,-1.1Z" class="g3_13" />
<path d="M102.4,435.2l236.4,0l0,21.9l-236.4,0l0,-21.9Z" class="g1_13" />
<text 
x="68" 
y="452" 
dx="0" 
class="s4_13"
>´</text>

<text 
x="102" 
y="452" 
dx="0,0,0,0,0.5,0,0,0.5,0,0,0,0.5,0,0,0,0,0,0,0,0,0,0,0.5,0,0,0,0,0,0" 
class="s4_13"
>)ay to day production duties¶</text>

<path d="M47.6,485.4l191.7,0l0,21.9l-191.7,0l0,-21.9Z" class="g1_13" />
<text 
x="47" 
y="502" 
dx="0,0,0,0.5,0,0,0,0,0,0,0.5,0,0,0,0,0,0.5,0,0,0,0" 
class="s3_13"
>º² °HVLJQ IRhXV JURXS</text>

<path d="M47.6,510.5l114.7,0l0,21.9l-114.7,0l0,-21.9Z" class="g1_13" />
<text 
x="47" 
y="528" 
dx="0,0,0,0,0,0.5,0,0,0,0,0,0,0,0,0" 
class="s4_13"
>&gt;&amp;ll designers@</text>

<path d="M47.6,535.6l974,0l0,21.9l-974,0l0,-21.9Z" class="g1_13" />
<text 
x="47" 
y="553" 
dx="0,0,0,0,0,0,0,0,0,0,0.5,0,0,0,0,0,0.5,0,0.5,0,0,0,0,0,0.5,0,0,0.5,0,0,0,0,0,0,0,0.5,0,0.5,0,0,0,0,0,0.5,0,0,0,0,0,0,0.5,0,0,0,0,0,0,0.5,0,0,0.5,0,0,0,0,0,0,0,0.5,0,0,0,0.5,0,0,0,0,0,0,0,0.5,0,0,0,0,0,0,0,0,0,0,0.5,0,0,0,0,0,0.5,0,0,0,0,0,0,0.5,0,0,0,0,0,0,0,0.5,0,0" 
class="s4_13"
>7egularly every ± weeks to conduct a quick design meetup to discuss and resolve backlogged :.»:= issue¶ )iscuss new</text>

<path d="M47.6,560.7l374.4,0l0,21.9l-374.4,0l0,-21.9Z" class="g1_13" />
<text 
x="47" 
y="578" 
dx="0,0,0,0,0,0,0.5,0,0,0,0.5,0,0,0,0.5,0,0,0,0,0,0,0,0,0,0.5,0,0,0,0,0.5,0,0,0,0,0.5,0,0,0,0,0,0,0.5,0,0,0,0,0" 
class="s4_13"
>ideas and new solutions with both sides’ input¶</text>



<!-- Any embedded fonts defined here -->
<style type="text/css" ><![CDATA[

@font-face {
	font-family: ArialMT_5f;
	src: url("fonts/ArialMT_5f.woff") format("woff");
}

@font-face {
	font-family: Arial-BoldMT_5r;
	src: url("fonts/Arial-BoldMT_5r.woff") format("woff");
}

]]></style>

</svg>
