<?xml version="1.0" encoding="UTF-8" standalone="no"?>
<!DOCTYPE svg PUBLIC "-//W3C//DTD SVG 1.1//EN"
"http://www.w3.org/Graphics/SVG/1.1/DTD/svg11.dtd">


<!-- Page 29 -->
<svg x="0" y="0" width="1100" height="618" viewBox="0 0 1100 618" version="1.1" xmlns="http://www.w3.org/2000/svg" xmlns:xlink="http://www.w3.org/1999/xlink"
style="display: block;margin-left: auto;margin-right: auto;">
<defs>

<style type="text/css"><![CDATA[

.g1_29{
fill: #FFFFFF;
}
.g2_29{
fill: #51B9A3;
}
.g3_29{
fill-opacity: 0;
}
.g4_29{
fill: none;
stroke: #000000;
stroke-width: 1.1408833;
stroke-linecap: butt;
stroke-linejoin: round;
stroke-miterlimit: 14;
}
.g5_29{
stroke: #000000;
stroke-width: 1.1408833;
stroke-linecap: butt;
stroke-linejoin: miter;
stroke-miterlimit: 11;
}
.g6_29{
fill: #FFAE88;
}

.s1_29{
font-size: 13.69px;
font-family: ArialMT_5f;
fill: #FFFFFF;
}
.s2_29{
font-size: 21.30px;
font-family: ArialMT_5f;
fill: #000000;
}
.s3_29{
font-size: 21.30px;
font-family: ArialMT_5f;
fill: #F46524;
}
.s4_29{
font-size: 15.21px;
font-family: ArialMT_5f;
fill: #000000;
}
.s5_29{
font-size: 45.64px;
font-family: Raleway-Bold_5j;
fill: #000000;
}

]]></style>

</defs>
<path d="M0,0
L0,618
L1100,618
L1100,0 Z " 
fill="#FFFFFF" stroke="none" />
<path fill-rule="evenodd" d="M0,0L1095.2,0l0,616.1L0,616.1Z" class="g1_29" />
<path fill-rule="evenodd" d="M54.6,209.4l146.9,0l0,82.2l-146.9,0Z" class="g2_29" />
<text 
x="64" 
y="255" 
dx="0,0,0,0,0.4,0,0,0.4,0,0,0,0,0.4,0,0,0,0,0" 
class="s1_29"
>,et to know client</text>

<path fill-rule="evenodd" d="M219.7,209.4l96.7,0l0,82.2l-96.7,0Z" class="g2_29" />
<text 
x="230" 
y="255" 
dx="0,0,0,0,0,0,0,0" 
class="s1_29"
>&lt;orkshop</text>

<path fill-rule="evenodd" d="M334.7,209.4l112.6,0l0,82.2l-112.6,0Z" class="g2_29" />
<text 
x="344" 
y="247" 
dx="0,0,0,0,0,0,0,0.4,0,0,0,0" 
class="s1_29"
>(lient needs</text>

<text 
x="344" 
y="263" 
dx="0,0,0,0,0,0,0,0,0" 
class="s1_29"
>gathering</text>

<path fill-rule="evenodd" d="M50.5,154.2l208.7,0l0,37.8L50.5,192Z" class="g3_29" />
<text 
x="60" 
y="184" 
dx="0,0,0,0,0,0,0,0,0,0,0.6,0,0,0,0,0,0" 
class="s2_29"
>5re´sales process</text>

<path fill-rule="evenodd" d="M465.5,209.4l147,0l0,82.2l-147,0Z" class="g2_29" />
<text 
x="475" 
y="247" 
dx="0,0,0,0,0,0,0,0,0.4,0,0,0,0,0,0,0" 
class="s1_29"
>+urther detailed</text>

<text 
x="475" 
y="263" 
dx="0,0,0,0,0,0,0,0,0,0,0,0,0" 
class="s1_29"
>understanding</text>

<path fill-rule="evenodd" d="M54.6,197.1l555.7,0Z" class="g3_29" />
<path d="M54.6,197.1l547.1,0" class="g4_29" />
<path fill-rule="evenodd" d="M601.7,199.6l6.9,-2.5l-6.9,-2.5Z" class="g5_29" />
<path fill-rule="evenodd" d="M657.8,209.4l147,0l0,82.2l-147,0Z" class="g2_29" />
<text 
x="668" 
y="255" 
dx="0,0,0,0,0,0,0,0,0,0.4,0,0,0,0" 
class="s1_29"
>(ontract 8tage</text>

<path fill-rule="evenodd" d="M819.4,209.4l155.5,0l0,82.2l-155.5,0Z" class="g2_29" />
<text 
x="829" 
y="247" 
dx="0,0,0,0,0.4,0,0,0,0,0,0,0,0.4,0,0,0,0.4,0,0,0" 
class="s1_29"
>+8) prepare and sign</text>

<text 
x="829" 
y="263" 
dx="0,0,0" 
class="s1_29"
>off</text>

<path fill-rule="evenodd" d="M991.8,209.4l88.3,0l0,82.2l-88.3,0Z" class="g2_29" />
<text 
x="1002" 
y="255" 
dx="0,0,0,0,0,0,0,0,0,0" 
class="s1_29"
>5roduction</text>

<path fill-rule="evenodd" d="M652.8,154.2l208.7,0l0,37.8l-208.7,0Z" class="g3_29" />
<text 
x="663" 
y="184" 
dx="0,0,0,0,0,0,0.6,0,0,0,0,0,0" 
class="s2_29"
>8ales process</text>

<path fill-rule="evenodd" d="M656.9,197.1l422.5,3.6Z" class="g3_29" />
<path d="M656.9,197.1l414,3.5" class="g4_29" />
<path fill-rule="evenodd" d="M1070.9,203.1l6.9,-2.4l-6.9,-2.6Z" class="g5_29" />
<path fill-rule="evenodd" d="M452.9,330.8l590.6,0l0,247.3l-590.6,0Z" class="g3_29" />
<text 
x="463" 
y="361" 
dx="0,0,0,0,0,0,0,0,0,0,0,0" 
class="s3_29"
>*ngagements#</text>

<text 
x="477" 
y="396" 
dx="0,0" 
class="s4_29"
>³¶</text>

<text 
x="517" 
y="396" 
dx="0,0,0,0,0.4,0,0,0,0,0.4,0,0,0,0,0,0,0,0,0,0,0.4,0,0,0,0,0.4,0,0,0.4,0,0,0,0.4,0,0,0,0,0,0,0,0.4,0,0,0,0.4,0,0,0,0,0.4,0,0,0,0,0,0.4,0,0,0,0,0.4,0,0,0,0,0,0,0,0,0" 
class="s4_29"
>³st user interview# -elp to get engaged for high level user interviewµ</text>

<text 
x="517" 
y="415" 
dx="0,0,0,0,0,0,0,0,0,0,0,0.4,0,0,0,0,0,0,0.4,0,0,0,0,0,0,0,0,0,0,0,0.4,0,0,0.4,0,0,0,0,0,0.4,0,0,0.4,0,0,0,0,0,0.4,0,0,0,0,0" 
class="s4_29"
>understand user’s expectation in terms of :.»:= design</text>

<text 
x="517" 
y="433" 
dx="0,0,0,0,0,0,0,0,0,0,0,0.4,0,0,0,0,0.4,0,0,0,0,0,0,0,0,0,0,0.4,0,0,0.4,0,0,0,0,0,0.4,0,0,0,0,0,0,0.4,0,0,0,0,0.4,0,0,0,0,0,0.4,0,0,0,0.4,0,0,0,0,0,0,0,0,0,0,0,0" 
class="s4_29"
>:nderstand user behaviours in daily worksµ user needs and expectations¶</text>

<text 
x="517" 
y="469" 
dx="0,0,0,0,0,0.4,0,0,0,0,0,0,0,0,0.4,0,0,0,0,0.4,0,0,0,0.4,0,0,0,0,0,0,0.4,0,0,0,0,0,0" 
class="s4_29"
>3ext actions# (ome out design concept</text>

<text 
x="477" 
y="506" 
dx="0,0" 
class="s4_29"
>±¶</text>

<text 
x="517" 
y="506" 
dx="0,0,0,0,0.4,0,0,0,0,0.4,0,0,0,0,0,0,0,0,0,0,0.4,0,0,0,0,0,0,0,0,0.4,0,0,0,0,0,0.4,0,0,0,0,0,0,0,0.4,0,0,0,0,0,0,0,0,0,0,0,0.4,0,0,0,0,0,0,0,0,0,0,0.4,0,0,0,0,0" 
class="s4_29"
>±nd user interview# )etailed :.»:= feature capability¶ +oreseeing design</text>

<text 
x="517" 
y="524" 
dx="0,0,0,0,0,0,0,0.4,0,0,0,0,0,0,0,0,0,0,0,0,0,0,0,0,0,0.4,0,0,0,0,0,0.4,0,0,0,0,0.4,0,0,0,0" 
class="s4_29"
>sprint timeline¶)etailed needs from user¶</text>

<text 
x="522" 
y="561" 
dx="0,0,0,0,0,0.4,0,0,0,0,0,0,0,0,0.4,0,0,0,0,0,0,0,0.4,0,0,0,0.4,0,0,0,0,0,0,0.4,0,0,0,0,0,0,0,0,0.4,0,0,0,0.4,0,0,0,0,0,0,0,0,0,0,0,0.4,0,0,0,0,0,0,0,0" 
class="s4_29"
>3ext actions# standby for design grooming and development grooming¶</text>

<path fill-rule="evenodd" d="M579.7,228.4l0,0c0,-10.5,8.5,-19,18.9,-19c5.1,0,9.9,2,13.4,5.6c3.6,3.5,5.6,8.3,5.6,13.4c0,10.4,-8.5,18.9,-19,18.9c-10.4,0,-18.9,-8.5,-18.9,-18.9Z" class="g6_29" />
<text 
x="595" 
y="236" 
dx="0" 
class="s2_29"
>³</text>

<path fill-rule="evenodd" d="M945.7,224.8l0,0c0,-10.5,8.4,-18.9,18.9,-18.9c5,0,9.8,2,13.3,5.5c3.6,3.6,5.6,8.4,5.6,13.4c0,10.4,-8.5,18.9,-18.9,18.9c-10.5,0,-18.9,-8.5,-18.9,-18.9Z" class="g6_29" />
<text 
x="961" 
y="232" 
dx="0" 
class="s2_29"
>±</text>

<path fill-rule="evenodd" d="M54.6,346.1l312.5,0l0,234.4l-312.5,0Z" class="g3_29" />
<image preserveAspectRatio="none" x="55" y="346" width="312" height="234" xlink:href="29/img/1.png" />
<path fill-rule="evenodd" d="M36.3,49.3l761.7,0l0,76.6l-761.7,0Z" class="g3_29" />
<text 
x="46" 
y="103" 
dx="0,0,0,0,0,0,0,0,0,0,-0.5,0,0,0,0,-0.5,0,0,0,0,0,-0.5,0,0,0" 
class="s5_29"
>Interview with ±ales Team</text>



<!-- Any embedded fonts defined here -->
<style type="text/css" ><![CDATA[

@font-face {
	font-family: ArialMT_5f;
	src: url("fonts/ArialMT_5f.woff") format("woff");
}

@font-face {
	font-family: Raleway-Bold_5j;
	src: url("fonts/Raleway-Bold_5j.woff") format("woff");
}

]]></style>

</svg>
