<?xml version="1.0" encoding="UTF-8" standalone="no"?>
<!DOCTYPE svg PUBLIC "-//W3C//DTD SVG 1.1//EN"
"http://www.w3.org/Graphics/SVG/1.1/DTD/svg11.dtd">


<!-- Page 3 -->
<svg x="0" y="0" width="1100" height="618" viewBox="0 0 1100 618" version="1.1" xmlns="http://www.w3.org/2000/svg" xmlns:xlink="http://www.w3.org/1999/xlink"
style="display: block;margin-left: auto;margin-right: auto;">
<defs>
<clipPath id="c0_3"><path d="M0,616.1L0,0L1095.2,0l0,616.1Z" /></clipPath>

<style type="text/css"><![CDATA[

.g1_3{
fill: #FFFFFF;
}
.g2_3{
fill: #F46524;
}
.g3_3{
fill-opacity: 0;
}
.g4_3{
fill: none;
stroke: #FFFFFF;
stroke-width: 2.2817667;
stroke-linecap: butt;
stroke-linejoin: round;
stroke-miterlimit: 14;
}

.s1_3{
font-size: 54.76px;
font-family: Raleway-Bold_5j;
fill: #F46524;
}
.s2_3{
font-size: 21.30px;
font-family: ArialMT_5f;
fill: #FFFFFF;
}

]]></style>

</defs>
<path d="M0,0
L0,618
L1100,618
L1100,0 Z " 
fill="#FFFFFF" stroke="none" />
<path fill-rule="evenodd" d="M0,0L1095.2,0l0,616.1L0,616.1Z" class="g1_3" />
<g clip-path="url(#c0_3)">
<path fill-rule="evenodd" d="M547.6,0l547.6,0l0,616.1l-547.6,0Z" class="g2_3" />
</g>
<path fill-rule="evenodd" d="M602.4,538.5l56.1,0Z" class="g3_3" />
<path d="M602.4,538.5l56.1,0" class="g4_3" />
<path fill-rule="evenodd" d="M31.8,167.4l484.5,0l0,157.9l-484.5,0Z" class="g3_3" />
<text 
x="113" 
y="301" 
dx="0,0,0,0,0,0,0,0,0,0" 
class="s1_3"
>Background</text>

<path fill-rule="evenodd" d="M591.6,39.7l476.5,0l0,536l-476.5,0Z" class="g3_3" />
<text 
x="601" 
y="227" 
dx="0,0,0,0,0.6,0,0.6,0,0,0,0,0,0,0.6,0,0,0,0.6,0,0,0,0,0,0,0,0.6,0,0,0,0.6,0,0,0,0,0,0,0,0,0,0,0,0,0.6,0" 
class="s2_3"
>+or a whileµ the company was experiencing an</text>

<text 
x="601" 
y="256" 
dx="0,0,0,0,0,0,0,0,0.6,0,0,0,0,0,0,0.6,0,0,0,0,0,0,0,0,0,0,0,0,0,0.6,0,0,0,0,0,0,0,0.6,0,0,0,0" 
class="s2_3"
>unclear design collaboration process which</text>

<text 
x="601" 
y="286" 
dx="0,0,0,0,0,0,0,0.6,0,0,0,0,0,0,0,0,0.6,0,0,0,0,0,0,0,0,0,0.6,0,0,0,0.6,0,0,0,0.6,0,0,0,0,0,0,0,0,0,0,0,0" 
class="s2_3"
>caused tensionµ confusion and low productivity¶</text>

<text 
x="601" 
y="316" 
dx="0,0,0.6,0,0,0,0.6,0,0.6,0,0,0,0,0,0,0,0.6,0,0,0,0,0.6,0,0,0,0,0.6,0,0,0,0,0,0,0,0,0,0.6,0,0,0,0,0,0.6,0,0,0.6,0,0,0" 
class="s2_3"
>. had a offline chat with different teams to come</text>

<text 
x="601" 
y="345" 
dx="0,0,0,0,0.6,0,0,0,0.6,0,0,0,0,0,0,0,0,0,0.6,0,0,0.6,0,0,0,0,0.6,0,0,0.6,0,0,0.6,0,0,0,0,0,0,0,0,0" 
class="s2_3"
>out the solutionµ as part of my management</text>

<text 
x="601" 
y="375" 
dx="0,0,0,0,0,0,0,0,0,0,0,0,0,0,0,0,0" 
class="s2_3"
>responsibilities¶</text>



<!-- Any embedded fonts defined here -->
<style type="text/css" ><![CDATA[

@font-face {
	font-family: ArialMT_5f;
	src: url("fonts/ArialMT_5f.woff") format("woff");
}

@font-face {
	font-family: Raleway-Bold_5j;
	src: url("fonts/Raleway-Bold_5j.woff") format("woff");
}

]]></style>

</svg>
