<?xml version="1.0" encoding="UTF-8" standalone="no"?>
<!DOCTYPE svg PUBLIC "-//W3C//DTD SVG 1.1//EN"
"http://www.w3.org/Graphics/SVG/1.1/DTD/svg11.dtd">


<!-- Page 6 -->
<svg x="0" y="0" width="1100" height="618" viewBox="0 0 1100 618" version="1.1" xmlns="http://www.w3.org/2000/svg" xmlns:xlink="http://www.w3.org/1999/xlink"
style="display: block;margin-left: auto;margin-right: auto;">
<defs>

<style type="text/css"><![CDATA[

.g1_6{
fill: #FFFFFF;
}
.g2_6{
fill: #FFAE88;
}
.g3_6{
fill: none;
stroke: #FB8C00;
stroke-width: 1.1408833;
stroke-linecap: butt;
stroke-linejoin: miter;
stroke-miterlimit: 11;
}
.g4_6{
fill-opacity: 0;
}

.s1_6{
font-size: 18.25px;
font-family: ArialMT_5f;
fill: #000000;
}
.s2_6{
font-size: 15.21px;
font-family: ArialMT_5f;
fill: #000000;
}
.s3_6{
font-size: 15.21px;
font-family: ArialMT_5f;
fill: #222222;
}
.s4_6{
font-size: 45.64px;
font-family: Raleway-Bold_5j;
fill: #F46524;
}

]]></style>

</defs>
<path d="M0,0
L0,618
L1100,618
L1100,0 Z " 
fill="#FFFFFF" stroke="none" />
<path fill-rule="evenodd" d="M0,0L1095.2,0l0,616.1L0,616.1Z" class="g1_6" />
<path d="M27,111.1l145.2,0l0,68.7L27,179.8l0,-68.7Z" class="g2_6" />
<path d="M172.2,111.1l415.4,0l0,68.7l-415.4,0l0,-68.7Z" class="g2_6" />
<path d="M587.6,111.1l484,0l0,68.7l-484,0l0,-68.7Z" class="g2_6" />
<path d="M27,110.5l0,494.1" class="g3_6" />
<path d="M172.2,110.5l0,494.1" class="g3_6" />
<path d="M587.6,110.5l0,494.1" class="g3_6" />
<path d="M1071.6,110.5l0,494.1" class="g3_6" />
<path d="M26.5,111.1l1045.6,0" class="g3_6" />
<path d="M26.5,179.8l1045.6,0" class="g3_6" />
<path d="M26.5,409.3l1045.6,0" class="g3_6" />
<path d="M26.5,604l1045.6,0" class="g3_6" />
<text 
x="37" 
y="138" 
dx="0,0,0,0,0" 
class="s1_6"
>9eams</text>

<text 
x="182" 
y="138" 
dx="0,0,0,0,0,0,0,0,0,0,0,0.5,0,0,0,0,0" 
class="s1_6"
>.nnovation )esign</text>

<text 
x="597" 
y="138" 
dx="0,0,0,0,0,0,0,0,0.5,0,0,0,0,0" 
class="s1_6"
>5roduct )esign</text>

<text 
x="37" 
y="204" 
dx="0,0,0,0,0,0.4,0,0,0" 
class="s2_6"
>2ain goal</text>

<text 
x="204" 
y="204" 
dx="0" 
class="s2_6"
>´</text>

<text 
x="237" 
y="204" 
dx="0,0,0,0,0,0,0,0.4,0,0,0,0,0,0,0,0,0,0,0.4,0,0,0,0,0,0,0,0.4,0,0,0,0,0.4,0,0,0,0.4,0,0,0" 
class="s2_6"
>(reate innovative designs look and feel</text>

<text 
x="237" 
y="222" 
dx="0,0,0,0,0,0,0,0,0,0,0,0.4,0,0,0,0,0,0,0,0.4,0,0,0,0,0,0,0.4,0,0,0,0,0,0,0,0,0,0,0.4,0,0,0,0,0,0,0,0,0,0" 
class="s2_6"
>regardless current system technology constraints</text>

<text 
x="237" 
y="241" 
dx="0,0,0,0,0.4,0,0,0,0,0,0,0,0,0.4,0,0,0,0,0,0,0,0,0,0,0,0.4,0,0,0,0,0.4,0,0,0,0,0.4,0,0,0,0,0,0" 
class="s2_6"
>and resource limitationµ more like graphic</text>

<text 
x="237" 
y="259" 
dx="0,0,0,0,0,0,0,0,0,0,0,0.4,0,0,0,0,0" 
class="s2_6"
>design»web design</text>

<text 
x="204" 
y="302" 
dx="0" 
class="s2_6"
>´</text>

<text 
x="237" 
y="302" 
dx="0,0,0,0,0.4,0,0.4,0,0,0,0,0.4,0,0,0,0,0,0,0,0,0.4,0,0,0,0,0,0,0,0,0,0,0.4,0,0,0,0.4,0,0,0,0,0,0.4,0,0,0,0,0" 
class="s2_6"
>1ow º high fidelity prototypes for sales pitch¶</text>

<text 
x="204" 
y="346" 
dx="0" 
class="s2_6"
>´</text>

<text 
x="237" 
y="346" 
dx="0,0,0,0,0,0,0,0,0,0,0.4,0,0,0,0,0,0,0,0.4,0,0,0,0,0,0,0,0,0.4,0,0,0,0,0" 
class="s2_6"
>2arketing designµ campaign design</text>

<path d="M652.6,190l374.5,0l0,18.3l-374.5,0l0,-18.3Z" class="g1_6" />
<text 
x="620" 
y="204" 
dx="0" 
class="s3_6"
>´</text>

<text 
x="652" 
y="204" 
dx="0,0,0,0.4,0,0,0,0,0,0,0.4,0,0,0,0,0,0,0,0.4,0,0,0.4,0,0,0,0.4,0,0,0.4,0,0,0,0,0,0,0,0.4,0,0,0,0,0,0.4,0,0,0.4,0,0,0,0,0,0,0" 
class="s3_6"
>9o create product :. and := designs based on creative</text>

<path d="M652.6,208.3l394.8,0l0,18.2l-394.8,0l0,-18.2Z" class="g1_6" />
<text 
x="652" 
y="222" 
dx="0,0,0,0,0,0,0,0.4,0,0,0,0,0,0,0,0,0.4,0,0,0,0.4,0,0,0,0,0,0,0,0,0,0.4,0,0,0,0,0,0,0,0,0,0,0.4,0,0,0,0,0,0,0,0,0.4,0,0,0,0,0" 
class="s3_6"
>design thinking and technical knowledgeµ business domain</text>

<path d="M652.6,226.5l192.7,0l0,18.3l-192.7,0l0,-18.3Z" class="g1_6" />
<text 
x="652" 
y="241" 
dx="0,0,0,0,0,0,0,0,0,0,0,0,0,0,0.4,0,0,0,0,0,0,0,0,0,0,0" 
class="s3_6"
>knowledge¸(+&amp; foundation¹¶</text>

<path d="M652.6,263l386.3,0l0,18.3l-386.3,0l0,-18.3Z" class="g1_6" />
<text 
x="620" 
y="277" 
dx="0" 
class="s3_6"
>´</text>

<text 
x="652" 
y="277" 
dx="0,0,0,0,0,0,0,0,0.4,0,0,0,0,0,0,0,0,0,0,0.4,0,0,0,0,0,0,0.4,0,0,0,0.4,0,0,0,0,0,0,0,0.4,0,0,0,0,0,0,0,0,0,0,0,0.4,0,0,0,0" 
class="s3_6"
>'alance innovation design and current development costµ</text>

<path d="M652.6,281.3l351.6,0l0,18.3l-351.6,0l0,-18.3Z" class="g1_6" />
<text 
x="652" 
y="295" 
dx="0,0,0,0,0,0,0.4,0,0,0,0,0,0,0,0,0,0,0,0,0.4,0,0,0,0.4,0,0,0,0,0.4,0,0,0,0.4,0,0,0,0,0,0,0,0.4,0,0,0,0,0,0,0,0,0" 
class="s3_6"
>merge requirements and come out neutral solutions¶</text>

<path d="M652.6,324.7l333.8,0l0,18.2l-333.8,0l0,-18.2Z" class="g1_6" />
<text 
x="620" 
y="339" 
dx="0" 
class="s3_6"
>´</text>

<text 
x="652" 
y="339" 
dx="0,0,0,0,0,0,0,0,0.4,0,0,0,0,0,0,0,0.4,0,0,0,0,0,0,0,0,0,0,0,0.4,0,0,0,0,0,0,0,0,0.4,0,0,0,0,0.4,0,0,0" 
class="s3_6"
>.mprove product performance ¸5roduct :=¹µ team</text>

<path d="M652.6,342.9l400.6,0l0,18.3l-400.6,0l0,-18.3Z" class="g1_6" />
<text 
x="652" 
y="357" 
dx="0,0,0,0,0,0,0,0,0,0,0,0,0,0,0.4,0,0,0,0.4,0,0,0,0,0,0,0,0,0,0,0,0,0,0.4,0,0,0,0,0,0,0,0.4,0,0,0,0,0,0,0,0,0.4,0,0,0,0,0.4,0,0" 
class="s3_6"
>collaboration and communication ¸8alesµ 5roductµ )evµ 6&amp;µ</text>

<path d="M652.6,361.2l60,0l0,18.2l-60,0l0,-18.2Z" class="g1_6" />
<text 
x="652" 
y="375" 
dx="0,0,0,0,0,0,0,0,0" 
class="s3_6"
>)elivery¹</text>

<text 
x="37" 
y="434" 
dx="0,0,0,0,0,0,0,0,0" 
class="s2_6"
>7esources</text>

<text 
x="204" 
y="434" 
dx="0" 
class="s2_6"
>´</text>

<text 
x="237" 
y="434" 
dx="0,0,0,0,0.4,0,0,0,0,0,0,0,0,0.4,0,0,0,0,0,0,0,0.4,0,0,0,0,0.4,0" 
class="s2_6"
>1ow fidelity mockups from '&amp;</text>

<text 
x="204" 
y="454" 
dx="0" 
class="s2_6"
>´</text>

<text 
x="237" 
y="454" 
dx="0,0,0,0,0,0,0,0,0,0.4,0,0,0,0,0.4,0,0,0,0.4,0,0,0,0,0.4,0,0,0,0,0,0.4,0,0,0,0,0.4,0,0,0,0,0,0" 
class="s2_6"
>(reative look and feel ideas from product</text>

<text 
x="237" 
y="475" 
dx="0,0,0,0,0,0,0,0" 
class="s2_6"
>manager¶</text>

<text 
x="204" 
y="495" 
dx="0" 
class="s2_6"
>´</text>

<text 
x="237" 
y="495" 
dx="0,0,0,0,0,0,0,0,0,0,0.4,0,0,0,0,0,0,0.4,0,0,0,0,0,0,0,0,0,0.4,0,0,0,0,0.4,0" 
class="s2_6"
>5artially )omain knowledge from '&amp;</text>

<text 
x="597" 
y="434" 
dx="0,0,0,0,0,0,0,0,0.4,0,0,0,0,0,0,0,0,0,0.4,0,0,0,0,0.4,0,0,0,0,0.4,0,0,0,0,0.4,0,0,0.4,0,0,0,0,0,0,0,0,0,0.4,0,0,0,0,0,0,0,0.4,0,0,0,0,0.4,0,0,0,0,0,0,0,0" 
class="s2_6"
>5roduct committee with full pack of different experts from different</text>

<text 
x="597" 
y="452" 
dx="0,0,0,0,0,0" 
class="s2_6"
>teams¶</text>

<text 
x="620" 
y="470" 
dx="0" 
class="s2_6"
>´</text>

<text 
x="652" 
y="470" 
dx="0,0,0,0,0,0,0,0,0,0,0,0,0,0.4,0,0,0" 
class="s2_6"
>&amp;rchitecture team</text>

<text 
x="620" 
y="488" 
dx="0" 
class="s2_6"
>´</text>

<text 
x="652" 
y="488" 
dx="0,0,0,0,0,0.4,0,0,0,0,0,0.4,0,0,0" 
class="s2_6"
>)ata model team</text>

<text 
x="620" 
y="507" 
dx="0" 
class="s2_6"
>´</text>

<text 
x="652" 
y="507" 
dx="0,0,0,0,0,0,0,0.4,0,0,0" 
class="s2_6"
>8erver team</text>

<text 
x="620" 
y="525" 
dx="0" 
class="s2_6"
>´</text>

<text 
x="652" 
y="525" 
dx="0,0,0,0.4,0,0,0,0,0,0,0,0,0,0,0,0.4,0,0,0" 
class="s2_6"
>:. development team</text>

<text 
x="620" 
y="543" 
dx="0" 
class="s2_6"
>´</text>

<text 
x="652" 
y="543" 
dx="0,0,0,0,0,0.4,0,0,0,0.4,0,0,0,0" 
class="s2_6"
>'ack end teams</text>

<path fill-rule="evenodd" d="M27,23.3l1020.6,0l0,76.6L27,99.9Z" class="g4_6" />
<text 
x="37" 
y="77" 
dx="0,0,0,0,0,0,0,0" 
class="s4_6"
>Research</text>



<!-- Any embedded fonts defined here -->
<style type="text/css" ><![CDATA[

@font-face {
	font-family: ArialMT_5f;
	src: url("fonts/ArialMT_5f.woff") format("woff");
}

@font-face {
	font-family: Raleway-Bold_5j;
	src: url("fonts/Raleway-Bold_5j.woff") format("woff");
}

]]></style>

</svg>
