<?xml version="1.0" encoding="UTF-8" standalone="no"?>
<!DOCTYPE svg PUBLIC "-//W3C//DTD SVG 1.1//EN"
"http://www.w3.org/Graphics/SVG/1.1/DTD/svg11.dtd">


<!-- Page 9 -->
<svg x="0" y="0" width="1100" height="618" viewBox="0 0 1100 618" version="1.1" xmlns="http://www.w3.org/2000/svg" xmlns:xlink="http://www.w3.org/1999/xlink"
style="display: block;margin-left: auto;margin-right: auto;">
<defs>

<style type="text/css"><![CDATA[

.g1_9{
fill: #FFFFFF;
}
.g2_9{
fill: #FFAE88;
}
.g3_9{
fill: none;
stroke: #FB8C00;
stroke-width: 1.1408833;
stroke-linecap: butt;
stroke-linejoin: miter;
stroke-miterlimit: 11;
}
.g4_9{
fill: #EFEFEF;
}
.g5_9{
fill: #F3F3F3;
}
.g6_9{
fill-opacity: 0;
}

.s1_9{
font-size: 15.21px;
font-family: ArialMT_5f;
fill: #000000;
}
.s2_9{
font-size: 15.21px;
font-family: Arial-BoldMT_5r;
fill: #000000;
}
.s3_9{
font-size: 15.21px;
font-family: ArialMT_5f;
fill: #F46524;
}
.s4_9{
font-size: 45.64px;
font-family: Raleway-Bold_5j;
fill: #F46524;
}

]]></style>

</defs>
<path d="M0,0
L0,618
L1100,618
L1100,0 Z " 
fill="#FFFFFF" stroke="none" />
<path fill-rule="evenodd" d="M0,0L1095.2,0l0,616.1L0,616.1Z" class="g1_9" />
<path d="M114.1,151.7l216.8,0l0,45.7l-216.8,0l0,-45.7Z" class="g2_9" />
<path d="M330.9,151.7l216.7,0l0,45.7l-216.7,0l0,-45.7Z" class="g2_9" />
<path d="M547.6,151.7l216.8,0l0,45.7l-216.8,0l0,-45.7Z" class="g2_9" />
<path d="M764.4,151.7l216.8,0l0,45.7l-216.8,0l0,-45.7Z" class="g2_9" />
<path d="M114.1,151.2l0,397.2" class="g3_9" />
<path d="M330.9,151.2l0,397.2" class="g3_9" />
<path d="M547.6,151.2l0,397.2" class="g3_9" />
<path d="M764.4,151.2l0,397.2" class="g3_9" />
<path d="M981.2,151.2l0,397.2" class="g3_9" />
<path d="M113.5,151.7l868.2,0" class="g3_9" />
<path d="M113.5,197.4l868.2,0" class="g3_9" />
<path d="M113.5,243l868.2,0" class="g3_9" />
<path d="M113.5,288.6l868.2,0" class="g3_9" />
<path d="M113.5,334.3l868.2,0" class="g3_9" />
<path d="M113.5,379.9l868.2,0" class="g3_9" />
<path d="M113.5,547.8l868.2,0" class="g3_9" />
<text 
x="341" 
y="176" 
dx="0,0,0,0,0,0,0,0,0,0" 
class="s1_9"
>(onsulting</text>

<text 
x="557" 
y="176" 
dx="0,0,0,0,0,0,0,0,0,0,0,0" 
class="s1_9"
>&amp;gent»;endor</text>

<text 
x="774" 
y="176" 
dx="0,0,0,0,0,0,0" 
class="s1_9"
>5roduct</text>

<text 
x="124" 
y="222" 
dx="0,0,0,0,0,0" 
class="s1_9"
>)esign</text>

<text 
x="124" 
y="267" 
dx="0,0,0,0,0,0,0,0,0,0" 
class="s1_9"
>9echnology</text>

<text 
x="124" 
y="313" 
dx="0,0,0,0,0,0,0,0.4,0,0,0,0,0,0,0" 
class="s1_9"
>(lient handling</text>

<text 
x="124" 
y="359" 
dx="0,0,0,0,0,0,0,0,0,0,0,0,0" 
class="s1_9"
>(ommunication</text>

<text 
x="341" 
y="404" 
dx="0,0,0,0,0,0,0,0,0,0,0,0.4,0,0,0,0,0.4,0,0,0,0,0,0,0,0.4,0,0,0,0" 
class="s1_9"
>(onsulting firm usually focus</text>

<text 
x="341" 
y="423" 
dx="0,0,0,0.4,0,0,0,0,0.4,0,0,0.4,0,0,0,0,0.4,0,0,0,0,0,0,0,0" 
class="s1_9"
>on lots of user researchµ</text>

<text 
x="341" 
y="441" 
dx="0,0,0,0,0,0.4,0,0,0,0,0,0,0,0,0,0.4,0,0,0,0,0" 
class="s1_9"
>user behaviour design</text>

<text 
x="341" 
y="459" 
dx="0,0,0,0,0,0,0,0,0,0.4,0,0" 
class="s1_9"
>solution for</text>

<text 
x="419" 
y="459" 
dx="0,0,0,0,0.4,0,0,0,0" 
class="s2_9"
>GLJ VhFOH</text>

<text 
x="341" 
y="477" 
dx="0,0,0,0,0,0,0,0" 
class="s2_9"
>SURiXhWV</text>

<text 
x="410" 
y="477" 
dx="0,0,0,0.4,0,0,0,0,0,0.4,0,0,0,0,0,0,0,0" 
class="s1_9"
>on small waterfall</text>

<text 
x="341" 
y="496" 
dx="0,0,0,0,0,0.4,0,0,0,0,0,0,0,0,0,0,0.4,0,0,0" 
class="s1_9"
>line regardless tech</text>

<text 
x="341" 
y="514" 
dx="0,0,0,0,0,0,0,0,0,0,0,0" 
class="s1_9"
>constraints¶</text>

<text 
x="423" 
y="514" 
dx="0,0,0,0,0,0.4,0,0,0,0,0.4,0,0" 
class="s3_9"
>2ore like our</text>

<text 
x="341" 
y="532" 
dx="0,0,0,0,0,0,0,0,0,0,0,0.4,0,0,0,0,0,0,0.4,0,0,0" 
class="s3_9"
>.nnovation design now¶</text>

<text 
x="557" 
y="404" 
dx="0,0,0,0,0,0,0,0,0,0.4,0,0,0,0,0,0,0.4,0,0,0,0,0,0,0,0.4,0,0" 
class="s1_9"
>2id´high design skillsµ the</text>

<text 
x="557" 
y="423" 
dx="0,0,0,0,0,0,0,0,0,0,0.4,0,0,0.4,0,0,0,0,0.4,0,0,0" 
class="s1_9"
>challenge is must have</text>

<text 
x="557" 
y="441" 
dx="0,0,0,0,0,0,0,0.4,0,0,0,0,0,0,0.4,0,0,0,0,0,0,0,0,0.4,0,0,0,0,0" 
class="s1_9"
>strong client handling skill¶</text>

<text 
x="557" 
y="459" 
dx="0,0,0,0,0,0,0,0,0.4,0,0,0,0.4,0,0,0,0.4,0,0,0,0,0,0" 
class="s1_9"
>'ecause you may receive</text>

<text 
x="557" 
y="477" 
dx="0,0,0,0,0,0,0.4,0,0,0,0,0,0,0.4,0,0,0,0,0,0,0,0,0,0,0" 
class="s1_9"
>weird client requirement¶</text>

<text 
x="557" 
y="514" 
dx="0,0,0.4,0,0,0,0,0,0,0.4,0,0,0,0.4,0,0,0,0,0.4,0,0,0,0.4,0,0,0,0,0,0,0,0,0" 
class="s3_9"
>&amp; little bit like our .nnovation</text>

<text 
x="557" 
y="532" 
dx="0,0,0,0,0,0,0,0.4,0,0,0" 
class="s3_9"
>design now¶</text>

<text 
x="774" 
y="404" 
dx="0,0,0,0,0,0.4,0,0,0.4,0,0,0,0,0.4,0,0,0,0,0,0,0,0.4,0,0,0,0,0,0" 
class="s1_9"
>2ust be very product driven¶</text>

<text 
x="774" 
y="423" 
dx="0,0,0,0,0,0.4,0,0,0,0,0,0,0,0,0,0,0,0,0,0.4,0,0,0.4,0,0,0,0" 
class="s1_9"
>+ull consideration of timeµ</text>

<text 
x="774" 
y="441" 
dx="0,0,0,0,0,0,0,0,0,0,0.4,0,0,0,0,0,0,0,0,0,0,0,0,0.4,0,0,0" 
class="s1_9"
>resourceµ constraintsµ etc¶</text>

<text 
x="774" 
y="477" 
dx="0,0,0,0,0,0,0,0,0.4,0,0,0,0,0,0,0.4,0,0" 
class="s3_9"
>5roduct design but</text>

<text 
x="774" 
y="496" 
dx="0,0,0,0,0,0,0,0,0,0.4,0,0,0,0,0.4,0,0,0,0,0" 
class="s3_9"
>somewhat like vendor</text>

<path fill-rule="evenodd" d="M341.9,218l0,0c0,-5.6,4.5,-10.2,10.2,-10.2c2.7,0,5.2,1.1,7.2,3c1.9,1.9,2.9,4.5,2.9,7.2c0,5.6,-4.5,10.2,-10.1,10.2c-5.7,0,-10.2,-4.6,-10.2,-10.2Z" class="g2_9" />
<path fill-rule="evenodd" d="M373.6,218l0,0c0,-5.6,4.5,-10.2,10.2,-10.2c2.7,0,5.3,1.1,7.2,3c1.9,1.9,3,4.5,3,7.2c0,5.6,-4.6,10.2,-10.2,10.2c-5.7,0,-10.2,-4.6,-10.2,-10.2Z" class="g2_9" />
<path fill-rule="evenodd" d="M405.3,218l0,0c0,-5.6,4.5,-10.2,10.2,-10.2c2.7,0,5.3,1.1,7.2,3c1.9,1.9,3,4.5,3,7.2c0,5.6,-4.6,10.2,-10.2,10.2c-5.7,0,-10.2,-4.6,-10.2,-10.2Z" class="g2_9" />
<path fill-rule="evenodd" d="M437,218l0,0c0,-5.6,4.6,-10.2,10.2,-10.2c2.7,0,5.3,1.1,7.2,3c1.9,1.9,3,4.5,3,7.2c0,5.6,-4.6,10.2,-10.2,10.2C441.6,228.2,437,223.6,437,218Z" class="g2_9" />
<path fill-rule="evenodd" d="M468.7,218l0,0c0,-5.6,4.6,-10.2,10.2,-10.2c2.7,0,5.3,1.1,7.2,3c1.9,1.9,3,4.5,3,7.2c0,5.6,-4.6,10.2,-10.2,10.2c-5.6,0,-10.2,-4.6,-10.2,-10.2Z" class="g4_9" />
<path fill-rule="evenodd" d="M557.2,218l0,0c0,-5.6,4.6,-10.2,10.2,-10.2c2.7,0,5.3,1.1,7.2,3c1.9,1.9,3,4.5,3,7.2c0,5.6,-4.5,10.2,-10.2,10.2c-5.6,0,-10.2,-4.6,-10.2,-10.2Z" class="g2_9" />
<path fill-rule="evenodd" d="M588.9,218l0,0c0,-5.6,4.6,-10.2,10.2,-10.2c2.7,0,5.3,1.1,7.2,3c1.9,1.9,3,4.5,3,7.2c0,5.6,-4.5,10.2,-10.2,10.2c-5.6,0,-10.2,-4.6,-10.2,-10.2Z" class="g2_9" />
<path fill-rule="evenodd" d="M620.7,218l0,0c0,-5.6,4.5,-10.2,10.1,-10.2c2.7,0,5.3,1.1,7.2,3c2,1.9,3,4.5,3,7.2c0,5.6,-4.5,10.2,-10.2,10.2c-5.6,0,-10.1,-4.6,-10.1,-10.2Z" class="g2_9" />
<path fill-rule="evenodd" d="M652.4,218l0,0c0,-5.6,4.5,-10.2,10.2,-10.2c2.7,0,5.2,1.1,7.2,3c1.9,1.9,2.9,4.5,2.9,7.2c0,5.6,-4.5,10.2,-10.1,10.2c-5.7,0,-10.2,-4.6,-10.2,-10.2Z" class="g2_9" />
<path fill-rule="evenodd" d="M684.1,218l0,0c0,-5.6,4.5,-10.2,10.2,-10.2c2.7,0,5.3,1.1,7.2,3c1.9,1.9,3,4.5,3,7.2c0,5.6,-4.6,10.2,-10.2,10.2c-5.7,0,-10.2,-4.6,-10.2,-10.2Z" class="g4_9" />
<path fill-rule="evenodd" d="M776.2,218l0,0c0,-5.6,4.6,-10.2,10.2,-10.2c2.7,0,5.3,1.1,7.2,3c1.9,1.9,3,4.5,3,7.2c0,5.6,-4.5,10.2,-10.2,10.2c-5.6,0,-10.2,-4.6,-10.2,-10.2Z" class="g2_9" />
<path fill-rule="evenodd" d="M808,218l0,0c0,-5.6,4.5,-10.2,10.1,-10.2c2.7,0,5.3,1.1,7.2,3c2,1.9,3,4.5,3,7.2c0,5.6,-4.5,10.2,-10.2,10.2C812.5,228.2,808,223.6,808,218Z" class="g2_9" />
<path fill-rule="evenodd" d="M839.7,218l0,0c0,-5.6,4.5,-10.2,10.2,-10.2c2.7,0,5.2,1.1,7.2,3c1.9,1.9,2.9,4.5,2.9,7.2c0,5.6,-4.5,10.2,-10.1,10.2c-5.7,0,-10.2,-4.6,-10.2,-10.2Z" class="g2_9" />
<path fill-rule="evenodd" d="M871.4,218l0,0c0,-5.6,4.5,-10.2,10.2,-10.2c2.7,0,5.3,1.1,7.2,3c1.9,1.9,3,4.5,3,7.2c0,5.6,-4.6,10.2,-10.2,10.2c-5.7,0,-10.2,-4.6,-10.2,-10.2Z" class="g5_9" />
<path fill-rule="evenodd" d="M903.1,218l0,0c0,-5.6,4.5,-10.2,10.2,-10.2c2.7,0,5.3,1.1,7.2,3c1.9,1.9,3,4.5,3,7.2c0,5.6,-4.6,10.2,-10.2,10.2c-5.7,0,-10.2,-4.6,-10.2,-10.2Z" class="g4_9" />
<path fill-rule="evenodd" d="M341.9,264.6l0,0c0,-5.6,4.5,-10.2,10.2,-10.2c2.7,0,5.2,1.1,7.2,3c1.9,1.9,2.9,4.5,2.9,7.2c0,5.6,-4.5,10.2,-10.1,10.2c-5.7,0,-10.2,-4.6,-10.2,-10.2Z" class="g2_9" />
<path fill-rule="evenodd" d="M373.6,264.6l0,0c0,-5.6,4.5,-10.2,10.2,-10.2c2.7,0,5.3,1.1,7.2,3c1.9,1.9,3,4.5,3,7.2c0,5.6,-4.6,10.2,-10.2,10.2c-5.7,0,-10.2,-4.6,-10.2,-10.2Z" class="g5_9" />
<path fill-rule="evenodd" d="M405.3,264.6l0,0c0,-5.6,4.5,-10.2,10.2,-10.2c2.7,0,5.3,1.1,7.2,3c1.9,1.9,3,4.5,3,7.2c0,5.6,-4.6,10.2,-10.2,10.2c-5.7,0,-10.2,-4.6,-10.2,-10.2Z" class="g5_9" />
<path fill-rule="evenodd" d="M437,264.6l0,0c0,-5.6,4.6,-10.2,10.2,-10.2c2.7,0,5.3,1.1,7.2,3c1.9,1.9,3,4.5,3,7.2c0,5.6,-4.6,10.2,-10.2,10.2c-5.6,0,-10.2,-4.6,-10.2,-10.2Z" class="g5_9" />
<path fill-rule="evenodd" d="M468.7,264.6l0,0c0,-5.6,4.6,-10.2,10.2,-10.2c2.7,0,5.3,1.1,7.2,3c1.9,1.9,3,4.5,3,7.2c0,5.6,-4.6,10.2,-10.2,10.2c-5.6,0,-10.2,-4.6,-10.2,-10.2Z" class="g5_9" />
<path fill-rule="evenodd" d="M557.2,264.6l0,0c0,-5.6,4.6,-10.2,10.2,-10.2c2.7,0,5.3,1.1,7.2,3c1.9,1.9,3,4.5,3,7.2c0,5.6,-4.5,10.2,-10.2,10.2c-5.6,0,-10.2,-4.6,-10.2,-10.2Z" class="g2_9" />
<path fill-rule="evenodd" d="M588.9,264.6l0,0c0,-5.6,4.6,-10.2,10.2,-10.2c2.7,0,5.3,1.1,7.2,3c1.9,1.9,3,4.5,3,7.2c0,5.6,-4.5,10.2,-10.2,10.2c-5.6,0,-10.2,-4.6,-10.2,-10.2Z" class="g2_9" />
<path fill-rule="evenodd" d="M620.7,264.6l0,0c0,-5.6,4.5,-10.2,10.1,-10.2c2.7,0,5.3,1.1,7.2,3c2,1.9,3,4.5,3,7.2c0,5.6,-4.5,10.2,-10.2,10.2c-5.6,0,-10.1,-4.6,-10.1,-10.2Z" class="g5_9" />
<path fill-rule="evenodd" d="M652.4,264.6l0,0c0,-5.6,4.5,-10.2,10.2,-10.2c2.7,0,5.2,1.1,7.2,3c1.9,1.9,2.9,4.5,2.9,7.2c0,5.6,-4.5,10.2,-10.1,10.2c-5.7,0,-10.2,-4.6,-10.2,-10.2Z" class="g5_9" />
<path fill-rule="evenodd" d="M684.1,264.6l0,0c0,-5.6,4.5,-10.2,10.2,-10.2c2.7,0,5.3,1.1,7.2,3c1.9,1.9,3,4.5,3,7.2c0,5.6,-4.6,10.2,-10.2,10.2c-5.7,0,-10.2,-4.6,-10.2,-10.2Z" class="g5_9" />
<path fill-rule="evenodd" d="M776.2,264.6l0,0c0,-5.6,4.6,-10.2,10.2,-10.2c2.7,0,5.3,1.1,7.2,3c1.9,1.9,3,4.5,3,7.2c0,5.6,-4.5,10.2,-10.2,10.2c-5.6,0,-10.2,-4.6,-10.2,-10.2Z" class="g2_9" />
<path fill-rule="evenodd" d="M808,264.6l0,0c0,-5.6,4.5,-10.2,10.1,-10.2c2.7,0,5.3,1.1,7.2,3c2,1.9,3,4.5,3,7.2c0,5.6,-4.5,10.2,-10.2,10.2c-5.6,0,-10.1,-4.6,-10.1,-10.2Z" class="g2_9" />
<path fill-rule="evenodd" d="M839.7,264.6l0,0c0,-5.6,4.5,-10.2,10.2,-10.2c2.7,0,5.2,1.1,7.2,3c1.9,1.9,2.9,4.5,2.9,7.2c0,5.6,-4.5,10.2,-10.1,10.2c-5.7,0,-10.2,-4.6,-10.2,-10.2Z" class="g2_9" />
<path fill-rule="evenodd" d="M871.4,264.6l0,0c0,-5.6,4.5,-10.2,10.2,-10.2c2.7,0,5.3,1.1,7.2,3c1.9,1.9,3,4.5,3,7.2c0,5.6,-4.6,10.2,-10.2,10.2c-5.7,0,-10.2,-4.6,-10.2,-10.2Z" class="g2_9" />
<path fill-rule="evenodd" d="M903.1,264.6l0,0c0,-5.6,4.5,-10.2,10.2,-10.2c2.7,0,5.3,1.1,7.2,3c1.9,1.9,3,4.5,3,7.2c0,5.6,-4.6,10.2,-10.2,10.2c-5.7,0,-10.2,-4.6,-10.2,-10.2Z" class="g2_9" />
<path fill-rule="evenodd" d="M341.9,309.3l0,0c0,-5.6,4.5,-10.2,10.2,-10.2c2.7,0,5.2,1.1,7.2,3c1.9,1.9,2.9,4.5,2.9,7.2c0,5.6,-4.5,10.2,-10.1,10.2c-5.7,0,-10.2,-4.6,-10.2,-10.2Z" class="g2_9" />
<path fill-rule="evenodd" d="M373.6,309.3l0,0c0,-5.6,4.5,-10.2,10.2,-10.2c2.7,0,5.3,1.1,7.2,3c1.9,1.9,3,4.5,3,7.2c0,5.6,-4.6,10.2,-10.2,10.2c-5.7,0,-10.2,-4.6,-10.2,-10.2Z" class="g2_9" />
<path fill-rule="evenodd" d="M405.3,309.3l0,0c0,-5.6,4.5,-10.2,10.2,-10.2c2.7,0,5.3,1.1,7.2,3c1.9,1.9,3,4.5,3,7.2c0,5.6,-4.6,10.2,-10.2,10.2c-5.7,0,-10.2,-4.6,-10.2,-10.2Z" class="g2_9" />
<path fill-rule="evenodd" d="M437,309.3l0,0c0,-5.6,4.6,-10.2,10.2,-10.2c2.7,0,5.3,1.1,7.2,3c1.9,1.9,3,4.5,3,7.2c0,5.6,-4.6,10.2,-10.2,10.2c-5.6,0,-10.2,-4.6,-10.2,-10.2Z" class="g5_9" />
<path fill-rule="evenodd" d="M468.7,309.3l0,0c0,-5.6,4.6,-10.2,10.2,-10.2c2.7,0,5.3,1.1,7.2,3c1.9,1.9,3,4.5,3,7.2c0,5.6,-4.6,10.2,-10.2,10.2c-5.6,0,-10.2,-4.6,-10.2,-10.2Z" class="g5_9" />
<path fill-rule="evenodd" d="M557.2,309.3l0,0c0,-5.6,4.6,-10.2,10.2,-10.2c2.7,0,5.3,1.1,7.2,3c1.9,1.9,3,4.5,3,7.2c0,5.6,-4.5,10.2,-10.2,10.2c-5.6,0,-10.2,-4.6,-10.2,-10.2Z" class="g2_9" />
<path fill-rule="evenodd" d="M588.9,309.3l0,0c0,-5.6,4.6,-10.2,10.2,-10.2c2.7,0,5.3,1.1,7.2,3c1.9,1.9,3,4.5,3,7.2c0,5.6,-4.5,10.2,-10.2,10.2c-5.6,0,-10.2,-4.6,-10.2,-10.2Z" class="g2_9" />
<path fill-rule="evenodd" d="M620.7,309.3l0,0c0,-5.6,4.5,-10.2,10.1,-10.2c2.7,0,5.3,1.1,7.2,3c2,1.9,3,4.5,3,7.2c0,5.6,-4.5,10.2,-10.2,10.2c-5.6,0,-10.1,-4.6,-10.1,-10.2Z" class="g2_9" />
<path fill-rule="evenodd" d="M652.4,309.3l0,0c0,-5.6,4.5,-10.2,10.2,-10.2c2.7,0,5.2,1.1,7.2,3c1.9,1.9,2.9,4.5,2.9,7.2c0,5.6,-4.5,10.2,-10.1,10.2c-5.7,0,-10.2,-4.6,-10.2,-10.2Z" class="g2_9" />
<path fill-rule="evenodd" d="M684.1,309.3l0,0c0,-5.6,4.5,-10.2,10.2,-10.2c2.7,0,5.3,1.1,7.2,3c1.9,1.9,3,4.5,3,7.2c0,5.6,-4.6,10.2,-10.2,10.2c-5.7,0,-10.2,-4.6,-10.2,-10.2Z" class="g2_9" />
<path fill-rule="evenodd" d="M779.2,311.2l0,0c0,-5.6,4.6,-10.1,10.2,-10.1c2.7,0,5.3,1,7.2,2.9c1.9,1.9,3,4.5,3,7.2c0,5.7,-4.6,10.2,-10.2,10.2c-5.6,0,-10.2,-4.5,-10.2,-10.2Z" class="g2_9" />
<path fill-rule="evenodd" d="M810.9,311.2l0,0c0,-5.6,4.6,-10.1,10.2,-10.1c2.7,0,5.3,1,7.2,2.9c1.9,1.9,3,4.5,3,7.2c0,5.7,-4.6,10.2,-10.2,10.2c-5.6,0,-10.2,-4.5,-10.2,-10.2Z" class="g2_9" />
<path fill-rule="evenodd" d="M842.6,311.2l0,0c0,-5.6,4.6,-10.1,10.2,-10.1c2.7,0,5.3,1,7.2,2.9c1.9,1.9,3,4.5,3,7.2c0,5.7,-4.6,10.2,-10.2,10.2c-5.6,0,-10.2,-4.5,-10.2,-10.2Z" class="g2_9" />
<path fill-rule="evenodd" d="M874.3,311.2l0,0c0,-5.6,4.6,-10.1,10.2,-10.1c2.7,0,5.3,1,7.2,2.9c1.9,1.9,3,4.5,3,7.2c0,5.7,-4.6,10.2,-10.2,10.2c-5.6,0,-10.2,-4.5,-10.2,-10.2Z" class="g2_9" />
<path fill-rule="evenodd" d="M906,311.2l0,0c0,-5.6,4.6,-10.1,10.2,-10.1c2.7,0,5.3,1,7.2,2.9c1.9,1.9,3,4.5,3,7.2c0,5.7,-4.5,10.2,-10.2,10.2c-5.6,0,-10.2,-4.5,-10.2,-10.2Z" class="g5_9" />
<path fill-rule="evenodd" d="M341.9,359.6l0,0c0,-5.7,4.5,-10.2,10.2,-10.2c2.7,0,5.2,1.1,7.2,3c1.9,1.9,2.9,4.5,2.9,7.2c0,5.6,-4.5,10.2,-10.1,10.2c-5.7,0,-10.2,-4.6,-10.2,-10.2Z" class="g2_9" />
<path fill-rule="evenodd" d="M373.6,359.6l0,0c0,-5.7,4.5,-10.2,10.2,-10.2c2.7,0,5.3,1.1,7.2,3c1.9,1.9,3,4.5,3,7.2c0,5.6,-4.6,10.2,-10.2,10.2c-5.7,0,-10.2,-4.6,-10.2,-10.2Z" class="g2_9" />
<path fill-rule="evenodd" d="M405.3,359.6l0,0c0,-5.7,4.5,-10.2,10.2,-10.2c2.7,0,5.3,1.1,7.2,3c1.9,1.9,3,4.5,3,7.2c0,5.6,-4.6,10.2,-10.2,10.2c-5.7,0,-10.2,-4.6,-10.2,-10.2Z" class="g2_9" />
<path fill-rule="evenodd" d="M437,359.6l0,0c0,-5.7,4.6,-10.2,10.2,-10.2c2.7,0,5.3,1.1,7.2,3c1.9,1.9,3,4.5,3,7.2c0,5.6,-4.6,10.2,-10.2,10.2c-5.6,0,-10.2,-4.6,-10.2,-10.2Z" class="g5_9" />
<path fill-rule="evenodd" d="M468.7,359.6l0,0c0,-5.7,4.6,-10.2,10.2,-10.2c2.7,0,5.3,1.1,7.2,3c1.9,1.9,3,4.5,3,7.2c0,5.6,-4.6,10.2,-10.2,10.2c-5.6,0,-10.2,-4.6,-10.2,-10.2Z" class="g5_9" />
<path fill-rule="evenodd" d="M557.2,359.6l0,0c0,-5.7,4.6,-10.2,10.2,-10.2c2.7,0,5.3,1.1,7.2,3c1.9,1.9,3,4.5,3,7.2c0,5.6,-4.5,10.2,-10.2,10.2c-5.6,0,-10.2,-4.6,-10.2,-10.2Z" class="g2_9" />
<path fill-rule="evenodd" d="M588.9,359.6l0,0c0,-5.7,4.6,-10.2,10.2,-10.2c2.7,0,5.3,1.1,7.2,3c1.9,1.9,3,4.5,3,7.2c0,5.6,-4.5,10.2,-10.2,10.2c-5.6,0,-10.2,-4.6,-10.2,-10.2Z" class="g2_9" />
<path fill-rule="evenodd" d="M620.7,359.6l0,0c0,-5.7,4.5,-10.2,10.1,-10.2c2.7,0,5.3,1.1,7.2,3c2,1.9,3,4.5,3,7.2c0,5.6,-4.5,10.2,-10.2,10.2c-5.6,0,-10.1,-4.6,-10.1,-10.2Z" class="g2_9" />
<path fill-rule="evenodd" d="M652.4,359.6l0,0c0,-5.7,4.5,-10.2,10.2,-10.2c2.7,0,5.2,1.1,7.2,3c1.9,1.9,2.9,4.5,2.9,7.2c0,5.6,-4.5,10.2,-10.1,10.2c-5.7,0,-10.2,-4.6,-10.2,-10.2Z" class="g5_9" />
<path fill-rule="evenodd" d="M684.1,359.6l0,0c0,-5.7,4.5,-10.2,10.2,-10.2c2.7,0,5.3,1.1,7.2,3c1.9,1.9,3,4.5,3,7.2c0,5.6,-4.6,10.2,-10.2,10.2c-5.7,0,-10.2,-4.6,-10.2,-10.2Z" class="g5_9" />
<path fill-rule="evenodd" d="M779.2,357.9l0,0c0,-5.7,4.6,-10.2,10.2,-10.2c2.7,0,5.3,1,7.2,3c1.9,1.9,3,4.5,3,7.2c0,5.6,-4.6,10.2,-10.2,10.2c-5.6,0,-10.2,-4.6,-10.2,-10.2Z" class="g2_9" />
<path fill-rule="evenodd" d="M810.9,357.9l0,0c0,-5.7,4.6,-10.2,10.2,-10.2c2.7,0,5.3,1,7.2,3c1.9,1.9,3,4.5,3,7.2c0,5.6,-4.6,10.2,-10.2,10.2c-5.6,0,-10.2,-4.6,-10.2,-10.2Z" class="g2_9" />
<path fill-rule="evenodd" d="M842.6,357.9l0,0c0,-5.7,4.6,-10.2,10.2,-10.2c2.7,0,5.3,1,7.2,3c1.9,1.9,3,4.5,3,7.2c0,5.6,-4.6,10.2,-10.2,10.2c-5.6,0,-10.2,-4.6,-10.2,-10.2Z" class="g2_9" />
<path fill-rule="evenodd" d="M874.3,357.9l0,0c0,-5.7,4.6,-10.2,10.2,-10.2c2.7,0,5.3,1,7.2,3c1.9,1.9,3,4.5,3,7.2c0,5.6,-4.6,10.2,-10.2,10.2c-5.6,0,-10.2,-4.6,-10.2,-10.2Z" class="g2_9" />
<path fill-rule="evenodd" d="M906,357.9l0,0c0,-5.7,4.6,-10.2,10.2,-10.2c2.7,0,5.3,1,7.2,3c1.9,1.9,3,4.5,3,7.2c0,5.6,-4.5,10.2,-10.2,10.2c-5.6,0,-10.2,-4.6,-10.2,-10.2Z" class="g2_9" />
<path fill-rule="evenodd" d="M27.3,16.4l1020.6,0l0,120.5l-1020.6,0Z" class="g6_9" />
<text 
x="37" 
y="70" 
dx="0,0,0,0,0,-0.5,0,0,0,0,-0.5,0,0,0,0,0,0,0,-0.5,0,0,0,0,0,0,-0.5,0,0,0,0,-0.5,0,0,-0.5,0" 
class="s4_9"
>What does usually design team do in</text>

<text 
x="37" 
y="125" 
dx="0,0,0,0,0,0,0,0,0,0,-0.5,0,0,0,0,0,0,0,0,0,0,-0.5,0,0,0,0,0,0,0,0,0,0,0,0" 
class="s4_9"
>different technology market°firms?</text>



<!-- Any embedded fonts defined here -->
<style type="text/css" ><![CDATA[

@font-face {
	font-family: ArialMT_5f;
	src: url("fonts/ArialMT_5f.woff") format("woff");
}

@font-face {
	font-family: Arial-BoldMT_5r;
	src: url("fonts/Arial-BoldMT_5r.woff") format("woff");
}

@font-face {
	font-family: Raleway-Bold_5j;
	src: url("fonts/Raleway-Bold_5j.woff") format("woff");
}

]]></style>

</svg>
