<?xml version="1.0" encoding="UTF-8" standalone="no"?>
<!DOCTYPE svg PUBLIC "-//W3C//DTD SVG 1.1//EN"
"http://www.w3.org/Graphics/SVG/1.1/DTD/svg11.dtd">


<!-- Page 1 -->
<svg x="0" y="0" width="1286" height="909" viewBox="0 0 1286 909" version="1.1" xmlns="http://www.w3.org/2000/svg" xmlns:xlink="http://www.w3.org/1999/xlink"
style="display: block;margin-left: auto;margin-right: auto;">
<defs>
<clipPath id="c0_1"><path d="M0,909L0,0L1286.4,0l0,909Z" /></clipPath>

<style type="text/css"><![CDATA[

.g1_1{
fill: #010101;
}
.g2_1{
fill: #E32526;
}
.g3_1{
fill: #808285;
fill-opacity: 0.350006;
stroke: #939598;
stroke-width: 0.7638889;
stroke-linecap: butt;
stroke-linejoin: miter;
stroke-opacity: 0.350006;
}
.g4_1{
fill: #E42325;
}
.g5_1{
fill: #FFFFFF;
stroke: #CFCFCE;
stroke-width: 1.5277778;
stroke-linecap: butt;
stroke-linejoin: miter;
}
.g6_1{
fill: none;
stroke: #6D6E71;
stroke-width: 0.7638889;
stroke-linecap: butt;
stroke-linejoin: miter;
}
.g7_1{
fill: none;
stroke: #221E1F;
stroke-width: 0.7638889;
stroke-linecap: butt;
stroke-linejoin: miter;
}
.g8_1{
fill: none;
stroke: #6D6E71;
stroke-width: 0.7638889;
stroke-linecap: butt;
stroke-linejoin: miter;
stroke-opacity: 0.990005;
}
.g9_1{
fill: #FFFFFF;
}

.s1_1{
font-size: 15.28px;
font-family: SofiaProLight_2-;
fill: #6D6E71;
}
.s2_1{
font-size: 55.00px;
font-family: SofiaProLight_2-;
fill: #231F20;
}
.s3_1{
font-size: 13.75px;
font-family: SofiaProLight_2-;
fill: #6D6E71;
}
.s4_1{
font-size: 15.28px;
font-family: SofiaProRegular_3b;
fill: rgba(34, 30, 31, 0.99);
}
.s5_1{
font-size: 13.75px;
font-family: STYuanti-SC-Regular_3r;
fill: rgba(34, 30, 31, 0.99);
}
.s6_1{
font-size: 12.22px;
font-family: SofiaProLight_2-;
fill: rgba(34, 30, 31, 0.99);
}
.s7_1{
font-size: 10.69px;
font-family: SofiaProLight_2-;
fill: rgba(34, 30, 31, 0.99);
}
.s8_1{
font-size: 18.33px;
font-family: SofiaProLight_2-;
fill: #231F20;
}

]]></style>

</defs>
<path d="M0,0
L0,909
L1286,909
L1286,0 Z " 
fill="#FFFFFF" stroke="none" />
<path d="M132.3,46.1c-1.5,1.2,-2.7,1.9,-5.6,1.9l-6.2,0l0,-15.4l6.2,0c2.9,0,4.3,0.8,5.7,2c1.3,1.5,2.1,3.5,2.1,5.7c0,2.3,-0.8,4.3,-2.2,5.8M126.8,30.2l-8.9,0l0,20.2l8.9,0c3.8,0,5.7,-1,7.6,-2.7c1.8,-1.8,2.9,-4.5,2.9,-7.4c0,-2.9,-1,-5.5,-2.8,-7.3c-1.8,-1.7,-3.9,-2.8,-7.7,-2.8Z" class="g1_1" />
<path d="M162.3,30.2l-2.7,0l0,20.2l15.4,0L175,48l-12.7,0Z" class="g1_1" />
<path d="M190,30.2l-18.3,0l0,2.4l7.8,0l0,17.8l2.7,0l0,-17.8l7.8,0Z" class="g1_1" />
<path d="M110.3,54.6l1.4,0l0,-28.6l-1.4,0l0,28.6Z" class="g2_1" />
<path d="M95.1,40.3l0,1.2l6.5,0l0,5.1c-1.5,1.2,-4.1,1.9,-6.5,1.9c-5.3,0,-8.5,-3.9,-8.5,-8.2c0,-4.5,3.5,-8.2,8.3,-8.2c2.5,0,5.4,1,7.1,2.7l1.9,-1.7C101.3,30.9,98,29.7,94.8,29.7c-6.1,0,-11,4.7,-11,10.6c0,5.9,4.8,10.6,11.2,10.6c3.2,0,6.6,-1.2,9.1,-3l0,-8.8l-9,0Z" class="g1_1" />
<path d="M142.5,41.5l8.2,0l0,-1.2l0,-1.2l-8.2,0l0,-6.5l13.6,0l0,-2.4l-16.2,0l0,20.2l16.9,0l0,-2.4l-14.3,0Z" class="g1_1" />
<path d="M72.6,30.2L61,50.4l2.8,0l3.5,-6.1l5.7,0l0,-2.1l-4.4,0L73,34.4l9.3,16l2.8,0L73.5,30.2Z" class="g1_1" />
<path d="M200,30.2l-0.9,0L187.5,50.4l2.8,0l9.2,-16l4.5,7.8l-4.4,0l0,2.1l5.7,0l3.5,6.1l2.8,0Z" class="g1_1" />
<path d="M1,90.6l1283.4,0" class="g3_1" />
<text 
x="23" 
y="69" 
dx="0,0,-0.2,0,0,0,0,-0.1,0,-0.2,0,0,0,0,0,0,-0.1,0,0,0,0,0,0,0" 
class="s1_1"
>Brand Merchandize Design</text>

<path d="M228.4,79.4l0,-56.4" class="g3_1" />
<path d="M6.1,74.9l-5.6,0l0,-55.8l5.6,0l0,55.8Z" class="g4_1" />
<text 
x="258" 
y="65" 
dx="0,-0.5,0,0,0,0,0,0,-0.8" 
class="s2_1"
>Name Card</text>

<text 
x="1166" 
y="36" 
dx="0,-0.2,0,-0.1,0,0,-0.3,0,-0.1,0,0,0,0,0" 
class="s3_1"
>Latest Modiﬁed</text>

<text 
x="1190" 
y="52" 
dx="0,0,0,0,0,0,0,0,0,0" 
class="s3_1"
>04/04/2017</text>

<text 
x="1194" 
y="69" 
dx="0,-1.4,0,0,0,0,0,0,0,0" 
class="s3_1"
>Tonia Chen</text>

<path d="M132.3,46.1c-1.5,1.2,-2.7,1.9,-5.6,1.9l-6.2,0l0,-15.4l6.2,0c2.9,0,4.3,0.8,5.7,2c1.3,1.5,2.1,3.5,2.1,5.7c0,2.3,-0.8,4.3,-2.2,5.8M126.8,30.2l-8.9,0l0,20.2l8.9,0c3.8,0,5.7,-1,7.6,-2.7c1.8,-1.8,2.9,-4.5,2.9,-7.4c0,-2.9,-1,-5.5,-2.8,-7.3c-1.8,-1.7,-3.9,-2.8,-7.7,-2.8Z" class="g1_1" />
<path d="M162.3,30.2l-2.7,0l0,20.2l15.4,0L175,48l-12.7,0Z" class="g1_1" />
<path d="M190,30.2l-18.3,0l0,2.4l7.8,0l0,17.8l2.7,0l0,-17.8l7.8,0Z" class="g1_1" />
<path d="M110.3,54.6l1.4,0l0,-28.6l-1.4,0l0,28.6Z" class="g2_1" />
<path d="M95.1,40.3l0,1.2l6.5,0l0,5.1c-1.5,1.2,-4.1,1.9,-6.5,1.9c-5.3,0,-8.5,-3.9,-8.5,-8.2c0,-4.5,3.5,-8.2,8.3,-8.2c2.5,0,5.4,1,7.1,2.7l1.9,-1.7C101.3,30.9,98,29.7,94.8,29.7c-6.1,0,-11,4.7,-11,10.6c0,5.9,4.8,10.6,11.2,10.6c3.2,0,6.6,-1.2,9.1,-3l0,-8.8l-9,0Z" class="g1_1" />
<path d="M142.5,41.5l8.2,0l0,-1.2l0,-1.2l-8.2,0l0,-6.5l13.6,0l0,-2.4l-16.2,0l0,20.2l16.9,0l0,-2.4l-14.3,0Z" class="g1_1" />
<path d="M72.6,30.2L61,50.4l2.8,0l3.5,-6.1l5.7,0l0,-2.1l-4.4,0L73,34.4l9.3,16l2.8,0L73.5,30.2Z" class="g1_1" />
<path d="M200,30.2l-0.9,0L187.5,50.4l2.8,0l9.2,-16l4.5,7.8l-4.4,0l0,2.1l5.7,0l3.5,6.1l2.8,0Z" class="g1_1" />
<path d="M1,90.6l1283.4,0" class="g3_1" />
<text 
x="23" 
y="69" 
dx="0,0,-0.2,0,0,0,0,-0.1,0,-0.2,0,0,0,0,0,0,-0.1,0,0,0,0,0,0,0" 
class="s1_1"
>Brand Merchandize Design</text>

<path d="M228.4,79.4l0,-56.4" class="g3_1" />
<path d="M6.1,74.9l-5.6,0l0,-55.8l5.6,0l0,55.8Z" class="g4_1" />
<text 
x="258" 
y="65" 
dx="0,-0.5,0,0,0,0,0,0,-0.8" 
class="s2_1"
>Name Card</text>

<path d="M590.2,600.3l-433.1,0l0,-259.9l433.1,0l0,259.9Z" class="g5_1" />
<path d="M411.1,368.1l0,203.7" class="g6_1" />
<path d="M562,571.8l-376.8,0l0,-203.7l376.8,0l0,203.7Z" class="g7_1" />
<g clip-path="url(#c0_1)">
<g fill="#221E1F" fill-opacity="0.99" >
<use xlink:href="#f0_2" transform="matrix(10,0,0,10,290.4,463.6)" />
</g>
</g>
<text 
x="210" 
y="463" 
dx="0,0,0,0,-0.2,-0.1,-0.4,-0.5,-0.1,0" 
class="s4_1"
>Andrew Au </text>

<g clip-path="url(#c0_1)">
<g fill="#221E1F" fill-opacity="0.99" >
<use xlink:href="#f0_3" transform="matrix(10,0,0,10,346.9,463.6)" />
</g>
</g>
<text 
x="305" 
y="463" 
dx="0,0,0" 
class="s5_1"
>区宏远</text>

<text 
x="210" 
y="479" 
dx="0,0,0,0,0,-0.3,0,0,-0.2,0,0,0,0,0,-0.1,0,0,0,0,-0.2" 
class="s6_1"
>Chief Executive Oﬃce</text>

<text 
x="210" 
y="521" 
dx="0,0,0,0,-0.1,-0.1,-0.4,0,0,0,0,0,0,0,0,0,-0.1,0,0,-0.2,0" 
class="s7_1"
>andrew.au@agdelta.com</text>

<text 
x="210" 
y="538" 
dx="0,0,0,-0.4,0,0,0,0,0,0,-0.1,0,0,-0.2,0" 
class="s7_1"
>www.agdelta.com</text>

<text 
x="430" 
y="464" 
dx="0,0" 
class="s7_1"
>O:</text>

<text 
x="430" 
y="480" 
dx="0,0,0" 
class="s7_1"
>M: </text>

<text 
x="450" 
y="464" 
dx="0,0,0,0,0,0,0,0,0,0,0,0,0" 
class="s7_1"
>+65 6486 5888</text>

<text 
x="450" 
y="480" 
dx="0,0,0,0,0,0,0,0,0,0,0,0,0" 
class="s7_1"
>+65 9011 9547</text>

<text 
x="430" 
y="501" 
dx="0,0,0,0,0,0,0,-0.1,0,0,-0.3,-0.5,0,-0.4" 
class="s7_1"
>6 Shenton Way,</text>

<text 
x="430" 
y="513" 
dx="0,0,0,-0.5,0,0,0,0,0,0,0,0,0,-0.1,0,0,-0.1,-0.1,0,0,0" 
class="s7_1"
>#37-01 OUE Downtown 1</text>

<text 
x="430" 
y="525" 
dx="0,-0.1,0,0,0,0,0,0,-0.2,0,0,0,0,0,0,0" 
class="s7_1"
>Singapore 068809</text>

<path d="M411.1,368.1l0,203.7" class="g8_1" />
<path d="M278.2,405.5c-1.4,1.1,-2.5,1.8,-5.2,1.8l-5.8,0l0,-14.4l5.8,0c2.7,0,4,0.7,5.3,1.9c1.2,1.3,2,3.2,2,5.3c0,2.1,-0.8,4,-2.1,5.4m-5.1,-14.8l-8.4,0l0,18.8l8.4,0c3.5,0,5.3,-0.9,7,-2.5c1.8,-1.7,2.8,-4.2,2.8,-6.9c0,-2.7,-1,-5.1,-2.6,-6.8c-1.7,-1.6,-3.7,-2.6,-7.2,-2.6Z" class="g1_1" />
<path d="M306.2,390.7l-2.5,0l0,18.8l14.4,0l0,-2.2l-11.9,0Z" class="g1_1" />
<path d="M332,390.7l-17.1,0l0,2.2l7.3,0l0,16.6l2.5,0l0,-16.6l7.3,0Z" class="g1_1" />
<path d="M257.7,413.5l1.3,0l0,-26.8l-1.3,0l0,26.8Z" class="g2_1" />
<path d="M243.5,400.1l0,1.1l6.1,0l0,4.7c-1.4,1.2,-3.9,1.9,-6.1,1.9c-4.9,0,-7.9,-3.7,-7.9,-7.7c0,-4.2,3.2,-7.7,7.7,-7.7c2.4,0,5,1,6.7,2.5l1.7,-1.5c-2.4,-2.1,-5.5,-3.2,-8.4,-3.2c-5.8,0,-10.4,4.4,-10.4,9.9c0,5.5,4.6,9.9,10.5,9.9c3,0,6.2,-1.1,8.5,-2.9l0,-8.1l-8.4,0Z" class="g1_1" />
<path d="M287.8,401.2l7.6,0l0,-1.1l0,-1.1l-7.6,0l0,-6.1l12.6,0l0,-2.2l-15.1,0l0,18.8l15.7,0l0,-2.2l-13.2,0Z" class="g1_1" />
<path d="M222.6,390.7l-10.9,18.8l2.6,0l3.3,-5.6l5.3,0l0,-2.1l-4.1,0l4.1,-7.2l8.6,14.9l2.7,0L223.3,390.7Z" class="g1_1" />
<path d="M341.3,390.7l-0.8,0l-10.8,18.8l2.6,0l8.6,-14.9l4.2,7.2l-4.2,0l0,2.1l5.3,0l3.3,5.6l2.6,0l0.1,0Z" class="g1_1" />
<path d="M1158.2,598l-433,0l0,-259.8l433,0l0,259.8Z" class="g4_1" />
<path d="M936.5,465.2c-1.8,1.6,-3.4,2.5,-7.1,2.5l-8,0l0,-19.9l8,0c3.7,0,5.4,1,7.2,2.7c1.8,1.8,2.8,4.4,2.8,7.3c0,2.9,-1.1,5.6,-2.9,7.4m-7,-20.4l-11.6,0l0,26l11.6,0c4.8,0,7.3,-1.3,9.7,-3.4c2.4,-2.4,3.8,-5.8,3.8,-9.6c0,-3.7,-1.3,-7,-3.6,-9.4c-2.3,-2.2,-5.1,-3.6,-9.9,-3.6Z" class="g9_1" />
<path d="M975.2,444.8l-3.4,0l0,26l19.9,0l0,-3.1l-16.5,0Z" class="g9_1" />
<path d="M1011,444.8l-23.7,0l0,3l10.1,0l0,23l3.5,0l0,-23l10.1,0Z" class="g9_1" />
<path d="M908.1,476.3l1.8,0l0,-37l-1.8,0l0,37Z" class="g9_1" />
<path d="M888.5,457.8l0,1.5l8.5,0l0,6.6c-2,1.6,-5.3,2.5,-8.4,2.5c-6.9,0,-11,-5,-11,-10.6c0,-5.8,4.5,-10.6,10.7,-10.6c3.2,0,6.9,1.3,9.2,3.4l2.4,-2.1c-3.3,-2.8,-7.6,-4.4,-11.7,-4.4c-7.9,0,-14.2,6.1,-14.2,13.7c0,7.6,6.2,13.7,14.4,13.7c4.1,0,8.6,-1.5,11.8,-4l0,-11.2l-11.7,0Z" class="g9_1" />
<path d="M949.8,459.3l10.5,0l0,-1.5l0,-1.5l-10.5,0l0,-8.5l17.4,0l0,-3l-20.9,0l0,26l21.8,0l0,-3.1l-18.3,0Z" class="g9_1" />
<path d="M859.6,444.8l-15,26l3.6,0l4.5,-7.8l7.4,0l0,-2.8l-5.8,0l5.8,-10L872,470.8l3.7,0l-15,-26Z" class="g9_1" />
<path d="M1023.8,444.8l-1.1,0l-15,26l3.7,0l11.9,-20.6l5.8,10l-5.8,0l0,2.8l7.4,0l4.5,7.8l3.6,0l0.1,0Z" class="g9_1" />
<path d="M883.4,496.7l-1.7,0l0,-13.3l1.7,0l0,13.3Z" class="g9_1" />
<path d="M887.6,488.1l-1.7,0l0,8.6l1.7,0l0,-8.6Zm-0.8,-4.3c0.6,0,1.1,0.5,1.1,1.1c0,0.6,-0.5,1.1,-1.1,1.1c-0.7,0,-1.2,-0.5,-1.2,-1.1c0,-0.6,0.5,-1.1,1.2,-1.1Z" class="g9_1" />
<path d="M890.8,488.1l2.7,6.4l2.5,-6.4l1.8,0l-3.6,8.6l0.1,0l-1.7,0l-3.5,-8.6Z" class="g9_1" />
<path d="M905.4,491.7c-0.2,-1.4,-1.2,-2.3,-2.6,-2.3c-1.4,0,-2.5,0.9,-2.7,2.3Zm1.7,1.3l-7,0c0.2,1.4,1.3,2.3,2.8,2.3c1,0,2,-0.4,2.5,-1.3c0.4,0.2,0.9,0.4,1.4,0.6c-0.7,1.5,-2.3,2.2,-4,2.2c-2.4,0,-4.4,-1.7,-4.4,-4.5c0,-2.7,2,-4.4,4.4,-4.4c2.5,0,4.3,1.7,4.3,4.4c0,0.2,0,0.5,0,0.7Z" class="g9_1" />
<path d="M915.5,488.1l-1.7,0l0,8.6l1.7,0l0,-8.6Zm-0.8,-4.3c0.6,0,1.1,0.5,1.1,1.1c0,0.6,-0.5,1.1,-1.1,1.1c-0.7,0,-1.2,-0.5,-1.2,-1.1c0,-0.6,0.5,-1.1,1.2,-1.1Z" class="g9_1" />
<path d="M919.7,496.7l-1.7,0l0,-8.6l1.7,0l0,1.3c0.5,-1.1,1.7,-1.5,2.7,-1.5c2.1,0,3.3,1.4,3.3,3.8l0,5l-1.7,0l0,-4.9c0,-1.4,-0.7,-2.3,-1.9,-2.3c-1.2,0,-2.4,0.7,-2.4,2.5Z" class="g9_1" />
<path d="M937.1,488.1l0,1.4l-1.8,0l0,7.2l-1.7,0l0,-7.2l-1.6,0l0,-1.4l1.6,0l0,-3.3l1.7,0l0,3.3Z" class="g9_1" />
<path d="M945.3,492.3c0,-1.7,-1.3,-2.8,-2.8,-2.8c-1.6,0,-2.8,1.1,-2.8,2.8c0,1.8,1.2,2.9,2.8,2.9c1.5,0,2.8,-1.1,2.8,-2.9m-7.3,0c0,-2.7,2,-4.4,4.5,-4.4c2.4,0,4.5,1.7,4.5,4.4c0,2.8,-2.1,4.5,-4.5,4.5c-2.5,0,-4.5,-1.7,-4.5,-4.5Z" class="g9_1" />
<path d="M956.2,492l0,4.7l-1.6,0l0,-4.9c0,-1.4,-0.8,-2.3,-1.9,-2.3c-1.2,0,-2.4,0.7,-2.4,2.5l0,4.7l-1.7,0l0,-8.6l1.7,0l0,1.3c0.5,-1,1.7,-1.4,2.4,-1.5c0.3,0,0.6,0,0.9,0.1c1.1,0.2,1.9,0.7,2.3,1.7c0.8,-1.6,2.1,-1.8,2.9,-1.8c2.2,0,3.3,1.4,3.3,3.8l0,5l-1.6,0l0,-4.9c0,-1.4,-0.8,-2.3,-2,-2.3c-1.4,0,-2.3,1.1,-2.3,2.5Z" class="g9_1" />
<path d="M971,492.3c0,-1.7,-1.3,-2.8,-2.8,-2.8c-1.5,0,-2.8,1.1,-2.8,2.8c0,1.8,1.3,2.9,2.8,2.9c1.5,0,2.8,-1.1,2.8,-2.9m-7.3,0c0,-2.7,2,-4.4,4.5,-4.4c2.4,0,4.5,1.7,4.5,4.4c0,2.8,-2.1,4.5,-4.5,4.5c-2.5,0,-4.5,-1.7,-4.5,-4.5Z" class="g9_1" />
<path d="M976,496.7l-1.6,0l0,-8.6l1.6,0l0,1.9c0.5,-1.5,1.3,-2.1,2.4,-2.1c0.6,0,1.3,0.2,1.5,0.3l-0.3,1.6c-0.4,-0.2,-0.9,-0.3,-1.2,-0.3c-1.7,0,-2.4,1.8,-2.4,4Z" class="g9_1" />
<path d="M982.7,496.7l-1.7,0l0,-8.6l1.7,0l0,1.9c0.5,-1.5,1.3,-2.1,2.4,-2.1c0.6,0,1.3,0.2,1.5,0.3l-0.3,1.6c-0.4,-0.2,-0.9,-0.3,-1.2,-0.3c-1.7,0,-2.4,1.8,-2.4,4Z" class="g9_1" />
<path d="M994.7,492.3c0,-1.7,-1.3,-2.8,-2.8,-2.8c-1.5,0,-2.8,1.1,-2.8,2.8c0,1.8,1.3,2.9,2.8,2.9c1.5,0,2.8,-1.1,2.8,-2.9m-7.3,0c0,-2.7,2.1,-4.4,4.5,-4.4c2.5,0,4.5,1.7,4.5,4.4c0,2.8,-2,4.5,-4.5,4.5c-2.4,0,-4.5,-1.7,-4.5,-4.5Z" class="g9_1" />
<path d="M1006.3,496.7l-2.3,-6.3l-2.3,6.3l-1.3,0l-3.3,-8.6l1.8,0l2.1,6l2.2,-6l1.6,0l2.1,6l2.2,-6l1.8,0l-3.2,8.6Z" class="g9_1" />
<text 
x="238" 
y="265" 
dx="0,-0.3,0,0,0,0,-0.2,0,0,-0.2,0,0,0,0,0,0,-0.3,0,0,-0.7,-0.3,0,0,-0.4" 
class="s8_1"
>AGDelta Name Card Front </text>

<text 
x="807" 
y="265" 
dx="0,-0.3,0,0,0,0,-0.2,0,0,-0.2,0,0,0,0,0,0,-0.3,0,0,0,0,0,0" 
class="s8_1"
>AGDelta Name Card Back </text>


<defs>
	<path d="M1324.6,-238.2C1025.1,24.4,947.2,207.8,947.2,478.2c0,216.9,110,458.3,372.8,664.6l22.9,-19.9C1151.9,956.4,1048.1,695.1,1048.1,476.7c0,-270.4,77.9,-482.7,294.8,-692l-18.3,-22.9Z" 
	id="f0_2"
	transform="scale(0.001,-0.001)" />

	<path d="M175.7,-224.5l-22.9,22.9c191,180.3,278,427.7,278,666c0,233.8,-84,466,-282.6,650.9l18.3,22.9C440,927.4,534.7,681.4,534.7,464.4C534.7,194,407.9,-38.1,175.7,-224.5Z" 
	id="f0_3"
	transform="scale(0.001,-0.001)" />


</defs>

<!-- Any embedded fonts defined here -->
<style type="text/css" ><![CDATA[

@font-face {
	font-family: SofiaProLight_2-;
	src: url("fonts/SofiaProLight_2-.woff") format("woff");
}

@font-face {
	font-family: STYuanti-SC-Regular_3r;
	src: url("fonts/STYuanti-SC-Regular_3r.woff") format("woff");
}

@font-face {
	font-family: SofiaProRegular_3b;
	src: url("fonts/SofiaProRegular_3b.woff") format("woff");
}

]]></style>

</svg>
