<?xml version="1.0" encoding="UTF-8" standalone="no"?>
<!DOCTYPE svg PUBLIC "-//W3C//DTD SVG 1.1//EN"
"http://www.w3.org/Graphics/SVG/1.1/DTD/svg11.dtd">


<!-- Page 2 -->
<svg x="0" y="0" width="1286" height="909" viewBox="0 0 1286 909" version="1.1" xmlns="http://www.w3.org/2000/svg" xmlns:xlink="http://www.w3.org/1999/xlink"
style="display: block;margin-left: auto;margin-right: auto;">
<defs>

<style type="text/css"><![CDATA[

.g1_2{
fill: #010101;
}
.g2_2{
fill: #E32526;
}
.g3_2{
fill: #808285;
fill-opacity: 0.350006;
stroke: #939598;
stroke-width: 0.7638889;
stroke-linecap: butt;
stroke-linejoin: miter;
stroke-opacity: 0.350006;
}
.g4_2{
fill: #E42325;
}
.g5_2{
fill: #545860;
}
.g6_2{
fill: #FFFFFF;
}
.g7_2{
fill: #E42525;
}
.g8_2{
fill: none;
stroke: #231F20;
stroke-width: 0.65847224;
stroke-linecap: butt;
stroke-linejoin: miter;
}
.g9_2{
fill: #2E2A25;
}

.s1_2{
font-size: 15.28px;
font-family: SofiaProLight_2-;
fill: #6D6E71;
}
.s2_2{
font-size: 55.00px;
font-family: SofiaProLight_2-;
fill: #231F20;
}
.s3_2{
font-size: 13.75px;
font-family: SofiaProLight_2-;
fill: #6D6E71;
}
.s4_2{
font-size: 18.33px;
font-family: SofiaProRegular_3b;
fill: #545860;
}
.s5_2{
font-size: 27.50px;
font-family: SofiaProLight_2-;
fill: #010101;
}
.s6_2{
font-size: 18.33px;
font-family: SofiaProLight_2-;
fill: #545860;
}
.s7_2{
font-size: 10.69px;
font-family: SofiaProLight_2-;
fill: #545860;
}
.s8_2{
font-size: 18.33px;
font-family: SofiaProLight_2-;
fill: #231F20;
}
.s9_2{
font-size: 18.33px;
font-family: STYuanti-SC-Regular_3r;
fill: #231F20;
}

]]></style>

</defs>
<path d="M0,0
L0,909
L1286,909
L1286,0 Z " 
fill="#FFFFFF" stroke="none" />
<path d="M132.3,46.1c-1.5,1.2,-2.7,1.9,-5.6,1.9l-6.2,0l0,-15.4l6.2,0c2.9,0,4.3,0.8,5.7,2c1.3,1.5,2.1,3.5,2.1,5.7c0,2.3,-0.8,4.3,-2.2,5.8M126.8,30.2l-8.9,0l0,20.2l8.9,0c3.8,0,5.7,-1,7.6,-2.7c1.8,-1.8,2.9,-4.5,2.9,-7.4c0,-2.9,-1,-5.5,-2.8,-7.3c-1.8,-1.7,-3.9,-2.8,-7.7,-2.8Z" class="g1_2" />
<path d="M162.3,30.2l-2.7,0l0,20.2l15.4,0L175,48l-12.7,0Z" class="g1_2" />
<path d="M190,30.2l-18.3,0l0,2.4l7.8,0l0,17.8l2.7,0l0,-17.8l7.8,0Z" class="g1_2" />
<path d="M110.3,54.6l1.4,0l0,-28.6l-1.4,0l0,28.6Z" class="g2_2" />
<path d="M95.1,40.3l0,1.2l6.5,0l0,5.1c-1.5,1.2,-4.1,1.9,-6.5,1.9c-5.3,0,-8.5,-3.9,-8.5,-8.2c0,-4.5,3.5,-8.2,8.3,-8.2c2.5,0,5.4,1,7.1,2.7l1.9,-1.7C101.3,30.9,98,29.7,94.8,29.7c-6.1,0,-11,4.7,-11,10.6c0,5.9,4.8,10.6,11.2,10.6c3.2,0,6.6,-1.2,9.1,-3l0,-8.8l-9,0Z" class="g1_2" />
<path d="M142.6,41.5l8.1,0l0,-1.2l0,-1.2l-8.1,0l0,-6.5l13.5,0l0,-2.4l-16.2,0l0,20.2l16.9,0l0,-2.4l-14.2,0Z" class="g1_2" />
<path d="M72.6,30.2L61,50.4l2.8,0l3.5,-6.1l5.7,0l0,-2.1l-4.4,0L73,34.4l9.3,16l2.8,0L73.5,30.2Z" class="g1_2" />
<path d="M200,30.2l-0.9,0L187.5,50.4l2.8,0l9.2,-16l4.5,7.8l-4.4,0l0,2.1l5.7,0l3.5,6.1l2.8,0Z" class="g1_2" />
<path d="M1,90.6l1283.4,0" class="g3_2" />
<text 
x="23" 
y="69" 
dx="0,0,-0.2,0,0,0,0,-0.1,0,-0.2,0,0,0,0,0,0,-0.1,0,0,0,0,0,0,0" 
class="s1_2"
>Brand Merchandize Design</text>

<path d="M228.4,79.4l0,-56.4" class="g3_2" />
<path d="M6.1,74.9l-5.6,0l0,-55.8l5.6,0l0,55.8Z" class="g4_2" />
<text 
x="258" 
y="65" 
dx="0,-0.5,0,0,0,0,0,0,-0.8" 
class="s2_2"
>Name Card</text>

<text 
x="1166" 
y="36" 
dx="0,-0.2,0,-0.1,0,0,-0.3,0,-0.1,0,0,0,0,0" 
class="s3_2"
>Latest Modiﬁed</text>

<text 
x="1190" 
y="52" 
dx="0,0,0,0,0,0,0,0,0,0" 
class="s3_2"
>04/04/2017</text>

<text 
x="1194" 
y="69" 
dx="0,-1.4,0,0,0,0,0,0,0,0" 
class="s3_2"
>Tonia Chen</text>

<path d="M1086.1,790.5l-313.6,0l0,-264.5l313.6,0l0,264.5Z" class="g5_2" />
<path d="M925.9,606.6c-1.8,1.6,-3.4,2.5,-7.1,2.5l-7.9,0l0,-19.7l7.9,0c3.7,0,5.4,1,7.2,2.6c1.8,1.8,2.8,4.4,2.8,7.2c0,3,-1.1,5.6,-2.9,7.4m-7,-20.2l-11.4,0l0,25.7l11.4,0c4.9,0,7.3,-1.2,9.7,-3.4c2.4,-2.3,3.8,-5.7,3.8,-9.5c0,-3.6,-1.3,-6.9,-3.6,-9.2c-2.4,-2.3,-5,-3.6,-9.9,-3.6Z" class="g6_2" />
<path d="M964.2,586.4l-3.4,0l0,25.7l19.7,0l0,-3l-16.3,0Z" class="g6_2" />
<path d="M999.7,586.4l-23.5,0l0,3l10,0l0,22.7l3.5,0l0,-22.7l10,0Z" class="g6_2" />
<path d="M897.8,617.6l1.8,0l0,-36.7l-1.8,0l0,36.7Z" class="g7_2" />
<path d="M878.4,599.3l0,1.5l8.4,0l0,6.4c-2,1.6,-5.3,2.6,-8.3,2.6c-6.8,0,-10.9,-5,-10.9,-10.5c0,-5.8,4.4,-10.6,10.5,-10.6c3.3,0,6.9,1.3,9.2,3.5l2.4,-2.2c-3.3,-2.8,-7.5,-4.3,-11.6,-4.3c-7.9,0,-14.1,6,-14.1,13.5c0,7.5,6.2,13.6,14.3,13.6c4.1,0,8.5,-1.5,11.6,-3.9l0,-11.2l-11.5,0Z" class="g6_2" />
<path d="M939,600.8l10.4,0l0,-1.5l0,-1.6l-10.4,0l0,-8.3l17.3,0l0,-3l-20.7,0l0,25.7l21.6,0l0,-3l-18.2,0Z" class="g6_2" />
<path d="M849.7,586.4l-14.8,25.7l3.6,0l4.5,-7.7l7.3,0l0,-2.8l-5.7,0l5.7,-9.9l11.8,20.4l3.6,0L850.8,586.4Z" class="g6_2" />
<path d="M1012.3,586.4l-1,0l-14.9,25.7l3.6,0l11.8,-20.4l5.7,9.9l-5.7,0l0,2.8l7.3,0l4.5,7.7l3.6,0Z" class="g6_2" />
<path d="M829,220.2c4.5,0,8.2,3.7,8.2,8.3l0,15.5c0,4.6,-3.7,8.2,-8.2,8.2l-15.5,0c-4.6,0,-8.3,-3.6,-8.3,-8.2l0,-15.5c0,-4.6,3.7,-8.3,8.3,-8.3Z" class="g6_2" />
<path d="M829,220.2c4.5,0,8.2,3.7,8.2,8.3l0,15.5c0,4.6,-3.7,8.2,-8.2,8.2l-15.5,0c-4.6,0,-8.3,-3.6,-8.3,-8.2l0,-15.5c0,-4.6,3.7,-8.3,8.3,-8.3l15.5,0Z" class="g8_2" />
<path d="M533.9,220.2c4.6,0,8.2,3.7,8.2,8.3l0,15.5c0,4.6,-3.6,8.2,-8.2,8.2l-15.5,0c-4.6,0,-8.3,-3.6,-8.3,-8.2l0,-15.5c0,-4.6,3.7,-8.3,8.3,-8.3Z" class="g9_2" />
<path d="M250,220.2c4.6,0,8.3,3.7,8.3,8.3l0,15.5c0,4.6,-3.7,8.2,-8.3,8.2l-15.5,0c-4.6,0,-8.3,-3.6,-8.3,-8.2l0,-15.5c0,-4.6,3.7,-8.3,8.3,-8.3Z" class="g4_2" />
<text 
x="226" 
y="326" 
dx="0,0,-0.2,0" 
class="s4_2"
>HTML</text>

<text 
x="226" 
y="348" 
dx="0,0,0" 
class="s4_2"
>PMS</text>

<text 
x="226" 
y="370" 
dx="0,0,-0.4,0" 
class="s4_2"
>CMYK</text>

<text 
x="226" 
y="392" 
dx="0,0,0" 
class="s4_2"
>RGB</text>

<text 
x="226" 
y="183" 
dx="0,0,0,-0.8,0" 
class="s5_2"
>COLOR</text>

<text 
x="805" 
y="272" 
dx="0,0,0,0,-0.2" 
class="s6_2"
>White</text>

<text 
x="510" 
y="272" 
dx="0,0,0,0,0" 
class="s6_2"
>Black</text>

<text 
x="226" 
y="272" 
dx="0,0,-0.3,0,0,0,0" 
class="s6_2"
>Scarlet</text>

<text 
x="226" 
y="289" 
dx="0,0,0,0,0,0,-0.2" 
class="s7_2"
>PRIMARY</text>

<text 
x="772" 
y="510" 
dx="0,-0.8,0,0" 
class="s5_2"
>LOGO</text>

<text 
x="226" 
y="510" 
dx="0,-0.3,0,0,0" 
class="s5_2"
>FONTS</text>

<path d="M925.8,702.6c-1.8,1.5,-3.4,2.5,-7.1,2.5l-8,0l0,-19.9l8,0c3.7,0,5.5,1,7.3,2.6c1.8,1.9,2.7,4.5,2.7,7.3c0,3,-1,5.6,-2.9,7.5m-7,-20.5l-11.5,0l0,26.1l11.5,0c4.9,0,7.4,-1.3,9.7,-3.5c2.5,-2.3,3.9,-5.8,3.9,-9.6c0,-3.7,-1.3,-7,-3.7,-9.3c-2.3,-2.3,-5,-3.7,-9.9,-3.7Z" class="g6_2" />
<path d="M964.6,682.1l-3.5,0l0,26.1l19.9,0l0,-3.1l-16.4,0Z" class="g6_2" />
<path d="M1000.3,682.1l-23.6,0l0,3.1l10.1,0l0,23l3.5,0l0,-23l10,0Z" class="g6_2" />
<path d="M897.5,713.6l1.8,0l0,-36.9l-1.8,0l0,36.9Z" class="g6_2" />
<path d="M877.9,695.1l0,1.6l8.4,0l0,6.5c-1.9,1.6,-5.3,2.6,-8.4,2.6c-6.8,0,-11,-5.1,-11,-10.6c0,-5.9,4.5,-10.7,10.7,-10.7c3.3,0,6.9,1.3,9.3,3.5l2.4,-2.2c-3.4,-2.8,-7.6,-4.4,-11.7,-4.4c-8,0,-14.3,6.1,-14.3,13.7c0,7.6,6.3,13.7,14.4,13.7c4.2,0,8.6,-1.5,11.8,-3.9l0,-11.3l-11.6,0Z" class="g6_2" />
<path d="M939.1,696.7l10.5,0l0,-1.6l0,-1.5l-10.5,0l0,-8.4l17.5,0l0,-3.1l-21,0l0,26.1l21.9,0l0,-3.1l-18.4,0Z" class="g6_2" />
<path d="M848.9,682.1l-15,26.1l3.7,0l4.5,-7.8l7.4,0l0,-2.8l-5.8,0l5.8,-10l11.9,20.6l3.6,0L850,682.1Z" class="g6_2" />
<path d="M1013.2,682.1l-1.1,0l-15,26.1l3.6,0l11.9,-20.6l5.8,10l-5.7,0l0,2.8l7.3,0l4.5,7.8l3.7,0Z" class="g6_2" />
<path d="M872.7,734l-1.6,0l0,-13.2l1.6,0l0,13.2Z" class="g6_2" />
<path d="M876.9,725.4l-1.6,0l0,8.6l1.6,0l0,-8.6Zm-0.8,-4.2c0.6,0,1.1,0.4,1.1,1.1c0,0.6,-0.5,1.1,-1.1,1.1c-0.6,0,-1.2,-0.5,-1.2,-1.1c0,-0.7,0.6,-1.1,1.2,-1.1Z" class="g6_2" />
<path d="M880.2,725.4l2.6,6.5l2.6,-6.5l1.8,0l-3.6,8.6l-1.6,0l-3.6,-8.6Z" class="g6_2" />
<path d="M894.8,729c-0.2,-1.4,-1.2,-2.2,-2.6,-2.2c-1.4,0,-2.5,0.8,-2.7,2.2Zm1.6,1.4l-6.9,0c0.2,1.4,1.3,2.3,2.7,2.3c1.1,0,2,-0.5,2.5,-1.3c0.4,0.1,1,0.3,1.4,0.5c-0.7,1.5,-2.3,2.3,-3.9,2.3c-2.5,0,-4.4,-1.8,-4.4,-4.5c0,-2.7,1.9,-4.5,4.4,-4.5c2.4,0,4.2,1.8,4.2,4.5c0,0.2,0,0.5,0,0.7Z" class="g6_2" />
<path d="M904.8,725.4l-1.6,0l0,8.6l1.6,0l0,-8.6ZM904,721.2c0.6,0,1.1,0.4,1.1,1.1c0,0.6,-0.5,1.1,-1.1,1.1c-0.6,0,-1.2,-0.5,-1.2,-1.1c0,-0.7,0.6,-1.1,1.2,-1.1Z" class="g6_2" />
<path d="M909,734l-1.6,0l0,-8.6l1.6,0l0,1.3c0.5,-1,1.8,-1.5,2.7,-1.5c2.1,0,3.3,1.4,3.3,3.8l0,5l-1.7,0l0,-4.8c0,-1.5,-0.7,-2.3,-1.8,-2.3c-1.3,0,-2.5,0.7,-2.5,2.5Z" class="g6_2" />
<path d="M926.4,725.4l0,1.4l-1.8,0l0,7.2l-1.7,0l0,-7.2l-1.5,0l0,-1.4l1.5,0l0,-3.2l1.7,0l0,3.2Z" class="g6_2" />
<path d="M934.7,729.7c0,-1.7,-1.3,-2.8,-2.9,-2.8c-1.5,0,-2.8,1.1,-2.8,2.8c0,1.7,1.3,2.9,2.8,2.9c1.6,0,2.9,-1.2,2.9,-2.9m-7.4,0c0,-2.7,2.1,-4.5,4.5,-4.5c2.5,0,4.5,1.8,4.5,4.5c0,2.7,-2,4.5,-4.5,4.5c-2.4,0,-4.5,-1.8,-4.5,-4.5Z" class="g6_2" />
<path d="M945.6,729.4l0,4.6l-1.7,0l0,-4.9c0,-1.4,-0.7,-2.2,-1.9,-2.2c-1.1,0,-2.3,0.7,-2.3,2.5l0,4.6l-1.7,0l0,-8.6l1.7,0l0,1.3c0.4,-0.9,1.6,-1.4,2.3,-1.4c0.4,0,0.7,0,1,0c1,0.2,1.8,0.8,2.2,1.7c0.8,-1.5,2.1,-1.8,3,-1.8c2.1,0,3.3,1.4,3.3,3.8l0,5l-1.7,0l0,-4.8c0,-1.5,-0.7,-2.3,-2,-2.3c-1.4,0,-2.2,1,-2.2,2.5Z" class="g6_2" />
<path d="M960.4,729.7c0,-1.7,-1.3,-2.8,-2.9,-2.8c-1.5,0,-2.8,1.1,-2.8,2.8c0,1.7,1.3,2.9,2.8,2.9c1.6,0,2.9,-1.2,2.9,-2.9m-7.3,0c0,-2.7,2,-4.5,4.4,-4.5c2.5,0,4.5,1.8,4.5,4.5c0,2.7,-2,4.5,-4.5,4.5c-2.4,0,-4.4,-1.8,-4.4,-4.5Z" class="g6_2" />
<path d="M965.4,734l-1.7,0l0,-8.6l1.7,0l0,2c0.4,-1.5,1.2,-2.2,2.4,-2.2c0.6,0,1.2,0.2,1.4,0.4l-0.2,1.5c-0.5,-0.2,-0.9,-0.3,-1.3,-0.3c-1.6,0,-2.3,1.8,-2.3,4.1Z" class="g6_2" />
<path d="M972.1,734l-1.7,0l0,-8.6l1.7,0l0,2c0.4,-1.5,1.2,-2.2,2.3,-2.2c0.7,0,1.3,0.2,1.5,0.4l-0.2,1.5c-0.5,-0.2,-0.9,-0.3,-1.3,-0.3c-1.6,0,-2.3,1.8,-2.3,4.1Z" class="g6_2" />
<path d="M984.1,729.7c0,-1.7,-1.3,-2.8,-2.9,-2.8c-1.5,0,-2.8,1.1,-2.8,2.8c0,1.7,1.3,2.9,2.8,2.9c1.6,0,2.9,-1.2,2.9,-2.9m-7.3,0c0,-2.7,2,-4.5,4.4,-4.5c2.5,0,4.5,1.8,4.5,4.5c0,2.7,-2,4.5,-4.5,4.5c-2.4,0,-4.4,-1.8,-4.4,-4.5Z" class="g6_2" />
<path d="M995.7,734l-2.4,-6.3l-2.2,6.3l-1.4,0l-3.3,-8.6l1.8,0l2.2,6l2.1,-6l1.6,0l2.2,6l2.1,-6l1.8,0L997,734Z" class="g6_2" />
<text 
x="226" 
y="552" 
dx="0,0,-0.1,0,0,0,-0.1,-0.3,0,0,-0.4,0,0,0,0,0,-0.4,0,0,-0.2,0,0,0,0,0,0,0,-0.4" 
class="s8_2"
>Soﬁa Pro Regular (Name only)</text>

<text 
x="226" 
y="574" 
dx="0,0,-0.1,0,0,0,-0.1,-0.3,0,0,0,0,0,0" 
class="s8_2"
>Soﬁa Pro Light</text>

<text 
x="226" 
y="596" 
dx="0,-1.5,0,0,0,-0.5,0,0,0,0,0,0,0,0,-0.4,0,0,0,0,0,-0.4" 
class="s8_2"
>Yuan Ti Jian Regular </text>

<text 
x="396" 
y="596" 
dx="0,0,0,0" 
class="s9_2"
>圆体-简</text>

<text 
x="465" 
y="596" 
dx="0,-0.6,0,0,0,0,0,0,0,0,0,0,0,-0.4" 
class="s8_2"
>(Chinese only)</text>

<text 
x="303" 
y="325" 
dx="0,0,0,0,0,0,0" 
class="s6_2"
>#E61E19</text>

<text 
x="303" 
y="347" 
dx="0,0,0,0" 
class="s6_2"
>199C</text>

<text 
x="303" 
y="369" 
dx="0,0,0,0,0,0,0,-0.5" 
class="s6_2"
>100M 90Y</text>

<text 
x="303" 
y="391" 
dx="0,0,0,0,0,0,0,0,0,0" 
class="s6_2"
>230 30 25 </text>

<text 
x="508" 
y="326" 
dx="0,0,-0.2,0" 
class="s4_2"
>HTML</text>

<text 
x="508" 
y="348" 
dx="0,0,0" 
class="s4_2"
>PMS</text>

<text 
x="508" 
y="370" 
dx="0,0,-0.4,0" 
class="s4_2"
>CMYK</text>

<text 
x="508" 
y="392" 
dx="0,0,0" 
class="s4_2"
>RGB</text>

<text 
x="586" 
y="325" 
dx="0,0,0,0,0,0,0" 
class="s6_2"
>#000000</text>

<text 
x="586" 
y="347" 
dx="0,0,0,0" 
class="s6_2"
>199C</text>

<text 
x="586" 
y="369" 
dx="0,0,0,0,0,0,0,0,0,0,0" 
class="s6_2"
>75 68 67 90</text>

<text 
x="586" 
y="391" 
dx="0,0,0,0,0,0" 
class="s6_2"
>0 0 0 </text>

<text 
x="804" 
y="322" 
dx="0,0,-0.2,0" 
class="s4_2"
>HTML</text>

<text 
x="804" 
y="344" 
dx="0,0,0" 
class="s4_2"
>PMS</text>

<text 
x="804" 
y="366" 
dx="0,0,-0.4,0" 
class="s4_2"
>CMYK</text>

<text 
x="804" 
y="388" 
dx="0,0,0" 
class="s4_2"
>RGB</text>

<text 
x="882" 
y="321" 
dx="0,0,0,0,0,0,0" 
class="s6_2"
>#FFFFFF</text>

<text 
x="882" 
y="343" 
dx="0,0,0,0" 
class="s6_2"
>199C</text>

<text 
x="882" 
y="365" 
dx="0,0,0,0,0,0,0,0" 
class="s6_2"
>0 0 0 0 </text>

<text 
x="882" 
y="387" 
dx="0,0,0,0,0,0,0,0,0,0,0" 
class="s6_2"
>255 255 255</text>

<text 
x="226" 
y="689" 
dx="0,0,-1.6,0,0,0,0,0" 
class="s5_2"
>MATERIAL</text>

<text 
x="226" 
y="720" 
dx="0,0,0,0,0,0,0,0,0,0,0,-0.4,0,-0.3,0,-0.3,0,-0.5,0,0,0,0,0,0,0,0,-0.4,0,0,0,0,0,0,0,0,0,0,0" 
class="s8_2"
>360 gsm art card with matt lami 2 side</text>

<text 
x="226" 
y="742" 
dx="0,0,0,0,0,0,0,0,0,0,0,-0.3,0" 
class="s8_2"
>RED and BLACK</text>



<!-- Any embedded fonts defined here -->
<style type="text/css" ><![CDATA[

@font-face {
	font-family: SofiaProLight_2-;
	src: url("fonts/SofiaProLight_2-.woff") format("woff");
}

@font-face {
	font-family: STYuanti-SC-Regular_3r;
	src: url("fonts/STYuanti-SC-Regular_3r.woff") format("woff");
}

@font-face {
	font-family: SofiaProRegular_3b;
	src: url("fonts/SofiaProRegular_3b.woff") format("woff");
}

]]></style>

</svg>
