<?xml version="1.0" encoding="UTF-8" standalone="no"?>
<!DOCTYPE svg PUBLIC "-//W3C//DTD SVG 1.1//EN"
"http://www.w3.org/Graphics/SVG/1.1/DTD/svg11.dtd">


<!-- Page 4 -->
<svg x="0" y="0" width="1286" height="909" viewBox="0 0 1286 909" version="1.1" xmlns="http://www.w3.org/2000/svg" xmlns:xlink="http://www.w3.org/1999/xlink"
style="display: block;margin-left: auto;margin-right: auto;">
<defs>
<clipPath id="c0_4"><path d="M0,909L0,0L1286.4,0l0,909Z" /></clipPath>

<style type="text/css"><![CDATA[

.g1_4{
fill: #010101;
}
.g2_4{
fill: #E32526;
}
.g3_4{
fill: #808285;
fill-opacity: 0.350006;
stroke: #939598;
stroke-width: 0.7638889;
stroke-linecap: butt;
stroke-linejoin: miter;
stroke-opacity: 0.350006;
}
.g4_4{
fill: #E42325;
}
.g5_4{
fill: #FFFFFF;
stroke: #CFCFCE;
stroke-width: 1.5277778;
stroke-linecap: butt;
stroke-linejoin: miter;
}
.g6_4{
fill: none;
stroke: #6D6E71;
stroke-width: 0.7638889;
stroke-linecap: butt;
stroke-linejoin: miter;
}
.g7_4{
fill: none;
stroke: #221E1F;
stroke-width: 0.7638889;
stroke-linecap: butt;
stroke-linejoin: miter;
}
.g8_4{
fill: none;
stroke: #6D6E71;
stroke-width: 0.7638889;
stroke-linecap: butt;
stroke-linejoin: miter;
stroke-opacity: 0.990005;
}

.s1_4{
font-size: 15.28px;
font-family: SofiaProLight_2-;
fill: #6D6E71;
}
.s2_4{
font-size: 55.00px;
font-family: SofiaProLight_2-;
fill: #231F20;
}
.s3_4{
font-size: 15.28px;
font-family: SofiaProRegular_3b;
fill: rgba(34, 30, 31, 0.99);
}
.s4_4{
font-size: 13.75px;
font-family: STYuanti-SC-Regular_3r;
fill: rgba(34, 30, 31, 0.99);
}
.s5_4{
font-size: 12.22px;
font-family: SofiaProLight_2-;
fill: rgba(34, 30, 31, 0.99);
}
.s6_4{
font-size: 10.69px;
font-family: SofiaProLight_2-;
fill: rgba(34, 30, 31, 0.99);
}
.s7_4{
font-size: 9.17px;
font-family: STYuanti-SC-Regular_3r;
fill: #221E1F;
}
.s8_4{
font-size: 21.39px;
font-family: STYuanti-SC-Regular_2q;
fill: #231F20;
}

]]></style>

</defs>
<path d="M0,0
L0,909
L1286,909
L1286,0 Z " 
fill="#FFFFFF" stroke="none" />
<path d="M132.3,46.1c-1.5,1.2,-2.7,1.9,-5.6,1.9l-6.2,0l0,-15.4l6.2,0c2.9,0,4.3,0.8,5.7,2c1.3,1.5,2.1,3.5,2.1,5.7c0,2.3,-0.8,4.3,-2.2,5.8M126.8,30.2l-8.9,0l0,20.2l8.9,0c3.8,0,5.7,-1,7.6,-2.7c1.8,-1.8,2.9,-4.5,2.9,-7.4c0,-2.9,-1,-5.5,-2.8,-7.3c-1.8,-1.7,-3.9,-2.8,-7.7,-2.8Z" class="g1_4" />
<path d="M162.3,30.2l-2.7,0l0,20.2l15.4,0L175,48l-12.7,0Z" class="g1_4" />
<path d="M190,30.2l-18.3,0l0,2.4l7.8,0l0,17.8l2.7,0l0,-17.8l7.8,0Z" class="g1_4" />
<path d="M110.3,54.6l1.4,0l0,-28.6l-1.4,0l0,28.6Z" class="g2_4" />
<path d="M95.1,40.3l0,1.2l6.5,0l0,5.1c-1.5,1.2,-4.1,1.9,-6.5,1.9c-5.3,0,-8.5,-3.9,-8.5,-8.2c0,-4.5,3.5,-8.2,8.3,-8.2c2.5,0,5.4,1,7.1,2.7l1.9,-1.7C101.3,30.9,98,29.7,94.8,29.7c-6.1,0,-11,4.7,-11,10.6c0,5.9,4.8,10.6,11.2,10.6c3.2,0,6.6,-1.1,9.1,-3l0,-8.8l-9,0Z" class="g1_4" />
<path d="M142.5,41.5l8.2,0l0,-1.2l0,-1.2l-8.2,0l0,-6.5l13.6,0l0,-2.4l-16.2,0l0,20.2l16.9,0l0,-2.4l-14.3,0Z" class="g1_4" />
<path d="M72.6,30.2L61,50.4l2.8,0l3.5,-6.1l5.7,0l0,-2.1l-4.4,0L73,34.4l9.3,16l2.8,0L73.5,30.2Z" class="g1_4" />
<path d="M200,30.2l-0.9,0L187.5,50.4l2.8,0l9.2,-16l4.5,7.8l-4.4,0l0,2.1l5.7,0l3.5,6.1l2.8,0Z" class="g1_4" />
<path d="M1,90.6l1283.4,0" class="g3_4" />
<text 
x="23" 
y="69" 
dx="0,0,-0.2,0,0,0,0,-0.1,0,-0.2,0,0,0,0,0,0,-0.1,0,0,0,0,0,0,0" 
class="s1_4"
>Brand Merchandize Design</text>

<path d="M228.4,79.4l0,-56.4" class="g3_4" />
<path d="M6.1,74.9l-5.6,0l0,-55.8l5.6,0l0,55.8Z" class="g4_4" />
<text 
x="258" 
y="65" 
dx="0,-0.5,0,0,0,0,0,0,-0.8" 
class="s2_4"
>Name Card</text>

<path d="M567.3,786.4l-433.1,0l0,-259.8l433.1,0l0,259.8Z" class="g5_4" />
<path d="M388.2,554.3l0,203.6" class="g6_4" />
<path d="M539.1,757.9l-376.7,0l0,-203.6l376.7,0l0,203.6Z" class="g7_4" />
<g clip-path="url(#c0_4)">
<g fill="#221E1F" fill-opacity="0.99" >
<use xlink:href="#f0_2" transform="matrix(10,0,0,10,275.1,649.8)" />
</g>
</g>
<text 
x="187" 
y="649" 
dx="0,0,0,0,0,0,-0.6,-1.2,0,0,0" 
class="s3_4"
>Zhang Yuan </text>

<g clip-path="url(#c0_4)">
<g fill="#221E1F" fill-opacity="0.99" >
<use xlink:href="#f0_3" transform="matrix(10,0,0,10,317.9,649.8)" />
</g>
</g>
<text 
x="290" 
y="649" 
dx="0,0" 
class="s4_4"
>张元</text>

<text 
x="187" 
y="666" 
dx="0,-0.1,0,0,0,0,0,0,0,0,-0.3,0,0,0,0,0,0,0,0,0,0,0,0,-0.1,0,0,0,0,0" 
class="s5_4"
>Business Relationship Manager</text>

<text 
x="187" 
y="707" 
dx="0,0,0,0,0,0,-0.4,0,0,0,0,0,0,0,0,0,0,-0.1,0,0,-0.2,0" 
class="s6_4"
>zhang.yuan@agdelta.com</text>

<text 
x="187" 
y="724" 
dx="0,0,0,-0.4,0,0,0,0,0,0,-0.1,0,0,-0.2,0" 
class="s6_4"
>www.agdelta.com</text>

<text 
x="407" 
y="650" 
dx="0,0" 
class="s6_4"
>O:</text>

<text 
x="407" 
y="666" 
dx="0,0,0" 
class="s6_4"
>M: </text>

<text 
x="427" 
y="650" 
dx="0,0,0,0,0,0,0,0,0,0,0,0,0" 
class="s6_4"
>+65 6486 5866</text>

<text 
x="427" 
y="666" 
dx="0,0,0,0,0,0,-0.2,0,0,0,0,0,0" 
class="s6_4"
>+65 9784 5138</text>

<text 
x="407" 
y="687" 
dx="0,0,0,0,0,0,0,-0.1,0,0,-0.3,-0.5,0,-0.4" 
class="s6_4"
>6 Shenton Way,</text>

<text 
x="407" 
y="699" 
dx="0,0,0,-0.5,0,0,0,0,0,0,0,0,0,-0.1,0,0,-0.1,-0.1,0,0,0" 
class="s6_4"
>#37-01 OUE Downtown 1</text>

<text 
x="407" 
y="712" 
dx="0,-0.1,0,0,0,0,0,0,-0.2,0,0,0,0,0,0,0" 
class="s6_4"
>Singapore 068809</text>

<path d="M388.2,554.3l0,203.6" class="g8_4" />
<path d="M255.3,591.6c-1.3,1.1,-2.5,1.8,-5.2,1.8l-5.7,0l0,-14.4l5.7,0c2.7,0,4,0.7,5.3,1.9c1.3,1.4,2,3.2,2,5.3c0,2.1,-0.8,4.1,-2.1,5.4m-5.1,-14.8l-8.4,0l0,18.8l8.4,0c3.5,0,5.3,-0.9,7,-2.4c1.8,-1.7,2.8,-4.3,2.8,-7c0,-2.7,-0.9,-5.1,-2.6,-6.8c-1.7,-1.6,-3.7,-2.6,-7.2,-2.6Z" class="g1_4" />
<path d="M283.3,576.8l-2.5,0l0,18.8l14.4,0l0,-2.2l-11.9,0Z" class="g1_4" />
<path d="M309.1,576.8l-17.1,0l0,2.2l7.3,0l0,16.6l2.6,0l0,-16.6l7.2,0Z" class="g1_4" />
<path d="M234.8,599.6l1.3,0l0,-26.7l-1.3,0l0,26.7Z" class="g2_4" />
<path d="M220.6,586.2l0,1.1l6.1,0l0,4.8c-1.4,1.1,-3.8,1.8,-6.1,1.8c-4.9,0,-7.9,-3.6,-7.9,-7.7c0,-4.2,3.2,-7.7,7.7,-7.7c2.4,0,5,1,6.7,2.5l1.7,-1.5c-2.4,-2.1,-5.5,-3.2,-8.4,-3.2c-5.8,0,-10.3,4.4,-10.3,9.9c0,5.5,4.5,9.9,10.4,9.9c3,0,6.2,-1.1,8.5,-2.8l0,-8.2l-8.4,0Z" class="g1_4" />
<path d="M264.9,587.3l7.6,0l0,-1.1l0,-1.1l-7.6,0l0,-6.1l12.6,0l0,-2.2l-15.1,0l0,18.8l15.8,0l0,-2.2l-13.3,0Z" class="g1_4" />
<path d="M199.7,576.8l-10.9,18.8l2.7,0l3.2,-5.6l5.4,0l0,-2l-4.2,0l4.2,-7.3l8.6,14.9l2.6,0L200.4,576.8Z" class="g1_4" />
<path d="M318.4,576.8l-0.8,0l-10.8,18.8l2.6,0L318,580.7l4.2,7.3l-4.2,0l0,2l5.4,0l3.2,5.6l2.7,0Z" class="g1_4" />
<path d="M567.3,457.4l-433.1,0l0,-259.9l433.1,0l0,259.9Z" class="g5_4" />
<path d="M388.2,225.2l0,203.7" class="g6_4" />
<path d="M539.1,428.9l-376.7,0l0,-203.7l376.7,0l0,203.7Z" class="g7_4" />
<g clip-path="url(#c0_4)">
<g fill="#221E1F" fill-opacity="0.99" >
<use xlink:href="#f0_2" transform="matrix(10,0,0,10,278,320.7)" />
</g>
</g>
<text 
x="187" 
y="320" 
dx="0,-1.4,0,0,0,-0.2,0,0,0,-0.2,0,0" 
class="s3_4"
>Tan Lee Nah </text>

<g clip-path="url(#c0_4)">
<g fill="#221E1F" fill-opacity="0.99" >
<use xlink:href="#f0_3" transform="matrix(10,0,0,10,334.5,320.7)" />
</g>
</g>
<text 
x="293" 
y="320" 
dx="0,0,0" 
class="s4_4"
>陈丽娜</text>

<text 
x="187" 
y="337" 
dx="0,-0.1,0,0,0,0,-0.1,-0.3,0,-0.3,0,0,0,0,0,0,0,-0.4,-0.6,0,0,0,0,0,-0.4,-0.1,0,0,0,0,0,0" 
class="s5_4"
>Head of Regional Wealth Advisory</text>

<text 
x="187" 
y="378" 
dx="0,-0.1,0,0,0,0,0,0,0,0,0,0,0,0,0,0,0,-0.1,0,0,-0.2,0" 
class="s6_4"
>tan.leenah@agdelta.com</text>

<text 
x="187" 
y="395" 
dx="0,0,0,-0.4,0,0,0,0,0,0,-0.1,0,0,-0.2,0" 
class="s6_4"
>www.agdelta.com</text>

<text 
x="407" 
y="321" 
dx="0,0" 
class="s6_4"
>O:</text>

<text 
x="407" 
y="337" 
dx="0,0,0" 
class="s6_4"
>M: </text>

<text 
x="427" 
y="321" 
dx="0,0,0,0,0,0,0,0,0,0,0,0,0" 
class="s6_4"
>+65 6486 5888</text>

<text 
x="427" 
y="337" 
dx="0,0,0,0,0,0,0,0,0,0,0,0,0" 
class="s6_4"
>+65 9818 0010</text>

<text 
x="407" 
y="358" 
dx="0,0,0,0,0,0,0,-0.1,0,0,-0.3,-0.5,0,-0.4" 
class="s6_4"
>6 Shenton Way,</text>

<text 
x="407" 
y="370" 
dx="0,0,0,-0.5,0,0,0,0,0,0,0,0,0,-0.1,0,0,-0.1,-0.1,0,0,0" 
class="s6_4"
>#37-01 OUE Downtown 1</text>

<text 
x="407" 
y="383" 
dx="0,-0.1,0,0,0,0,0,0,-0.2,0,0,0,0,0,0,0" 
class="s6_4"
>Singapore 068809</text>

<path d="M388.2,225.2l0,203.7" class="g8_4" />
<path d="M255.3,262.6c-1.3,1.1,-2.5,1.8,-5.2,1.8l-5.7,0l0,-14.4l5.7,0c2.7,0,4,0.7,5.3,1.9c1.3,1.3,2,3.2,2,5.3c0,2.1,-0.8,4,-2.1,5.4m-5.1,-14.8l-8.4,0l0,18.8l8.4,0c3.5,0,5.3,-0.9,7,-2.5c1.8,-1.7,2.8,-4.2,2.8,-6.9c0,-2.7,-0.9,-5.1,-2.6,-6.8c-1.7,-1.6,-3.7,-2.6,-7.2,-2.6Z" class="g1_4" />
<path d="M283.3,247.8l-2.5,0l0,18.8l14.4,0l0,-2.2l-11.9,0Z" class="g1_4" />
<path d="M309.1,247.8l-17.1,0l0,2.2l7.3,0l0,16.6l2.6,0l0,-16.6l7.2,0Z" class="g1_4" />
<path d="M234.8,270.5l1.3,0l0,-26.7l-1.3,0l0,26.7Z" class="g2_4" />
<path d="M220.6,257.2l0,1.1l6.1,0l0,4.7c-1.4,1.2,-3.8,1.9,-6.1,1.9c-4.9,0,-7.9,-3.7,-7.9,-7.7c0,-4.2,3.2,-7.7,7.7,-7.7c2.4,0,5,0.9,6.7,2.5l1.7,-1.6c-2.4,-2,-5.5,-3.1,-8.4,-3.1c-5.8,0,-10.3,4.4,-10.3,9.9c0,5.4,4.5,9.9,10.4,9.9c3,0,6.2,-1.1,8.5,-2.9l0,-8.1l-8.4,0Z" class="g1_4" />
<path d="M264.9,258.3l7.6,0l0,-1.1l0,-1.1l-7.6,0l0,-6.1l12.6,0l0,-2.2l-15.1,0l0,18.8l15.8,0l0,-2.2l-13.3,0Z" class="g1_4" />
<path d="M199.7,247.8l-10.9,18.8l2.7,0l3.2,-5.7l5.4,0l0,-2l-4.2,0l4.2,-7.2l8.6,14.9l2.6,0L200.4,247.8Z" class="g1_4" />
<path d="M318.4,247.8l-0.8,0l-10.8,18.8l2.6,0L318,251.7l4.2,7.2l-4.2,0l0,2l5.4,0l3.2,5.7l2.7,0Z" class="g1_4" />
<text 
x="187" 
y="348" 
dx="0,0,0,0,0,0,0,0" 
class="s7_4"
>首席财富咨询顾问</text>

<path d="M1097.9,457.4l-433.1,0l0,-259.9l433.1,0l0,259.9Z" class="g5_4" />
<path d="M918.8,225.2l0,203.7" class="g6_4" />
<path d="M1069.8,428.9l-376.8,0l0,-203.7l376.8,0l0,203.7Z" class="g7_4" />
<g clip-path="url(#c0_4)">
<g fill="#221E1F" fill-opacity="0.99" >
<use xlink:href="#f0_2" transform="matrix(10,0,0,10,798.1,320.7)" />
</g>
</g>
<text 
x="718" 
y="320" 
dx="0,0,0,0,-0.2,-0.1,-0.4,-0.5,-0.1,0" 
class="s3_4"
>Andrew Au </text>

<g clip-path="url(#c0_4)">
<g fill="#221E1F" fill-opacity="0.99" >
<use xlink:href="#f0_3" transform="matrix(10,0,0,10,854.7,320.7)" />
</g>
</g>
<text 
x="813" 
y="320" 
dx="0,0,0" 
class="s4_4"
>区宏远</text>

<text 
x="718" 
y="337" 
dx="0,0,0,0,0,-0.3,0,0,-0.2,0,0,0,0,0,-0.1,0,0,0,0,-0.2" 
class="s5_4"
>Chief Executive Oﬃce</text>

<text 
x="718" 
y="378" 
dx="0,0,0,0,-0.1,-0.1,-0.4,0,0,0,0,0,0,0,0,0,-0.1,0,0,-0.2,0" 
class="s6_4"
>andrew.au@agdelta.com</text>

<text 
x="718" 
y="395" 
dx="0,0,0,-0.4,0,0,0,0,0,0,-0.1,0,0,-0.2,0" 
class="s6_4"
>www.agdelta.com</text>

<text 
x="938" 
y="321" 
dx="0,0" 
class="s6_4"
>O:</text>

<text 
x="938" 
y="337" 
dx="0,0,0" 
class="s6_4"
>M: </text>

<text 
x="958" 
y="321" 
dx="0,0,0,0,0,0,0,0,0,0,0,0,0" 
class="s6_4"
>+65 6486 5888</text>

<text 
x="958" 
y="337" 
dx="0,0,0,0,0,0,0,0,0,0,0,0,0" 
class="s6_4"
>+65 9011 9547</text>

<text 
x="938" 
y="358" 
dx="0,0,0,0,0,0,0,-0.1,0,0,-0.3,-0.5,0,-0.4" 
class="s6_4"
>6 Shenton Way,</text>

<text 
x="938" 
y="370" 
dx="0,0,0,-0.5,0,0,0,0,0,0,0,0,0,-0.1,0,0,-0.1,-0.1,0,0,0" 
class="s6_4"
>#37-01 OUE Downtown 1</text>

<text 
x="938" 
y="383" 
dx="0,-0.1,0,0,0,0,0,0,-0.2,0,0,0,0,0,0,0" 
class="s6_4"
>Singapore 068809</text>

<path d="M918.8,225.2l0,203.7" class="g8_4" />
<path d="M785.9,262.6c-1.3,1.1,-2.5,1.8,-5.2,1.8l-5.7,0L775,250l5.7,0c2.7,0,4,0.7,5.3,1.9c1.3,1.3,2,3.2,2,5.3c0,2.1,-0.8,4,-2.1,5.4m-5.1,-14.8l-8.3,0l0,18.8l8.3,0c3.5,0,5.3,-0.9,7.1,-2.5c1.7,-1.7,2.7,-4.2,2.7,-6.9c0,-2.7,-0.9,-5.1,-2.6,-6.8c-1.7,-1.6,-3.7,-2.6,-7.2,-2.6Z" class="g1_4" />
<path d="M813.9,247.8l-2.5,0l0,18.8l14.4,0l0,-2.2l-11.9,0Z" class="g1_4" />
<path d="M839.8,247.8l-17.2,0l0,2.2l7.4,0l0,16.6l2.5,0l0,-16.6l7.3,0Z" class="g1_4" />
<path d="M765.4,270.5l1.3,0l0,-26.7l-1.3,0l0,26.7Z" class="g2_4" />
<path d="M751.2,257.2l0,1.1l6.1,0l0,4.7c-1.4,1.2,-3.8,1.9,-6,1.9c-5,0,-8,-3.7,-8,-7.7c0,-4.2,3.3,-7.7,7.7,-7.7c2.4,0,5,0.9,6.7,2.5l1.7,-1.6c-2.4,-2,-5.4,-3.1,-8.4,-3.1c-5.8,0,-10.3,4.4,-10.3,9.9c0,5.4,4.5,9.9,10.4,9.9c3,0,6.2,-1.1,8.5,-2.9l0,-8.1l-8.4,0Z" class="g1_4" />
<path d="M795.5,258.3l7.6,0l0,-1.1l0,-1.1l-7.6,0l0,-6.1l12.6,0l0,-2.2l-15.1,0l0,18.8l15.8,0l0,-2.2l-13.3,0Z" class="g1_4" />
<path d="M730.3,247.8l-10.9,18.8l2.7,0l3.2,-5.7l5.4,0l0,-2l-4.2,0l4.2,-7.2l8.6,14.9l2.6,0L731.1,247.8Z" class="g1_4" />
<path d="M849,247.8l-0.7,0l-10.9,18.8l2.6,0l8.6,-14.9l4.2,7.2l-4.1,0l0,2l5.3,0l3.2,5.7l2.7,0Z" class="g1_4" />
<text 
x="719" 
y="349" 
dx="0,0,0,0" 
class="s7_4"
>执行总裁</text>

<text 
x="137" 
y="177" 
dx="0,0,0,0,0,0,0" 
class="s8_4"
>Example</text>


<defs>
	<path d="M1324.6,-238.2C1025.1,24.4,947.2,207.8,947.2,478.2c0,216.9,110,458.3,372.8,664.6l22.9,-19.9C1151.9,956.4,1048.1,695.1,1048.1,476.7c0,-270.4,77.9,-482.7,294.8,-692l-18.3,-22.9Z" 
	id="f0_2"
	transform="scale(0.001,-0.001)" />

	<path d="M175.7,-224.5l-22.9,22.9c191,180.3,278,427.7,278,666c0,233.8,-84,466,-282.6,650.9l18.3,22.9C440,927.4,534.7,681.4,534.7,464.4C534.7,194,407.9,-38.1,175.7,-224.5Z" 
	id="f0_3"
	transform="scale(0.001,-0.001)" />


</defs>

<!-- Any embedded fonts defined here -->
<style type="text/css" ><![CDATA[

@font-face {
	font-family: SofiaProLight_2-;
	src: url("fonts/SofiaProLight_2-.woff") format("woff");
}

@font-face {
	font-family: STYuanti-SC-Regular_3r;
	src: url("fonts/STYuanti-SC-Regular_3r.woff") format("woff");
}

@font-face {
	font-family: STYuanti-SC-Regular_2q;
	src: url("fonts/STYuanti-SC-Regular_2q.woff") format("woff");
}

@font-face {
	font-family: SofiaProRegular_3b;
	src: url("fonts/SofiaProRegular_3b.woff") format("woff");
}

]]></style>

</svg>
