<?xml version="1.0" encoding="UTF-8" standalone="no"?>
<!DOCTYPE svg PUBLIC "-//W3C//DTD SVG 1.1//EN"
"http://www.w3.org/Graphics/SVG/1.1/DTD/svg11.dtd">


<!-- Page 2 -->
<svg x="0" y="0" width="1286" height="909" viewBox="0 0 1286 909" version="1.1" xmlns="http://www.w3.org/2000/svg" xmlns:xlink="http://www.w3.org/1999/xlink"
style="display: block;margin-left: auto;margin-right: auto;">
<defs>

<style type="text/css"><![CDATA[

.g1_2{
fill: #FFFFFF;
}
.g2_2{
fill: none;
stroke: #231F20;
stroke-width: 0.65847224;
stroke-linecap: butt;
stroke-linejoin: miter;
stroke-dasharray: 4;
}
.g3_2{
fill: #2C2924;
}
.g4_2{
fill: #050604;
}
.g5_2{
fill: #E62524;
}
.g6_2{
fill: #808285;
fill-opacity: 0.350006;
stroke: #939598;
stroke-width: 0.7638889;
stroke-linecap: butt;
stroke-linejoin: miter;
stroke-opacity: 0.350006;
}
.g7_2{
fill: #E72324;
}
.g8_2{
fill: #E72524;
}
.g9_2{
fill: none;
stroke: #231F20;
stroke-width: 0.65847224;
stroke-linecap: butt;
stroke-linejoin: miter;
}

.s1_2{
font-size: 15.28px;
font-family: SofiaProLight_5;
fill: #6D6E71;
}
.s2_2{
font-size: 55.00px;
font-family: SofiaProLight_5;
fill: #231F20;
}
.s3_2{
font-size: 13.75px;
font-family: SofiaProLight_5;
fill: #6E6F72;
}
.s4_2{
font-size: 27.50px;
font-family: SofiaProLight_5;
fill: #050604;
}
.s5_2{
font-size: 18.33px;
font-family: SofiaProLight_5;
fill: #231F20;
}
.s6_2{
font-size: 13.75px;
font-family: SofiaProLight_5;
fill: #FFFFFF;
}
.s7_2{
font-size: 13.75px;
font-family: SofiaProLight_5;
fill: #2C2924;
}

]]></style>

</defs>
<path d="M0,0
L0,909
L1286,909
L1286,0 Z " 
fill="#FFFFFF" stroke="none" />
<path d="M884.9,737.5l-295.6,0c-4.9,0,-8.9,-4,-8.9,-8.9l0,-149.3c0,-4.9,4,-8.9,8.9,-8.9l295.6,0c4.9,0,8.9,4,8.9,8.9l0,149.3c0,4.9,-4,8.9,-8.9,8.9Z" class="g1_2" />
<path d="M884.9,737.5l-295.6,0c-4.9,0,-8.9,-4,-8.9,-8.9l0,-149.3c0,-4.9,4,-8.9,8.9,-8.9l295.6,0c4.9,0,8.9,4,8.9,8.9l0,149.3c0,4.9,-4,8.9,-8.9,8.9Z" class="g2_2" />
<path d="M545.8,737.5l-295.7,0c-4.9,0,-8.9,-4,-8.9,-8.9l0,-149.3c0,-4.9,4,-8.9,8.9,-8.9l295.7,0c4.9,0,8.9,4,8.9,8.9l0,149.3c0,4.9,-4,8.9,-8.9,8.9Z" class="g3_2" />
<path d="M132,46.1c-1.5,1.2,-2.7,1.9,-5.6,1.9l-6.2,0l0,-15.4l6.2,0c2.9,0,4.3,0.8,5.7,2c1.3,1.5,2.1,3.5,2.1,5.7c0,2.3,-0.8,4.3,-2.2,5.8M126.5,30.2l-8.9,0l0,20.2l8.9,0c3.8,0,5.7,-1,7.6,-2.7c1.8,-1.8,2.9,-4.5,2.9,-7.4c0,-2.9,-1,-5.5,-2.8,-7.3c-1.8,-1.7,-3.9,-2.8,-7.7,-2.8Z" class="g4_2" />
<path d="M162,30.2l-2.7,0l0,20.2l15.4,0l0,-2.4L162,48Z" class="g4_2" />
<path d="M189.7,30.2l-18.3,0l0,2.4l7.8,0l0,17.8l2.7,0l0,-17.8l7.8,0Z" class="g4_2" />
<path d="M110,54.6l1.4,0l0,-28.6L110,26l0,28.6Z" class="g5_2" />
<path d="M94.8,40.3l0,1.2l6.5,0l0,5.1c-1.5,1.2,-4.1,1.9,-6.5,1.9c-5.3,0,-8.5,-3.9,-8.5,-8.2c0,-4.5,3.5,-8.2,8.3,-8.2c2.5,0,5.3,1,7.1,2.7l1.9,-1.7C101,30.9,97.7,29.7,94.5,29.7c-6.1,0,-11,4.7,-11,10.6c0,5.9,4.8,10.6,11.2,10.6c3.2,0,6.6,-1.2,9.1,-3l0,-8.8l-9,0Z" class="g4_2" />
<path d="M142.2,41.5l8.2,0l0,-1.2l0,-1.2l-8.2,0l0,-6.5l13.6,0l0,-2.4l-16.2,0l0,20.2l16.9,0l0,-2.4l-14.3,0Z" class="g4_2" />
<path d="M72.3,30.2L60.7,50.4l2.8,0L67,44.3l5.7,0l0,-2.1l-4.4,0l4.4,-7.8l9.3,16l2.8,0L73.2,30.2Z" class="g4_2" />
<path d="M199.7,30.2l-0.9,0L187.2,50.4l2.8,0l9.2,-16l4.5,7.8l-4.4,0l0,2.1l5.7,0l3.5,6.1l2.8,0Z" class="g4_2" />
<path d="M0.7,90.6l1283.3,0" class="g6_2" />
<text 
x="22" 
y="69" 
dx="0,0,-0.2,0,0,0,0,-0.1,0,-0.2,0,0,0,0,0,0,-0.1,0,0,0,0,0,0,0" 
class="s1_2"
>Brand Merchandize Design</text>

<path d="M228.1,79.4l0,-56.4" class="g6_2" />
<path d="M5.8,74.9l-5.6,0l0,-55.8l5.6,0l0,55.8Z" class="g7_2" />
<text 
x="258" 
y="65" 
dx="0,-3.2,0,0,0,0,0" 
class="s2_2"
>T-Shirt</text>

<text 
x="1166" 
y="36" 
dx="0,-0.2,0,-0.1,0,0,-0.3,0,-0.1,0,0,0,0,0" 
class="s3_2"
>Latest Modiﬁed</text>

<text 
x="1192" 
y="52" 
dx="0,0,0,0,0,0,0,0,0,0" 
class="s3_2"
>25/05/2017</text>

<text 
x="1193" 
y="69" 
dx="0,-1.4,0,0,0,0,0,0,0,0" 
class="s3_2"
>Tonia Chen</text>

<path d="M394.2,634.1c-1.8,1.6,-3.3,2.5,-7,2.5l-7.9,0l0,-19.7l7.9,0c3.6,0,5.4,1,7.1,2.6c1.8,1.8,2.8,4.4,2.8,7.2c0,3,-1.1,5.6,-2.9,7.4m-6.9,-20.2l-11.5,0l0,25.7l11.5,0c4.8,0,7.2,-1.2,9.6,-3.4c2.4,-2.3,3.8,-5.7,3.8,-9.5c0,-3.6,-1.3,-6.9,-3.6,-9.2c-2.3,-2.3,-5,-3.6,-9.8,-3.6Z" class="g1_2" />
<path d="M432.6,613.9l-3.5,0l0,25.7l19.7,0l0,-3l-16.2,0Z" class="g1_2" />
<path d="M468,613.9l-23.5,0l0,3l10.1,0l0,22.7l3.4,0l0,-22.7l10,0Z" class="g1_2" />
<path d="M366.1,645.1l1.8,0l0,-36.7l-1.8,0l0,36.7Z" class="g8_2" />
<path d="M346.8,626.7l0,1.6l8.3,0l0,6.4c-2,1.6,-5.3,2.6,-8.3,2.6c-6.8,0,-10.9,-5,-10.9,-10.5c0,-5.8,4.5,-10.6,10.6,-10.6c3.2,0,6.8,1.3,9.1,3.5l2.4,-2.2c-3.3,-2.8,-7.5,-4.3,-11.6,-4.3c-7.9,0,-14.1,6,-14.1,13.5c0,7.5,6.2,13.6,14.3,13.6c4.1,0,8.5,-1.5,11.6,-3.9l0,-11.2l-11.4,0Z" class="g1_2" />
<path d="M407.4,628.3l10.4,0l0,-1.6l0,-1.5l-10.4,0l0,-8.3l17.3,0l0,-3l-20.8,0l0,25.7l21.7,0l0,-3l-18.2,0Z" class="g1_2" />
<path d="M318.1,613.9l-14.9,25.7l3.6,0l4.5,-7.7l7.3,0l0,-2.8l-5.7,0l5.7,-9.9l11.8,20.4l3.6,0L319.1,613.9Z" class="g1_2" />
<path d="M480.7,613.9l-1.1,0l-14.9,25.7l0.1,0l3.6,0l11.7,-20.4l5.8,9.9l-5.7,0l0,2.8l7.3,0l4.4,7.7l3.6,0l0.1,0Z" class="g1_2" />
<text 
x="240" 
y="553" 
dx="0,-0.8,0,0" 
class="s4_2"
>LOGO</text>

<text 
x="233" 
y="172" 
dx="0,0,-1.6,0,0,0,0,0,-0.8,0,0,0,0,0,-0.8,0" 
class="s4_2"
>MATERIAL &amp; COLOR</text>

<text 
x="233" 
y="217" 
dx="0,-1.1,0,0,0,0,0,-0.4,0,0,0,0,0" 
class="s5_2"
>T-shirt Black</text>

<path d="M286,691.4l-3.1,0l0,-24.8l3.1,0l0,24.8Z" class="g1_2" />
<path d="M293.9,675.4l-3.1,0l0,16l3.1,0l0,-16Zm-1.6,-8c1.2,0,2.2,0.9,2.2,2c0,1.2,-1,2.1,-2.2,2.1c-1.2,0,-2.1,-0.9,-2.1,-2.1c0,-1.1,0.9,-2,2.1,-2Z" class="g1_2" />
<path d="M300,675.4l4.9,12l4.8,-12l3.4,0l-6.7,16l-3,0l-6.7,-16Z" class="g1_2" />
<path d="M327.4,682.1c-0.4,-2.6,-2.3,-4.3,-4.9,-4.3c-2.7,0,-4.7,1.7,-5.1,4.3Zm3,2.5l-13,0c0.4,2.7,2.5,4.4,5.2,4.4c1.9,0,3.7,-0.9,4.6,-2.5c0.8,0.3,1.8,0.7,2.7,1c-1.4,2.8,-4.3,4.3,-7.4,4.3c-4.6,0,-8.3,-3.4,-8.3,-8.5c0,-5,3.7,-8.3,8.3,-8.3c4.6,0,8,3.3,8,8.3c0,0.4,0,0.9,-0.1,1.3Z" class="g1_2" />
<path d="M346.2,675.4l-3.1,0l0,16l3.1,0l0,-16Zm-1.6,-8c1.2,0,2.2,0.9,2.2,2c0,1.2,-1,2.1,-2.2,2.1c-1.2,0,-2.2,-0.9,-2.2,-2.1c0,-1.1,1,-2,2.2,-2Z" class="g1_2" />
<path d="M354.1,691.4l-3.2,0l0,-16l3.2,0l0,2.4c0.9,-2,3.2,-2.8,5,-2.8c4,0,6.2,2.6,6.2,7.1l0,9.3l-3.2,0l0,-9.1c0,-2.6,-1.3,-4.2,-3.5,-4.2c-2.3,0,-4.5,1.3,-4.5,4.7Z" class="g1_2" />
<path d="M386.7,675.4l0,2.6l-3.4,0l0,13.4l-3.2,0l0,-13.4l-2.9,0l0,-2.6l2.9,0l0,-6.1l3.2,0l0,6.1Z" class="g1_2" />
<path d="M402.1,683.3c0,-3.2,-2.4,-5.2,-5.3,-5.2c-2.9,0,-5.3,2,-5.3,5.2c0,3.3,2.4,5.5,5.3,5.5c2.9,0,5.3,-2.2,5.3,-5.5m-13.7,0c0,-5,3.8,-8.3,8.4,-8.3c4.6,0,8.4,3.3,8.4,8.3c0,5.1,-3.8,8.5,-8.4,8.5c-4.6,0,-8.4,-3.4,-8.4,-8.5Z" class="g1_2" />
<path d="M422.6,682.8l0,8.6l-3.2,0l0,-9.1c0,-2.6,-1.3,-4.2,-3.5,-4.2c-2.2,0,-4.4,1.3,-4.4,4.7l0,8.6l-3.2,0l0,-16l3.2,0l0,2.4c0.8,-1.8,3.1,-2.6,4.4,-2.7c0.6,-0.1,1.2,0,1.8,0.1c2,0.3,3.4,1.4,4.2,3.1c1.5,-2.8,4,-3.3,5.6,-3.3c4,0,6.1,2.6,6.1,7.1l0,9.3l-3.1,0l0,-9.1c0,-2.6,-1.4,-4.2,-3.7,-4.2c-2.6,-0.1,-4.2,2,-4.2,4.7Z" class="g1_2" />
<path d="M450.3,683.3c0,-3.2,-2.4,-5.2,-5.3,-5.2c-2.9,0,-5.3,2,-5.3,5.2c0,3.3,2.4,5.5,5.3,5.5c2.9,0,5.3,-2.2,5.3,-5.5m-13.7,0c0,-5,3.8,-8.3,8.4,-8.3c4.6,0,8.4,3.3,8.4,8.3c0,5.1,-3.8,8.5,-8.4,8.5c-4.6,0,-8.4,-3.4,-8.4,-8.5Z" class="g1_2" />
<path d="M459.7,691.4l-3.2,0l0,-16l3.2,0l0,3.6c0.8,-2.9,2.3,-4,4.4,-4c1.2,0,2.4,0.3,2.8,0.6l-0.5,3c-0.8,-0.5,-1.7,-0.6,-2.3,-0.6c-3.1,0,-4.4,3.3,-4.4,7.6Z" class="g1_2" />
<path d="M472.2,691.4l-3.1,0l0,-16l3.1,0l0,3.6c0.8,-2.9,2.4,-4,4.5,-4c1.1,0,2.3,0.3,2.8,0.6l-0.5,3c-0.9,-0.5,-1.7,-0.6,-2.4,-0.6c-3.1,0,-4.4,3.3,-4.4,7.6Z" class="g1_2" />
<path d="M494.7,683.3c0,-3.2,-2.4,-5.2,-5.3,-5.2c-2.9,0,-5.3,2,-5.3,5.2c0,3.3,2.4,5.5,5.3,5.5c2.9,0,5.3,-2.2,5.3,-5.5m-13.7,0c0,-5,3.9,-8.3,8.4,-8.3c4.6,0,8.5,3.3,8.5,8.3c0,5.1,-3.9,8.5,-8.5,8.5c-4.5,0,-8.4,-3.4,-8.4,-8.5Z" class="g1_2" />
<path d="M516.4,691.4l-4.3,-11.8l-4.3,11.8l-2.5,0l-6.1,-16l3.3,0l4,11.2l4.1,-11.2l3,0l4,11.2l4,-11.2l3.4,0l-6,16Z" class="g1_2" />
<path d="M737.8,635.1c-1.8,1.5,-3.4,2.5,-7.1,2.5l-7.9,0l0,-19.8l7.9,0c3.7,0,5.4,1,7.2,2.6c1.8,1.8,2.8,4.4,2.8,7.2c0,3,-1.1,5.6,-2.9,7.5m-7,-20.4l-11.5,0l0,25.9l11.5,0c4.9,0,7.3,-1.2,9.7,-3.4c2.4,-2.3,3.8,-5.8,3.8,-9.6c0,-3.6,-1.3,-6.9,-3.6,-9.3c-2.3,-2.2,-5,-3.6,-9.9,-3.6Z" class="g4_2" />
<path d="M776.4,614.7l-3.5,0l0,25.9l19.8,0l0,-3l-16.3,0Z" class="g4_2" />
<path d="M811.9,614.7l-23.5,0l0,3.1l10,0l0,22.8l3.5,0l0,-22.8l10,0Z" class="g4_2" />
<path d="M709.6,646.1l1.8,0l0,-36.8l-1.8,0l0,36.8Z" class="g8_2" />
<path d="M690.1,627.7l0,1.5l8.4,0l0,6.5c-2,1.6,-5.3,2.5,-8.4,2.5c-6.8,0,-10.9,-5,-10.9,-10.5c0,-5.8,4.5,-10.6,10.6,-10.6c3.3,0,6.9,1.3,9.2,3.4l2.4,-2.1c-3.3,-2.8,-7.5,-4.4,-11.6,-4.4c-8,0,-14.2,6.1,-14.2,13.6c0,7.6,6.2,13.7,14.3,13.7c4.2,0,8.6,-1.5,11.7,-3.9l0,-11.3l-11.5,0Z" class="g4_2" />
<path d="M751,629.2l10.5,0l0,-1.5l0,-1.6l-10.5,0l0,-8.3l17.4,0l0,-3.1l-20.8,0l0,25.9l21.7,0l0,-3l-18.3,0Z" class="g4_2" />
<path d="M661.3,614.7l-15,25.9l3.7,0l4.5,-7.8l7.3,0l0,-2.7l-5.7,0l5.7,-10l11.8,20.5l3.7,0l-15,-25.9Z" class="g4_2" />
<path d="M824.7,614.7l-1.1,0l-14.9,25.9l3.6,0l11.9,-20.5l5.7,10l-5.7,0l0,2.7l7.3,0l4.5,7.8l3.6,0Z" class="g4_2" />
<path d="M629,697.6l-3.1,0l0,-24.9l3.1,0l0,24.9Z" class="g4_2" />
<path d="M636.9,681.5l-3.1,0l0,16l3.1,0l0,-16Zm-1.6,-8c1.2,0,2.2,0.9,2.2,2c0,1.2,-1,2.1,-2.2,2.1c-1.2,0,-2.2,-0.9,-2.2,-2.1c0,-1.1,1,-2,2.2,-2Z" class="g4_2" />
<path d="M643,681.5l4.9,12.1l4.8,-12.1l3.4,0l-6.8,16l0.1,0l-3.1,0l-6.6,-16Z" class="g4_2" />
<path d="M670.4,688.3C670,685.6,668,684,665.5,684c-2.7,0,-4.8,1.6,-5.1,4.3Zm3,2.4l-13,0c0.3,2.7,2.4,4.4,5.2,4.4c1.9,0,3.7,-0.9,4.6,-2.5c0.8,0.3,1.8,0.7,2.7,1c-1.4,2.8,-4.3,4.3,-7.4,4.3c-4.6,0,-8.3,-3.3,-8.3,-8.4c0,-5.1,3.7,-8.4,8.3,-8.4c4.5,0,8,3.3,8,8.4c0,0.3,0,0.9,-0.1,1.2Z" class="g4_2" />
<path d="M689.2,681.5l-3.1,0l0,16l3.1,0l0,-16Zm-1.6,-8c1.2,0,2.2,0.9,2.2,2c0,1.2,-1,2.1,-2.2,2.1c-1.2,0,-2.2,-0.9,-2.2,-2.1c0,-1.1,1,-2,2.2,-2Z" class="g4_2" />
<path d="M697,697.6l-3.1,0l0,-16.1l3.1,0l0,2.4c1,-1.9,3.3,-2.8,5.1,-2.8c4,0,6.2,2.6,6.2,7.2l0,9.3l-3.2,0l0,-9.1c0,-2.7,-1.3,-4.3,-3.5,-4.3c-2.3,0,-4.6,1.3,-4.6,4.7Z" class="g4_2" />
<path d="M729.7,681.5l0,2.6l-3.5,0l0,13.4l-3.1,0l0,-13.4l-2.9,0l0,-2.6l2.9,0l0,-6.1l3.1,0l0,6.1Z" class="g4_2" />
<path d="M745.1,689.5c0,-3.3,-2.4,-5.3,-5.3,-5.3c-2.9,0,-5.3,2,-5.3,5.3c0,3.2,2.4,5.4,5.3,5.4c2.9,0,5.3,-2.2,5.3,-5.4m-13.7,0c0,-5.1,3.8,-8.4,8.4,-8.4c4.6,0,8.4,3.3,8.4,8.4c0,5.1,-3.8,8.4,-8.4,8.4c-4.6,0,-8.4,-3.3,-8.4,-8.4Z" class="g4_2" />
<path d="M765.5,688.9l0,8.7l-3.1,0l0,-9.2c0,-2.6,-1.4,-4.2,-3.5,-4.2c-2.2,0,-4.4,1.3,-4.4,4.7l0,8.7l-3.2,0l0,-16.1l3.2,0l0,2.4c0.8,-1.8,3.1,-2.6,4.4,-2.7c0.6,0,1.2,0,1.8,0.1c2,0.3,3.4,1.4,4.2,3.1c1.4,-2.8,4,-3.3,5.5,-3.3c4.1,0,6.2,2.6,6.2,7.2l0,9.3l-3.1,0l0,-9.1c0,-2.7,-1.4,-4.3,-3.7,-4.3c-2.6,0,-4.3,2,-4.3,4.7Z" class="g4_2" />
<path d="M793.3,689.5c0,-3.3,-2.4,-5.3,-5.3,-5.3c-2.9,0,-5.3,2,-5.3,5.3c0,3.2,2.4,5.4,5.3,5.4c2.9,0,5.3,-2.2,5.3,-5.4m-13.7,0c0,-5.1,3.8,-8.4,8.4,-8.4c4.5,0,8.4,3.3,8.4,8.4c0,5.1,-3.9,8.4,-8.4,8.4c-4.6,0,-8.4,-3.3,-8.4,-8.4Z" class="g4_2" />
<path d="M802.7,697.6l-3.2,0l0,-16.1l3.2,0l0,3.6c0.8,-2.8,2.3,-4,4.4,-4c1.2,0,2.4,0.3,2.8,0.6l-0.5,3c-0.8,-0.4,-1.7,-0.6,-2.3,-0.6c-3.1,0,-4.4,3.3,-4.4,7.6Z" class="g4_2" />
<path d="M815.2,697.6l-3.1,0l0,-16.1l3.1,0l0,3.6c0.8,-2.8,2.4,-4,4.5,-4c1.1,0,2.3,0.3,2.8,0.6l-0.5,3c-0.9,-0.4,-1.7,-0.6,-2.4,-0.6c-3.1,0,-4.4,3.3,-4.4,7.6Z" class="g4_2" />
<path d="M837.7,689.5c0,-3.3,-2.4,-5.3,-5.3,-5.3c-2.9,0,-5.3,2,-5.3,5.3c0,3.2,2.4,5.4,5.3,5.4c2.9,0,5.3,-2.2,5.3,-5.4m-13.7,0c0,-5.1,3.8,-8.4,8.4,-8.4c4.6,0,8.5,3.3,8.5,8.4c0,5.1,-3.9,8.4,-8.5,8.4c-4.6,0,-8.4,-3.3,-8.4,-8.4Z" class="g4_2" />
<path d="M859.4,697.6l-4.3,-11.9l-4.3,11.9l-2.5,0l-6.2,-16.1l3.4,0l4,11.2l4,-11.2l3.1,0l4,11.2l4,-11.2l3.4,0l-6,16.1Z" class="g4_2" />
<path d="M399.6,296.1l-156.5,0c-4.9,0,-8.9,-4.1,-8.9,-9l0,-45.4c0,-4.9,4,-8.9,8.9,-8.9l156.5,0c4.9,0,8.9,4,8.9,8.9l0,45.4c0,4.9,-4,9,-8.9,9Z" class="g7_2" />
<text 
x="290" 
y="280" 
dx="0,0,0,0,0,0,0,-0.3,0" 
class="s6_2"
>405 - Red</text>

<text 
x="281" 
y="259" 
dx="0,-0.4,0,0,0,-0.2,0,0,-0.1,0" 
class="s6_2"
>TC LACOSTE</text>

<path d="M595.2,296.1l-156.5,0c-4.9,0,-8.9,-4.1,-8.9,-9l0,-45.4c0,-4.9,4,-8.9,8.9,-8.9l156.5,0c4.9,0,8.9,4,8.9,8.9l0,45.4c0,4.9,-4,9,-8.9,9Z" class="g3_2" />
<text 
x="484" 
y="280" 
dx="0,0,0,0,0,0,0,0,0,0,0" 
class="s6_2"
>411 - Black</text>

<text 
x="477" 
y="259" 
dx="0,-0.4,0,0,0,-0.2,0,0,-0.1,0" 
class="s6_2"
>TC LACOSTE</text>

<path d="M786.2,296.1l-156.5,0c-4.9,0,-8.9,-4.1,-8.9,-9l0,-45.4c0,-4.9,4,-8.9,8.9,-8.9l156.5,0c4.9,0,8.9,4,8.9,8.9l0,45.4c0,4.9,-4,9,-8.9,9Z" class="g1_2" />
<path d="M786.2,296.1l-156.5,0c-4.9,0,-8.9,-4.1,-8.9,-9l0,-45.4c0,-4.9,4,-8.9,8.9,-8.9l156.5,0c4.9,0,8.9,4,8.9,8.9l0,45.4c0,4.9,-4,9,-8.9,9Z" class="g9_2" />
<text 
x="671" 
y="280" 
dx="0,0,0,0,0,0,-0.4,0,0,0,-0.1" 
class="s7_2"
>408 - White</text>

<text 
x="668" 
y="259" 
dx="0,-0.4,0,0,0,-0.2,0,0,-0.1,0" 
class="s7_2"
>TC LACOSTE</text>

<text 
x="233" 
y="350" 
dx="0,-1.1,0,0,0,0,0,-0.4,-0.6,0,0,0,-0.2" 
class="s5_2"
>T-shirt White</text>

<path d="M402,425.2l-156.5,0c-4.9,0,-8.9,-4.1,-8.9,-9l0,-45.4c0,-4.9,4,-8.9,8.9,-8.9l156.5,0c4.9,0,8.9,4,8.9,8.9l0,45.4c0,4.9,-4,9,-8.9,9Z" class="g7_2" />
<text 
x="284" 
y="409" 
dx="0,0,0,0,0,0,0,0,0,-0.3,0" 
class="s6_2"
>C6045 - Red</text>

<text 
x="273" 
y="388" 
dx="0,0,0,0,0,0,0,0,0,0,0,0,0,-0.2" 
class="s6_2"
>QD 60 / 40 CVC</text>

<path d="M597.6,425.2l-156.5,0c-4.9,0,-8.9,-4.1,-8.9,-9l0,-45.4c0,-4.9,4,-8.9,8.9,-8.9l156.5,0c4.9,0,8.9,4,8.9,8.9l0,45.4c0,4.9,-4,9,-8.9,9Z" class="g3_2" />
<text 
x="475" 
y="409" 
dx="0,0,0,0,0,0,0,0,0,0,0,0,0" 
class="s6_2"
>C6042 - Black</text>

<text 
x="469" 
y="388" 
dx="0,0,0,0,0,0,0,0,0,0,0,0,0,-0.2" 
class="s6_2"
>QD 60 / 40 CVC</text>

<path d="M788.6,425.2l-156.5,0c-4.9,0,-8.9,-4.1,-8.9,-9l0,-45.4c0,-4.9,4,-8.9,8.9,-8.9l156.5,0c4.9,0,8.9,4,8.9,8.9l0,45.4c0,4.9,-4,9,-8.9,9Z" class="g1_2" />
<path d="M788.6,425.2l-156.5,0c-4.9,0,-8.9,-4.1,-8.9,-9l0,-45.4c0,-4.9,4,-8.9,8.9,-8.9l156.5,0c4.9,0,8.9,4,8.9,8.9l0,45.4c0,4.9,-4,9,-8.9,9Z" class="g9_2" />
<text 
x="665" 
y="409" 
dx="0,0,0,0,0,0,0,0,-0.4,0,0,0,-0.1" 
class="s7_2"
>C6046 - White</text>

<text 
x="660" 
y="388" 
dx="0,0,0,0,0,0,0,0,0,0,0,0,0,-0.2" 
class="s7_2"
>QD 60 / 40 CVC</text>



<!-- Any embedded fonts defined here -->
<style type="text/css" ><![CDATA[

@font-face {
	font-family: SofiaProLight_5;
	src: url("fonts/SofiaProLight_5.woff") format("woff");
}

]]></style>

</svg>
