<?xml version="1.0" encoding="UTF-8" standalone="no"?>
<!DOCTYPE svg PUBLIC "-//W3C//DTD SVG 1.1//EN"
"http://www.w3.org/Graphics/SVG/1.1/DTD/svg11.dtd">


<!-- Page 3 -->
<svg x="0" y="0" width="1286" height="909" viewBox="0 0 1286 909" version="1.1" xmlns="http://www.w3.org/2000/svg" xmlns:xlink="http://www.w3.org/1999/xlink"
style="display: block;margin-left: auto;margin-right: auto;">
<defs>

<style type="text/css"><![CDATA[

.g1_3{
fill: #E41E25;
}
.g2_3{
fill: #363536;
}
.g3_3{
fill: none;
stroke: #C6C5C5;
stroke-width: 0.38194445;
stroke-linecap: round;
stroke-linejoin: miter;
stroke-dasharray: 2;
}
.g4_3{
fill: #787A7D;
}
.g5_3{
fill: #F2F3F4;
}
.g6_3{
fill: #CCCDCF;
}
.g7_3{
fill: none;
stroke: #C6C5C5;
stroke-width: 0.38194445;
stroke-linecap: round;
stroke-linejoin: miter;
}
.g8_3{
fill: none;
stroke: #C6C5C5;
stroke-width: 0.38194445;
stroke-linecap: round;
stroke-linejoin: miter;
stroke-dasharray: 2,2;
}
.g9_3{
fill: #050604;
}
.g10_3{
fill: #E72524;
}
.g11_3{
fill: #E62524;
}
.g12_3{
fill: #808285;
fill-opacity: 0.350006;
stroke: #939598;
stroke-width: 0.7638889;
stroke-linecap: butt;
stroke-linejoin: miter;
stroke-opacity: 0.350006;
}
.g13_3{
fill: #E72324;
}

.s1_3{
font-size: 18.33px;
font-family: SofiaProLight_5;
fill: #231F20;
}
.s2_3{
font-size: 15.28px;
font-family: SofiaProLight_5;
fill: #6D6E71;
}
.s3_3{
font-size: 55.00px;
font-family: SofiaProLight_5;
fill: #231F20;
}
.s4_3{
font-size: 13.75px;
font-family: SofiaProLight_5;
fill: #6E6F72;
}

]]></style>

</defs>
<path d="M0,0
L0,909
L1286,909
L1286,0 Z " 
fill="#FFFFFF" stroke="none" />
<text 
x="347" 
y="203" 
dx="0,-0.7,-0.3,0,0" 
class="s1_3"
>Front</text>

<text 
x="906" 
y="203" 
dx="0,0,0,0" 
class="s1_3"
>Back</text>

<path d="M1162.4,446.9l2.3,2.8c0,0,-5.3,4.2,-14.3,8.8c-8.9,4.5,-24.9,10.7,-27.7,12.2c-2.9,1.4,-26.3,11.2,-30.2,12.9c-4.3,1.9,-6.6,2.6,-6.6,2.6l-1.2,-5.6Z" class="g1_3" />
<path d="M698.7,451l-2.3,2.8c0,0,4.7,2.4,13.6,6.9c9,4.6,24.5,11.8,27.3,13.2c2.9,1.4,27.3,12,31.3,13.8c4.3,1.9,6.6,2.6,6.6,2.6l0.5,-3.8Z" class="g1_3" />
<image preserveAspectRatio="none" x="698" y="240" width="465" height="480" style="mix-blend-mode: multiply;" xlink:href="3/img/1.png" />
<image preserveAspectRatio="none" x="787" y="337" width="84" height="177" opacity="0.39999402" style="mix-blend-mode: multiply;" xlink:href="3/img/2.png" />
<image preserveAspectRatio="none" x="843" y="520" width="207" height="197" opacity="0.39999402" style="mix-blend-mode: multiply;" xlink:href="3/img/3.png" />
<image preserveAspectRatio="none" x="1034" y="356" width="37" height="89" opacity="0.30000302" style="mix-blend-mode: multiply;" xlink:href="3/img/4.png" />
<image preserveAspectRatio="none" x="1069" y="340" width="48" height="128" opacity="0.30000302" style="mix-blend-mode: multiply;" xlink:href="3/img/5.png" />
<image x="791" y="398" width="31" height="309" xlink:href="3/shade/1.png" />
<image x="1040" y="398" width="31" height="311" xlink:href="3/shade/2.png" />
<path d="M870.6,341.6l-1.8,0l0,-14l1.8,0l0,14Z" class="g2_3" />
<path d="M875,332.6l-1.7,0l0,9l1.7,0l0,-9Zm-0.9,-4.5c0.7,0,1.3,0.5,1.3,1.1c0,0.7,-0.6,1.2,-1.3,1.2c-0.6,0,-1.2,-0.5,-1.2,-1.2c0,-0.6,0.6,-1.1,1.2,-1.1Z" class="g2_3" />
<path d="M878.5,332.6l2.7,6.8l2.8,-6.8l1.9,0l-3.8,9l-1.7,0l-3.8,-9Z" class="g2_3" />
<path d="M893.9,336.4c-0.2,-1.5,-1.3,-2.4,-2.7,-2.4c-1.5,0,-2.7,0.9,-2.9,2.4Zm1.8,1.4l-7.4,0c0.2,1.5,1.4,2.4,2.9,2.4c1.1,0,2.1,-0.5,2.6,-1.4c0.5,0.2,1.1,0.4,1.5,0.6c-0.7,1.6,-2.4,2.4,-4.1,2.4c-2.6,0,-4.7,-1.8,-4.7,-4.7c0,-2.9,2.1,-4.7,4.7,-4.7c2.5,0,4.5,1.8,4.5,4.7c0,0.2,0,0.5,0,0.7Z" class="g2_3" />
<path d="M904.5,332.6l-1.7,0l0,9l1.7,0l0,-9Zm-0.8,-4.5c0.6,0,1.2,0.5,1.2,1.1c0,0.7,-0.6,1.2,-1.2,1.2c-0.7,0,-1.3,-0.5,-1.3,-1.2c0,-0.6,0.6,-1.1,1.3,-1.1Z" class="g2_3" />
<path d="M909,341.6l-1.8,0l0,-9l1.8,0l0,1.3c0.5,-1.1,1.8,-1.5,2.8,-1.5c2.3,0,3.5,1.4,3.5,4l0,5.2l-1.7,0l0,-5.1c0,-1.5,-0.8,-2.4,-2,-2.4c-1.3,0,-2.6,0.7,-2.6,2.6Z" class="g2_3" />
<path d="M927.4,332.6l0,1.5l-1.9,0l0,7.5l-1.8,0l0,-7.5l-1.6,0l0,-1.5l1.6,0l0,-3.5l1.8,0l0,3.5Z" class="g2_3" />
<path d="M936.1,337.1c0,-1.9,-1.4,-3,-3,-3c-1.6,0,-3,1.1,-3,3c0,1.8,1.4,3,3,3c1.6,0,3,-1.2,3,-3m-7.7,0c0,-2.9,2.1,-4.7,4.7,-4.7c2.6,0,4.8,1.8,4.8,4.7c0,2.9,-2.2,4.7,-4.8,4.7c-2.6,0,-4.7,-1.8,-4.7,-4.7Z" class="g2_3" />
<path d="M947.7,336.7l0,4.9l-1.8,0l0,-5.1c0,-1.5,-0.8,-2.4,-2,-2.4c-1.2,0,-2.5,0.7,-2.5,2.6l0,4.9l-1.8,0l0,-9l1.8,0l0,1.3c0.5,-1,1.8,-1.4,2.5,-1.5c0.4,0,0.7,0,1,0.1c1.1,0.1,1.9,0.7,2.4,1.7c0.8,-1.6,2.2,-1.8,3.1,-1.8c2.3,0,3.5,1.4,3.5,4l0,5.2l-1.8,0l0,-5.1c0,-1.5,-0.7,-2.4,-2,-2.4c-1.5,0,-2.4,1.1,-2.4,2.6Z" class="g2_3" />
<path d="M963.3,337.1c0,-1.9,-1.4,-3,-3,-3c-1.6,0,-3,1.1,-3,3c0,1.8,1.4,3,3,3c1.6,0,3,-1.2,3,-3m-7.7,0c0,-2.9,2.1,-4.7,4.7,-4.7c2.6,0,4.8,1.8,4.8,4.7c0,2.9,-2.2,4.7,-4.8,4.7c-2.6,0,-4.7,-1.8,-4.7,-4.7Z" class="g2_3" />
<path d="M968.6,341.6l-1.8,0l0,-9l1.8,0l0,2c0.5,-1.6,1.3,-2.2,2.5,-2.2c0.7,0,1.3,0.1,1.6,0.3l-0.3,1.7c-0.5,-0.3,-0.9,-0.3,-1.3,-0.3c-1.8,0,-2.5,1.8,-2.5,4.2Z" class="g2_3" />
<path d="M975.7,341.6l-1.8,0l0,-9l1.8,0l0,2c0.4,-1.6,1.3,-2.2,2.5,-2.2c0.6,0,1.3,0.1,1.6,0.3l-0.3,1.7c-0.5,-0.3,-1,-0.3,-1.3,-0.3c-1.8,0,-2.5,1.8,-2.5,4.2Z" class="g2_3" />
<path d="M988.4,337.1c0,-1.9,-1.4,-3,-3,-3c-1.6,0,-3,1.1,-3,3c0,1.8,1.4,3,3,3c1.6,0,3,-1.2,3,-3m-7.7,0c0,-2.9,2.1,-4.7,4.7,-4.7c2.6,0,4.8,1.8,4.8,4.7c0,2.9,-2.2,4.7,-4.8,4.7c-2.6,0,-4.7,-1.8,-4.7,-4.7Z" class="g2_3" />
<path d="M1000.6,341.6L998.2,335l-2.4,6.6l-1.4,0l-3.5,-9l1.9,0l2.3,6.3l2.2,-6.3l1.7,0l2.3,6.3l2.3,-6.3l1.9,0l-3.4,9Z" class="g2_3" />
<path d="M859.4,272.1c0,0,27,-5.9,71.3,-6.9c56,-1.3,76.1,7.5,76.1,7.5" class="g3_3" />
<path d="M220.6,499.5l-0.5,3.3c0,0,-5.2,-2.1,-14.8,-5.7c-9.7,-3.7,-26,-10.5,-29.1,-11.7C173.1,484.2,147.6,473,143.8,470.7c-3.8,-2.4,-6.2,-4.1,-6.2,-4.1l1.6,-2Z" class="g1_3" />
<path d="M513.2,493.6l0.1,2.5c0,0,5.3,-1,15.1,-4.3c9.9,-3.2,26.4,-9.3,29.5,-10.4c3.2,-1,29.1,-11,33.1,-13.2c3.9,-2.2,5.8,-3.6,5.8,-3.6l-1.3,-1.7Z" class="g1_3" />
<path d="M310.1,265.1c0,0,36.4,6.6,53.6,5.8c17.2,-0.7,49,-5.8,49,-5.8l-2.5,49.4l-102.7,2.3Z" class="g1_3" />
<path d="M309.3,266.5c0,0,36.4,6.6,53.5,5.8c17.2,-0.7,50.7,-5.7,50.7,-5.7l-4.1,49.3l-102.7,2.3Z" class="g4_3" />
<image x="497" y="308" width="100" height="189" xlink:href="3/shade/3.png" />
<path d="M590.3,455.6c-0.4,0.3,-0.7,0.7,-0.7,0.7c0,0,0.5,-0.1,0.9,-0.4c0.4,-0.2,0.6,-0.7,0.6,-0.7c0,0.1,-0.4,0.2,-0.8,0.4Z" class="g5_3" />
<path d="M588.3,456.9c-0.5,0.2,-0.8,0.6,-0.8,0.6c0,0,0.5,-0.1,1,-0.3c0.4,-0.3,0.7,-0.6,0.7,-0.6c-0.1,0,-0.5,0,-0.9,0.3Z" class="g5_3" />
<path d="M586.2,458c-0.5,0.2,-0.8,0.6,-0.8,0.6c0,0,0.5,0,0.9,-0.3c0.5,-0.2,0.8,-0.6,0.8,-0.6c0,0,-0.5,0.1,-0.9,0.3Z" class="g5_3" />
<path d="M584,459.1c-0.4,0.2,-0.7,0.5,-0.7,0.5c0,0,0.4,0,0.9,-0.2c0.5,-0.2,0.7,-0.6,0.7,-0.6c0,0,-0.4,0.1,-0.9,0.3Z" class="g5_3" />
<path d="M581.9,460.1c-0.5,0.2,-0.8,0.6,-0.8,0.6c0,0,0.5,0,0.9,-0.2c0.5,-0.3,0.8,-0.6,0.8,-0.6c0,0,-0.5,0,-0.9,0.2Z" class="g5_3" />
<path d="M579.7,461.1c-0.5,0.3,-0.7,0.6,-0.7,0.6c0,0,0.4,0,0.9,-0.2c0.4,-0.2,0.7,-0.6,0.7,-0.6c0,0,-0.4,0,-0.9,0.2Z" class="g5_3" />
<path d="M577.5,462.1c-0.4,0.3,-0.7,0.6,-0.7,0.6c0,0,0.4,0,0.9,-0.2c0.5,-0.2,0.7,-0.6,0.7,-0.6c0,0,-0.4,0,-0.9,0.2Z" class="g5_3" />
<path d="M575.3,463.1c-0.4,0.2,-0.7,0.6,-0.7,0.6c0,0,0.4,0,0.9,-0.2c0.5,-0.2,0.8,-0.6,0.8,-0.6c0,0,-0.5,0,-1,0.2Z" class="g5_3" />
<path d="M573.1,464.1c-0.4,0.2,-0.7,0.5,-0.7,0.5c0,0,0.4,0,0.9,-0.2c0.5,-0.2,0.8,-0.5,0.8,-0.5c0,0,-0.5,0,-1,0.2Z" class="g5_3" />
<path d="M570.9,465c-0.4,0.2,-0.7,0.6,-0.7,0.6c0,0,0.4,0,0.9,-0.2c0.5,-0.2,0.8,-0.5,0.8,-0.5c0,0,-0.5,-0.1,-1,0.1Z" class="g5_3" />
<path d="M568.7,466c-0.4,0.2,-0.7,0.5,-0.7,0.5c0,0,0.4,0,0.9,-0.2c0.5,-0.2,0.8,-0.5,0.8,-0.5c0,0,-0.5,0,-1,0.2Z" class="g5_3" />
<path d="M566.5,466.9c-0.4,0.2,-0.7,0.6,-0.7,0.6c0,0,0.4,0,0.9,-0.2c0.5,-0.2,0.8,-0.6,0.8,-0.6c0,0,-0.5,0,-1,0.2Z" class="g5_3" />
<path d="M564.3,467.8c-0.5,0.2,-0.8,0.6,-0.8,0.6c0,0,0.5,0,1,-0.2c0.4,-0.2,0.7,-0.5,0.7,-0.5c0,0,-0.4,0,-0.9,0.1Z" class="g5_3" />
<path d="M562.1,468.8c-0.5,0.2,-0.8,0.5,-0.8,0.5c0,0,0.5,0,0.9,-0.2c0.5,-0.2,0.8,-0.5,0.8,-0.5c0,0,-0.4,0,-0.9,0.2Z" class="g5_3" />
<path d="M559.9,469.7c-0.5,0.2,-0.8,0.5,-0.8,0.5c0,0,0.5,0,0.9,-0.2c0.5,-0.2,0.8,-0.5,0.8,-0.5c0,0,-0.5,0,-0.9,0.2Z" class="g5_3" />
<path d="M557.6,470.6c-0.4,0.1,-0.7,0.5,-0.7,0.5c0,0,0.4,0,0.9,-0.2c0.5,-0.2,0.8,-0.5,0.8,-0.5c0,0,-0.5,0,-1,0.2Z" class="g5_3" />
<path d="M555.4,471.4c-0.5,0.2,-0.8,0.5,-0.8,0.5c0,0,0.5,0.1,1,-0.1c0.4,-0.2,0.7,-0.5,0.7,-0.5c0,0,-0.4,0,-0.9,0.1Z" class="g5_3" />
<path d="M553.2,472.3c-0.5,0.2,-0.8,0.5,-0.8,0.5c0,0,0.4,0,0.9,-0.1c0.5,-0.2,0.8,-0.5,0.8,-0.5c0,0,-0.4,-0.1,-0.9,0.1Z" class="g5_3" />
<path d="M550.9,473.2c-0.4,0.2,-0.8,0.5,-0.8,0.5c0,0,0.5,0,1,-0.2c0.5,-0.2,0.8,-0.5,0.8,-0.5c0,0,-0.5,0,-1,0.2Z" class="g5_3" />
<path d="M548.7,474c-0.5,0.2,-0.8,0.5,-0.8,0.5c0,0,0.5,0.1,0.9,-0.1c0.5,-0.2,0.8,-0.5,0.8,-0.5c0,0,-0.4,0,-0.9,0.1Z" class="g5_3" />
<path d="M546.4,474.9c-0.4,0.1,-0.8,0.5,-0.8,0.5c0,0,0.5,0,1,-0.2c0.5,-0.2,0.8,-0.5,0.8,-0.5c0,0,-0.5,0,-1,0.2Z" class="g5_3" />
<path d="M544.2,475.7c-0.5,0.2,-0.8,0.5,-0.8,0.5c0,0,0.4,0,0.9,-0.1c0.5,-0.2,0.8,-0.5,0.8,-0.5c0,0,-0.4,-0.1,-0.9,0.1Z" class="g5_3" />
<path d="M541.9,476.5c-0.5,0.2,-0.8,0.5,-0.8,0.5c0,0,0.5,0,1,-0.1c0.4,-0.2,0.8,-0.5,0.8,-0.5c0,0,-0.5,0,-1,0.1Z" class="g5_3" />
<path d="M539.7,477.3c-0.5,0.2,-0.8,0.5,-0.8,0.5c0,0,0.4,0,0.9,-0.1c0.5,-0.2,0.8,-0.5,0.8,-0.5c0,0,-0.5,0,-0.9,0.1Z" class="g5_3" />
<path d="M537.4,478.1c-0.5,0.2,-0.8,0.5,-0.8,0.5c0,0,0.4,0,0.9,-0.1c0.5,-0.2,0.8,-0.5,0.8,-0.5c0,0,-0.4,0,-0.9,0.1Z" class="g5_3" />
<path d="M535.1,478.9c-0.5,0.2,-0.8,0.5,-0.8,0.5c0,0,0.5,0,0.9,-0.2c0.5,-0.1,0.9,-0.4,0.9,-0.4c0,0,-0.5,-0.1,-1,0.1Z" class="g5_3" />
<path d="M532.8,479.7c-0.4,0.1,-0.8,0.4,-0.8,0.4c0,0,0.5,0.1,1,-0.1c0.4,-0.2,0.8,-0.5,0.8,-0.5c0,0,-0.5,0,-1,0.2Z" class="g5_3" />
<path d="M530.6,480.4c-0.5,0.1,-0.9,0.4,-0.9,0.4c0,0,0.5,0.1,1,-0.1c0.5,-0.1,0.8,-0.4,0.8,-0.4c0,0,-0.5,-0.1,-0.9,0.1Z" class="g5_3" />
<path d="M528.3,481.1c-0.5,0.2,-0.9,0.5,-0.9,0.5c0,0,0.5,0,1,-0.1c0.5,-0.2,0.8,-0.5,0.8,-0.5c0,0,-0.5,0,-0.9,0.1Z" class="g5_3" />
<path d="M526,481.8c-0.5,0.1,-0.9,0.4,-0.9,0.4c0,0,0.5,0.1,1,-0.1c0.5,-0.1,0.8,-0.4,0.8,-0.4c0,0,-0.5,0,-0.9,0.1Z" class="g5_3" />
<path d="M523.6,482.4c-0.5,0.2,-0.8,0.5,-0.8,0.5c0,0,0.4,0,0.9,-0.1c0.5,-0.1,0.9,-0.4,0.9,-0.4c0,0,-0.5,-0.1,-1,0Z" class="g5_3" />
<path d="M521.3,483.1c-0.5,0.1,-0.8,0.4,-0.8,0.4c0,0,0.4,0,0.9,-0.1c0.5,-0.1,0.9,-0.4,0.9,-0.4c0,0,-0.5,-0.1,-1,0.1Z" class="g5_3" />
<path d="M519,483.6c-0.5,0.1,-0.9,0.4,-0.9,0.4c0,0,0.5,0.1,1,0c0.5,-0.1,0.8,-0.4,0.8,-0.4c0,0,-0.4,-0.1,-0.9,0Z" class="g5_3" />
<path d="M516.6,484.1c-0.5,0.1,-0.9,0.3,-0.9,0.3c0,0,0.5,0.1,1,0c0.5,0,0.9,-0.3,0.9,-0.3c0,0,-0.5,-0.1,-1,0Z" class="g5_3" />
<path d="M514.2,484.4c-0.5,0.1,-0.9,0.3,-0.9,0.3c0,0,0.5,0.1,1,0.1c0.5,-0.1,0.9,-0.3,0.9,-0.3c0,0,-0.5,-0.1,-1,-0.1Z" class="g5_3" />
<path d="M511.9,484.4c-0.5,0,-0.9,0,-0.9,0c-0.1,0,0.3,0.3,0.8,0.4c0.6,0.1,1,-0.2,1,-0.1c0,-0.1,-0.4,-0.2,-0.9,-0.3Z" class="g5_3" />
<path d="M588.5,452c-0.3,0.3,-0.6,0.6,-0.6,0.6c0,0,0.5,0,0.9,-0.3c0.4,-0.3,0.6,-0.7,0.6,-0.7c0,0,-0.4,0.1,-0.9,0.4Z" class="g5_3" />
<path d="M586.5,453.2c-0.4,0.3,-0.7,0.6,-0.7,0.6c0,0,0.5,0,0.9,-0.3c0.5,-0.2,0.7,-0.6,0.7,-0.6c0,0,-0.4,0.1,-0.9,0.3Z" class="g5_3" />
<path d="M584.5,454.4c-0.5,0.2,-0.8,0.5,-0.8,0.6c0,0,0.5,-0.1,1,-0.3c0.4,-0.3,0.7,-0.6,0.7,-0.6c0,0,-0.5,0,-0.9,0.3Z" class="g5_3" />
<path d="M582.3,455.5c-0.4,0.2,-0.7,0.5,-0.7,0.5c0,0,0.5,0,0.9,-0.2c0.5,-0.2,0.8,-0.6,0.8,-0.6c0,0,-0.5,0,-1,0.3Z" class="g5_3" />
<path d="M580.2,456.5c-0.4,0.2,-0.7,0.6,-0.7,0.6c0,0,0.4,0,0.9,-0.2c0.4,-0.3,0.7,-0.6,0.7,-0.6c0,0,-0.4,0,-0.9,0.2Z" class="g5_3" />
<path d="M578.1,457.6c-0.5,0.2,-0.8,0.5,-0.8,0.5c0,0,0.5,0,0.9,-0.2c0.5,-0.2,0.8,-0.6,0.8,-0.6c0,0,-0.5,0,-0.9,0.3Z" class="g5_3" />
<path d="M575.9,458.6c-0.5,0.2,-0.7,0.5,-0.7,0.5c0,0,0.4,0,0.9,-0.2c0.4,-0.2,0.7,-0.5,0.7,-0.5c0,0,-0.4,0,-0.9,0.2Z" class="g5_3" />
<path d="M573.7,459.6c-0.4,0.2,-0.7,0.5,-0.7,0.5c0,0,0.4,0,0.9,-0.2c0.5,-0.2,0.8,-0.5,0.8,-0.5c0,0,-0.5,0,-1,0.2Z" class="g5_3" />
<path d="M571.6,460.6c-0.5,0.2,-0.8,0.5,-0.8,0.5c0,0,0.5,0,0.9,-0.2c0.5,-0.2,0.8,-0.5,0.8,-0.5c0,0,-0.5,0,-0.9,0.2Z" class="g5_3" />
<path d="M569.4,461.5c-0.5,0.2,-0.8,0.6,-0.8,0.6c0,0,0.5,0,0.9,-0.2c0.5,-0.2,0.8,-0.6,0.8,-0.6c0,0,-0.5,0,-0.9,0.2Z" class="g5_3" />
<path d="M567.2,462.5c-0.5,0.2,-0.8,0.5,-0.8,0.5c0,0,0.5,0,0.9,-0.2c0.5,-0.2,0.8,-0.5,0.8,-0.5c0,0,-0.5,0,-0.9,0.2Z" class="g5_3" />
<path d="M565,463.5c-0.5,0.2,-0.8,0.5,-0.8,0.5c0,0,0.5,0,0.9,-0.2c0.5,-0.2,0.8,-0.5,0.8,-0.5c0,0,-0.4,-0.1,-0.9,0.2Z" class="g5_3" />
<path d="M562.8,464.4c-0.5,0.2,-0.8,0.5,-0.8,0.5c0,0,0.5,0,0.9,-0.2c0.5,-0.2,0.8,-0.5,0.8,-0.5c0,0,-0.4,0,-0.9,0.2Z" class="g5_3" />
<path d="M560.6,465.3c-0.5,0.2,-0.8,0.5,-0.8,0.5c0,0,0.5,0,0.9,-0.1c0.5,-0.2,0.8,-0.6,0.8,-0.6c0,0,-0.5,0,-0.9,0.2Z" class="g5_3" />
<path d="M558.4,466.2c-0.5,0.2,-0.8,0.5,-0.8,0.5c0,0,0.5,0.1,0.9,-0.1c0.5,-0.2,0.8,-0.6,0.8,-0.6c0,0,-0.5,0,-0.9,0.2Z" class="g5_3" />
<path d="M556.1,467.1c-0.4,0.2,-0.7,0.5,-0.7,0.5c0,0,0.4,0.1,0.9,-0.1c0.5,-0.2,0.8,-0.5,0.8,-0.5c0,0,-0.5,-0.1,-1,0.1Z" class="g5_3" />
<path d="M553.9,468c-0.4,0.2,-0.8,0.5,-0.8,0.5c0,0,0.5,0.1,1,-0.1c0.5,-0.2,0.8,-0.5,0.8,-0.5c0,0,-0.5,-0.1,-1,0.1Z" class="g5_3" />
<path d="M551.7,468.9c-0.5,0.2,-0.8,0.5,-0.8,0.5c0,0,0.5,0,0.9,-0.1c0.5,-0.2,0.8,-0.6,0.8,-0.6c0,0,-0.4,0,-0.9,0.2Z" class="g5_3" />
<path d="M549.5,469.8c-0.5,0.2,-0.8,0.5,-0.8,0.5c0,0,0.4,0,0.9,-0.2c0.5,-0.2,0.8,-0.5,0.8,-0.5c0,0,-0.5,0,-0.9,0.2Z" class="g5_3" />
<path d="M547.2,470.6c-0.4,0.2,-0.8,0.5,-0.8,0.5c0,0,0.5,0.1,1,-0.1c0.5,-0.2,0.8,-0.5,0.8,-0.5c0,0,-0.5,0,-1,0.1Z" class="g5_3" />
<path d="M545,471.5c-0.5,0.2,-0.8,0.5,-0.8,0.5c0,0,0.5,0,0.9,-0.2c0.5,-0.1,0.8,-0.5,0.8,-0.5c0,0,-0.4,0,-0.9,0.2Z" class="g5_3" />
<path d="M542.7,472.3c-0.4,0.2,-0.7,0.5,-0.7,0.5c0,0,0.4,0,0.9,-0.1c0.5,-0.2,0.8,-0.5,0.8,-0.5c0,0,-0.5,0,-1,0.1Z" class="g5_3" />
<path d="M540.5,473.1c-0.5,0.2,-0.8,0.5,-0.8,0.5c0,0,0.5,0.1,0.9,-0.1c0.5,-0.2,0.8,-0.5,0.8,-0.5c0,0,-0.4,0,-0.9,0.1Z" class="g5_3" />
<path d="M538.2,474c-0.4,0.1,-0.8,0.4,-0.8,0.4c0,0,0.5,0.1,1,-0.1c0.5,-0.2,0.8,-0.5,0.8,-0.5c0,0,-0.5,0,-1,0.2Z" class="g5_3" />
<path d="M536,474.7c-0.5,0.2,-0.8,0.5,-0.8,0.5c0,0,0.4,0.1,0.9,-0.1c0.5,-0.2,0.8,-0.5,0.8,-0.5c0,0,-0.4,0,-0.9,0.1Z" class="g5_3" />
<path d="M533.7,475.5c-0.5,0.2,-0.8,0.5,-0.8,0.5c0,0,0.5,0,0.9,-0.1c0.5,-0.2,0.8,-0.5,0.9,-0.5c-0.1,0,-0.5,0,-1,0.1Z" class="g5_3" />
<path d="M531.4,476.3c-0.4,0.1,-0.8,0.4,-0.8,0.4c0,0,0.5,0.1,1,-0.1c0.4,-0.1,0.8,-0.4,0.8,-0.4c0,0,-0.5,-0.1,-1,0.1Z" class="g5_3" />
<path d="M529.2,477c-0.5,0.1,-0.9,0.4,-0.9,0.4c0,0,0.5,0.1,1,-0.1c0.5,-0.1,0.8,-0.4,0.8,-0.4c0,0,-0.5,-0.1,-0.9,0.1Z" class="g5_3" />
<path d="M526.9,477.7c-0.5,0.1,-0.9,0.4,-0.9,0.4c0,0,0.5,0.1,1,-0.1c0.5,-0.1,0.8,-0.4,0.8,-0.4c0,0,-0.5,0,-0.9,0.1Z" class="g5_3" />
<path d="M524.6,478.4c-0.5,0.1,-0.9,0.4,-0.9,0.4c0,0,0.5,0.1,1,-0.1c0.5,-0.1,0.8,-0.4,0.8,-0.4c0,0,-0.5,-0.1,-0.9,0.1Z" class="g5_3" />
<path d="M522.2,479c-0.4,0.1,-0.8,0.4,-0.8,0.4c0,0,0.5,0.1,0.9,-0.1c0.5,-0.1,0.9,-0.4,0.9,-0.4c0,0,-0.5,0,-1,0.1Z" class="g5_3" />
<path d="M519.9,479.6c-0.5,0.1,-0.8,0.4,-0.8,0.4c0,0,0.4,0.1,0.9,-0.1c0.5,-0.1,0.9,-0.4,0.9,-0.4c0,0,-0.5,0,-1,0.1Z" class="g5_3" />
<path d="M517.6,480.1c-0.5,0.1,-0.9,0.3,-0.9,0.3c0,0,0.4,0.2,0.9,0c0.5,-0.1,0.9,-0.3,0.9,-0.3c0,0,-0.4,-0.1,-0.9,0Z" class="g5_3" />
<path d="M515.2,480.5c-0.5,0.1,-0.9,0.3,-0.9,0.3c0,0,0.5,0.2,1,0.1c0.5,-0.1,0.9,-0.4,0.9,-0.4c0,0,-0.5,-0.1,-1,0Z" class="g5_3" />
<path d="M512.8,480.8c-0.5,0,-0.9,0.2,-0.9,0.2c0,0,0.4,0.2,1,0.2c0.5,-0.1,0.9,-0.3,0.9,-0.3c0,0,-0.5,-0.2,-1,-0.1Z" class="g5_3" />
<path d="M510.5,480.7c-0.5,0,-0.9,0,-1,0c0,0,0.4,0.4,0.9,0.4c0.5,0,1,-0.1,1,-0.1c0,0,-0.4,-0.2,-0.9,-0.3Z" class="g5_3" />
<image x="209" y="271" width="309" height="459" xlink:href="3/shade/4.png" />
<path d="M374.3,407.3c0,-0.5,0.2,-0.9,0.2,-0.9c0,0,0.2,0.4,0.2,0.9c0,0.5,-0.1,0.9,-0.1,0.9c0,0,-0.2,-0.4,-0.3,-0.9Z" class="g5_3" />
<path d="M374.3,404.9c-0.1,-0.5,0.1,-0.9,0.1,-0.9c0,0,0.2,0.4,0.2,0.9c0.1,0.5,-0.1,0.9,-0.1,0.9c0,0,-0.2,-0.4,-0.2,-0.9Z" class="g5_3" />
<path d="M374.2,402.5c0,-0.5,0.1,-0.9,0.1,-0.9c0,0,0.2,0.4,0.3,0.9c0,0.5,-0.2,0.9,-0.2,0.9c0,0,-0.2,-0.4,-0.2,-0.9Z" class="g5_3" />
<path d="M374.1,400.1c0,-0.5,0.2,-0.9,0.2,-0.9c0,0,0.2,0.4,0.2,0.9c0,0.5,-0.2,0.9,-0.2,0.9c0,0,-0.2,-0.4,-0.2,-0.9Z" class="g5_3" />
<path d="M374,397.7c0,-0.5,0.2,-0.9,0.2,-0.9c0,0,0.2,0.4,0.2,0.9c0,0.5,-0.2,1,-0.2,1c0,0,-0.2,-0.5,-0.2,-1Z" class="g5_3" />
<path d="M373.9,395.4c0,-0.6,0.2,-1,0.2,-1c0,0,0.2,0.4,0.2,0.9c0,0.5,-0.1,1,-0.1,1c0,0,-0.2,-0.4,-0.3,-0.9Z" class="g5_3" />
<path d="M373.9,393c-0.1,-0.5,0.1,-1,0.1,-1c0,0,0.2,0.4,0.2,1c0.1,0.5,-0.1,0.9,-0.1,0.9c0,0,-0.2,-0.4,-0.2,-0.9Z" class="g5_3" />
<path d="M373.8,390.6c0,-0.5,0.1,-1,0.1,-1c0,0,0.2,0.5,0.3,1c0,0.5,-0.2,0.9,-0.2,0.9c0,0,-0.2,-0.4,-0.2,-0.9Z" class="g5_3" />
<path d="M373.7,388.2c0,-0.5,0.2,-0.9,0.2,-0.9c0,0,0.2,0.4,0.2,0.9c0,0.5,-0.2,0.9,-0.2,0.9c0,0,-0.2,-0.4,-0.2,-0.9Z" class="g5_3" />
<path d="M373.6,385.8c0,-0.5,0.2,-0.9,0.2,-0.9c0,0,0.2,0.4,0.2,0.9c0,0.5,-0.2,0.9,-0.2,0.9c0,0,-0.2,-0.4,-0.2,-0.9Z" class="g5_3" />
<path d="M373.5,383.4c0,-0.5,0.2,-0.9,0.2,-0.9c0,0,0.2,0.4,0.2,0.9c0,0.5,-0.1,0.9,-0.1,0.9c0,0,-0.3,-0.4,-0.3,-0.9Z" class="g5_3" />
<path d="M373.5,381c-0.1,-0.5,0.1,-0.9,0.1,-0.9c0,0,0.2,0.4,0.2,0.9c0.1,0.5,-0.1,0.9,-0.1,0.9c0,0,-0.2,-0.4,-0.2,-0.9Z" class="g5_3" />
<path d="M373.4,378.6c0,-0.5,0.1,-0.9,0.1,-0.9c0,0,0.3,0.4,0.3,0.9c0,0.5,-0.2,0.9,-0.2,0.9c0,0,-0.2,-0.4,-0.2,-0.9Z" class="g5_3" />
<path d="M373.3,376.2c0,-0.5,0.2,-0.9,0.2,-0.9c0,0,0.2,0.4,0.2,0.9c0,0.5,-0.2,1,-0.2,1c0,0,-0.2,-0.4,-0.2,-1Z" class="g5_3" />
<path d="M373.3,373.9c0,-0.6,0.2,-1,0.2,-1c0,0,0.2,0.4,0.2,1c0,0.5,-0.2,0.9,-0.2,0.9c0,0,-0.2,-0.4,-0.2,-0.9Z" class="g5_3" />
<path d="M373.3,371.5c0,-0.5,0.2,-1,0.2,-1c0,0,0.2,0.5,0.2,1c0,0.5,-0.2,0.9,-0.2,0.9c0,0,-0.2,-0.4,-0.2,-0.9Z" class="g5_3" />
<path d="M373.3,369.1c0,-0.5,0.2,-0.9,0.2,-0.9c0,0,0.2,0.4,0.2,0.9c0,0.5,-0.2,0.9,-0.2,0.9c0,0,-0.2,-0.4,-0.2,-0.9Z" class="g5_3" />
<path d="M373.3,366.7c0,-0.5,0.2,-0.9,0.2,-0.9c0,0,0.2,0.4,0.2,0.9c0,0.5,-0.2,0.9,-0.2,0.9c0,0,-0.2,-0.4,-0.2,-0.9Z" class="g5_3" />
<path d="M373.4,364.3c0,-0.5,0.2,-0.9,0.2,-0.9c0,0,0.2,0.4,0.2,0.9c0,0.5,-0.2,0.9,-0.2,0.9c0,0,-0.2,-0.4,-0.2,-0.9Z" class="g5_3" />
<path d="M373.5,361.9c0,-0.5,0.2,-0.9,0.2,-0.9c0,0,0.2,0.4,0.2,0.9c0,0.5,-0.3,0.9,-0.3,0.9c0,0,-0.1,-0.4,-0.1,-0.9Z" class="g5_3" />
<path d="M373.6,359.5c0,-0.5,0.3,-0.9,0.3,-0.9c0,0,0.1,0.4,0.1,0.9c0,0.5,-0.2,0.9,-0.2,0.9c0,0,-0.2,-0.4,-0.2,-0.9Z" class="g5_3" />
<path d="M373.8,357.1c0,-0.5,0.2,-0.9,0.2,-0.9c0,0,0.2,0.4,0.1,1c0,0.5,-0.2,0.9,-0.2,0.9c0,0,-0.2,-0.5,-0.1,-1Z" class="g5_3" />
<path d="M373.9,354.7c0.1,-0.5,0.3,-0.9,0.3,-0.9c0,0,0.2,0.5,0.1,1c0,0.5,-0.3,0.9,-0.3,0.9c0,0,-0.1,-0.5,-0.1,-1Z" class="g5_3" />
<path d="M374.1,352.4c0.1,-0.5,0.3,-0.9,0.3,-0.9c0,0,0.2,0.4,0.1,0.9c0,0.5,-0.3,0.9,-0.3,0.9c0,0,-0.1,-0.4,-0.1,-0.9Z" class="g5_3" />
<path d="M374.4,350c0,-0.5,0.3,-0.9,0.3,-0.9c0,0,0.1,0.4,0.1,0.9c-0.1,0.5,-0.3,0.9,-0.3,0.9c0,0,-0.2,-0.4,-0.1,-0.9Z" class="g5_3" />
<path d="M374.6,347.6c0.1,-0.5,0.4,-0.9,0.4,-0.9c0,0,0.1,0.4,0,0.9c0,0.6,-0.3,0.9,-0.3,0.9c0,0,-0.1,-0.4,-0.1,-0.9Z" class="g5_3" />
<path d="M375,345.2c0,-0.5,0.3,-0.9,0.3,-0.9c0,0,0.1,0.5,0,1c0,0.5,-0.3,0.9,-0.3,0.9c0,0,-0.1,-0.5,0,-1Z" class="g5_3" />
<path d="M375.3,342.9c0.1,-0.5,0.4,-0.9,0.4,-0.9c0,0,0.1,0.4,0,0.9c-0.1,0.5,-0.3,0.9,-0.3,0.9c0,0,-0.2,-0.4,-0.1,-0.9Z" class="g5_3" />
<path d="M375.7,340.5c0.1,-0.5,0.4,-0.9,0.4,-0.9c0,0,0.1,0.5,0,1c-0.1,0.5,-0.3,0.8,-0.3,0.8c0,0,-0.2,-0.4,-0.1,-0.9Z" class="g5_3" />
<path d="M376.2,338.2c0.1,-0.5,0.4,-0.9,0.4,-0.9c0,0,0.1,0.4,0,0.9c-0.1,0.5,-0.4,0.9,-0.4,0.9c0,0,-0.1,-0.4,0,-0.9Z" class="g5_3" />
<path d="M376.7,335.8c0.2,-0.5,0.4,-0.8,0.4,-0.8c0,0,0.1,0.4,0,0.9c-0.1,0.5,-0.4,0.9,-0.4,0.9c0,0,-0.1,-0.5,0,-1Z" class="g5_3" />
<path d="M377.3,333.5c0.2,-0.5,0.5,-0.8,0.5,-0.8c0,0,0.1,0.4,-0.1,0.9c-0.1,0.5,-0.4,0.8,-0.4,0.8c0,0,-0.1,-0.4,0,-0.9Z" class="g5_3" />
<path d="M378.1,331.2c0.1,-0.5,0.4,-0.8,0.4,-0.8c0,0,0.1,0.5,-0.1,0.9c-0.1,0.5,-0.4,0.9,-0.4,0.9c0,0,-0.1,-0.5,0.1,-1Z" class="g5_3" />
<path d="M378.9,329c0.2,-0.5,0.5,-0.8,0.5,-0.8c0,0,0.1,0.5,-0.1,0.9c-0.2,0.5,-0.6,0.8,-0.6,0.8c0,0,0,-0.4,0.2,-0.9Z" class="g5_3" />
<path d="M379.9,326.8c0.3,-0.5,0.6,-0.7,0.6,-0.7c0,0,0,0.4,-0.2,0.9c-0.3,0.4,-0.6,0.7,-0.6,0.7c0,0,0,-0.5,0.2,-0.9Z" class="g5_3" />
<path d="M381.1,324.7c0.3,-0.4,0.7,-0.6,0.7,-0.6c0,0,-0.1,0.4,-0.3,0.8c-0.3,0.4,-0.7,0.7,-0.7,0.7c0,0,0,-0.5,0.3,-0.9Z" class="g5_3" />
<path d="M346.7,407.4c0.6,0,1,0.2,1,0.2c0,0,-0.4,0.1,-1,0.1c-0.5,0.1,-0.9,-0.1,-0.9,-0.1c0,0,0.4,-0.2,0.9,-0.2Z" class="g5_3" />
<path d="M349.2,407.3c0.5,0,0.9,0.2,0.9,0.2c0,0,-0.4,0.2,-0.9,0.2c-0.6,0,-1,-0.2,-1,-0.2c0,0,0.4,-0.1,1,-0.2Z" class="g5_3" />
<path d="M351.6,407.3c0.5,0,0.9,0.2,0.9,0.2c0,0,-0.4,0.2,-0.9,0.2c-0.5,0,-1,-0.2,-1,-0.2c0,0,0.5,-0.2,1,-0.2Z" class="g5_3" />
<path d="M354,407.3c0.5,0,0.9,0.2,0.9,0.2c0,0,-0.4,0.2,-0.9,0.2c-0.5,0,-0.9,-0.2,-0.9,-0.2c0,0,0.4,-0.2,0.9,-0.2Z" class="g5_3" />
<path d="M356.4,407.3c0.5,0,0.9,0.2,0.9,0.2c0,0,-0.4,0.2,-0.9,0.2c-0.5,0,-0.9,-0.2,-0.9,-0.2c0,0,0.4,-0.2,0.9,-0.2Z" class="g5_3" />
<path d="M358.8,407.3c0.5,0,0.9,0.2,0.9,0.2c0,0,-0.4,0.2,-0.9,0.2c-0.5,0,-0.9,-0.2,-0.9,-0.2c0,0,0.4,-0.2,0.9,-0.2Z" class="g5_3" />
<path d="M361.2,407.3c0.5,0,0.9,0.1,0.9,0.1c0,0,-0.4,0.2,-0.9,0.2c-0.5,0,-0.9,-0.1,-0.9,-0.1c0,0,0.4,-0.2,0.9,-0.2Z" class="g5_3" />
<path d="M363.6,407.2c0.5,0,1,0.2,1,0.2c0,0,-0.5,0.2,-1,0.2c-0.5,0,-0.9,-0.2,-0.9,-0.2c0,0,0.4,-0.2,0.9,-0.2Z" class="g5_3" />
<path d="M366,407.2c0.6,0,1,0.2,1,0.2c0,0,-0.4,0.2,-1,0.2c-0.5,0,-0.9,-0.2,-0.9,-0.2c0,0,0.4,-0.2,0.9,-0.2Z" class="g5_3" />
<path d="M368.5,407.2c0.5,0,0.9,0.2,0.9,0.2c0,0,-0.4,0.2,-0.9,0.2c-0.6,0,-1,-0.2,-1,-0.2c0,0,0.4,-0.2,1,-0.2Z" class="g5_3" />
<path d="M370.9,407.2c0.5,0,0.9,0.2,0.9,0.2c0,0,-0.4,0.2,-0.9,0.2c-0.5,0,-1,-0.2,-1,-0.2c0,0,0.5,-0.2,1,-0.2Z" class="g5_3" />
<path d="M373.3,407.2c0.5,0,0.9,0.2,0.9,0.2c0,0,-0.4,0.2,-0.9,0.2c-0.5,0,-0.9,-0.2,-0.9,-0.2c0,0,0.4,-0.2,0.9,-0.2Z" class="g5_3" />
<path d="M347.1,388.4c0,-0.5,0.1,-1,0.1,-1c0,0,0.3,0.4,0.3,0.9c0.1,0.5,-0.1,1,-0.1,1c0,0,-0.2,-0.4,-0.3,-0.9Z" class="g5_3" />
<path d="M346.9,386c-0.1,-0.5,0.1,-1,0.1,-1c0,0,0.2,0.4,0.3,0.9c0,0.5,-0.1,1,-0.1,1c0,0,-0.3,-0.4,-0.3,-0.9Z" class="g5_3" />
<path d="M346.6,383.6c0,-0.5,0.1,-0.9,0.1,-0.9c0,0,0.2,0.3,0.3,0.8c0.1,0.6,-0.1,1,-0.1,1c0,0,-0.2,-0.4,-0.3,-0.9Z" class="g5_3" />
<path d="M346.3,381.2c0,-0.5,0.1,-0.9,0.1,-0.9c0,0,0.3,0.3,0.3,0.9c0.1,0.5,-0.1,0.9,-0.1,0.9c0,0,-0.2,-0.4,-0.3,-0.9Z" class="g5_3" />
<path d="M346.1,378.8c-0.1,-0.5,0.1,-0.9,0.1,-0.9c0,0,0.2,0.4,0.2,0.9c0.1,0.5,0,0.9,0,0.9c0,0,-0.3,-0.4,-0.3,-0.9Z" class="g5_3" />
<path d="M345.8,376.4c-0.1,-0.5,0.1,-0.9,0.1,-0.9c0,0,0.2,0.4,0.3,0.9c0,0.5,-0.1,0.9,-0.1,0.9c0,0,-0.3,-0.4,-0.3,-0.9Z" class="g5_3" />
<path d="M345.5,374c0,-0.5,0.1,-0.9,0.1,-0.9c0,0,0.3,0.4,0.3,0.9c0.1,0.5,-0.1,0.9,-0.1,0.9c0,0,-0.2,-0.4,-0.3,-0.9Z" class="g5_3" />
<path d="M345.3,371.6c-0.1,-0.5,0.1,-0.9,0.1,-0.9c0,0,0.2,0.4,0.2,0.9c0.1,0.5,0,0.9,0,0.9c0,0,-0.3,-0.4,-0.3,-0.9Z" class="g5_3" />
<path d="M345,369.2c0,-0.5,0.1,-0.9,0.1,-0.9c0,0,0.2,0.4,0.3,0.9c0,0.5,-0.1,0.9,-0.1,0.9c0,0,-0.2,-0.4,-0.3,-0.9Z" class="g5_3" />
<path d="M344.8,366.8c-0.1,-0.5,0.1,-0.9,0.1,-0.9c0,0,0.2,0.4,0.3,0.9c0,0.5,-0.1,0.9,-0.1,0.9c0,0,-0.3,-0.3,-0.3,-0.9Z" class="g5_3" />
<path d="M344.5,364.4c0,-0.5,0.2,-0.9,0.2,-0.9c0,0,0.2,0.4,0.2,0.9c0.1,0.5,-0.1,0.9,-0.1,0.9c0,0,-0.2,-0.3,-0.3,-0.9Z" class="g5_3" />
<path d="M344.3,362c0,-0.5,0.2,-0.9,0.2,-0.9c0,0,0.2,0.4,0.2,0.9c0.1,0.5,-0.1,1,-0.1,1c0,0,-0.2,-0.4,-0.3,-1Z" class="g5_3" />
<path d="M344.2,359.6c0,-0.5,0.1,-0.9,0.1,-0.9c0,0,0.2,0.4,0.3,0.9c0,0.5,-0.2,0.9,-0.2,0.9c0,0,-0.2,-0.4,-0.2,-0.9Z" class="g5_3" />
<path d="M344.1,357.2c0,-0.5,0.2,-0.9,0.2,-0.9c0,0,0.2,0.4,0.2,0.9c0,0.5,-0.2,0.9,-0.2,0.9c0,0,-0.2,-0.4,-0.2,-0.9Z" class="g5_3" />
<path d="M344,354.8c0,-0.5,0.2,-0.9,0.2,-0.9c0,0,0.2,0.4,0.2,0.9c0,0.5,-0.1,0.9,-0.1,0.9c0,0,-0.2,-0.4,-0.3,-0.9Z" class="g5_3" />
<path d="M343.9,352.4c0,-0.5,0.2,-0.9,0.2,-0.9c0,0,0.2,0.4,0.2,0.9c0.1,0.5,-0.1,0.9,-0.1,0.9c0,0,-0.2,-0.4,-0.3,-0.9Z" class="g5_3" />
<path d="M343.8,350c0,-0.5,0.2,-0.9,0.2,-0.9c0,0,0.2,0.4,0.2,0.9c0,0.5,-0.1,0.9,-0.1,0.9c0,0,-0.2,-0.4,-0.3,-0.9Z" class="g5_3" />
<path d="M343.7,347.6c-0.1,-0.5,0.1,-0.9,0.1,-0.9c0,0,0.2,0.4,0.3,0.9c0,0.5,-0.2,0.9,-0.2,0.9c0,0,-0.2,-0.4,-0.2,-0.9Z" class="g5_3" />
<path d="M343.5,345.2c0,-0.5,0.1,-0.9,0.1,-0.9c0,0,0.3,0.4,0.3,0.9c0,0.5,-0.1,0.9,-0.1,0.9c0,0,-0.3,-0.4,-0.3,-0.9Z" class="g5_3" />
<path d="M343.3,342.8c-0.1,-0.5,0.1,-0.9,0.1,-0.9c0,0,0.2,0.4,0.3,0.9c0,0.5,-0.1,0.9,-0.1,0.9c0,0,-0.3,-0.4,-0.3,-0.9Z" class="g5_3" />
<path d="M343,340.4c-0.1,-0.5,0.1,-0.9,0.1,-0.9c0,0,0.2,0.4,0.3,0.9c0.1,0.5,-0.1,0.9,-0.1,0.9c0,0,-0.2,-0.4,-0.3,-0.9Z" class="g5_3" />
<path d="M342.7,338.1c-0.1,-0.6,0.1,-1,0.1,-1c0,0,0.2,0.4,0.3,0.9c0,0.5,-0.1,0.9,-0.1,0.9c0,0,-0.2,-0.3,-0.3,-0.8Z" class="g5_3" />
<path d="M342.3,335.7c-0.1,-0.5,0.1,-1,0.1,-1c0,0,0.2,0.4,0.3,0.9c0.1,0.5,0,1,0,1c0,0,-0.3,-0.4,-0.4,-0.9Z" class="g5_3" />
<path d="M341.9,333.3c-0.1,-0.5,0.1,-0.9,0.1,-0.9c0,0,0.2,0.3,0.3,0.8c0.1,0.6,0,1,0,1c0,0,-0.3,-0.4,-0.4,-0.9Z" class="g5_3" />
<path d="M341.4,331c-0.1,-0.5,0,-1,0,-1c0,0,0.3,0.4,0.4,0.9c0.1,0.5,0,0.9,0,0.9c0,0,-0.2,-0.3,-0.4,-0.8Z" class="g5_3" />
<path d="M340.9,328.6c-0.1,-0.5,0,-0.9,0,-0.9c0,0,0.3,0.3,0.4,0.8c0.1,0.5,0,1,0,1c0,0,-0.3,-0.4,-0.4,-0.9Z" class="g5_3" />
<path d="M340.3,326.3c-0.1,-0.5,0,-1,0,-1c0,0,0.3,0.4,0.4,0.9c0.1,0.5,0.1,0.9,0.1,0.9c0,0,-0.3,-0.3,-0.5,-0.8Z" class="g5_3" />
<path d="M339.7,324c-0.1,-0.5,-0.1,-1,-0.1,-1c0,0,0.3,0.4,0.5,0.9c0.1,0.5,0,0.9,0,0.9c0,0,-0.3,-0.3,-0.4,-0.8Z" class="g5_3" />
<path d="M338.9,321.7c-0.1,-0.5,-0.1,-0.9,-0.1,-0.9c0,0,0.3,0.3,0.5,0.8c0.2,0.5,0.1,0.9,0.1,0.9c0,0,-0.3,-0.3,-0.5,-0.8Z" class="g5_3" />
<path d="M338.2,319.4C338,319,338,318.5,338,318.5c0,0,0.3,0.3,0.5,0.8c0.2,0.5,0.1,0.9,0.1,0.9c0,0,-0.3,-0.3,-0.4,-0.8Z" class="g5_3" />
<path d="M337.2,317.2c-0.2,-0.5,-0.1,-0.9,-0.1,-0.9c0,0,0.3,0.3,0.5,0.8c0.2,0.4,0.2,0.9,0.2,0.9c0,0,-0.4,-0.3,-0.6,-0.8Z" class="g5_3" />
<path d="M336.3,315c-0.2,-0.5,-0.2,-0.9,-0.2,-0.9c0,0,0.3,0.3,0.6,0.7c0.2,0.5,0.1,1,0.1,1c0,0,-0.3,-0.3,-0.5,-0.8Z" class="g5_3" />
<path d="M335.2,312.9C335,312.4,335,312,335,312c0,0,0.3,0.2,0.6,0.7c0.2,0.4,0.2,0.9,0.2,0.9c0,0,-0.4,-0.3,-0.6,-0.7Z" class="g5_3" />
<path d="M334.1,310.7c-0.3,-0.4,-0.3,-0.8,-0.3,-0.8c0,0,0.3,0.2,0.6,0.7c0.3,0.4,0.3,0.9,0.3,0.9c0,0,-0.3,-0.3,-0.6,-0.8Z" class="g5_3" />
<path d="M332.8,308.7c-0.3,-0.4,-0.3,-0.9,-0.3,-0.9c0,0,0.4,0.3,0.6,0.7c0.3,0.4,0.4,0.9,0.4,0.9c0,0,-0.4,-0.2,-0.7,-0.7Z" class="g5_3" />
<path d="M331.5,306.7c-0.3,-0.4,-0.4,-0.8,-0.4,-0.8c0,0,0.4,0.2,0.7,0.6c0.3,0.4,0.4,0.9,0.4,0.9c0,0,-0.4,-0.3,-0.7,-0.7Z" class="g5_3" />
<path d="M330,304.8c-0.3,-0.4,-0.4,-0.8,-0.4,-0.8c0,0,0.4,0.2,0.7,0.6c0.3,0.4,0.4,0.9,0.4,0.9c0,0,-0.4,-0.3,-0.7,-0.7Z" class="g5_3" />
<path d="M328.5,303c-0.4,-0.3,-0.6,-0.8,-0.6,-0.8c0,0,0.5,0.2,0.8,0.6c0.4,0.3,0.5,0.8,0.5,0.8c0,0,-0.4,-0.2,-0.7,-0.6Z" class="g5_3" />
<path d="M326.8,301.3c-0.4,-0.4,-0.5,-0.8,-0.5,-0.8c0,0,0.4,0.2,0.7,0.5c0.4,0.4,0.6,0.8,0.6,0.8c0,0,-0.5,-0.1,-0.8,-0.5Z" class="g5_3" />
<path d="M325,299.7c-0.4,-0.3,-0.6,-0.7,-0.6,-0.7c0,0,0.5,0.1,0.9,0.4c0.4,0.3,0.6,0.7,0.6,0.7c0,0,-0.5,-0.1,-0.9,-0.4Z" class="g5_3" />
<path d="M323.1,298.2c-0.4,-0.3,-0.6,-0.7,-0.6,-0.7c0,0,0.5,0.1,0.9,0.4c0.4,0.3,0.6,0.7,0.6,0.7c0,0,-0.5,-0.1,-0.9,-0.4Z" class="g5_3" />
<path d="M239.8,690.1c0.4,0.4,0.5,0.8,0.5,0.8c0,0,-0.4,-0.1,-0.8,-0.5c-0.4,-0.5,-0.5,-0.9,-0.5,-0.9c0,0,0.5,0.2,0.8,0.6Z" class="g6_3" />
<path d="M241.8,692.2c0.4,0.4,0.6,0.8,0.6,0.8c0,0,-0.5,-0.1,-0.9,-0.5c-0.4,-0.4,-0.5,-0.8,-0.5,-0.8c0,0,0.4,0.1,0.8,0.5Z" class="g6_3" />
<path d="M243.9,694.2c0.4,0.3,0.6,0.8,0.6,0.8c0,0,-0.4,-0.2,-0.8,-0.5c-0.4,-0.4,-0.6,-0.8,-0.6,-0.8c0,0,0.4,0.1,0.8,0.5Z" class="g6_3" />
<path d="M246.2,696c0.4,0.4,0.6,0.8,0.6,0.8c0,0,-0.4,-0.1,-0.9,-0.4c-0.4,-0.4,-0.6,-0.8,-0.6,-0.8c0,0,0.5,0.1,0.9,0.4Z" class="g6_3" />
<path d="M248.5,697.8c0.4,0.3,0.7,0.7,0.7,0.7c0,0,-0.5,-0.1,-0.9,-0.4c-0.5,-0.3,-0.7,-0.7,-0.7,-0.7c0,0,0.5,0.1,0.9,0.4Z" class="g6_3" />
<path d="M250.9,699.4c0.5,0.3,0.7,0.7,0.7,0.7c0,0,-0.4,-0.1,-0.9,-0.3c-0.4,-0.3,-0.7,-0.7,-0.7,-0.7c0,0,0.5,0,0.9,0.3Z" class="g6_3" />
<path d="M253.4,700.9c0.5,0.3,0.8,0.7,0.8,0.7c0,0,-0.5,-0.1,-1,-0.3c-0.4,-0.3,-0.7,-0.7,-0.7,-0.7c0,0,0.5,0.1,0.9,0.3Z" class="g6_3" />
<path d="M256,702.3c0.5,0.2,0.8,0.6,0.8,0.6c0,0,-0.5,0,-1,-0.2C255.3,702.4,255,702,255,702c0,0,0.5,0.1,1,0.3Z" class="g6_3" />
<path d="M258.6,703.6c0.5,0.2,0.8,0.5,0.8,0.5c0,0,-0.5,0,-0.9,-0.2c-0.5,-0.2,-0.9,-0.6,-0.9,-0.6c0,0,0.5,0,1,0.3Z" class="g6_3" />
<path d="M261.3,704.7c0.5,0.2,0.8,0.5,0.8,0.5c0,0,-0.4,0.1,-0.9,-0.1c-0.5,-0.2,-0.9,-0.6,-0.9,-0.6c0,0,0.5,0,1,0.2Z" class="g6_3" />
<path d="M264,705.7c0.6,0.2,0.9,0.5,0.9,0.5c0,0,-0.5,0,-1,-0.1c-0.5,-0.2,-0.8,-0.5,-0.8,-0.5c0,0,0.4,-0.1,0.9,0.1Z" class="g6_3" />
<path d="M266.8,706.6c0.5,0.2,0.9,0.5,0.9,0.5c0,0,-0.5,0.1,-1,-0.1c-0.5,-0.2,-0.9,-0.5,-0.9,-0.5c0,0,0.5,0,1,0.1Z" class="g6_3" />
<path d="M269.6,707.5c0.5,0.2,0.9,0.5,0.9,0.5c0,0,-0.5,0.1,-1,-0.1c-0.6,-0.1,-0.9,-0.5,-0.9,-0.5c0,0,0.5,0,1,0.1Z" class="g6_3" />
<path d="M272.4,708.4c0.5,0.2,0.8,0.5,0.8,0.5c0,0,-0.4,0,-0.9,-0.1c-0.6,-0.2,-0.9,-0.5,-0.9,-0.5c0,0,0.5,-0.1,1,0.1Z" class="g6_3" />
<path d="M275.2,709.2c0.5,0.2,0.9,0.5,0.9,0.5c0,0,-0.5,0.1,-1,-0.1c-0.6,-0.1,-0.9,-0.4,-0.9,-0.4c0,0,0.5,-0.1,1,0Z" class="g6_3" />
<path d="M278,710c0.5,0.2,0.9,0.5,0.9,0.5c0,0,-0.5,0.1,-1,-0.1C277.4,710.3,277,710,277,710c0,0,0.5,-0.1,1,0Z" class="g6_3" />
<path d="M280.8,710.8c0.5,0.1,0.9,0.5,0.9,0.5c0,0,-0.5,0,-1,-0.1c-0.5,-0.1,-0.9,-0.5,-0.9,-0.5c0,0,0.5,0,1,0.1Z" class="g6_3" />
<path d="M283.6,711.5c0.5,0.2,0.9,0.5,0.9,0.5c0,0,-0.4,0.1,-1,-0.1c-0.5,-0.1,-0.9,-0.4,-0.9,-0.4c0,0,0.5,-0.1,1,0Z" class="g6_3" />
<path d="M286.5,712.3c0.5,0.1,0.9,0.4,0.9,0.4c0,0,-0.5,0.1,-1,-0.1c-0.6,-0.1,-0.9,-0.4,-0.9,-0.4c0,0,0.4,-0.1,1,0.1Z" class="g6_3" />
<path d="M289.3,712.9c0.5,0.2,0.9,0.5,0.9,0.5c0,0,-0.5,0.1,-1,-0.1c-0.5,-0.1,-0.9,-0.4,-0.9,-0.4c0,0,0.5,-0.1,1,0Z" class="g6_3" />
<path d="M292.2,713.6c0.5,0.1,0.9,0.4,0.9,0.4c0,0,-0.5,0.1,-1,0c-0.6,-0.1,-0.9,-0.4,-0.9,-0.4c0,0,0.4,-0.1,1,0Z" class="g6_3" />
<path d="M295,714.2c0.5,0.1,0.9,0.4,0.9,0.4c0,0,-0.5,0.1,-1,0c-0.5,-0.1,-0.9,-0.4,-0.9,-0.4c0,0,0.5,-0.1,1,0Z" class="g6_3" />
<path d="M297.9,714.8c0.5,0.1,0.9,0.4,0.9,0.4c0,0,-0.5,0.1,-1,0c-0.5,-0.1,-0.9,-0.4,-0.9,-0.4c0,0,0.4,-0.1,1,0Z" class="g6_3" />
<path d="M300.7,715.4c0.6,0.1,0.9,0.4,0.9,0.4c0,0,-0.4,0.1,-0.9,0c-0.6,-0.1,-1,-0.4,-1,-0.4c0,0,0.5,-0.1,1,0Z" class="g6_3" />
<path d="M303.6,716c0.5,0.1,0.9,0.3,0.9,0.3c0,0,-0.4,0.2,-1,0.1C303,716.3,302.6,716,302.6,716c0,0,0.5,-0.1,1,0Z" class="g6_3" />
<path d="M306.5,716.5c0.5,0.1,0.9,0.4,0.9,0.4c0,0,-0.5,0.1,-1,0c-0.5,-0.1,-0.9,-0.4,-0.9,-0.4c0,0,0.4,-0.1,1,0Z" class="g6_3" />
<path d="M309.3,717c0.6,0.1,1,0.4,1,0.4c0,0,-0.5,0.1,-1,0c-0.6,-0.1,-0.9,-0.4,-0.9,-0.4c0,0,0.4,-0.1,0.9,0Z" class="g6_3" />
<path d="M312.2,717.5c0.6,0.1,1,0.3,1,0.3c0,0,-0.5,0.2,-1,0.1c-0.6,-0.1,-1,-0.4,-1,-0.4c0,0,0.5,-0.1,1,0Z" class="g6_3" />
<path d="M315.1,718c0.5,0,0.9,0.3,0.9,0.3c0,0,-0.4,0.1,-0.9,0.1c-0.6,-0.1,-1,-0.4,-1,-0.4c0,0,0.5,-0.1,1,0Z" class="g6_3" />
<path d="M318,718.4c0.5,0.1,0.9,0.3,0.9,0.3c0,0,-0.4,0.2,-1,0.1c-0.5,-0.1,-0.9,-0.4,-0.9,-0.4c0,0,0.5,-0.1,1,0Z" class="g6_3" />
<path d="M320.9,718.8c0.5,0.1,0.9,0.3,0.9,0.3c0,0,-0.4,0.2,-1,0.1c-0.5,-0.1,-0.9,-0.3,-0.9,-0.3c0,0,0.5,-0.2,1,-0.1Z" class="g6_3" />
<path d="M323.8,719.2c0.5,0.1,0.9,0.3,0.9,0.3c0,0,-0.4,0.2,-1,0.1c-0.5,-0.1,-0.9,-0.3,-0.9,-0.3c0,0,0.5,-0.2,1,-0.1Z" class="g6_3" />
<path d="M326.7,719.6c0.5,0,0.9,0.3,0.9,0.3c0,0,-0.4,0.1,-1,0.1c-0.5,-0.1,-0.9,-0.4,-0.9,-0.4c0,0,0.5,-0.1,1,0Z" class="g6_3" />
<path d="M329.6,719.9c0.5,0.1,0.9,0.3,0.9,0.3c0,0,-0.4,0.2,-1,0.1C329,720.2,328.6,720,328.6,720c0,0,0.5,-0.2,1,-0.1Z" class="g6_3" />
<path d="M332.5,720.2c0.5,0.1,0.9,0.3,0.9,0.3c0,0,-0.4,0.2,-0.9,0.1c-0.6,0,-1,-0.3,-1,-0.3c0,0,0.5,-0.1,1,-0.1Z" class="g6_3" />
<path d="M335.4,720.5c0.5,0.1,1,0.3,1,0.3c0,0,-0.5,0.2,-1,0.1c-0.6,0,-1,-0.3,-1,-0.3c0,0,0.5,-0.1,1,-0.1Z" class="g6_3" />
<path d="M338.3,720.8c0.5,0.1,1,0.3,1,0.3c0,0,-0.5,0.2,-1,0.1c-0.6,0,-1,-0.3,-1,-0.3c0,0,0.5,-0.1,1,-0.1Z" class="g6_3" />
<path d="M341.2,721.1c0.6,0,1,0.3,1,0.3c0,0,-0.5,0.1,-1,0.1c-0.5,-0.1,-1,-0.3,-1,-0.3c0,0,0.5,-0.2,1,-0.1Z" class="g6_3" />
<path d="M344.1,721.3c0.6,0,1,0.3,1,0.3c0,0,-0.5,0.1,-1,0.1c-0.5,0,-0.9,-0.3,-0.9,-0.3c0,0,0.4,-0.1,0.9,-0.1Z" class="g6_3" />
<path d="M347.1,721.5c0.5,0,0.9,0.3,0.9,0.3c0,0,-0.4,0.2,-1,0.1c-0.5,0,-0.9,-0.3,-0.9,-0.3c0,0,0.4,-0.1,1,-0.1Z" class="g6_3" />
<path d="M350,721.7c0.5,0,0.9,0.3,0.9,0.3c0,0,-0.4,0.1,-1,0.1c-0.5,0,-0.9,-0.3,-0.9,-0.3c0,0,0.4,-0.1,1,-0.1Z" class="g6_3" />
<path d="M352.9,721.9c0.5,0,1,0.2,1,0.2c0,0,-0.5,0.2,-1,0.2c-0.6,-0.1,-1,-0.3,-1,-0.3c0,0,0.4,-0.2,1,-0.1Z" class="g6_3" />
<path d="M355.8,722c0.5,0,1,0.2,1,0.2c0,0,-0.5,0.2,-1,0.2c-0.6,0,-1,-0.2,-1,-0.2c0,0,0.5,-0.2,1,-0.2Z" class="g6_3" />
<path d="M358.7,722.1c0.6,0,1,0.3,1,0.3c0,0,-0.4,0.1,-1,0.1c-0.5,0,-1,-0.2,-1,-0.2c0,0,0.5,-0.2,1,-0.2Z" class="g6_3" />
<path d="M361.6,722.2c0.6,0,1,0.2,1,0.2c0,0,-0.4,0.2,-1,0.2c-0.5,0,-0.9,-0.2,-0.9,-0.2c0,0,0.4,-0.2,0.9,-0.2Z" class="g6_3" />
<path d="M364.6,722.3c0.5,0,0.9,0.2,0.9,0.2c0,0,-0.4,0.2,-0.9,0.2c-0.6,0,-1,-0.2,-1,-0.2c0,0,0.4,-0.2,1,-0.2Z" class="g6_3" />
<path d="M367.5,722.3c0.5,0,1,0.2,1,0.2c0,0,-0.5,0.2,-1,0.2c-0.6,0,-1,-0.2,-1,-0.2c0,0,0.5,-0.2,1,-0.2Z" class="g6_3" />
<path d="M370.4,722.3c0.6,0,1,0.3,1,0.3c0,0,-0.5,0.2,-1,0.1c-0.5,0,-1,-0.2,-1,-0.2c0,0,0.5,-0.2,1,-0.2Z" class="g6_3" />
<path d="M373.3,722.3c0.6,0,1,0.2,1,0.2c0,0,-0.4,0.2,-1,0.2c-0.5,0,-0.9,-0.1,-0.9,-0.1c0,0,0.4,-0.3,0.9,-0.3Z" class="g6_3" />
<path d="M376.3,722.3c0.5,0,0.9,0.2,0.9,0.2c0,0,-0.4,0.2,-0.9,0.2c-0.6,0,-1,-0.2,-1,-0.2c0,0,0.4,-0.2,1,-0.2Z" class="g6_3" />
<path d="M379.2,722.3c0.5,0,1,0.1,1,0.1c0,0,-0.5,0.3,-1,0.3c-0.6,0,-1,-0.2,-1,-0.2c0,0,0.4,-0.2,1,-0.2Z" class="g6_3" />
<path d="M382.1,722.2c0.5,0,1,0.2,1,0.2c0,0,-0.5,0.2,-1,0.2c-0.5,0,-1,-0.2,-1,-0.2c0,0,0.5,-0.2,1,-0.2Z" class="g6_3" />
<path d="M385,722.1c0.6,0,1,0.2,1,0.2c0,0,-0.4,0.2,-1,0.2c-0.5,0,-0.9,-0.2,-0.9,-0.2c0,0,0.4,-0.2,0.9,-0.2Z" class="g6_3" />
<path d="M387.9,722c0.6,-0.1,1,0.1,1,0.1c0,0,-0.4,0.2,-0.9,0.3c-0.6,0,-1,-0.2,-1,-0.2c0,0,0.4,-0.2,0.9,-0.2Z" class="g6_3" />
<path d="M390.9,721.8c0.5,0,0.9,0.2,0.9,0.2c0,0,-0.4,0.2,-0.9,0.2c-0.6,0,-1,-0.1,-1,-0.1c0,0,0.4,-0.3,1,-0.3Z" class="g6_3" />
<path d="M393.8,721.6c0.5,0,1,0.2,1,0.2c0,0,-0.5,0.2,-1,0.2c-0.5,0.1,-1,-0.1,-1,-0.1c0,0,0.4,-0.2,1,-0.3Z" class="g6_3" />
<path d="M396.7,721.4c0.5,0,1,0.2,1,0.2c0,0,-0.4,0.2,-1,0.2c-0.5,0.1,-1,-0.1,-1,-0.1c0,0,0.5,-0.2,1,-0.3Z" class="g6_3" />
<path d="M399.6,721.2c0.5,0,1,0.1,1,0.1c0,0,-0.4,0.3,-1,0.3c-0.5,0.1,-1,-0.1,-1,-0.1c0,0,0.5,-0.2,1,-0.3Z" class="g6_3" />
<path d="M402.5,721c0.5,-0.1,1,0.1,1,0.1c0,0,-0.4,0.2,-0.9,0.3c-0.6,0,-1,-0.2,-1,-0.2c0,0,0.4,-0.2,0.9,-0.2Z" class="g6_3" />
<path d="M405.4,720.7c0.6,-0.1,1,0.1,1,0.1c0,0,-0.4,0.2,-0.9,0.3c-0.6,0,-1,-0.1,-1,-0.1c0,0,0.4,-0.3,0.9,-0.3Z" class="g6_3" />
<path d="M408.3,720.4c0.6,-0.1,1,0.1,1,0.1c0,0,-0.4,0.2,-0.9,0.3c-0.6,0,-1,-0.1,-1,-0.1c0,0,0.4,-0.3,0.9,-0.3Z" class="g6_3" />
<path d="M411.2,720c0.6,0,1,0.1,1,0.1c0,0,-0.4,0.3,-0.9,0.3c-0.6,0.1,-1,0,-1,0c0,0,0.4,-0.3,0.9,-0.4Z" class="g6_3" />
<path d="M414.1,719.7c0.6,-0.1,1,0.1,1,0.1c0,0,-0.4,0.2,-0.9,0.3c-0.6,0,-1,-0.1,-1,-0.1c0,0,0.4,-0.3,0.9,-0.3Z" class="g6_3" />
<path d="M417,719.3c0.6,-0.1,1,0.1,1,0.1c0,0,-0.4,0.2,-0.9,0.3c-0.6,0.1,-1,-0.1,-1,-0.1c0,0,0.4,-0.2,0.9,-0.3Z" class="g6_3" />
<path d="M419.9,718.9c0.6,-0.1,1,0,1,0c0,0,-0.4,0.3,-0.9,0.4c-0.6,0.1,-1,-0.1,-1,-0.1c0,0,0.4,-0.2,0.9,-0.3Z" class="g6_3" />
<path d="M422.8,718.4c0.5,-0.1,1,0.1,1,0.1c0,0,-0.4,0.2,-0.9,0.3c-0.6,0.1,-1,0,-1,0c0,0,0.4,-0.3,0.9,-0.4Z" class="g6_3" />
<path d="M425.7,718c0.5,-0.1,1,0,1,0c0,0,-0.4,0.3,-0.9,0.4c-0.6,0,-1,-0.1,-1,-0.1c0,0,0.4,-0.3,0.9,-0.3Z" class="g6_3" />
<path d="M428.6,717.5c0.5,-0.1,1,0,1,0c0,0,-0.4,0.3,-1,0.4c-0.5,0,-1,-0.1,-1,-0.1c0,0,0.4,-0.2,1,-0.3Z" class="g6_3" />
<path d="M431.4,716.9c0.6,-0.1,1,0,1,0c0,0,-0.4,0.3,-0.9,0.4c-0.5,0.1,-1,0,-1,0c0,0,0.4,-0.3,0.9,-0.4Z" class="g6_3" />
<path d="M434.3,716.4c0.5,-0.1,1,0,1,0c0,0,-0.4,0.3,-0.9,0.4c-0.5,0.1,-1,0,-1,0c0,0,0.4,-0.3,0.9,-0.4Z" class="g6_3" />
<path d="M437.2,715.8c0.5,-0.1,1,0,1,0c0,0,-0.4,0.3,-0.9,0.4c-0.6,0.1,-1,0,-1,0c0,0,0.3,-0.3,0.9,-0.4Z" class="g6_3" />
<path d="M440,715.2c0.6,-0.1,1,0,1,0c0,0,-0.4,0.2,-0.9,0.4c-0.5,0.1,-1,0,-1,0c0,0,0.4,-0.3,0.9,-0.4Z" class="g6_3" />
<path d="M442.9,714.5c0.5,-0.1,1,0,1,0c0,0,-0.4,0.3,-0.9,0.4c-0.6,0.1,-1,0,-1,0c0,0,0.4,-0.3,0.9,-0.4Z" class="g6_3" />
<path d="M445.7,713.8c0.5,-0.1,1,0,1,0c0,0,-0.4,0.3,-0.9,0.4c-0.5,0.2,-1,0.1,-1,0.1c0,0,0.4,-0.3,0.9,-0.5Z" class="g6_3" />
<path d="M448.6,713.1c0.5,-0.1,0.9,0,0.9,0c0,0,-0.3,0.3,-0.8,0.4c-0.6,0.2,-1,0.1,-1,0.1c0,0,0.3,-0.3,0.9,-0.5Z" class="g6_3" />
<path d="M451.4,712.4c0.5,-0.1,1,-0.1,1,-0.1c0,0,-0.4,0.4,-0.9,0.5c-0.5,0.1,-1,0,-1,0c0,0,0.4,-0.3,0.9,-0.4Z" class="g6_3" />
<path d="M454.2,711.6c0.5,-0.1,1,0,1,0c0,0,-0.4,0.3,-0.9,0.4c-0.5,0.2,-1,0.1,-1,0.1c0,0,0.4,-0.3,0.9,-0.5Z" class="g6_3" />
<path d="M457,710.8c0.5,-0.1,1,0,1,0c0,0,-0.4,0.3,-0.9,0.4c-0.5,0.2,-1,0.1,-1,0.1c0,0,0.4,-0.3,0.9,-0.5Z" class="g6_3" />
<path d="M459.8,710c0.5,-0.1,1,-0.1,1,-0.1c0,0,-0.4,0.3,-0.9,0.5c-0.5,0.2,-1,0.1,-1,0.1c0,0,0.4,-0.3,0.9,-0.5Z" class="g6_3" />
<path d="M462.6,709.1c0.5,-0.1,1,-0.1,1,-0.1c0,0,-0.4,0.4,-0.9,0.5c-0.5,0.2,-1,0.1,-1,0.1c0,0,0.4,-0.3,0.9,-0.5Z" class="g6_3" />
<path d="M465.4,708.3c0.5,-0.2,1,-0.2,1,-0.2c0,0,-0.4,0.4,-0.9,0.5c-0.5,0.2,-1,0.1,-1,0.1c0,0,0.4,-0.3,0.9,-0.4Z" class="g6_3" />
<path d="M468.2,707.3c0.5,-0.1,0.9,-0.1,0.9,-0.1c0,0,-0.3,0.3,-0.8,0.5c-0.5,0.2,-1,0.1,-1,0.1c0,0,0.4,-0.3,0.9,-0.5Z" class="g6_3" />
<path d="M470.9,706.4c0.5,-0.2,1,-0.2,1,-0.2c0,0,-0.3,0.4,-0.8,0.6c-1.4,0.4,-2.5,0.1,-1,0.1c0,0,0.3,-0.3,0.8,-0.5Z" class="g6_3" />
<path d="M473.7,705.4c0.5,-0.2,1,-0.2,1,-0.2c0,0,-0.4,0.4,-0.9,0.6c-0.5,0.1,-1,0.1,-1,0.1c0,0,0.4,-0.3,0.9,-0.5Z" class="g6_3" />
<path d="M476.4,704.4c0.5,-0.2,1,-0.2,1,-0.2c0,0,-0.3,0.4,-0.9,0.5c-0.5,0.2,-0.9,0.2,-0.9,0.2c0,0,0.3,-0.3,0.8,-0.5Z" class="g6_3" />
<path d="M479.1,703.3c0.5,-0.2,1,-0.2,1,-0.2c0,0,-0.3,0.4,-0.8,0.6c-0.5,0.2,-1,0.2,-1,0.2c0,0,0.3,-0.4,0.8,-0.6Z" class="g6_3" />
<path d="M481.8,702.2c0.5,-0.2,1,-0.2,1,-0.2c0,0,-0.3,0.4,-0.8,0.6c-0.5,0.2,-1,0.2,-1,0.2c0,0,0.3,-0.4,0.8,-0.6Z" class="g6_3" />
<path d="M484.5,701.1c0.5,-0.2,1,-0.2,1,-0.2c0,0,-0.3,0.4,-0.8,0.6c-0.5,0.2,-1,0.2,-1,0.2c0,0,0.3,-0.4,0.8,-0.6Z" class="g6_3" />
<path d="M487.2,700c0.5,-0.3,1,-0.2,1,-0.2c0,0,-0.3,0.3,-0.8,0.5c-0.5,0.2,-1,0.2,-1,0.2c0,0,0.3,-0.3,0.8,-0.5Z" class="g6_3" />
<path d="M489.9,698.8c0.5,-0.2,1,-0.3,1,-0.2c0,-0.1,-0.3,0.3,-0.8,0.5c-0.5,0.3,-1,0.3,-1,0.3c0,0,0.3,-0.4,0.8,-0.6Z" class="g6_3" />
<path d="M492.6,697.6c0.4,-0.3,0.9,-0.3,0.9,-0.3c0,0,-0.3,0.4,-0.8,0.6c-0.5,0.2,-0.9,0.2,-0.9,0.2c0,0,0.3,-0.3,0.8,-0.5Z" class="g6_3" />
<path d="M495.2,696.3c0.5,-0.2,1,-0.2,1,-0.2c0,0,-0.3,0.3,-0.8,0.6c-0.5,0.2,-1,0.2,-1,0.2c0,0,0.3,-0.4,0.8,-0.6Z" class="g6_3" />
<path d="M497.8,695c0.5,-0.2,1,-0.2,1,-0.2c0,0,-0.3,0.3,-0.8,0.6c-0.5,0.2,-1,0.2,-1,0.2c0,0,0.3,-0.3,0.8,-0.6Z" class="g6_3" />
<path d="M500.4,693.7c0.5,-0.2,1,-0.3,1,-0.3c0,0,-0.3,0.4,-0.8,0.7c-0.5,0.2,-1,0.2,-1,0.2c0,0,0.3,-0.4,0.8,-0.6Z" class="g6_3" />
<path d="M503,692.4c0.5,-0.3,1,-0.3,1,-0.3c0,0,-0.3,0.4,-0.8,0.6c-0.5,0.3,-1,0.3,-1,0.3c0,0,0.3,-0.4,0.8,-0.6Z" class="g6_3" />
<path d="M505.6,691c0.5,-0.3,0.9,-0.3,0.9,-0.3c0,0,-0.2,0.4,-0.7,0.6c-0.5,0.3,-1,0.3,-1,0.3c0,0,0.3,-0.4,0.8,-0.6Z" class="g6_3" />
<path d="M241.2,686.7c0.3,0.4,0.5,0.8,0.5,0.8c0,0,-0.5,-0.2,-0.8,-0.6c-0.4,-0.4,-0.5,-0.8,-0.5,-0.8c0,0,0.4,0.2,0.8,0.6Z" class="g6_3" />
<path d="M243.2,688.8c0.4,0.3,0.5,0.8,0.5,0.8c0,0,-0.4,-0.2,-0.8,-0.5c-0.4,-0.4,-0.5,-0.9,-0.5,-0.9c0,0,0.4,0.2,0.8,0.6Z" class="g6_3" />
<path d="M245.3,690.7c0.4,0.4,0.6,0.8,0.6,0.8c0,0,-0.5,-0.1,-0.9,-0.5c-0.4,-0.3,-0.6,-0.8,-0.6,-0.8c0,0,0.5,0.2,0.9,0.5Z" class="g6_3" />
<path d="M247.5,692.6c0.4,0.3,0.7,0.7,0.7,0.7c0,0,-0.5,-0.1,-0.9,-0.4c-0.5,-0.3,-0.7,-0.8,-0.7,-0.8c0,0,0.5,0.2,0.9,0.5Z" class="g6_3" />
<path d="M249.8,694.3c0.5,0.3,0.7,0.7,0.7,0.7c0,0,-0.5,0,-0.9,-0.3c-0.4,-0.4,-0.7,-0.8,-0.7,-0.8c0,0,0.5,0.1,0.9,0.4Z" class="g6_3" />
<path d="M252.2,695.9c0.5,0.3,0.7,0.7,0.7,0.7c0,0,-0.4,0,-0.9,-0.3c-0.4,-0.3,-0.7,-0.7,-0.7,-0.7c0,0,0.5,0.1,0.9,0.3Z" class="g6_3" />
<path d="M254.7,697.4c0.5,0.3,0.7,0.7,0.7,0.7c0,0,-0.4,0,-0.9,-0.3c-0.5,-0.3,-0.7,-0.7,-0.7,-0.7c0,0,0.4,0.1,0.9,0.3Z" class="g6_3" />
<path d="M257.2,698.8c0.5,0.3,0.8,0.6,0.8,0.6c0,0,-0.5,0,-0.9,-0.2c-0.5,-0.3,-0.8,-0.6,-0.8,-0.6c0,0,0.5,0,0.9,0.2Z" class="g6_3" />
<path d="M259.8,700.1c0.5,0.2,0.8,0.6,0.8,0.6c0,0,-0.4,0,-0.9,-0.3c-0.5,-0.2,-0.8,-0.5,-0.8,-0.5c0,0,0.5,0,0.9,0.2Z" class="g6_3" />
<path d="M262.5,701.2c0.5,0.2,0.8,0.5,0.8,0.5c0,0,-0.4,0.1,-0.9,-0.1c-0.5,-0.2,-0.9,-0.6,-0.9,-0.6c0,0,0.5,0,1,0.2Z" class="g6_3" />
<path d="M265.2,702.2c0.5,0.2,0.9,0.5,0.9,0.5c0,0,-0.5,0.1,-1,-0.1c-0.5,-0.2,-0.9,-0.5,-0.9,-0.5c0,0,0.5,-0.1,1,0.1Z" class="g6_3" />
<path d="M268,703.1c0.5,0.2,0.8,0.5,0.8,0.5c0,0,-0.5,0.1,-1,-0.1C267.3,703.4,267,703,267,703c0,0,0.5,0,1,0.1Z" class="g6_3" />
<path d="M270.7,704c0.5,0.2,0.9,0.5,0.9,0.5c0,0,-0.5,0.1,-1,-0.1c-0.5,-0.1,-0.9,-0.5,-0.9,-0.5c0,0,0.5,0,1,0.1Z" class="g6_3" />
<path d="M273.5,704.9c0.5,0.2,0.9,0.5,0.9,0.5c0,0,-0.5,0.1,-1,-0.1c-0.5,-0.2,-0.9,-0.5,-0.9,-0.5c0,0,0.5,0,1,0.1Z" class="g6_3" />
<path d="M276.3,705.7c0.5,0.2,0.8,0.5,0.8,0.5c0,0,-0.4,0.1,-0.9,-0.1c-0.6,-0.1,-0.9,-0.4,-0.9,-0.4c0,0,0.5,-0.1,1,0Z" class="g6_3" />
<path d="M279.1,706.5c0.5,0.2,0.8,0.5,0.8,0.5c0,0,-0.4,0.1,-1,-0.1c-0.5,-0.1,-0.8,-0.4,-0.8,-0.4c0,0,0.4,-0.1,1,0Z" class="g6_3" />
<path d="M281.9,707.3c0.5,0.1,0.8,0.4,0.8,0.4c0,0,-0.4,0.1,-0.9,0c-0.6,-0.2,-0.9,-0.5,-0.9,-0.5c0,0,0.4,0,1,0.1Z" class="g6_3" />
<path d="M284.7,708c0.5,0.2,0.8,0.5,0.8,0.5c0,0,-0.4,0,-0.9,-0.1C284,708.3,283.7,708,283.7,708c0,0,0.4,-0.1,1,0Z" class="g6_3" />
<path d="M287.5,708.7c0.5,0.2,0.9,0.5,0.9,0.5c0,0,-0.5,0.1,-1,-0.1c-0.5,-0.1,-0.9,-0.4,-0.9,-0.4c0,0,0.5,-0.1,1,0Z" class="g6_3" />
<path d="M290.3,709.4c0.5,0.1,0.9,0.4,0.9,0.4c0,0,-0.5,0.1,-1,0c-0.5,-0.1,-0.9,-0.4,-0.9,-0.4c0,0,0.5,-0.1,1,0Z" class="g6_3" />
<path d="M293.1,710.1c0.5,0.1,0.9,0.4,0.9,0.4c0,0,-0.4,0.1,-1,0c-0.5,-0.2,-0.9,-0.5,-0.9,-0.5c0,0,0.5,-0.1,1,0.1Z" class="g6_3" />
<path d="M295.9,710.7c0.6,0.1,1,0.4,1,0.4c0,0,-0.5,0.1,-1,0C295.3,711,295,710.7,295,710.7c0,0,0.4,-0.1,0.9,0Z" class="g6_3" />
<path d="M298.8,711.3c0.5,0.1,0.9,0.4,0.9,0.4c0,0,-0.5,0.1,-1,0c-0.5,-0.1,-0.9,-0.4,-0.9,-0.4c0,0,0.5,-0.1,1,0Z" class="g6_3" />
<path d="M301.6,711.9c0.6,0.1,0.9,0.3,0.9,0.3c0,0,-0.4,0.2,-0.9,0.1c-0.6,-0.2,-1,-0.4,-1,-0.4c0,0,0.5,-0.1,1,0Z" class="g6_3" />
<path d="M304.5,712.4c0.5,0.1,0.9,0.4,0.9,0.4c0,0,-0.5,0.1,-1,0c-0.5,-0.1,-0.9,-0.4,-0.9,-0.4c0,0,0.5,-0.1,1,0Z" class="g6_3" />
<path d="M307.3,712.9c0.6,0.1,0.9,0.4,0.9,0.4c0,0,-0.4,0.1,-0.9,0c-0.6,-0.1,-1,-0.3,-1,-0.3c0,0,0.5,-0.2,1,-0.1Z" class="g6_3" />
<path d="M310.2,713.4c0.5,0.1,0.9,0.4,0.9,0.4c0,0,-0.5,0.1,-1,0c-0.5,-0.1,-0.9,-0.3,-0.9,-0.3c0,0,0.5,-0.2,1,-0.1Z" class="g6_3" />
<path d="M313,713.9c0.6,0.1,1,0.4,1,0.4c0,0,-0.5,0.1,-1,0c-0.5,-0.1,-0.9,-0.3,-0.9,-0.3c0,0,0.4,-0.2,0.9,-0.1Z" class="g6_3" />
<path d="M315.9,714.4c0.5,0,0.9,0.3,0.9,0.3c0,0,-0.4,0.1,-1,0.1c-0.5,-0.1,-0.9,-0.4,-0.9,-0.4c0,0,0.5,-0.1,1,0Z" class="g6_3" />
<path d="M318.8,714.8c0.5,0.1,0.9,0.3,0.9,0.3c0,0,-0.5,0.2,-1,0.1c-0.5,-0.1,-0.9,-0.3,-0.9,-0.3c0,0,0.4,-0.2,1,-0.1Z" class="g6_3" />
<path d="M321.6,715.2c0.6,0.1,1,0.3,1,0.3c0,0,-0.5,0.2,-1,0.1c-0.5,-0.1,-0.9,-0.3,-0.9,-0.3c0,0,0.4,-0.2,0.9,-0.1Z" class="g6_3" />
<path d="M324.5,715.6c0.6,0.1,1,0.3,1,0.3c0,0,-0.5,0.2,-1,0.1c-0.6,-0.1,-1,-0.3,-1,-0.3c0,0,0.5,-0.2,1,-0.1Z" class="g6_3" />
<path d="M327.4,716c0.5,0,0.9,0.3,0.9,0.3c0,0,-0.4,0.1,-1,0.1c-0.5,-0.1,-0.9,-0.4,-0.9,-0.4c0,0,0.5,-0.1,1,0Z" class="g6_3" />
<path d="M330.3,716.3c0.5,0.1,0.9,0.3,0.9,0.3c0,0,-0.4,0.2,-1,0.1c-0.5,-0.1,-0.9,-0.3,-0.9,-0.3c0,0,0.4,-0.1,1,-0.1Z" class="g6_3" />
<path d="M333.2,716.6c0.5,0.1,0.9,0.3,0.9,0.3c0,0,-0.5,0.2,-1,0.1c-0.5,0,-0.9,-0.3,-0.9,-0.3c0,0,0.4,-0.1,1,-0.1Z" class="g6_3" />
<path d="M336,716.9c0.6,0.1,1,0.3,1,0.3c0,0,-0.5,0.2,-1,0.1c-0.5,0,-0.9,-0.3,-0.9,-0.3c0,0,0.4,-0.1,0.9,-0.1Z" class="g6_3" />
<path d="M338.9,717.2c0.6,0.1,1,0.3,1,0.3c0,0,-0.5,0.2,-1,0.1c-0.5,0,-1,-0.3,-1,-0.3c0,0,0.5,-0.1,1,-0.1Z" class="g6_3" />
<path d="M341.8,717.5c0.6,0,1,0.2,1,0.2c0,0,-0.5,0.2,-1,0.2c-0.5,-0.1,-1,-0.3,-1,-0.3c0,0,0.5,-0.2,1,-0.1Z" class="g6_3" />
<path d="M344.7,717.7c0.5,0,1,0.3,1,0.3c0,0,-0.5,0.1,-1,0.1c-0.6,0,-1,-0.3,-1,-0.3c0,0,0.5,-0.1,1,-0.1Z" class="g6_3" />
<path d="M347.6,717.9c0.5,0,1,0.3,1,0.3c0,0,-0.5,0.1,-1,0.1c-0.6,0,-1,-0.3,-1,-0.3c0,0,0.5,-0.1,1,-0.1Z" class="g6_3" />
<path d="M350.5,718.1c0.5,0,1,0.2,1,0.2c0,0,-0.5,0.2,-1,0.2c-0.6,0,-1,-0.3,-1,-0.3c0,0,0.5,-0.1,1,-0.1Z" class="g6_3" />
<path d="M353.4,718.3c0.5,0,0.9,0.2,0.9,0.2c0,0,-0.4,0.2,-0.9,0.2c-0.6,-0.1,-1,-0.3,-1,-0.3c0,0,0.5,-0.2,1,-0.1Z" class="g6_3" />
<path d="M356.3,718.4c0.5,0,0.9,0.2,0.9,0.2c0,0,-0.4,0.2,-0.9,0.2c-0.6,0,-1,-0.2,-1,-0.2c0,0,0.5,-0.2,1,-0.2Z" class="g6_3" />
<path d="M359.2,718.5c0.5,0,0.9,0.3,0.9,0.3c0,0,-0.4,0.1,-0.9,0.1c-0.6,0,-1,-0.2,-1,-0.2c0,0,0.5,-0.2,1,-0.2Z" class="g6_3" />
<path d="M362.1,718.6c0.5,0,0.9,0.2,0.9,0.2c0,0,-0.4,0.2,-0.9,0.2c-0.6,0,-1,-0.2,-1,-0.2c0,0,0.5,-0.2,1,-0.2Z" class="g6_3" />
<path d="M365,718.7c0.5,0,0.9,0.2,0.9,0.2c0,0,-0.4,0.2,-0.9,0.2c-0.6,0,-1,-0.2,-1,-0.2c0,0,0.5,-0.2,1,-0.2Z" class="g6_3" />
<path d="M367.9,718.7c0.5,0,1,0.3,1,0.3c0,0,-0.5,0.1,-1,0.1c-0.6,0,-1,-0.2,-1,-0.2c0,0,0.5,-0.2,1,-0.2Z" class="g6_3" />
<path d="M370.8,718.8c0.5,0,1,0.2,1,0.2c0,0,-0.5,0.2,-1,0.2c-0.5,0,-1,-0.2,-1,-0.2c0,0,0.5,-0.2,1,-0.2Z" class="g6_3" />
<path d="M373.7,718.8c0.5,0,1,0.2,1,0.2c0,0,-0.5,0.2,-1,0.2c-0.5,0,-1,-0.2,-1,-0.2c0,0,0.5,-0.2,1,-0.2Z" class="g6_3" />
<path d="M376.6,718.7c0.5,0,1,0.2,1,0.2c0,0,-0.5,0.2,-1,0.3c-0.5,0,-1,-0.2,-1,-0.2c0,0,0.5,-0.2,1,-0.3Z" class="g6_3" />
<path d="M379.5,718.7c0.5,0,1,0.2,1,0.2c0,0,-0.5,0.2,-1,0.2c-0.5,0,-1,-0.2,-1,-0.2c0,0,0.5,-0.2,1,-0.2Z" class="g6_3" />
<path d="M382.4,718.6c0.5,0,1,0.2,1,0.2c0,0,-0.5,0.2,-1,0.2c-0.5,0.1,-1,-0.1,-1,-0.1c0,0,0.5,-0.2,1,-0.3Z" class="g6_3" />
<path d="M385.3,718.5c0.5,0,1,0.2,1,0.2c0,0,-0.5,0.2,-1,0.3c-0.5,0,-1,-0.2,-1,-0.2c0,0,0.5,-0.2,1,-0.3Z" class="g6_3" />
<path d="M388.2,718.4c0.5,0,1,0.2,1,0.2c0,0,-0.5,0.2,-1,0.2c-0.5,0.1,-1,-0.1,-1,-0.1c0,0,0.5,-0.2,1,-0.3Z" class="g6_3" />
<path d="M391.1,718.3c0.5,0,1,0.1,1,0.1c0,0,-0.5,0.3,-1,0.3c-0.5,0,-1,-0.2,-1,-0.2c0,0,0.4,-0.2,1,-0.2Z" class="g6_3" />
<path d="M394,718.1c0.5,0,1,0.2,1,0.2c0,0,-0.5,0.2,-1,0.2c-0.5,0.1,-1,-0.1,-1,-0.1c0,0,0.4,-0.2,1,-0.3Z" class="g6_3" />
<path d="M396.9,717.9c0.5,0,0.9,0.2,0.9,0.2c0,0,-0.4,0.2,-0.9,0.2c-0.5,0.1,-1,-0.1,-1,-0.1c0,0,0.4,-0.2,1,-0.3Z" class="g6_3" />
<path d="M399.8,717.7c0.5,0,0.9,0.1,0.9,0.1c0,0,-0.4,0.3,-0.9,0.3c-0.5,0.1,-1,-0.1,-1,-0.1c0,0,0.4,-0.2,1,-0.3Z" class="g6_3" />
<path d="M402.7,717.5c0.5,-0.1,0.9,0.1,0.9,0.1c0,0,-0.4,0.2,-0.9,0.3c-0.5,0,-1,-0.1,-1,-0.1c0,0,0.4,-0.3,1,-0.3Z" class="g6_3" />
<path d="M405.5,717.2c0.6,0,1,0.1,1,0.1c0,0,-0.4,0.3,-0.9,0.3c-0.6,0.1,-1,-0.1,-1,-0.1c0,0,0.4,-0.2,0.9,-0.3Z" class="g6_3" />
<path d="M408.4,716.9c0.6,0,1,0.1,1,0.1c0,0,-0.4,0.3,-0.9,0.3c-0.6,0.1,-1,-0.1,-1,-0.1c0,0,0.4,-0.2,0.9,-0.3Z" class="g6_3" />
<path d="M411.3,716.6c0.5,0,1,0.1,1,0.1c0,0,-0.4,0.3,-0.9,0.3c-0.6,0.1,-1,-0.1,-1,-0.1c0,0,0.4,-0.2,0.9,-0.3Z" class="g6_3" />
<path d="M414.2,716.3c0.5,-0.1,1,0,1,0c0,0,-0.4,0.3,-1,0.4c-0.5,0,-0.9,-0.1,-0.9,-0.1c0,0,0.4,-0.3,0.9,-0.3Z" class="g6_3" />
<path d="M417.1,715.9c0.5,-0.1,0.9,0.1,0.9,0.1c0,0,-0.4,0.2,-0.9,0.3c-0.5,0.1,-1,-0.1,-1,-0.1c0,0,0.4,-0.2,1,-0.3Z" class="g6_3" />
<path d="M419.9,715.5c0.6,-0.1,1,0.1,1,0.1c0,0,-0.4,0.2,-0.9,0.3c-0.5,0.1,-1,-0.1,-1,-0.1c0,0,0.4,-0.2,0.9,-0.3Z" class="g6_3" />
<path d="M422.8,715.1c0.5,-0.1,1,0,1,0c0,0,-0.4,0.3,-0.9,0.4c-0.6,0.1,-1,-0.1,-1,-0.1c0,0,0.4,-0.2,0.9,-0.3Z" class="g6_3" />
<path d="M425.7,714.6c0.5,-0.1,1,0.1,1,0.1c0,0,-0.4,0.2,-1,0.3c-0.5,0.1,-1,0,-1,0c0,0,0.4,-0.3,1,-0.4Z" class="g6_3" />
<path d="M428.5,714.1c0.6,0,1,0.1,1,0.1c0,0,-0.4,0.3,-0.9,0.3c-0.5,0.1,-1,0,-1,0c0,0,0.4,-0.3,0.9,-0.4Z" class="g6_3" />
<path d="M431.4,713.6c0.5,-0.1,1,0.1,1,0.1c0,0,-0.4,0.2,-0.9,0.3c-0.6,0.1,-1,0,-1,0c0,0,0.4,-0.3,0.9,-0.4Z" class="g6_3" />
<path d="M434.2,713.1c0.6,-0.1,1,0,1,0c0,0,-0.4,0.3,-0.9,0.4c-0.5,0.1,-1,0,-1,0c0,0,0.4,-0.3,0.9,-0.4Z" class="g6_3" />
<path d="M437.1,712.5c0.5,-0.1,1,0,1,0c0,0,-0.4,0.3,-0.9,0.4c-0.6,0.1,-1,0,-1,0c0,0,0.4,-0.3,0.9,-0.4Z" class="g6_3" />
<path d="M439.9,711.9c0.5,-0.1,1,0,1,0c0,0,-0.4,0.3,-0.9,0.4c-0.5,0.1,-1,0,-1,0c0,0,0.4,-0.2,0.9,-0.4Z" class="g6_3" />
<path d="M442.7,711.3c0.6,-0.1,1,0,1,0c0,0,-0.3,0.3,-0.9,0.4c-0.5,0.1,-1,0,-1,0c0,0,0.4,-0.3,0.9,-0.4Z" class="g6_3" />
<path d="M445.6,710.7c0.5,-0.1,1,-0.1,1,-0.1c0,0,-0.4,0.3,-0.9,0.5c-0.6,0.1,-1,0,-1,0c0,0,0.4,-0.3,0.9,-0.4Z" class="g6_3" />
<path d="M448.4,710c0.5,-0.1,1,0,1,0c0,0,-0.4,0.3,-0.9,0.4c-0.5,0.1,-1,0,-1,0c0,0,0.4,-0.3,0.9,-0.4Z" class="g6_3" />
<path d="M451.2,709.3c0.5,-0.2,1,-0.1,1,-0.1c0,0,-0.4,0.3,-0.9,0.5c-0.5,0.1,-1,0,-1,0c0,0,0.4,-0.3,0.9,-0.4Z" class="g6_3" />
<path d="M454,708.5c0.5,-0.1,1,0,1,0c0,0,-0.4,0.3,-0.9,0.4c-0.5,0.2,-1,0.1,-1,0.1c0,0,0.4,-0.3,0.9,-0.5Z" class="g6_3" />
<path d="M456.8,707.8c0.5,-0.2,1,-0.1,1,-0.1c0,0,-0.4,0.3,-0.9,0.5c-0.5,0.1,-1,0,-1,0c0,0,0.4,-0.3,0.9,-0.4Z" class="g6_3" />
<path d="M459.6,707c0.5,-0.2,1,-0.1,1,-0.1c0,0,-0.4,0.3,-0.9,0.5c-0.5,0.1,-1,0,-1,0c0,0,0.4,-0.3,0.9,-0.4Z" class="g6_3" />
<path d="M462.4,706.1c0.5,-0.1,1,0,1,0c0,0,-0.4,0.3,-0.9,0.4c-0.5,0.2,-1,0.1,-1,0.1c0,0,0.4,-0.3,0.9,-0.5Z" class="g6_3" />
<path d="M465.1,705.3c0.5,-0.2,1,-0.1,1,-0.1c0,0,-0.3,0.3,-0.8,0.5c-0.6,0.1,-1,0.1,-1,0.1c0,0,0.3,-0.4,0.8,-0.5Z" class="g6_3" />
<path d="M467.9,704.4c0.5,-0.2,1,-0.1,1,-0.1c0,0,-0.4,0.3,-0.9,0.5c-0.5,0.1,-1,0.1,-1,0.1c0,0,0.4,-0.3,0.9,-0.5Z" class="g6_3" />
<path d="M470.6,703.5c0.6,-0.2,1,-0.2,1,-0.2c0,0,-0.3,0.4,-0.8,0.6c-0.5,0.1,-1,0.1,-1,0.1c0,0,0.3,-0.4,0.8,-0.5Z" class="g6_3" />
<path d="M473.4,702.5c0.5,-0.2,1,-0.1,1,-0.1c0,0,-0.4,0.3,-0.9,0.5c-0.5,0.2,-1,0.1,-1,0.1c0,0,0.4,-0.3,0.9,-0.5Z" class="g6_3" />
<path d="M476.1,701.5c0.5,-0.2,1,-0.1,1,-0.1c0,0,-0.4,0.3,-0.9,0.5c-0.5,0.2,-0.9,0.1,-0.9,0.1c0,0,0.3,-0.3,0.8,-0.5Z" class="g6_3" />
<path d="M478.8,700.5c0.5,-0.2,1,-0.2,1,-0.2c0,0,-0.3,0.4,-0.8,0.6c-0.5,0.2,-1,0.1,-1,0.1c0,0,0.3,-0.3,0.8,-0.5Z" class="g6_3" />
<path d="M481.5,699.5c0.5,-0.2,1,-0.2,1,-0.2c0,0,-0.3,0.3,-0.8,0.5c-0.5,0.2,-1,0.2,-1,0.2c0,0,0.3,-0.3,0.8,-0.5Z" class="g6_3" />
<path d="M484.2,698.4c0.5,-0.2,1,-0.2,1,-0.2c0,0,-0.3,0.3,-0.8,0.5c-0.5,0.3,-1,0.2,-1,0.2c0,0,0.3,-0.3,0.8,-0.5Z" class="g6_3" />
<path d="M486.9,697.3c0.5,-0.3,1,-0.2,1,-0.2c0,0,-0.4,0.3,-0.9,0.5c-0.4,0.2,-0.9,0.2,-0.9,0.2c0,0,0.3,-0.3,0.8,-0.5Z" class="g6_3" />
<path d="M489.6,696.1c0.4,-0.2,0.9,-0.2,0.9,-0.2c0,0,-0.3,0.4,-0.8,0.6c-0.5,0.2,-1,0.2,-1,0.2c0,0,0.4,-0.4,0.9,-0.6Z" class="g6_3" />
<path d="M492.2,694.9c0.5,-0.2,1,-0.2,1,-0.2c0,0,-0.3,0.4,-0.8,0.6c-0.5,0.2,-1,0.2,-1,0.2c0,0,0.3,-0.4,0.8,-0.6Z" class="g6_3" />
<path d="M494.8,693.7c0.5,-0.2,1,-0.2,1,-0.2c0,0,-0.3,0.3,-0.8,0.6c-0.5,0.2,-1,0.2,-1,0.2c0,0,0.4,-0.4,0.8,-0.6Z" class="g6_3" />
<path d="M497.4,692.5c0.5,-0.3,1,-0.3,1,-0.3c0,0,-0.3,0.4,-0.8,0.6c-0.5,0.3,-0.9,0.3,-0.9,0.3c0,0,0.3,-0.4,0.7,-0.6Z" class="g6_3" />
<path d="M500.1,691.2c0.4,-0.2,0.9,-0.3,0.9,-0.3c0,0,-0.3,0.4,-0.8,0.6c-0.4,0.3,-0.9,0.3,-0.9,0.3c0,0,0.3,-0.4,0.8,-0.6Z" class="g6_3" />
<path d="M502.6,689.9c0.5,-0.3,1,-0.3,1,-0.3c0,0,-0.3,0.4,-0.8,0.6c-0.5,0.3,-0.9,0.3,-0.9,0.3c0,0,0.3,-0.4,0.7,-0.6Z" class="g6_3" />
<path d="M505.2,688.5c0.5,-0.2,1,-0.2,1,-0.2c0,0,-0.3,0.3,-0.8,0.6c-0.5,0.2,-1,0.3,-1,0.3c0,0,0.3,-0.4,0.8,-0.7Z" class="g6_3" />
<image x="138" y="313" width="106" height="188" xlink:href="3/shade/5.png" />
<path d="M144.5,457.1c0.4,0.3,0.7,0.7,0.7,0.7c0,0,-0.5,0,-0.9,-0.4c-0.4,-0.3,-0.6,-0.7,-0.6,-0.7c0,0,0.4,0.1,0.8,0.4Z" class="g5_3" />
<path d="M146.5,458.5c0.5,0.2,0.7,0.6,0.7,0.6c0,0,-0.4,0,-0.9,-0.3c-0.4,-0.3,-0.6,-0.7,-0.7,-0.7c0.1,0,0.5,0.1,0.9,0.4Z" class="g5_3" />
<path d="M148.6,459.7c0.4,0.3,0.7,0.6,0.7,0.6c0,0,-0.4,0,-0.9,-0.3c-0.4,-0.2,-0.7,-0.6,-0.7,-0.6c0,0,0.5,0,0.9,0.3Z" class="g5_3" />
<path d="M150.7,460.9c0.4,0.2,0.7,0.6,0.7,0.6c0,0,-0.4,0,-0.9,-0.3c-0.4,-0.2,-0.7,-0.6,-0.7,-0.6c0,0,0.4,0,0.9,0.3Z" class="g5_3" />
<path d="M152.8,462.1c0.5,0.2,0.7,0.6,0.7,0.6c0,0,-0.4,-0.1,-0.9,-0.3c-0.4,-0.3,-0.7,-0.6,-0.7,-0.6c0,0,0.5,0,0.9,0.3Z" class="g5_3" />
<path d="M155,463.2c0.4,0.2,0.7,0.6,0.7,0.6c0,0,-0.5,0,-0.9,-0.3c-0.5,-0.2,-0.8,-0.6,-0.8,-0.6c0,0,0.5,0,1,0.3Z" class="g5_3" />
<path d="M157.1,464.3c0.5,0.2,0.7,0.6,0.7,0.6c0,0,-0.4,0,-0.9,-0.3c-0.4,-0.2,-0.7,-0.6,-0.7,-0.6c0,0,0.4,0.1,0.9,0.3Z" class="g5_3" />
<path d="M159.3,465.4c0.4,0.2,0.7,0.6,0.7,0.6c0,0,-0.5,0,-0.9,-0.3c-0.5,-0.2,-0.8,-0.6,-0.8,-0.6c0,0,0.5,0.1,1,0.3Z" class="g5_3" />
<path d="M161.4,466.5c0.5,0.2,0.8,0.5,0.8,0.5c0,0,-0.5,0,-1,-0.2c-0.4,-0.2,-0.7,-0.6,-0.7,-0.6c0,0,0.5,0,0.9,0.3Z" class="g5_3" />
<path d="M163.6,467.5c0.4,0.2,0.7,0.6,0.7,0.6c0,0,-0.4,0,-0.9,-0.2c-0.4,-0.3,-0.7,-0.6,-0.7,-0.6c0,0,0.4,0,0.9,0.2Z" class="g5_3" />
<path d="M165.8,468.6c0.4,0.2,0.7,0.6,0.7,0.6c0,0,-0.4,-0.1,-0.9,-0.3c-0.5,-0.2,-0.8,-0.6,-0.8,-0.6c0,0,0.5,0.1,1,0.3Z" class="g5_3" />
<path d="M167.9,469.6c0.5,0.2,0.8,0.6,0.8,0.6c0,0,-0.5,0,-0.9,-0.2c-0.5,-0.3,-0.8,-0.6,-0.8,-0.6c0,0,0.5,0,0.9,0.2Z" class="g5_3" />
<path d="M170.1,470.6c0.5,0.3,0.8,0.6,0.8,0.6c0,0,-0.5,0,-0.9,-0.2c-0.5,-0.2,-0.8,-0.6,-0.8,-0.6c0,0,0.5,0,0.9,0.2Z" class="g5_3" />
<path d="M172.3,471.7c0.5,0.2,0.8,0.5,0.8,0.5c0,0,-0.5,0,-0.9,-0.2c-0.5,-0.2,-0.8,-0.6,-0.8,-0.6c0,0,0.4,0.1,0.9,0.3Z" class="g5_3" />
<path d="M174.5,472.7c0.5,0.2,0.8,0.5,0.8,0.5c0,0,-0.5,0,-0.9,-0.2c-0.5,-0.2,-0.8,-0.5,-0.8,-0.5c0,0,0.4,0,0.9,0.2Z" class="g5_3" />
<path d="M176.7,473.7c0.5,0.2,0.8,0.5,0.8,0.5c0,0,-0.5,0,-0.9,-0.2c-0.5,-0.2,-0.8,-0.5,-0.8,-0.5c0,0,0.4,0,0.9,0.2Z" class="g5_3" />
<path d="M178.9,474.7c0.5,0.2,0.8,0.5,0.8,0.5c0,0,-0.5,0,-0.9,-0.2c-0.5,-0.2,-0.8,-0.5,-0.8,-0.5c0,0,0.4,0,0.9,0.2Z" class="g5_3" />
<path d="M181.1,475.6c0.5,0.3,0.8,0.6,0.8,0.6c0,0,-0.5,0,-0.9,-0.2c-0.5,-0.2,-0.8,-0.6,-0.8,-0.6c0,0,0.5,0,0.9,0.2Z" class="g5_3" />
<path d="M183.3,476.6c0.5,0.2,0.8,0.6,0.8,0.6c0,0,-0.4,0,-0.9,-0.2c-0.5,-0.2,-0.8,-0.6,-0.8,-0.6c0,0,0.5,0,0.9,0.2Z" class="g5_3" />
<path d="M185.6,477.6c0.4,0.2,0.7,0.5,0.7,0.5c0,0,-0.4,0,-0.9,-0.2c-0.5,-0.2,-0.8,-0.5,-0.8,-0.5c0,0,0.5,0,1,0.2Z" class="g5_3" />
<path d="M187.8,478.5c0.4,0.2,0.8,0.6,0.8,0.6c0,0,-0.5,0,-1,-0.2c-0.4,-0.2,-0.8,-0.6,-0.8,-0.6c0,0,0.5,0,1,0.2Z" class="g5_3" />
<path d="M190,479.5c0.5,0.2,0.8,0.5,0.8,0.5c0,0,-0.5,0,-0.9,-0.2c-0.5,-0.2,-0.8,-0.5,-0.8,-0.5c0,0,0.4,0,0.9,0.2Z" class="g5_3" />
<path d="M192.2,480.4c0.5,0.2,0.8,0.5,0.8,0.5c0,0,-0.4,0,-0.9,-0.2c-0.5,-0.2,-0.8,-0.5,-0.8,-0.5c0,0,0.5,0,0.9,0.2Z" class="g5_3" />
<path d="M194.5,481.3c0.4,0.2,0.8,0.5,0.8,0.5c0,0,-0.5,0,-1,-0.2c-0.4,-0.1,-0.8,-0.5,-0.8,-0.5c0,0,0.5,0,1,0.2Z" class="g5_3" />
<path d="M196.7,482.2c0.5,0.2,0.8,0.5,0.8,0.5c0,0,-0.4,0,-0.9,-0.2c-0.5,-0.1,-0.8,-0.5,-0.8,-0.5c0,0,0.4,0,0.9,0.2Z" class="g5_3" />
<path d="M199,483.1c0.4,0.2,0.8,0.5,0.8,0.5c0,0,-0.5,0,-1,-0.2c-0.4,-0.2,-0.8,-0.5,-0.8,-0.5c0,0,0.5,0,1,0.2Z" class="g5_3" />
<path d="M201.2,483.9c0.5,0.2,0.8,0.5,0.8,0.5c0,0,-0.4,0.1,-0.9,-0.1c-0.5,-0.2,-0.8,-0.5,-0.8,-0.5c0,0,0.4,-0.1,0.9,0.1Z" class="g5_3" />
<path d="M203.5,484.8c0.5,0.1,0.8,0.5,0.8,0.5c0,0,-0.5,0,-0.9,-0.2c-0.5,-0.1,-0.9,-0.5,-0.9,-0.5c0,0,0.5,0,1,0.2Z" class="g5_3" />
<path d="M205.8,485.6c0.4,0.2,0.8,0.5,0.8,0.5c0,0,-0.5,0,-1,-0.2c-0.4,-0.1,-0.8,-0.4,-0.8,-0.4c0,0,0.5,-0.1,1,0.1Z" class="g5_3" />
<path d="M208,486.4c0.5,0.1,0.9,0.5,0.9,0.5c0,0,-0.5,0,-1,-0.2c-0.5,-0.1,-0.8,-0.4,-0.8,-0.4c0,0,0.5,-0.1,0.9,0.1Z" class="g5_3" />
<path d="M210.3,487.1c0.5,0.2,0.9,0.5,0.9,0.5c0,0,-0.5,0,-1,-0.1c-0.5,-0.2,-0.8,-0.5,-0.8,-0.5c0,0,0.5,0,0.9,0.1Z" class="g5_3" />
<path d="M212.6,487.8c0.5,0.2,0.9,0.5,0.9,0.5c0,0,-0.5,0,-1,-0.1c-0.5,-0.1,-0.8,-0.4,-0.8,-0.4c0,0,0.5,-0.1,0.9,0Z" class="g5_3" />
<path d="M215,488.5c0.5,0.1,0.8,0.4,0.8,0.4c0,0,-0.4,0.1,-0.9,0c-0.5,-0.2,-0.9,-0.5,-0.9,-0.5c0,0,0.5,0,1,0.1Z" class="g5_3" />
<path d="M217.3,489c0.5,0.1,0.9,0.4,0.9,0.4c0,0,-0.5,0.1,-1,0c-0.5,-0.1,-0.8,-0.4,-0.8,-0.4c0,0,0.4,-0.1,0.9,0Z" class="g5_3" />
<path d="M219.7,489.5c0.5,0,0.9,0.2,0.9,0.2c0,0,-0.5,0.2,-1,0.1c-0.5,0,-0.9,-0.3,-0.9,-0.3c0,0,0.5,-0.1,1,0Z" class="g5_3" />
<path d="M222,489.6c0.5,-0.1,1,0,1,0c0,0,-0.4,0.3,-0.9,0.3c-0.6,0.1,-1,-0.1,-1,-0.1c0,0,0.5,-0.2,0.9,-0.2Z" class="g5_3" />
<path d="M146.4,453.3c0.4,0.4,0.6,0.7,0.6,0.7c0,0,-0.4,0,-0.8,-0.4c-0.5,-0.3,-0.6,-0.7,-0.6,-0.7c0,0,0.4,0.1,0.8,0.4Z" class="g5_3" />
<path d="M148.4,454.7c0.4,0.3,0.6,0.7,0.6,0.7c0,0,-0.4,-0.1,-0.9,-0.4c-0.4,-0.2,-0.6,-0.6,-0.6,-0.6c0,0,0.4,0,0.9,0.3Z" class="g5_3" />
<path d="M150.4,456c0.4,0.2,0.7,0.6,0.7,0.6c0,0,-0.5,0,-0.9,-0.3c-0.4,-0.3,-0.7,-0.6,-0.7,-0.6c0,0,0.5,0,0.9,0.3Z" class="g5_3" />
<path d="M152.5,457.2c0.4,0.2,0.7,0.6,0.7,0.6c0,0,-0.5,0,-0.9,-0.3c-0.5,-0.2,-0.7,-0.6,-0.7,-0.6c0,0,0.4,0,0.9,0.3Z" class="g5_3" />
<path d="M154.6,458.4c0.4,0.2,0.7,0.6,0.7,0.6c0,0,-0.5,-0.1,-0.9,-0.3c-0.5,-0.2,-0.7,-0.6,-0.7,-0.6c0,0,0.4,0,0.9,0.3Z" class="g5_3" />
<path d="M156.7,459.5c0.5,0.3,0.7,0.6,0.7,0.6c0,0,-0.4,0,-0.9,-0.3c-0.4,-0.2,-0.7,-0.6,-0.7,-0.6c0,0,0.4,0.1,0.9,0.3Z" class="g5_3" />
<path d="M158.8,460.6c0.5,0.3,0.8,0.6,0.8,0.6c0,0,-0.5,0,-1,-0.2c-0.4,-0.3,-0.7,-0.6,-0.7,-0.6c0,0,0.5,0,0.9,0.2Z" class="g5_3" />
<path d="M161,461.8c0.4,0.2,0.7,0.5,0.7,0.5c0,0,-0.5,0,-0.9,-0.2c-0.5,-0.2,-0.7,-0.6,-0.7,-0.6c0,0,0.4,0,0.9,0.3Z" class="g5_3" />
<path d="M163.1,462.8c0.5,0.3,0.8,0.6,0.8,0.6c0,0,-0.5,0,-1,-0.2c-0.4,-0.2,-0.7,-0.6,-0.7,-0.6c0,0,0.5,0,0.9,0.2Z" class="g5_3" />
<path d="M165.3,463.9c0.4,0.3,0.7,0.6,0.7,0.6c0,0,-0.4,0,-0.9,-0.2c-0.5,-0.3,-0.8,-0.6,-0.7,-0.6c0,0,0.4,0,0.9,0.2Z" class="g5_3" />
<path d="M167.4,465c0.5,0.2,0.8,0.6,0.8,0.6c0,0,-0.5,0,-0.9,-0.3c-0.5,-0.2,-0.8,-0.5,-0.8,-0.5c0,0,0.5,0,0.9,0.2Z" class="g5_3" />
<path d="M169.6,466.1c0.5,0.2,0.7,0.5,0.7,0.5c0,0,-0.4,0,-0.9,-0.2c-0.4,-0.2,-0.7,-0.6,-0.7,-0.6c0,0,0.4,0,0.9,0.3Z" class="g5_3" />
<path d="M171.8,467.1c0.4,0.2,0.7,0.6,0.7,0.6c0,0,-0.4,0,-0.9,-0.3c-0.5,-0.2,-0.8,-0.5,-0.8,-0.5c0,0,0.5,0,1,0.2Z" class="g5_3" />
<path d="M173.9,468.1c0.5,0.2,0.8,0.6,0.8,0.6c0,0,-0.5,0,-0.9,-0.2c-0.5,-0.2,-0.8,-0.6,-0.8,-0.6c0,0,0.5,0,0.9,0.2Z" class="g5_3" />
<path d="M176.1,469.2c0.5,0.2,0.8,0.5,0.8,0.5c0,0,-0.5,0,-0.9,-0.2c-0.5,-0.2,-0.8,-0.6,-0.8,-0.6c0,0,0.5,0,0.9,0.3Z" class="g5_3" />
<path d="M178.3,470.2c0.5,0.2,0.8,0.5,0.8,0.5c0,0,-0.5,0,-0.9,-0.2c-0.5,-0.2,-0.8,-0.6,-0.8,-0.6c0,0,0.4,0,0.9,0.3Z" class="g5_3" />
<path d="M180.5,471.2c0.5,0.2,0.8,0.5,0.8,0.5c0,0,-0.5,0,-1,-0.2c-0.4,-0.2,-0.7,-0.5,-0.7,-0.5c0,0,0.4,0,0.9,0.2Z" class="g5_3" />
<path d="M182.7,472.2c0.5,0.2,0.8,0.5,0.8,0.5c0,0,-0.5,0,-1,-0.2c-0.4,-0.2,-0.7,-0.6,-0.7,-0.6c0,0,0.4,0,0.9,0.3Z" class="g5_3" />
<path d="M184.9,473.1c0.5,0.2,0.8,0.6,0.8,0.6c0,0,-0.5,0,-1,-0.2c-0.4,-0.2,-0.7,-0.6,-0.7,-0.6c0,0,0.4,0,0.9,0.2Z" class="g5_3" />
<path d="M187.1,474.1c0.5,0.2,0.8,0.5,0.8,0.5c0,0,-0.5,0.1,-0.9,-0.2c-0.5,-0.2,-0.8,-0.5,-0.8,-0.5c0,0,0.4,0,0.9,0.2Z" class="g5_3" />
<path d="M189.3,475c0.5,0.2,0.8,0.6,0.8,0.6c0,0,-0.5,0,-0.9,-0.2c-0.5,-0.2,-0.8,-0.5,-0.8,-0.5c0,0,0.5,-0.1,0.9,0.1Z" class="g5_3" />
<path d="M191.5,476c0.5,0.2,0.8,0.5,0.8,0.5c0,0,-0.4,0,-0.9,-0.2c-0.5,-0.2,-0.8,-0.5,-0.8,-0.5c0,0,0.5,0,0.9,0.2Z" class="g5_3" />
<path d="M193.8,476.9c0.4,0.2,0.8,0.5,0.8,0.5c0,0,-0.5,0.1,-1,-0.1c-0.5,-0.2,-0.8,-0.6,-0.8,-0.6c0,0,0.5,0,1,0.2Z" class="g5_3" />
<path d="M196,477.8c0.5,0.2,0.8,0.5,0.8,0.5c0,0,-0.5,0.1,-0.9,-0.1c-0.5,-0.2,-0.8,-0.5,-0.8,-0.5c0,0,0.4,-0.1,0.9,0.1Z" class="g5_3" />
<path d="M198.2,478.7c0.5,0.2,0.8,0.5,0.8,0.5c0,0,-0.4,0.1,-0.9,-0.1c-0.5,-0.2,-0.8,-0.5,-0.8,-0.5c0,0,0.5,-0.1,0.9,0.1Z" class="g5_3" />
<path d="M200.5,479.6c0.5,0.2,0.8,0.5,0.8,0.5c0,0,-0.5,0,-1,-0.1c-0.4,-0.2,-0.8,-0.6,-0.8,-0.6c0,0,0.5,0,1,0.2Z" class="g5_3" />
<path d="M202.7,480.4c0.5,0.2,0.8,0.6,0.8,0.5c0,0.1,-0.4,0.1,-0.9,-0.1c-0.5,-0.2,-0.8,-0.5,-0.8,-0.5c0,0,0.5,0,0.9,0.1Z" class="g5_3" />
<path d="M205,481.3c0.5,0.1,0.8,0.5,0.8,0.5c0,0,-0.5,0,-0.9,-0.2c-0.5,-0.1,-0.8,-0.5,-0.8,-0.5c0,0,0.4,0,0.9,0.2Z" class="g5_3" />
<path d="M207.3,482.1c0.4,0.1,0.8,0.5,0.8,0.5c0,0,-0.5,0,-1,-0.2c-0.4,-0.1,-0.8,-0.4,-0.8,-0.4c0,0,0.5,-0.1,1,0.1Z" class="g5_3" />
<path d="M209.5,482.9c0.5,0.1,0.9,0.4,0.9,0.4c0,0,-0.5,0.1,-1,-0.1c-0.5,-0.1,-0.8,-0.5,-0.8,-0.5c0,0,0.5,0,0.9,0.2Z" class="g5_3" />
<path d="M211.8,483.6c0.5,0.1,0.9,0.4,0.9,0.4c0,0,-0.5,0.1,-1,-0.1c-0.5,-0.1,-0.8,-0.4,-0.8,-0.4c0,0,0.5,-0.1,0.9,0.1Z" class="g5_3" />
<path d="M214.2,484.3c0.4,0.1,0.8,0.4,0.8,0.4c0,0,-0.5,0.1,-1,-0.1c-0.4,-0.1,-0.8,-0.4,-0.8,-0.4c0,0,0.5,-0.1,1,0.1Z" class="g5_3" />
<path d="M216.5,484.9c0.5,0.1,0.8,0.4,0.8,0.4c0,0,-0.4,0.1,-0.9,-0.1c-0.5,-0.1,-0.9,-0.4,-0.9,-0.4c0,0,0.5,-0.1,1,0.1Z" class="g5_3" />
<path d="M218.8,485.4c0.5,0.1,0.9,0.3,0.9,0.3c0,0,-0.4,0.2,-1,0c-0.5,-0.1,-0.8,-0.3,-0.8,-0.3c0,0,0.4,-0.1,0.9,0Z" class="g5_3" />
<path d="M221.2,485.7c0.5,0.1,0.9,0.3,0.9,0.3c0,0,-0.4,0.1,-1,0.1c-0.5,0,-0.9,-0.3,-0.9,-0.3c0,0,0.5,-0.1,1,-0.1Z" class="g5_3" />
<path d="M223.6,485.8c0.5,0,0.9,0,0.9,0c0,-0.1,-0.4,0.3,-0.9,0.3c-0.5,0.1,-1,-0.1,-1,-0.1c0.1,0,0.5,-0.2,1,-0.2Z" class="g5_3" />
<path d="M310.1,265.1l-9.3,7.4c0,0,9,16.2,25.2,24.7c22.3,11.7,35.3,11.8,35.3,11.8l-0.2,-14.4c0,0,-20.4,-5.5,-30.3,-12.3c-10,-6.9,-20.7,-17.2,-20.7,-17.2Z" class="g1_3" />
<path d="M412.7,265.1l9.3,7.4c0,0,-8.9,16.2,-25.1,24.7C374.6,308.9,361.5,309,361.5,309l-0.2,-14.1c0,0,20.8,-5.8,30.8,-12.6c9.9,-6.9,20.6,-17.2,20.6,-17.2Z" class="g1_3" />
<image preserveAspectRatio="none" x="246" y="408" width="93" height="210" opacity="0.30000302" style="mix-blend-mode: multiply;" xlink:href="3/img/6.png" />
<image preserveAspectRatio="none" x="438" y="514" width="52" height="134" opacity="0.39999402" style="mix-blend-mode: multiply;" xlink:href="3/img/7.png" />
<image preserveAspectRatio="none" x="414" y="570" width="63" height="112" opacity="0.30000302" style="mix-blend-mode: multiply;" xlink:href="3/img/8.png" />
<image preserveAspectRatio="none" x="275" y="644" width="186" height="67" opacity="0.30000302" style="mix-blend-mode: multiply;" xlink:href="3/img/9.png" />
<image preserveAspectRatio="none" x="277" y="531" width="42" height="93" opacity="0.30000302" style="mix-blend-mode: multiply;" xlink:href="3/img/10.png" />
<image preserveAspectRatio="none" x="208" y="358" width="36" height="89" opacity="0.30000302" style="mix-blend-mode: multiply;" xlink:href="3/img/11.png" />
<image preserveAspectRatio="none" x="516" y="411" width="34" height="74" opacity="0.30000302" style="mix-blend-mode: multiply;" xlink:href="3/img/12.png" />
<image preserveAspectRatio="none" x="503" y="356" width="38" height="109" opacity="0.30000302" style="mix-blend-mode: multiply;" xlink:href="3/img/13.png" />
<path d="M309.3,265.7L299.2,273c0,0,10.6,17.5,26.8,26c22.3,11.7,35.3,11.8,35.3,11.8l-0.2,-14.4c0,0,-20.4,-5.5,-30.3,-12.4c-10,-6.8,-21.5,-18.3,-21.5,-18.3Z" class="g5_3" />
<path d="M413.5,265.7l8.6,6.8c0,0,-9,18,-25.2,26.5c-22.3,11.7,-35.4,11.8,-35.4,11.8l-0.2,-14.2c0,0,20.8,-5.7,30.8,-12.6c9.9,-6.8,21.4,-18.3,21.4,-18.3Z" class="g5_3" />
<path d="M361.5,369.4l-2.4,0c-0.5,0,-0.8,-0.4,-0.8,-0.8l0,-73.3c0,-0.4,0.3,-0.8,0.8,-0.8l3.1,0.1l0.1,74c0,0.4,-0.3,0.8,-0.8,0.8Z" class="g1_3" />
<path d="M363.3,369.4l-2.4,0c-0.5,0,-0.9,-0.4,-0.9,-0.9l0,-71.4c0,-0.5,0.4,-0.9,0.9,-0.9l2.4,0c0.5,0,0.9,0.4,0.9,0.9l0,71.4c0,0.5,-0.4,0.9,-0.9,0.9Z" class="g5_3" />
<path d="M371.2,304.8l0,0.8" class="g7_3" />
<path d="M371.2,307.1l0,60.3" class="g8_3" />
<path d="M371.2,368.2l0,0.8" class="g7_3" />
<path d="M371.1,304.1c0,0,12.8,-2.6,26.1,-11.2c13.4,-8.7,18.4,-14,21,-16.8c2.6,-2.9,3.2,-3.8,3.2,-3.8" class="g3_3" />
<path d="M357.8,305.5c0,0,-20.4,-3.4,-33.7,-12.1c-13.4,-8.7,-18.4,-13.9,-21,-16.8c-2.6,-2.8,-3.2,-3.7,-3.2,-3.7" class="g3_3" />
<path d="M370.5,369.5l-0.8,0" class="g7_3" />
<path d="M368.3,369.5l-5.2,0" class="g8_3" />
<path d="M362.3,369.5l-0.7,0" class="g7_3" />
<image x="235" y="392" width="31" height="311" xlink:href="3/shade/6.png" />
<image x="484" y="388" width="32" height="311" xlink:href="3/shade/7.png" />
<path d="M433.7,363.8c-0.5,0.4,-0.8,0.6,-1.7,0.6l-1.9,0l0,-4.6l1.9,0c0.9,0,1.3,0.2,1.7,0.6c0.4,0.4,0.6,1,0.6,1.7c0,0.7,-0.2,1.3,-0.6,1.7M432,359l-2.7,0l0,6.1l2.7,0c1.2,0,1.7,-0.3,2.3,-0.8c0.6,-0.5,0.9,-1.3,0.9,-2.2c0,-0.9,-0.3,-1.7,-0.9,-2.2C433.8,359.4,433.2,359,432,359Z" class="g9_3" />
<path d="M442.7,359l-0.8,0l0,6.1l4.7,0l0,-0.7l-3.9,0Z" class="g9_3" />
<path d="M451.1,359l-5.6,0l0,0.8l2.4,0l0,5.3l0.8,0l0,-5.3l2.4,0Z" class="g9_3" />
<path d="M427,366.4l0.4,0l0,-8.6l-0.4,0l0,8.6Z" class="g10_3" />
<path d="M422.4,362.1l0,0.3l2,0l0,1.6c-0.5,0.3,-1.2,0.6,-2,0.6c-1.6,0,-2.5,-1.2,-2.5,-2.5c0,-1.4,1,-2.5,2.5,-2.5c0.7,0,1.6,0.3,2.1,0.8l0.6,-0.5c-0.8,-0.7,-1.8,-1,-2.7,-1c-1.9,0,-3.4,1.4,-3.4,3.2c0,1.8,1.5,3.2,3.4,3.2c1,0,2,-0.4,2.7,-0.9l0,-2.7l-2.7,0Z" class="g9_3" />
<path d="M436.8,362.4l2.4,0l0,-0.3l0,-0.4l-2.4,0l0,-1.9l4,0l0,-0.8l-4.9,0l0,6.1l5.2,0l0,-0.7l-4.3,0Z" class="g9_3" />
<path d="M415.7,359l-3.6,6.1l0.9,0l1.1,-1.8l1.7,0l0,-0.7l-1.4,0l1.4,-2.3l2.8,4.8l0.8,0L415.9,359Z" class="g9_3" />
<path d="M454.1,359l-0.3,0l-3.5,6.1l0.9,0l2.8,-4.8l1.3,2.3l-1.3,0l0,0.7l1.7,0l1.1,1.8l0.8,0Z" class="g9_3" />
<path d="M132,46.1c-1.5,1.2,-2.7,1.9,-5.6,1.9l-6.2,0l0,-15.4l6.2,0c2.9,0,4.3,0.8,5.7,2c1.3,1.5,2.1,3.5,2.1,5.7c0,2.3,-0.8,4.3,-2.2,5.8M126.5,30.2l-8.9,0l0,20.2l8.9,0c3.8,0,5.7,-1,7.6,-2.7c1.8,-1.8,2.9,-4.5,2.9,-7.4c0,-2.9,-1,-5.5,-2.8,-7.3c-1.8,-1.7,-3.9,-2.8,-7.7,-2.8Z" class="g9_3" />
<path d="M162,30.2l-2.7,0l0,20.2l15.4,0l0,-2.4L162,48Z" class="g9_3" />
<path d="M189.7,30.2l-18.3,0l0,2.4l7.8,0l0,17.8l2.7,0l0,-17.8l7.8,0Z" class="g9_3" />
<path d="M110,54.6l1.4,0l0,-28.6L110,26l0,28.6Z" class="g11_3" />
<path d="M94.8,40.3l0,1.2l6.5,0l0,5.1c-1.5,1.2,-4.1,1.9,-6.5,1.9c-5.3,0,-8.5,-3.9,-8.5,-8.2c0,-4.5,3.5,-8.2,8.3,-8.2c2.5,0,5.3,1,7.1,2.7l1.9,-1.7C101,30.9,97.7,29.7,94.5,29.7c-6.1,0,-11,4.7,-11,10.6c0,5.9,4.8,10.6,11.2,10.6c3.2,0,6.6,-1.2,9.1,-3l0,-8.8l-9,0Z" class="g9_3" />
<path d="M142.2,41.5l8.2,0l0,-1.2l0,-1.2l-8.2,0l0,-6.5l13.6,0l0,-2.4l-16.2,0l0,20.2l16.9,0l0,-2.4l-14.3,0Z" class="g9_3" />
<path d="M72.3,30.2L60.7,50.4l2.8,0L67,44.3l5.7,0l0,-2.1l-4.4,0l4.4,-7.8l9.3,16l2.8,0L73.2,30.2Z" class="g9_3" />
<path d="M199.7,30.2l-0.9,0L187.2,50.4l2.8,0l9.2,-16l4.5,7.8l-4.4,0l0,2.1l5.7,0l3.5,6.1l2.8,0Z" class="g9_3" />
<path d="M0.7,90.6l1283.3,0" class="g12_3" />
<text 
x="22" 
y="69" 
dx="0,0,-0.2,0,0,0,0,-0.1,0,-0.2,0,0,0,0,0,0,-0.1,0,0,0,0,0,0,0" 
class="s2_3"
>Brand Merchandize Design</text>

<path d="M228.1,79.4l0,-56.4" class="g12_3" />
<path d="M5.8,74.9l-5.6,0l0,-55.8l5.6,0l0,55.8Z" class="g13_3" />
<text 
x="258" 
y="65" 
dx="0,-3.2,0,0,0,0,0,-1.1,0,0,-1.8,0,0,0,-0.5,0,0,0,-1.2,0,0" 
class="s3_3"
>T-Shirt - White (Red)</text>

<text 
x="1166" 
y="36" 
dx="0,-0.2,0,-0.1,0,0,-0.3,0,-0.1,0,0,0,0,0" 
class="s4_3"
>Latest Modied</text>

<text 
x="1192" 
y="52" 
dx="0,0,0,0,0,0,0,0,0,0" 
class="s4_3"
>25/05/2017</text>

<text 
x="1193" 
y="69" 
dx="0,-1.4,0,0,0,0,0,0,0,0" 
class="s4_3"
>Tonia Chen</text>



<!-- Any embedded fonts defined here -->
<style type="text/css" ><![CDATA[

@font-face {
	font-family: SofiaProLight_5;
	src: url("fonts/SofiaProLight_5.woff") format("woff");
}

]]></style>

</svg>
