<?xml version="1.0" encoding="UTF-8" standalone="no"?>
<!DOCTYPE svg PUBLIC "-//W3C//DTD SVG 1.1//EN"
"http://www.w3.org/Graphics/SVG/1.1/DTD/svg11.dtd">


<!-- Page 1 -->
<svg x="0" y="0" width="3025" height="25773" viewBox="0 0 3025 25773" version="1.1" xmlns="http://www.w3.org/2000/svg" xmlns:xlink="http://www.w3.org/1999/xlink"
style="display: block;margin-left: auto;margin-right: auto;">
<defs>
<clipPath id="c0_1"><path d="M0,2771.4L0,0L3025,0l0,2771.4Z" /></clipPath>
<clipPath id="c1_1"><path d="M0,13400.7L0,8333.2L3025,4782.7l0,5593L0,13400.7Z" /></clipPath>
<clipPath id="c2_1"><path d="M0,25773.6l0,-4989L3025,17234.1l0,5593L78.5,25773.6Z" /></clipPath>
<clipPath id="c3_1"><path d="M308.6,1289.4l0,-24.4l256.7,0l0,24.4Z" /></clipPath>
<clipPath id="c4_1"><path d="M308.6,3300l0,-24.4l256.7,0l0,24.4Z" /></clipPath>
<clipPath id="c5_1"><path d="M308.6,6300.6l0,-24.5l256.7,0l0,24.5Z" /></clipPath>
<clipPath id="c6_1"><path d="M308.6,8989.4l0,-24.4l256.7,0l0,24.4Z" /></clipPath>
<clipPath id="c7_1"><path d="M308.6,11213.9l0,-24.5l256.7,0l0,24.5Z" /></clipPath>
<clipPath id="c8_1"><path d="M308.6,13523.9l0,-24.5l256.7,0l0,24.5Z" /></clipPath>
<clipPath id="c9_1"><path d="M308.6,15901.1l0,-24.4l256.7,0l0,24.4Z" /></clipPath>
<clipPath id="c10_1"><path d="M308.6,18033.9l0,-24.5l256.7,0l0,24.5Z" /></clipPath>
<clipPath id="c11_1"><path d="M308.6,21547.8l0,-24.5l256.7,0l0,24.5Z" /></clipPath>

<style type="text/css"><![CDATA[

.g1_1{
fill: #FFFFFF;
}
.g2_1{
fill-opacity: 0.39260003;
}
.g3_1{
}
.g4_1{
fill: #D8D8D8;
fill-opacity: 0.3;
}
.g5_1{
fill: #4A4A4A;
}
.g6_1{
fill: none;
stroke: #979797;
stroke-width: 3.0555556;
stroke-linecap: butt;
stroke-linejoin: miter;
}

.s1_1{
font-size: 305.56px;
font-family: HelveticaNeue_10;
fill: #FFFFFF;
}
.s2_1{
font-size: 195.56px;
font-family: HelveticaNeue_10;
fill: #4A4A4A;
}
.s3_1{
font-size: 110.00px;
font-family: HelveticaNeue_10;
fill: #FFFFFF;
}

]]></style>

</defs>
<path d="M0,0
L0,25773
L3025,25773
L3025,0 Z " 
fill="#FFFFFF" stroke="none" />
<path d="M0,25773.6l3025,0L3025,0L0,0L0,25773.6Z" class="g1_1" />
<path d="M0,25773.6l3025,0L3025,0L0,0L0,25773.6Z" class="g1_1" />
<g clip-path="url(#c0_1)">
<path d="M-15.2,2786.7l5347.1,0l0,-3046.3l-5347.1,0l0,3046.3Z" class="g2_1" />
<path d="M-15.2,2801.9l3364.1,0l0,-2817.1l-3364.1,0l0,2817.1Z" class="g3_1" />
</g>
<image preserveAspectRatio="none" x="-207" y="-436" width="5713" height="3406" xlink:href="1/img/1.png" />
<image preserveAspectRatio="none" x="-207" y="-436" width="5713" height="3406" xlink:href="1/img/2.png" />
<g clip-path="url(#c1_1)">
<path d="M-843.2,14244l5441,0l0,-11197.6l-5441,0l0,11197.6Z" class="g4_1" />
</g>
<g clip-path="url(#c2_1)">
<path d="M-843.2,26695.4l5441,0l0,-11197.6l-5441,0l0,11197.6Z" class="g4_1" />
</g>
<text 
x="308" 
y="537" 
dx="0,0,0,0,0,0,0,0,0,0,0,0,0,0" 
class="s1_1"
>DIGITAL WEALTH</text>

<text 
x="308" 
y="892" 
dx="0,0,0,0,0,0,0,0" 
class="s1_1"
>PLATFORM</text>

<text 
x="308" 
y="3559" 
dx="0,0,0,0,0,0,0,0,0" 
class="s2_1"
>Dashboard</text>

<text 
x="308" 
y="1481" 
dx="0,0,0,0" 
class="s3_1"
>OEMS</text>

<text 
x="308" 
y="1610" 
dx="0,0,0,0,0,0,0,0,0,0" 
class="s3_1"
>COMPLIANCE</text>

<text 
x="308" 
y="1738" 
dx="0,0,0,0,0,0,0,0,0,0,0,0,0,0,0,0" 
class="s3_1"
>DIGITAL ADVISORY</text>

<g clip-path="url(#c3_1)">
<path d="M293.3,1304.7l287.3,0l0,-55l-287.3,0l0,55Z" class="g1_1" />
</g>
<g clip-path="url(#c4_1)">
<path d="M293.3,3315.3l287.3,0l0,-55l-287.3,0l0,55Z" class="g5_1" />
</g>
<text 
x="308" 
y="6560" 
dx="0,0,0,0,0,0,0,0,0,0,0,0,0,0,0,0,0,0,0,0,0,0,0,0,0,0" 
class="s2_1"
>Morning Run / Pricing Grid</text>

<g clip-path="url(#c5_1)">
<path d="M293.3,6315.8l287.3,0l0,-55l-287.3,0l0,55Z" class="g5_1" />
</g>
<text 
x="308" 
y="9249" 
dx="0,0,0" 
class="s2_1"
>RFQ</text>

<g clip-path="url(#c6_1)">
<path d="M293.3,9004.7l287.3,0l0,-55l-287.3,0l0,55Z" class="g5_1" />
</g>
<text 
x="308" 
y="11473" 
dx="0,0,0,0,0,0,0,0,0,0,0,0,0" 
class="s2_1"
>Quote Blotter</text>

<g clip-path="url(#c7_1)">
<path d="M293.3,11229.2l287.3,0l0,-55l-287.3,0l0,55Z" class="g5_1" />
</g>
<text 
x="308" 
y="13783" 
dx="0,0,0,0,0,0,0,0,0,0,0" 
class="s2_1"
>Order Entry</text>

<g clip-path="url(#c8_1)">
<path d="M293.3,13539.2l287.3,0l0,-55l-287.3,0l0,55Z" class="g5_1" />
</g>
<image preserveAspectRatio="none" x="309" y="3743" width="1579" height="2212" xlink:href="1/img/3.png" />
<image preserveAspectRatio="none" x="1023" y="4172" width="1732" height="1784" xlink:href="1/img/4.png" />
<image preserveAspectRatio="none" x="309" y="9292" width="2444" height="1665" xlink:href="1/img/5.png" />
<image preserveAspectRatio="none" x="309" y="6603" width="2444" height="2041" xlink:href="1/img/6.png" />
<image preserveAspectRatio="none" x="309" y="11516" width="2444" height="1815" xlink:href="1/img/7.png" />
<text 
x="308" 
y="16160" 
dx="0,0" 
class="s2_1"
>FX</text>

<g clip-path="url(#c9_1)">
<path d="M293.3,15916.4l287.3,0l0,-55l-287.3,0l0,55Z" class="g5_1" />
</g>
<image preserveAspectRatio="none" x="309" y="16204" width="2444" height="1665" xlink:href="1/img/8.png" />
<text 
x="308" 
y="18293" 
dx="0,0,0,0,0,0,0,0,0,0,0,0,0,0,0" 
class="s2_1"
>Investment Idea</text>

<g clip-path="url(#c10_1)">
<path d="M293.3,18049.2l287.3,0l0,-55l-287.3,0l0,55Z" class="g5_1" />
</g>
<text 
x="308" 
y="21807" 
dx="0,0,0,0,0,0,0,0,0,0,0,0" 
class="s2_1"
>Admin Module</text>

<g clip-path="url(#c11_1)">
<path d="M293.3,21563.1l287.3,0l0,-55l-287.3,0l0,55Z" class="g5_1" />
</g>
<image preserveAspectRatio="none" x="238" y="21850" width="2607" height="3377" xlink:href="1/img/9.png" />
<image preserveAspectRatio="none" x="156" y="18336" width="2469" height="2760" xlink:href="1/img/10.png" />
<image preserveAspectRatio="none" x="639" y="19519" width="2267" height="1839" xlink:href="1/img/11.png" />
<path d="M638.6,19518.9l2267.2,0l0,1839.4l-2267.2,0l0,-1839.4Z" class="g6_1" />
<image preserveAspectRatio="none" x="309" y="13826" width="2444" height="1883" xlink:href="1/img/12.png" />
<image preserveAspectRatio="none" x="2693" y="4931" width="20" height="57" xlink:href="1/img/13.png" />


<!-- Any embedded fonts defined here -->
<style type="text/css" ><![CDATA[

@font-face {
	font-family: HelveticaNeue_10;
	src: url("fonts/HelveticaNeue_10.woff") format("woff");
}

]]></style>

</svg>
